<?xml version='1.0' encoding='UTF-8' standalone='no'?>
<svg height="432pt" width="576pt" xmlns="http://www.w3.org/2000/svg" viewBox="0 0 576 432" xmlns:xlink="http://www.w3.org/1999/xlink">
 <title>gl2ps_renderer figure</title>
 <desc>
Creator: GL2PS 1.4.0, (C) 1999-2017 C. Geuzaine
For: Octave
CreationDate: Fri Jul 03 13:39:19 2020
</desc>
 <defs/>
 <polygon fill="#ffffff" points="0,0 576,0 576,432 0,432"/>
 <g>
  <polygon shape-rendering="crispEdges" fill="#ffffff" points="0,432 576,432 576,0 0,0"/>
  <clipPath id="cp00576432">
   <polygon points="0,432 576,432 576,0 0,0"/>
  </clipPath>
  <g clip-path="url(#cp00576432)">
   <polygon shape-rendering="crispEdges" fill="#ffffff" points="92.0081,367.496 521.28,367.496 521.28,32.4 92.0081,32.4"/>
   <polyline stroke-width="0.5" fill="none" stroke-linecap="butt" stroke="#262626" stroke-dasharray="16,0" stroke-linejoin="miter" stroke-opacity="0.15" points="92.0081,367.496 92.0081,32.4"/>
   <polyline stroke-width="0.5" fill="none" stroke-linecap="butt" stroke="#262626" stroke-dasharray="16,0" stroke-linejoin="miter" stroke-opacity="0.15" points="159.249,367.496 159.249,32.4"/>
   <polyline stroke-width="0.5" fill="none" stroke-linecap="butt" stroke="#262626" stroke-dasharray="16,0" stroke-linejoin="miter" stroke-opacity="0.15" points="226.49,367.496 226.49,32.4"/>
   <polyline stroke-width="0.5" fill="none" stroke-linecap="butt" stroke="#262626" stroke-dasharray="16,0" stroke-linejoin="miter" stroke-opacity="0.15" points="293.731,367.496 293.731,32.4"/>
   <polyline stroke-width="0.5" fill="none" stroke-linecap="butt" stroke="#262626" stroke-dasharray="16,0" stroke-linejoin="miter" stroke-opacity="0.15" points="360.971,367.496 360.971,32.4"/>
   <polyline stroke-width="0.5" fill="none" stroke-linecap="butt" stroke="#262626" stroke-dasharray="16,0" stroke-linejoin="miter" stroke-opacity="0.15" points="428.212,367.496 428.212,32.4"/>
   <polyline stroke-width="0.5" fill="none" stroke-linecap="butt" stroke="#262626" stroke-dasharray="16,0" stroke-linejoin="miter" stroke-opacity="0.15" points="495.453,367.496 495.453,32.4"/>
   <polyline stroke-width="0.5" fill="none" stroke-linecap="butt" stroke="#262626" stroke-linejoin="miter" points="92.0081,367.496 92.0081,363.202"/>
   <polyline stroke-width="0.5" fill="none" stroke-linecap="butt" stroke="#262626" stroke-linejoin="miter" points="92.0081,32.4 92.0081,36.694"/>
   <polyline stroke-width="0.5" fill="none" stroke-linecap="butt" stroke="#262626" stroke-linejoin="miter" points="159.249,367.496 159.249,363.202"/>
   <polyline stroke-width="0.5" fill="none" stroke-linecap="butt" stroke="#262626" stroke-linejoin="miter" points="159.249,32.4 159.249,36.694"/>
   <polyline stroke-width="0.5" fill="none" stroke-linecap="butt" stroke="#262626" stroke-linejoin="miter" points="226.49,367.496 226.49,363.202"/>
   <polyline stroke-width="0.5" fill="none" stroke-linecap="butt" stroke="#262626" stroke-linejoin="miter" points="226.49,32.4 226.49,36.694"/>
   <polyline stroke-width="0.5" fill="none" stroke-linecap="butt" stroke="#262626" stroke-linejoin="miter" points="293.731,367.496 293.731,363.202"/>
   <polyline stroke-width="0.5" fill="none" stroke-linecap="butt" stroke="#262626" stroke-linejoin="miter" points="293.731,32.4 293.731,36.694"/>
   <polyline stroke-width="0.5" fill="none" stroke-linecap="butt" stroke="#262626" stroke-linejoin="miter" points="360.971,367.496 360.971,363.202"/>
   <polyline stroke-width="0.5" fill="none" stroke-linecap="butt" stroke="#262626" stroke-linejoin="miter" points="360.971,32.4 360.971,36.694"/>
   <polyline stroke-width="0.5" fill="none" stroke-linecap="butt" stroke="#262626" stroke-linejoin="miter" points="428.212,367.496 428.212,363.202"/>
   <polyline stroke-width="0.5" fill="none" stroke-linecap="butt" stroke="#262626" stroke-linejoin="miter" points="428.212,32.4 428.212,36.694"/>
   <polyline stroke-width="0.5" fill="none" stroke-linecap="butt" stroke="#262626" stroke-linejoin="miter" points="495.453,367.496 495.453,363.202"/>
   <polyline stroke-width="0.5" fill="none" stroke-linecap="butt" stroke="#262626" stroke-linejoin="miter" points="495.453,32.4 495.453,36.694"/>
   <text xml:space="preserve" font-size="18" transform="translate(87.5081,394) rotate(-0,4.5,-13)" font-family="CMU Serif" font-style="normal" font-weight="normal">
    <tspan x="0 " fill="rgb(38,38,38)" y="-0">0</tspan>
   </text>
   <text xml:space="preserve" font-size="18" transform="translate(154.749,394) rotate(-0,4.5,-13)" font-family="CMU Serif" font-style="normal" font-weight="normal">
    <tspan x="0 " fill="rgb(38,38,38)" y="-0">2</tspan>
   </text>
   <text xml:space="preserve" font-size="18" transform="translate(221.99,394) rotate(-0,4.5,-13)" font-family="CMU Serif" font-style="normal" font-weight="normal">
    <tspan x="0 " fill="rgb(38,38,38)" y="-0">4</tspan>
   </text>
   <text xml:space="preserve" font-size="18" transform="translate(289.231,394) rotate(-0,4.5,-13)" font-family="CMU Serif" font-style="normal" font-weight="normal">
    <tspan x="0 " fill="rgb(38,38,38)" y="-0">6</tspan>
   </text>
   <text xml:space="preserve" font-size="18" transform="translate(356.471,394) rotate(-0,4.5,-13)" font-family="CMU Serif" font-style="normal" font-weight="normal">
    <tspan x="0 " fill="rgb(38,38,38)" y="-0">8</tspan>
   </text>
   <text xml:space="preserve" font-size="18" transform="translate(419.212,394) rotate(-0,9,-13)" font-family="CMU Serif" font-style="normal" font-weight="normal">
    <tspan x="0 9 " fill="rgb(38,38,38)" y="-0">10</tspan>
   </text>
   <text xml:space="preserve" font-size="18" transform="translate(486.453,394) rotate(-0,9,-13)" font-family="CMU Serif" font-style="normal" font-weight="normal">
    <tspan x="0 9 " fill="rgb(38,38,38)" y="-0">12</tspan>
   </text>
   <polyline stroke-width="0.5" fill="none" stroke-linecap="butt" stroke="#262626" stroke-dasharray="16,0" stroke-linejoin="miter" stroke-opacity="0.15" points="92.0081,367.496 521.28,367.496"/>
   <polyline stroke-width="0.5" fill="none" stroke-linecap="butt" stroke="#262626" stroke-dasharray="16,0" stroke-linejoin="miter" stroke-opacity="0.15" points="92.0081,266.952 521.28,266.952"/>
   <polyline stroke-width="0.5" fill="none" stroke-linecap="butt" stroke="#262626" stroke-dasharray="16,0" stroke-linejoin="miter" stroke-opacity="0.15" points="92.0081,166.408 521.28,166.408"/>
   <polyline stroke-width="0.5" fill="none" stroke-linecap="butt" stroke="#262626" stroke-dasharray="16,0" stroke-linejoin="miter" stroke-opacity="0.15" points="92.0081,65.8635 521.28,65.8635"/>
   <polyline stroke-width="0.5" fill="none" stroke-linecap="butt" stroke="#262626" stroke-linejoin="miter" points="92.0081,367.496 96.3035,367.496"/>
   <polyline stroke-width="0.5" fill="none" stroke-linecap="butt" stroke="#262626" stroke-linejoin="miter" points="521.28,367.496 516.985,367.496"/>
   <polyline stroke-width="0.5" fill="none" stroke-linecap="butt" stroke="#262626" stroke-linejoin="miter" points="92.0081,266.952 96.3035,266.952"/>
   <polyline stroke-width="0.5" fill="none" stroke-linecap="butt" stroke="#262626" stroke-linejoin="miter" points="521.28,266.952 516.985,266.952"/>
   <polyline stroke-width="0.5" fill="none" stroke-linecap="butt" stroke="#262626" stroke-linejoin="miter" points="92.0081,166.408 96.3035,166.408"/>
   <polyline stroke-width="0.5" fill="none" stroke-linecap="butt" stroke="#262626" stroke-linejoin="miter" points="521.28,166.408 516.985,166.408"/>
   <polyline stroke-width="0.5" fill="none" stroke-linecap="butt" stroke="#262626" stroke-linejoin="miter" points="92.0081,65.8635 96.3035,65.8635"/>
   <polyline stroke-width="0.5" fill="none" stroke-linecap="butt" stroke="#262626" stroke-linejoin="miter" points="521.28,65.8635 516.985,65.8635"/>
   <text xml:space="preserve" font-size="18" transform="translate(74.0024,373.996) rotate(-0,9,-6.5)" font-family="CMU Serif" font-style="normal" font-weight="normal">
    <tspan x="0 " fill="rgb(38,38,38)" y="-0">0</tspan>
   </text>
   <text xml:space="preserve" font-size="18" transform="translate(47.0024,273.452) rotate(-0,36,-6.5)" font-family="CMU Serif" font-style="normal" font-weight="normal">
    <tspan x="0 9 18 27 " fill="rgb(38,38,38)" y="-0">5000</tspan>
   </text>
   <text xml:space="preserve" font-size="18" transform="translate(38.0024,172.908) rotate(-0,45,-6.5)" font-family="CMU Serif" font-style="normal" font-weight="normal">
    <tspan x="0 9 18 27 36 " fill="rgb(38,38,38)" y="-0">10000</tspan>
   </text>
   <text xml:space="preserve" font-size="18" transform="translate(38.0024,72.3635) rotate(-0,45,-6.5)" font-family="CMU Serif" font-style="normal" font-weight="normal">
    <tspan x="0 9 18 27 36 " fill="rgb(38,38,38)" y="-0">15000</tspan>
   </text>
   <polyline stroke-width="0.5" fill="none" stroke-linecap="square" stroke="#262626" stroke-dasharray="16,0" stroke-linejoin="miter" points="92.0081,367.496 521.28,367.496"/>
   <polyline stroke-width="0.5" fill="none" stroke-linecap="square" stroke="#262626" stroke-dasharray="16,0" stroke-linejoin="miter" points="92.0081,32.4 521.28,32.4"/>
   <polyline stroke-width="0.5" fill="none" stroke-linecap="square" stroke="#262626" stroke-dasharray="16,0" stroke-linejoin="miter" points="92.0081,367.496 92.0081,32.4"/>
   <polyline stroke-width="0.5" fill="none" stroke-linecap="square" stroke="#262626" stroke-dasharray="16,0" stroke-linejoin="miter" points="521.28,367.496 521.28,32.4"/>
   <text xml:space="preserve" font-size="19.8" transform="translate(266.644,432) rotate(-0,40,-33)" font-family="CMU Serif" font-style="normal" font-weight="normal">
    <tspan x="0 " fill="rgb(38,38,38)" y="-16">h</tspan>
    <tspan x="11 20 " font-size="17.8" fill="rgb(38,38,38)" y="-0">am</tspan>
    <tspan x="35 42 48 57 74 " fill="rgb(38,38,38)" y="-16"> [cm]</tspan>
   </text>
   <text xml:space="preserve" font-size="19.8" transform="translate(-14.4976,199.948) rotate(-90,47.5,0)" font-family="CMU Serif" font-style="normal" font-weight="normal">
    <tspan x="0 " fill="rgb(38,38,38)" y="-16">Q</tspan>
    <tspan x="16 25 " font-size="17.8" fill="rgb(38,38,38)" y="-0">am</tspan>
    <tspan x="40 47 53 64 74 89 " fill="rgb(38,38,38)" y="-16"> [daN]</tspan>
   </text>
   <polyline stroke-width="3" fill="none" stroke-linecap="butt" stroke="#0071bc" stroke-linejoin="round" points="92.0081,306.57 92.4373,305.839 92.8666,305.11 93.2959,304.383 93.7252,303.657 94.1544,302.932 94.5837,302.209 95.013,301.488 95.4422,300.767 95.8715,300.049 96.3008,299.331 96.7301,298.615 97.1593,297.901 97.5886,297.188 98.0179,296.477 98.4471,295.766 98.8764,295.058 99.3057,294.351 99.735,293.645 100.164,292.941 100.593,292.238 101.023,291.536 101.452,290.836 101.881,290.138 102.311,289.44 102.74,288.745 103.169,288.05 103.598,287.358 104.028,286.666 104.457,285.976 104.886,285.287 105.315,284.6 105.745,283.914 106.174,283.23 106.603,282.547 107.033,281.866 107.462,281.185 107.891,280.507 108.32,279.829 108.75,279.154 109.179,278.479 109.608,277.806 110.037,277.134 110.467,276.464 110.896,275.795 111.325,275.128 111.755,274.461 112.184,273.797 112.613,273.133 113.042,272.471 113.472,271.811 113.901,271.152 114.33,270.494 114.759,269.838 115.189,269.183 115.618,268.529 116.047,267.877 116.477,267.226 116.906,266.577 117.335,265.929 117.764,265.282 118.194,264.637 118.623,263.993 119.052,263.35 119.481,262.709 119.911,262.069 120.34,261.43 120.769,260.793 121.199,260.158 121.628,259.523 122.057,258.89 122.486,258.258 122.916,257.628 123.345,256.999 123.774,256.372 124.203,255.745 124.633,255.121 125.062,254.497 125.491,253.875 125.921,253.254 126.35,252.634 126.779,252.016 127.208,251.4 127.638,250.784 128.067,250.17 128.496,249.557 128.925,248.946 129.355,248.336 129.784,247.727 130.213,247.119 130.643,246.513 131.072,245.909 131.501,245.305 131.93,244.703 132.36,244.102 132.789,243.503 133.218,242.905 133.647,242.308 134.077,241.712 134.506,241.118 134.935,240.525 135.365,239.934 135.794,239.343 136.223,238.754 136.652,238.167 137.082,237.581 137.511,236.996 137.94,236.412 138.369,235.83 138.799,235.248 139.228,234.669 139.657,234.09 140.087,233.513 140.516,232.937 140.945,232.363 141.374,231.789 141.804,231.217 142.233,230.647 142.662,230.077 143.091,229.509 143.521,228.942 143.95,228.377 144.379,227.813 144.809,227.25 145.238,226.688 145.667,226.127 146.096,225.568 146.526,225.011 146.955,224.454 147.384,223.899 147.813,223.345 148.243,222.792 148.672,222.24 149.101,221.69 149.531,221.141 149.96,220.594 150.389,220.047 150.818,219.502 151.248,218.958 151.677,218.416 152.106,217.874 152.535,217.334 152.965,216.795 153.394,216.258 153.823,215.721 154.252,215.186 154.682,214.652 155.111,214.12 155.54,213.588 155.97,213.058 156.399,212.529 156.828,212.002 157.257,211.475 157.687,210.95 158.116,210.426 158.545,209.904 158.974,209.382 159.404,208.862 159.833,208.343 160.262,207.825 160.692,207.309 161.121,206.794 161.55,206.28 161.979,205.767 162.409,205.255 162.838,204.745 163.267,204.236 163.696,203.728 164.126,203.221 164.555,202.716 164.984,202.211 165.414,201.708 165.843,201.206 166.272,200.706 166.701,200.206 167.131,199.708 167.56,199.211 167.989,198.715 168.418,198.221 168.848,197.727 169.277,197.235 169.706,196.744 170.136,196.254 170.565,195.766 170.994,195.278 171.423,194.792 171.853,194.307 172.282,193.823 172.711,193.341 173.14,192.859 173.57,192.379 173.999,191.9 174.428,191.422 174.858,190.945 175.287,190.47 175.716,189.995 176.145,189.522 176.575,189.05 177.004,188.579 177.433,188.109 177.862,187.641 178.292,187.174 178.721,186.707 179.15,186.242 179.58,185.779 180.009,185.316 180.438,184.854 180.867,184.394 181.297,183.935 181.726,183.477 182.155,183.02 182.584,182.564 183.014,182.11 183.443,181.656 183.872,181.204 184.302,180.753 184.731,180.303 185.16,179.854 185.589,179.407 186.019,178.96 186.448,178.515 186.877,178.07 187.306,177.627 187.736,177.185 188.165,176.744 188.594,176.305 189.024,175.866 189.453,175.429 189.882,174.992 190.311,174.557 190.741,174.123 191.17,173.69 191.599,173.259 192.028,172.828 192.458,172.398 192.887,171.97 193.316,171.543 193.746,171.116 194.175,170.691 194.604,170.267 195.033,169.845 195.463,169.423 195.892,169.002 196.321,168.583 196.75,168.164 197.18,167.747 197.609,167.331 198.038,166.916 198.467,166.502 198.897,166.089 199.326,165.677 199.755,165.266 200.185,164.857 200.614,164.448 201.043,164.041 201.472,163.634 201.902,163.229 202.331,162.825 202.76,162.422 203.189,162.02 203.619,161.619 204.048,161.219 204.477,160.82 204.907,160.423 205.336,160.026 205.765,159.631 206.194,159.236 206.624,158.843 207.053,158.451 207.482,158.059 207.911,157.669 208.341,157.28 208.77,156.892 209.199,156.505 209.629,156.119 210.058,155.734 210.487,155.351 210.916,154.968 211.346,154.586 211.775,154.206 212.204,153.826 212.633,153.448 213.063,153.07 213.492,152.694 213.921,152.319 214.351,151.944 214.78,151.571 215.209,151.199 215.638,150.828 216.068,150.458 216.497,150.088 216.926,149.72 217.355,149.353 217.785,148.987 218.214,148.623 218.643,148.259 219.073,147.896 219.502,147.534 219.931,147.173 220.36,146.813 220.79,146.455 221.219,146.097 221.648,145.74 222.077,145.384 222.507,145.03 222.936,144.676 223.365,144.323 223.795,143.972 224.224,143.621 224.653,143.272 225.082,142.923 225.512,142.575 225.941,142.229 226.37,141.883 226.799,141.539 227.229,141.195 227.658,140.853 228.087,140.511 228.517,140.17 228.946,139.831 229.375,139.492 229.804,139.155 230.234,138.818 230.663,138.483 231.092,138.148 231.521,137.814 231.951,137.482 232.38,137.15 232.809,136.819 233.239,136.49 233.668,136.161 234.097,135.833 234.526,135.507 234.956,135.181 235.385,134.856 235.814,134.532 236.243,134.21 236.673,133.888 237.102,133.567 237.531,133.247 237.961,132.928 238.39,132.61 238.819,132.293 239.248,131.977 239.678,131.662 240.107,131.348 240.536,131.034 240.965,130.722 241.395,130.411 241.824,130.1 242.253,129.791 242.683,129.483 243.112,129.175 243.541,128.869 243.97,128.563 244.4,128.258 244.829,127.955 245.258,127.652 245.687,127.35 246.117,127.049 246.546,126.749 246.975,126.45 247.405,126.152 247.834,125.855 248.263,125.559 248.692,125.264 249.122,124.969 249.551,124.676 249.98,124.384 250.409,124.092 250.839,123.801 251.268,123.512 251.697,123.223 252.126,122.935 252.556,122.648 252.985,122.362 253.414,122.077 253.844,121.793 254.273,121.509 254.702,121.227 255.131,120.945 255.561,120.665 255.99,120.385 256.419,120.106 256.848,119.828 257.278,119.551 257.707,119.275 258.136,119 258.566,118.726 258.995,118.453 259.424,118.18 259.853,117.908 260.283,117.638 260.712,117.368 261.141,117.099 261.57,116.831 262,116.564 262.429,116.297 262.858,116.032 263.288,115.768 263.717,115.504 264.146,115.241 264.575,114.979 265.005,114.718 265.434,114.458 265.863,114.199 266.292,113.94 266.722,113.683 267.151,113.426 267.58,113.17 268.01,112.915 268.439,112.661 268.868,112.408 269.297,112.156 269.727,111.904 270.156,111.654 270.585,111.404 271.014,111.155 271.444,110.907 271.873,110.66 272.302,110.413 272.732,110.168 273.161,109.923 273.59,109.679 274.019,109.436 274.449,109.194 274.878,108.953 275.307,108.712 275.736,108.473 276.166,108.234 276.595,107.996 277.024,107.759 277.454,107.523 277.883,107.287 278.312,107.052 278.741,106.819 279.171,106.586 279.6,106.354 280.029,106.122 280.458,105.892 280.888,105.662 281.317,105.433 281.746,105.205 282.176,104.978 282.605,104.751 283.034,104.526 283.463,104.301 283.893,104.077 284.322,103.854 284.751,103.632 285.18,103.41 285.61,103.189 286.039,102.969 286.468,102.75 286.898,102.532 287.327,102.314 287.756,102.097 288.185,101.881 288.615,101.666 289.044,101.452 289.473,101.238 289.902,101.025 290.332,100.813 290.761,100.602 291.19,100.392 291.62,100.182 292.049,99.9733 292.478,99.7651 292.907,99.5578 293.337,99.3513 293.766,99.1455 294.195,98.9406 294.624,98.7364 295.054,98.5329 295.483,98.3303 295.912,98.1284 296.341,97.9272 296.771,97.7269 297.2,97.5273 297.629,97.3284 298.059,97.1304 298.488,96.933 298.917,96.7365 299.346,96.5407 299.776,96.3456 300.205,96.1513 300.634,95.9578 301.064,95.765 301.493,95.573 301.922,95.3817 302.351,95.1912 302.781,95.0014 303.21,94.8123 303.639,94.624 304.068,94.4365 304.498,94.2496 304.927,94.0635 305.356,93.8782 305.785,93.6936 306.215,93.5097 306.644,93.3266 307.073,93.1442 307.503,92.9625 307.932,92.7815 308.361,92.6013 308.79,92.4218 309.22,92.243 309.649,92.0649 310.078,91.8876 310.507,91.711 310.937,91.5351 311.366,91.3599 311.795,91.1854 312.225,91.0117 312.654,90.8387 313.083,90.6663 313.512,90.4947 313.942,90.3238 314.371,90.1536 314.8,89.984 315.229,89.8153 315.659,89.6472 316.088,89.4798 316.517,89.313 316.947,89.147 317.376,88.9818 317.805,88.8171 318.234,88.6532 318.664,88.49 319.093,88.3275 319.522,88.1656 319.951,88.0045 320.381,87.844 320.81,87.6842 321.239,87.5251 321.669,87.3666 322.098,87.2089 322.527,87.0518 322.956,86.8954 323.386,86.7397 323.815,86.5847 324.244,86.4303 324.673,86.2766 325.103,86.1236 325.532,85.9713 325.961,85.8195 326.391,85.6685 326.82,85.5182 327.249,85.3684 327.678,85.2194 328.108,85.071 328.537,84.9233 328.966,84.7762 329.395,84.6299 329.825,84.4841 330.254,84.339 330.683,84.1945 331.113,84.0507 331.542,83.9076 331.971,83.765 332.4,83.6232 332.83,83.4819 333.259,83.3413 333.688,83.2014 334.117,83.0621 334.547,82.9234 334.976,82.7854 335.405,82.648 335.835,82.5113 336.264,82.3751 336.693,82.2397 337.122,82.1048 337.552,81.9706 337.981,81.8369 338.41,81.7039 338.839,81.5716 339.269,81.4398 339.698,81.3087 340.127,81.1782 340.557,81.0483 340.986,80.919 341.415,80.7903 341.844,80.6623 342.274,80.5349 342.703,80.408 343.132,80.2818 343.561,80.1562 343.991,80.0312 344.42,79.9068 344.849,79.783 345.279,79.6598 345.708,79.5372 346.137,79.4152 346.566,79.2938 346.996,79.173 347.425,79.0527 347.854,78.9331 348.283,78.8141 348.713,78.6956 349.142,78.5778 349.571,78.4605 350,78.3438 350.43,78.2277 350.859,78.1122 351.288,77.9972 351.718,77.8829 352.147,77.7691 352.576,77.6559 353.005,77.5432 353.435,77.4312 353.864,77.3197 354.293,77.2088 354.723,77.0984 355.152,76.9886 355.581,76.8795 356.01,76.7708 356.44,76.6627 356.869,76.5552 357.298,76.4482 357.727,76.3418 358.157,76.2359 358.586,76.1306 359.015,76.0259 359.444,75.9217 359.874,75.8181 360.303,75.715 360.732,75.6124 361.162,75.5104 361.591,75.409 362.02,75.3081 362.449,75.2077 362.879,75.1079 363.308,75.0086 363.737,74.9099 364.166,74.8117 364.596,74.714 365.025,74.6169 365.454,74.5203 365.884,74.4242 366.313,74.3287 366.742,74.2336 367.171,74.1392 367.601,74.0452 368.03,73.9518 368.459,73.8589 368.888,73.7664 369.318,73.6746 369.747,73.5832 370.176,73.4923 370.606,73.402 371.035,73.3122 371.464,73.2229 371.893,73.1341 372.323,73.0458 372.752,72.958 373.181,72.8708 373.61,72.784 374.04,72.6977 374.469,72.612 374.898,72.5267 375.328,72.442 375.757,72.3576 376.186,72.2739 376.615,72.1906 377.045,72.1078 377.474,72.0255 377.903,71.9437 378.332,71.8624 378.762,71.7816 379.191,71.7012 379.62,71.6214 380.05,71.542 380.479,71.4631 380.908,71.3846 381.337,71.3067 381.767,71.2293 382.196,71.1523 382.625,71.0758 383.054,70.9997 383.484,70.9242 383.913,70.8491 384.342,70.7744 384.772,70.7003 385.201,70.6266 385.63,70.5533 386.059,70.4805 386.489,70.4082 386.918,70.3364 387.347,70.265 387.776,70.194 388.206,70.1235 388.635,70.0535 389.064,69.9839 389.494,69.9148 389.923,69.8461 390.352,69.7779 390.781,69.7101 391.211,69.6428 391.64,69.5758 392.069,69.5094 392.498,69.4434 392.928,69.3778 393.357,69.3127 393.786,69.2479 394.216,69.1836 394.645,69.1198 395.074,69.0564 395.503,68.9934 395.933,68.9309 396.362,68.8687 396.791,68.807 397.22,68.7458 397.65,68.6849 398.079,68.6245 398.508,68.5645 398.938,68.5049 399.367,68.4457 399.796,68.3869 400.225,68.3286 400.655,68.2707 401.084,68.2131 401.513,68.156 401.942,68.0993 402.372,68.043 402.801,67.9871 403.23,67.9316 403.659,67.8765 404.089,67.8218 404.518,67.7675 404.947,67.7137 405.377,67.6602 405.806,67.607 406.235,67.5543 406.664,67.502 407.094,67.4501 407.523,67.3986 407.952,67.3474 408.382,67.2967 408.811,67.2463 409.24,67.1963 409.669,67.1467 410.099,67.0974 410.528,67.0486 410.957,67.0001 411.386,66.952 411.816,66.9043 412.245,66.8569 412.674,66.8099 413.103,66.7633 413.533,66.7171 413.962,66.6712 414.391,66.6257 414.821,66.5805 415.25,66.5357 415.679,66.4913 416.108,66.4472 416.538,66.4036 416.967,66.3602 417.396,66.3172 417.825,66.2746 418.255,66.2323 418.684,66.1903 419.113,66.1488 419.543,66.1075 419.972,66.0666 420.401,66.0261 420.83,65.9859 421.26,65.946 421.689,65.9065 422.118,65.8673 422.547,65.8285 422.977,65.7899 423.406,65.7518 423.835,65.7139 424.265,65.6764 424.694,65.6393 425.123,65.6024 425.552,65.5659 425.982,65.5297 426.411,65.4938 426.84,65.4583 427.269,65.423 427.699,65.3882 428.128,65.3536 428.557,65.3193 428.987,65.2853 429.416,65.2517 429.845,65.2184 430.274,65.1854 430.704,65.1526 431.133,65.1203 431.562,65.0881 431.991,65.0564 432.421,65.0249 432.85,64.9937 433.279,64.9629 433.709,64.9323 434.138,64.902 434.567,64.872 434.996,64.8423 435.426,64.8129 435.855,64.7838 436.284,64.755 436.713,64.7265 437.143,64.6983 437.572,64.6703 438.001,64.6427 438.431,64.6153 438.86,64.5882 439.289,64.5614 439.718,64.5349 440.148,64.5086 440.577,64.4826 441.006,64.4569 441.435,64.4315 441.865,64.4063 442.294,64.3815 442.723,64.3568 443.152,64.3325 443.582,64.3084 444.011,64.2846 444.44,64.261 444.87,64.2377 445.299,64.2147 445.728,64.1919 446.157,64.1694 446.587,64.1471 447.016,64.1251 447.445,64.1034 447.875,64.0819 448.304,64.0606 448.733,64.0396 449.162,64.0189 449.592,63.9984 450.021,63.9781 450.45,63.958 450.879,63.9383 451.309,63.9187 451.738,63.8994 452.167,63.8803 452.596,63.8615 453.026,63.8429 453.455,63.8245 453.884,63.8064 454.314,63.7885 454.743,63.7708 455.172,63.7534 455.601,63.7361 456.031,63.7191 456.46,63.7024 456.889,63.6858 457.319,63.6694 457.748,63.6533 458.177,63.6374 458.606,63.6217 459.036,63.6063 459.465,63.591 459.894,63.5759 460.323,63.5611 460.753,63.5465 461.182,63.532 461.611,63.5178 462.04,63.5038 462.47,63.49 462.899,63.4763 463.328,63.4629 463.758,63.4497 464.187,63.4366 464.616,63.4238 465.045,63.4112 465.475,63.3987 465.904,63.3865 466.333,63.3744 466.762,63.3625 467.192,63.3508 467.621,63.3393 468.05,63.328 468.48,63.3168 468.909,63.3058 469.338,63.295 469.767,63.2844 470.197,63.274 470.626,63.2637 471.055,63.2536 471.484,63.2437 471.914,63.2339 472.343,63.2243 472.772,63.2149 473.202,63.2057 473.631,63.1966 474.06,63.1877 474.489,63.1789 474.919,63.1703 475.348,63.1618 475.777,63.1536 476.206,63.1454 476.636,63.1374 477.065,63.1296 477.494,63.1219 477.924,63.1144 478.353,63.107 478.782,63.0998 479.211,63.0927 479.641,63.0857 480.07,63.0789 480.499,63.0722 480.928,63.0657 481.358,63.0593 481.787,63.0531 482.216,63.0469 482.646,63.041 483.075,63.0351 483.504,63.0294 483.933,63.0237 484.363,63.0183 484.792,63.0129 485.221,63.0078 485.65,63.0027 486.08,62.9977 486.509,62.9928 486.938,62.9881 487.368,62.9835 487.797,62.9789 488.226,62.9745 488.655,62.9703 489.085,62.9661 489.514,62.962 489.943,62.9581 490.372,62.9543 490.802,62.9505 491.231,62.9469 491.66,62.9433 492.09,62.9399 492.519,62.9366 492.948,62.9333 493.377,62.9302 493.807,62.9272 494.236,62.9242 494.665,62.9214 495.094,62.9186 495.524,62.916 495.953,62.9133 496.382,62.9108 496.812,62.9084 497.241,62.9061 497.67,62.9038 498.099,62.9016 498.529,62.8996 498.958,62.8976 499.387,62.8956 499.816,62.8937 500.246,62.8919 500.675,62.8903 501.104,62.8886 501.534,62.887 501.963,62.8855 502.392,62.884 502.821,62.8827 503.251,62.8813 503.68,62.8801 504.109,62.8789 504.538,62.8777 504.968,62.8766 505.397,62.8756 505.826,62.8746 506.255,62.8737 506.685,62.8729 507.114,62.872 507.543,62.8713 507.973,62.8705 508.402,62.8698 508.831,62.8692 509.26,62.8686 509.69,62.8681 510.119,62.8676 510.548,62.8671 510.977,62.8667 511.407,62.8662 511.836,62.8659 512.265,62.8655 512.695,62.8652 513.124,62.865 513.553,62.8647 513.982,62.8645 514.412,62.8643 514.841,62.8641 515.27,62.864 515.699,62.8638 516.129,62.8637 516.558,62.8636 516.987,62.8635 517.417,62.8635 517.846,62.8634 518.275,62.8634 518.704,62.8633 519.134,62.8633 519.563,62.8633 519.992,62.8633 520.421,62.8633 520.851,62.8633 521.28,62.8633"/>
  </g>
 </g>
</svg>
