<?xml version='1.0' encoding='UTF-8' standalone='no'?>
<svg viewBox="0 0 576 432" xmlns:xlink="http://www.w3.org/1999/xlink" width="576pt" xmlns="http://www.w3.org/2000/svg" height="432pt">
 <title>gl2ps_renderer figure</title>
 <desc>
Creator: GL2PS 1.4.0, (C) 1999-2017 C. Geuzaine
For: Octave
CreationDate: Fri Jul 03 15:43:31 2020
</desc>
 <defs/>
 <polygon fill="#ffffff" points="0,0 576,0 576,432 0,432"/>
 <g>
  <polygon fill="#ffffff" points="0,432 576,432 576,0 0,0" shape-rendering="crispEdges"/>
  <clipPath id="cp00576432">
   <polygon points="0,432 576,432 576,0 0,0"/>
  </clipPath>
  <g clip-path="url(#cp00576432)">
   <polygon fill="#ffffff" points="74.88,367.496 521.28,367.496 521.28,32.4 74.88,32.4" shape-rendering="crispEdges"/>
   <polyline stroke-linecap="butt" fill="none" stroke="#262626" points="74.88,367.496 74.88,32.4" stroke-opacity="0.15" stroke-dasharray="16,0" stroke-width="0.5" stroke-linejoin="miter"/>
   <polyline stroke-linecap="butt" fill="none" stroke="#262626" points="138.977,367.496 138.977,32.4" stroke-opacity="0.15" stroke-dasharray="16,0" stroke-width="0.5" stroke-linejoin="miter"/>
   <polyline stroke-linecap="butt" fill="none" stroke="#262626" points="203.074,367.496 203.074,32.4" stroke-opacity="0.15" stroke-dasharray="16,0" stroke-width="0.5" stroke-linejoin="miter"/>
   <polyline stroke-linecap="butt" fill="none" stroke="#262626" points="267.17,367.496 267.17,32.4" stroke-opacity="0.15" stroke-dasharray="16,0" stroke-width="0.5" stroke-linejoin="miter"/>
   <polyline stroke-linecap="butt" fill="none" stroke="#262626" points="331.267,367.496 331.267,32.4" stroke-opacity="0.15" stroke-dasharray="16,0" stroke-width="0.5" stroke-linejoin="miter"/>
   <polyline stroke-linecap="butt" fill="none" stroke="#262626" points="395.364,367.496 395.364,32.4" stroke-opacity="0.15" stroke-dasharray="16,0" stroke-width="0.5" stroke-linejoin="miter"/>
   <polyline stroke-linecap="butt" fill="none" stroke="#262626" points="459.461,367.496 459.461,32.4" stroke-opacity="0.15" stroke-dasharray="16,0" stroke-width="0.5" stroke-linejoin="miter"/>
   <polyline stroke-linecap="butt" fill="none" stroke="#262626" points="74.88,367.496 74.88,363.031" stroke-width="0.5" stroke-linejoin="miter"/>
   <polyline stroke-linecap="butt" fill="none" stroke="#262626" points="74.88,32.4 74.88,36.8653" stroke-width="0.5" stroke-linejoin="miter"/>
   <polyline stroke-linecap="butt" fill="none" stroke="#262626" points="138.977,367.496 138.977,363.031" stroke-width="0.5" stroke-linejoin="miter"/>
   <polyline stroke-linecap="butt" fill="none" stroke="#262626" points="138.977,32.4 138.977,36.8653" stroke-width="0.5" stroke-linejoin="miter"/>
   <polyline stroke-linecap="butt" fill="none" stroke="#262626" points="203.074,367.496 203.074,363.031" stroke-width="0.5" stroke-linejoin="miter"/>
   <polyline stroke-linecap="butt" fill="none" stroke="#262626" points="203.074,32.4 203.074,36.8653" stroke-width="0.5" stroke-linejoin="miter"/>
   <polyline stroke-linecap="butt" fill="none" stroke="#262626" points="267.17,367.496 267.17,363.031" stroke-width="0.5" stroke-linejoin="miter"/>
   <polyline stroke-linecap="butt" fill="none" stroke="#262626" points="267.17,32.4 267.17,36.8653" stroke-width="0.5" stroke-linejoin="miter"/>
   <polyline stroke-linecap="butt" fill="none" stroke="#262626" points="331.267,367.496 331.267,363.031" stroke-width="0.5" stroke-linejoin="miter"/>
   <polyline stroke-linecap="butt" fill="none" stroke="#262626" points="331.267,32.4 331.267,36.8653" stroke-width="0.5" stroke-linejoin="miter"/>
   <polyline stroke-linecap="butt" fill="none" stroke="#262626" points="395.364,367.496 395.364,363.031" stroke-width="0.5" stroke-linejoin="miter"/>
   <polyline stroke-linecap="butt" fill="none" stroke="#262626" points="395.364,32.4 395.364,36.8653" stroke-width="0.5" stroke-linejoin="miter"/>
   <polyline stroke-linecap="butt" fill="none" stroke="#262626" points="459.461,367.496 459.461,363.031" stroke-width="0.5" stroke-linejoin="miter"/>
   <polyline stroke-linecap="butt" fill="none" stroke="#262626" points="459.461,32.4 459.461,36.8653" stroke-width="0.5" stroke-linejoin="miter"/>
   <text font-size="18" transform="translate(70.38,394) rotate(-0,4.5,-13)" font-family="CMU Serif" font-style="normal" xml:space="preserve" font-weight="normal">
    <tspan fill="rgb(38,38,38)" y="-0" x="0 ">0</tspan>
   </text>
   <text font-size="18" transform="translate(134.477,394) rotate(-0,4.5,-13)" font-family="CMU Serif" font-style="normal" xml:space="preserve" font-weight="normal">
    <tspan fill="rgb(38,38,38)" y="-0" x="0 ">2</tspan>
   </text>
   <text font-size="18" transform="translate(198.574,394) rotate(-0,4.5,-13)" font-family="CMU Serif" font-style="normal" xml:space="preserve" font-weight="normal">
    <tspan fill="rgb(38,38,38)" y="-0" x="0 ">4</tspan>
   </text>
   <text font-size="18" transform="translate(262.67,394) rotate(-0,4.5,-13)" font-family="CMU Serif" font-style="normal" xml:space="preserve" font-weight="normal">
    <tspan fill="rgb(38,38,38)" y="-0" x="0 ">6</tspan>
   </text>
   <text font-size="18" transform="translate(326.767,394) rotate(-0,4.5,-13)" font-family="CMU Serif" font-style="normal" xml:space="preserve" font-weight="normal">
    <tspan fill="rgb(38,38,38)" y="-0" x="0 ">8</tspan>
   </text>
   <text font-size="18" transform="translate(386.364,394) rotate(-0,9,-13)" font-family="CMU Serif" font-style="normal" xml:space="preserve" font-weight="normal">
    <tspan fill="rgb(38,38,38)" y="-0" x="0 9 ">10</tspan>
   </text>
   <text font-size="18" transform="translate(450.461,394) rotate(-0,9,-13)" font-family="CMU Serif" font-style="normal" xml:space="preserve" font-weight="normal">
    <tspan fill="rgb(38,38,38)" y="-0" x="0 9 ">12</tspan>
   </text>
   <polyline stroke-linecap="butt" fill="none" stroke="#262626" points="74.88,367.496 521.28,367.496" stroke-opacity="0.15" stroke-dasharray="16,0" stroke-width="0.5" stroke-linejoin="miter"/>
   <polyline stroke-linecap="butt" fill="none" stroke="#262626" points="74.88,319.625 521.28,319.625" stroke-opacity="0.15" stroke-dasharray="16,0" stroke-width="0.5" stroke-linejoin="miter"/>
   <polyline stroke-linecap="butt" fill="none" stroke="#262626" points="74.88,271.754 521.28,271.754" stroke-opacity="0.15" stroke-dasharray="16,0" stroke-width="0.5" stroke-linejoin="miter"/>
   <polyline stroke-linecap="butt" fill="none" stroke="#262626" points="74.88,223.884 521.28,223.884" stroke-opacity="0.15" stroke-dasharray="16,0" stroke-width="0.5" stroke-linejoin="miter"/>
   <polyline stroke-linecap="butt" fill="none" stroke="#262626" points="74.88,176.013 521.28,176.013" stroke-opacity="0.15" stroke-dasharray="16,0" stroke-width="0.5" stroke-linejoin="miter"/>
   <polyline stroke-linecap="butt" fill="none" stroke="#262626" points="74.88,128.142 521.28,128.142" stroke-opacity="0.15" stroke-dasharray="16,0" stroke-width="0.5" stroke-linejoin="miter"/>
   <polyline stroke-linecap="butt" fill="none" stroke="#262626" points="74.88,80.2709 521.28,80.2709" stroke-opacity="0.15" stroke-dasharray="16,0" stroke-width="0.5" stroke-linejoin="miter"/>
   <polyline stroke-linecap="butt" fill="none" stroke="#262626" points="74.88,32.4 521.28,32.4" stroke-opacity="0.15" stroke-dasharray="16,0" stroke-width="0.5" stroke-linejoin="miter"/>
   <polyline stroke-linecap="butt" fill="none" stroke="#262626" points="74.88,367.496 79.348,367.496" stroke-width="0.5" stroke-linejoin="miter"/>
   <polyline stroke-linecap="butt" fill="none" stroke="#262626" points="521.28,367.496 516.812,367.496" stroke-width="0.5" stroke-linejoin="miter"/>
   <polyline stroke-linecap="butt" fill="none" stroke="#262626" points="74.88,319.625 79.348,319.625" stroke-width="0.5" stroke-linejoin="miter"/>
   <polyline stroke-linecap="butt" fill="none" stroke="#262626" points="521.28,319.625 516.812,319.625" stroke-width="0.5" stroke-linejoin="miter"/>
   <polyline stroke-linecap="butt" fill="none" stroke="#262626" points="74.88,271.754 79.348,271.754" stroke-width="0.5" stroke-linejoin="miter"/>
   <polyline stroke-linecap="butt" fill="none" stroke="#262626" points="521.28,271.754 516.812,271.754" stroke-width="0.5" stroke-linejoin="miter"/>
   <polyline stroke-linecap="butt" fill="none" stroke="#262626" points="74.88,223.884 79.348,223.884" stroke-width="0.5" stroke-linejoin="miter"/>
   <polyline stroke-linecap="butt" fill="none" stroke="#262626" points="521.28,223.884 516.812,223.884" stroke-width="0.5" stroke-linejoin="miter"/>
   <polyline stroke-linecap="butt" fill="none" stroke="#262626" points="74.88,176.013 79.348,176.013" stroke-width="0.5" stroke-linejoin="miter"/>
   <polyline stroke-linecap="butt" fill="none" stroke="#262626" points="521.28,176.013 516.812,176.013" stroke-width="0.5" stroke-linejoin="miter"/>
   <polyline stroke-linecap="butt" fill="none" stroke="#262626" points="74.88,128.142 79.348,128.142" stroke-width="0.5" stroke-linejoin="miter"/>
   <polyline stroke-linecap="butt" fill="none" stroke="#262626" points="521.28,128.142 516.812,128.142" stroke-width="0.5" stroke-linejoin="miter"/>
   <polyline stroke-linecap="butt" fill="none" stroke="#262626" points="74.88,80.2709 79.348,80.2709" stroke-width="0.5" stroke-linejoin="miter"/>
   <polyline stroke-linecap="butt" fill="none" stroke="#262626" points="521.28,80.2709 516.812,80.2709" stroke-width="0.5" stroke-linejoin="miter"/>
   <polyline stroke-linecap="butt" fill="none" stroke="#262626" points="74.88,32.4 79.348,32.4" stroke-width="0.5" stroke-linejoin="miter"/>
   <polyline stroke-linecap="butt" fill="none" stroke="#262626" points="521.28,32.4 516.812,32.4" stroke-width="0.5" stroke-linejoin="miter"/>
   <text font-size="18" transform="translate(56.8719,373.996) rotate(-0,9,-6.5)" font-family="CMU Serif" font-style="normal" xml:space="preserve" font-weight="normal">
    <tspan fill="rgb(38,38,38)" y="-0" x="0 ">0</tspan>
   </text>
   <text font-size="18" transform="translate(42.8719,326.125) rotate(-0,23,-6.5)" font-family="CMU Serif" font-style="normal" xml:space="preserve" font-weight="normal">
    <tspan fill="rgb(38,38,38)" y="-0" x="0 9 14 ">0.2</tspan>
   </text>
   <text font-size="18" transform="translate(42.8719,278.254) rotate(-0,23,-6.5)" font-family="CMU Serif" font-style="normal" xml:space="preserve" font-weight="normal">
    <tspan fill="rgb(38,38,38)" y="-0" x="0 9 14 ">0.4</tspan>
   </text>
   <text font-size="18" transform="translate(42.8719,230.384) rotate(-0,23,-6.5)" font-family="CMU Serif" font-style="normal" xml:space="preserve" font-weight="normal">
    <tspan fill="rgb(38,38,38)" y="-0" x="0 9 14 ">0.6</tspan>
   </text>
   <text font-size="18" transform="translate(42.8719,182.513) rotate(-0,23,-6.5)" font-family="CMU Serif" font-style="normal" xml:space="preserve" font-weight="normal">
    <tspan fill="rgb(38,38,38)" y="-0" x="0 9 14 ">0.8</tspan>
   </text>
   <text font-size="18" transform="translate(56.8719,134.642) rotate(-0,9,-6.5)" font-family="CMU Serif" font-style="normal" xml:space="preserve" font-weight="normal">
    <tspan fill="rgb(38,38,38)" y="-0" x="0 ">1</tspan>
   </text>
   <text font-size="18" transform="translate(42.8719,86.7709) rotate(-0,23,-6.5)" font-family="CMU Serif" font-style="normal" xml:space="preserve" font-weight="normal">
    <tspan fill="rgb(38,38,38)" y="-0" x="0 9 14 ">1.2</tspan>
   </text>
   <text font-size="18" transform="translate(42.8719,38.9) rotate(-0,23,-6.5)" font-family="CMU Serif" font-style="normal" xml:space="preserve" font-weight="normal">
    <tspan fill="rgb(38,38,38)" y="-0" x="0 9 14 ">1.4</tspan>
   </text>
   <polyline stroke-linecap="square" fill="none" stroke="#262626" points="74.88,367.496 521.28,367.496" stroke-dasharray="16,0" stroke-width="0.5" stroke-linejoin="miter"/>
   <polyline stroke-linecap="square" fill="none" stroke="#262626" points="74.88,32.4 521.28,32.4" stroke-dasharray="16,0" stroke-width="0.5" stroke-linejoin="miter"/>
   <polyline stroke-linecap="square" fill="none" stroke="#262626" points="74.88,367.496 74.88,32.4" stroke-dasharray="16,0" stroke-width="0.5" stroke-linejoin="miter"/>
   <polyline stroke-linecap="square" fill="none" stroke="#262626" points="521.28,367.496 521.28,32.4" stroke-dasharray="16,0" stroke-width="0.5" stroke-linejoin="miter"/>
   <text font-size="19.8" transform="translate(258.08,432) rotate(-0,40,-33)" font-family="CMU Serif" font-style="normal" xml:space="preserve" font-weight="normal">
    <tspan fill="rgb(38,38,38)" y="-16" x="0 ">h</tspan>
    <tspan font-size="17.8" fill="rgb(38,38,38)" y="-0" x="11 20 ">am</tspan>
    <tspan fill="rgb(38,38,38)" y="-16" x="35 42 48 57 74 "> [cm]</tspan>
   </text>
   <text font-size="19.8" transform="translate(-8.62807,199.948) rotate(-90,46.5,0)" font-family="CMU Serif" font-style="normal" xml:space="preserve" font-weight="normal">
    <tspan fill="rgb(38,38,38)" y="-16" x="0 ">V</tspan>
    <tspan font-size="17.8" fill="rgb(38,38,38)" y="-0" x="15 24 ">am</tspan>
    <tspan fill="rgb(38,38,38)" y="-16" x="39 46 52 69 79 87 "> [m/s]</tspan>
   </text>
   <polyline stroke-linecap="butt" fill="none" stroke="#7d2e8d" points="74.88,114.702 75.3264,114.542 75.7728,114.381 76.2192,114.22 76.6656,114.06 77.112,113.899 77.5584,113.737 78.0048,113.576 78.4512,113.415 78.8976,113.253 79.344,113.092 79.7904,112.93 80.2368,112.768 80.6832,112.606 81.1296,112.444 81.576,112.282 82.0224,112.12 82.4688,111.957 82.9152,111.795 83.3616,111.633 83.808,111.47 84.2544,111.307 84.7008,111.144 85.1472,110.982 85.5936,110.819 86.04,110.655 86.4864,110.492 86.9328,110.329 87.3792,110.166 87.8256,110.003 88.272,109.839 88.7184,109.676 89.1648,109.512 89.6112,109.349 90.0576,109.185 90.504,109.021 90.9504,108.858 91.3968,108.694 91.8432,108.53 92.2896,108.366 92.736,108.202 93.1824,108.038 93.6288,107.874 94.0752,107.71 94.5216,107.546 94.968,107.382 95.4144,107.218 95.8608,107.054 96.3072,106.89 96.7536,106.726 97.2,106.561 97.6464,106.397 98.0928,106.233 98.5392,106.069 98.9856,105.905 99.432,105.741 99.8784,105.576 100.325,105.412 100.771,105.248 101.218,105.084 101.664,104.92 102.11,104.756 102.557,104.591 103.003,104.427 103.45,104.263 103.896,104.099 104.342,103.935 104.789,103.771 105.235,103.607 105.682,103.443 106.128,103.279 106.574,103.115 107.021,102.952 107.467,102.788 107.914,102.624 108.36,102.46 108.806,102.297 109.253,102.133 109.699,101.97 110.146,101.806 110.592,101.643 111.038,101.48 111.485,101.316 111.931,101.153 112.378,100.99 112.824,100.827 113.27,100.664 113.717,100.501 114.163,100.339 114.61,100.176 115.056,100.013 115.502,99.8506 115.949,99.6883 116.395,99.5259 116.842,99.3637 117.288,99.2016 117.734,99.0396 118.181,98.8776 118.627,98.7158 119.074,98.5541 119.52,98.3925 119.966,98.231 120.413,98.0697 120.859,97.9085 121.306,97.7474 121.752,97.5864 122.198,97.4255 122.645,97.2648 123.091,97.1042 123.538,96.9438 123.984,96.7835 124.43,96.6233 124.877,96.4633 125.323,96.3034 125.77,96.1436 126.216,95.984 126.662,95.8246 127.109,95.6653 127.555,95.5062 128.002,95.3472 128.448,95.1884 128.894,95.0298 129.341,94.8713 129.787,94.713 130.234,94.5549 130.68,94.3969 131.126,94.2391 131.573,94.0815 132.019,93.9241 132.466,93.7669 132.912,93.6098 133.358,93.453 133.805,93.2963 134.251,93.1398 134.698,92.9835 135.144,92.8274 135.59,92.6715 136.037,92.5158 136.483,92.3604 136.93,92.2051 137.376,92.05 137.822,91.8951 138.269,91.7405 138.715,91.5861 139.162,91.4319 139.608,91.2778 140.054,91.1241 140.501,90.9705 140.947,90.8172 141.394,90.6641 141.84,90.5112 142.286,90.3586 142.733,90.2062 143.179,90.0541 143.626,89.9021 144.072,89.7504 144.518,89.599 144.965,89.4478 145.411,89.2969 145.858,89.1462 146.304,88.9958 146.75,88.8456 147.197,88.6956 147.643,88.546 148.09,88.3966 148.536,88.2474 148.982,88.0986 149.429,87.95 149.875,87.8016 150.322,87.6535 150.768,87.5057 151.214,87.3582 151.661,87.211 152.107,87.0641 152.554,86.9174 153,86.771 153.446,86.6249 153.893,86.479 154.339,86.3335 154.786,86.1883 155.232,86.0433 155.678,85.8987 156.125,85.7544 156.571,85.6103 157.018,85.4666 157.464,85.3232 157.91,85.18 158.357,85.0372 158.803,84.8947 159.25,84.7524 159.696,84.6106 160.142,84.469 160.589,84.3278 161.035,84.1868 161.482,84.0462 161.928,83.9059 162.374,83.766 162.821,83.6263 163.267,83.487 163.714,83.3481 164.16,83.2094 164.606,83.0711 165.053,82.9331 165.499,82.7955 165.946,82.6582 166.392,82.5213 166.838,82.3847 167.285,82.2485 167.731,82.1126 168.178,81.977 168.624,81.8418 169.07,81.707 169.517,81.5725 169.963,81.4384 170.41,81.3046 170.856,81.1712 171.302,81.0381 171.749,80.9055 172.195,80.7732 172.642,80.6412 173.088,80.5096 173.534,80.3784 173.981,80.2476 174.427,80.1172 174.874,79.9871 175.32,79.8574 175.766,79.7281 176.213,79.5992 176.659,79.4707 177.106,79.3425 177.552,79.2148 177.998,79.0874 178.445,78.9604 178.891,78.8338 179.338,78.7076 179.784,78.5818 180.23,78.4564 180.677,78.3314 181.123,78.2068 181.57,78.0826 182.016,77.9589 182.462,77.8355 182.909,77.7125 183.355,77.59 183.802,77.4678 184.248,77.3461 184.694,77.2248 185.141,77.1039 185.587,76.9834 186.034,76.8633 186.48,76.7437 186.926,76.6245 187.373,76.5057 187.819,76.3873 188.266,76.2694 188.712,76.1519 189.158,76.0348 189.605,75.9182 190.051,75.802 190.498,75.6862 190.944,75.5709 191.39,75.4561 191.837,75.3416 192.283,75.2276 192.73,75.114 193.176,75.0009 193.622,74.8882 194.069,74.776 194.515,74.6643 194.962,74.553 195.408,74.4421 195.854,74.3317 196.301,74.2218 196.747,74.1123 197.194,74.0033 197.64,73.8947 198.086,73.7866 198.533,73.679 198.979,73.5718 199.426,73.4651 199.872,73.3589 200.318,73.2531 200.765,73.1478 201.211,73.043 201.658,72.9387 202.104,72.8348 202.55,72.7314 202.997,72.6285 203.443,72.5261 203.89,72.4242 204.336,72.3228 204.782,72.2218 205.229,72.1213 205.675,72.0213 206.122,71.9218 206.568,71.8228 207.014,71.7243 207.461,71.6262 207.907,71.5287 208.354,71.4317 208.8,71.3352 209.246,71.2391 209.693,71.1436 210.139,71.0486 210.586,70.954 211.032,70.86 211.478,70.7665 211.925,70.6735 212.371,70.5811 212.818,70.4891 213.264,70.3976 213.71,70.3066 214.157,70.2162 214.603,70.1263 215.05,70.0369 215.496,69.948 215.942,69.8596 216.389,69.7718 216.835,69.6845 217.282,69.5977 217.728,69.5115 218.174,69.4257 218.621,69.3405 219.067,69.2559 219.514,69.1717 219.96,69.0881 220.406,69.0051 220.853,68.9225 221.299,68.8405 221.746,68.7591 222.192,68.6782 222.638,68.5978 223.085,68.518 223.531,68.4387 223.978,68.36 224.424,68.2817 224.87,68.2041 225.317,68.127 225.763,68.0505 226.21,67.9745 226.656,67.899 227.102,67.8242 227.549,67.7498 227.995,67.6761 228.442,67.6029 228.888,67.5302 229.334,67.4581 229.781,67.3866 230.227,67.3157 230.674,67.2453 231.12,67.1754 231.566,67.1062 232.013,67.0375 232.459,66.9694 232.906,66.9019 233.352,66.8349 233.798,66.7685 234.245,66.7027 234.691,66.6375 235.138,66.5728 235.584,66.5087 236.03,66.4452 236.477,66.3823 236.923,66.32 237.37,66.2582 237.816,66.1971 238.262,66.1365 238.709,66.0766 239.155,66.0172 239.602,65.9584 240.048,65.9001 240.494,65.8426 240.941,65.7856 241.387,65.7291 241.834,65.6733 242.28,65.6181 242.726,65.5634 243.173,65.5095 243.619,65.4561 244.066,65.4032 244.512,65.3511 244.958,65.2995 245.405,65.2485 245.851,65.1981 246.298,65.1483 246.744,65.0992 247.19,65.0507 247.637,65.0028 248.083,64.9555 248.53,64.9088 248.976,64.8627 249.422,64.8173 249.869,64.7725 250.315,64.7283 250.762,64.6847 251.208,64.6418 251.654,64.5994 252.101,64.5577 252.547,64.5167 252.994,64.4763 253.44,64.4365 253.886,64.3973 254.333,64.3588 254.779,64.3209 255.226,64.2836 255.672,64.247 256.118,64.2111 256.565,64.1757 257.011,64.141 257.458,64.107 257.904,64.0736 258.35,64.0408 258.797,64.0087 259.243,63.9773 259.69,63.9464 260.136,63.9163 260.582,63.8868 261.029,63.8579 261.475,63.8297 261.922,63.8022 262.368,63.7753 262.814,63.7491 263.261,63.7235 263.707,63.6987 264.154,63.6744 264.6,63.6509 265.046,63.628 265.493,63.6057 265.939,63.5842 266.386,63.5633 266.832,63.5431 267.278,63.5235 267.725,63.5047 268.171,63.4865 268.618,63.469 269.064,63.4521 269.51,63.436 269.957,63.4205 270.403,63.4057 270.85,63.3916 271.296,63.3782 271.742,63.3654 272.189,63.3534 272.635,63.342 273.082,63.3314 273.528,63.3214 273.974,63.3121 274.421,63.3035 274.867,63.2956 275.314,63.2884 275.76,63.282 276.206,63.2761 276.653,63.2711 277.099,63.2667 277.546,63.263 277.992,63.26 278.438,63.2578 278.885,63.2562 279.331,63.2553 279.778,63.2552 280.224,63.2558 280.67,63.2571 281.117,63.2591 281.563,63.2618 282.01,63.2653 282.456,63.2694 282.902,63.2743 283.349,63.2799 283.795,63.2863 284.242,63.2933 284.688,63.3011 285.134,63.3096 285.581,63.3189 286.027,63.3289 286.474,63.3396 286.92,63.351 287.366,63.3632 287.813,63.3761 288.259,63.3898 288.706,63.4042 289.152,63.4194 289.598,63.4352 290.045,63.4519 290.491,63.4693 290.938,63.4875 291.384,63.5063 291.83,63.526 292.277,63.5464 292.723,63.5675 293.17,63.5894 293.616,63.6121 294.062,63.6355 294.509,63.6597 294.955,63.6847 295.402,63.7104 295.848,63.7368 296.294,63.7641 296.741,63.7921 297.187,63.8209 297.634,63.8505 298.08,63.8808 298.526,63.9119 298.973,63.9438 299.419,63.9765 299.866,64.0099 300.312,64.0442 300.758,64.0792 301.205,64.115 301.651,64.1516 302.098,64.189 302.544,64.2271 302.99,64.2661 303.437,64.3058 303.883,64.3464 304.33,64.3878 304.776,64.4299 305.222,64.4729 305.669,64.5166 306.115,64.5612 306.562,64.6065 307.008,64.6527 307.454,64.6997 307.901,64.7475 308.347,64.7961 308.794,64.8456 309.24,64.8958 309.686,64.9468 310.133,64.9987 310.579,65.0514 311.026,65.1049 311.472,65.1593 311.918,65.2145 312.365,65.2705 312.811,65.3274 313.258,65.385 313.704,65.4436 314.15,65.5029 314.597,65.5631 315.043,65.6241 315.49,65.686 315.936,65.7488 316.382,65.8123 316.829,65.8768 317.275,65.942 317.722,66.0082 318.168,66.0751 318.614,66.143 319.061,66.2117 319.507,66.2813 319.954,66.3517 320.4,66.423 320.846,66.4951 321.293,66.5682 321.739,66.6421 322.186,66.7168 322.632,66.7924 323.078,66.869 323.525,66.9464 323.971,67.0247 324.418,67.1039 324.864,67.1839 325.31,67.2649 325.757,67.3467 326.203,67.4294 326.65,67.5131 327.096,67.5976 327.542,67.683 327.989,67.7693 328.435,67.8565 328.882,67.9447 329.328,68.0337 329.774,68.1237 330.221,68.2145 330.667,68.3063 331.114,68.399 331.56,68.4926 332.006,68.5872 332.453,68.6826 332.899,68.7791 333.346,68.8764 333.792,68.9747 334.238,69.0738 334.685,69.174 335.131,69.275 335.578,69.377 336.024,69.48 336.47,69.5839 336.917,69.6888 337.363,69.7945 337.81,69.9013 338.256,70.009 338.702,70.1177 339.149,70.2273 339.595,70.338 340.042,70.4495 340.488,70.562 340.934,70.6755 341.381,70.79 341.827,70.9055 342.274,71.0219 342.72,71.1393 343.166,71.2578 343.613,71.3772 344.059,71.4976 344.506,71.619 344.952,71.7414 345.398,71.8647 345.845,71.9891 346.291,72.1145 346.738,72.2409 347.184,72.3684 347.63,72.4968 348.077,72.6262 348.523,72.7567 348.97,72.8882 349.416,73.0207 349.862,73.1543 350.309,73.2888 350.755,73.4245 351.202,73.5611 351.648,73.6988 352.094,73.8376 352.541,73.9774 352.987,74.1182 353.434,74.2601 353.88,74.403 354.326,74.5471 354.773,74.6921 355.219,74.8383 355.666,74.9855 356.112,75.1338 356.558,75.2832 357.005,75.4336 357.451,75.5851 357.898,75.7377 358.344,75.8914 358.79,76.0463 359.237,76.2022 359.683,76.3592 360.13,76.5173 360.576,76.6765 361.022,76.8369 361.469,76.9983 361.915,77.1609 362.362,77.3245 362.808,77.4893 363.254,77.6553 363.701,77.8224 364.147,77.9906 364.594,78.16 365.04,78.3304 365.486,78.5021 365.933,78.6749 366.379,78.8489 366.826,79.024 367.272,79.2003 367.718,79.3778 368.165,79.5564 368.611,79.7362 369.058,79.9172 369.504,80.0994 369.95,80.2827 370.397,80.4673 370.843,80.6531 371.29,80.8401 371.736,81.0282 372.182,81.2176 372.629,81.4082 373.075,81.6 373.522,81.793 373.968,81.9873 374.414,82.1828 374.861,82.3795 375.307,82.5775 375.754,82.7767 376.2,82.9772 376.646,83.179 377.093,83.382 377.539,83.5862 377.986,83.7917 378.432,83.9985 378.878,84.2067 379.325,84.416 379.771,84.6266 380.218,84.8387 380.664,85.0519 381.11,85.2664 381.557,85.4823 382.003,85.6995 382.45,85.918 382.896,86.1378 383.342,86.359 383.789,86.5815 384.235,86.8053 384.682,87.0305 385.128,87.257 385.574,87.4849 386.021,87.7142 386.467,87.9449 386.914,88.1768 387.36,88.4102 387.806,88.645 388.253,88.8812 388.699,89.1187 389.146,89.3577 389.592,89.5981 390.038,89.8398 390.485,90.0831 390.931,90.3277 391.378,90.5738 391.824,90.8213 392.27,91.0702 392.717,91.3206 393.163,91.5725 393.61,91.8259 394.056,92.0807 394.502,92.3369 394.949,92.5947 395.395,92.854 395.842,93.1147 396.288,93.377 396.734,93.6408 397.181,93.9061 397.627,94.1729 398.074,94.4413 398.52,94.7112 398.966,94.9826 399.413,95.2556 399.859,95.5302 400.306,95.8063 400.752,96.084 401.198,96.3633 401.645,96.6442 402.091,96.9267 402.538,97.2108 402.984,97.4965 403.43,97.7838 403.877,98.0728 404.323,98.3633 404.77,98.6556 405.216,98.9495 405.662,99.245 406.109,99.5423 406.555,99.8412 407.002,100.142 407.448,100.444 407.894,100.748 408.341,101.054 408.787,101.361 409.234,101.67 409.68,101.981 410.126,102.294 410.573,102.608 411.019,102.925 411.466,103.243 411.912,103.562 412.358,103.884 412.805,104.207 413.251,104.532 413.698,104.86 414.144,105.188 414.59,105.519 415.037,105.852 415.483,106.186 415.93,106.522 416.376,106.861 416.822,107.201 417.269,107.543 417.715,107.887 418.162,108.232 418.608,108.58 419.054,108.93 419.501,109.282 419.947,109.635 420.394,109.991 420.84,110.349 421.286,110.708 421.733,111.07 422.179,111.434 422.626,111.8 423.072,112.168 423.518,112.537 423.965,112.909 424.411,113.284 424.858,113.66 425.304,114.038 425.75,114.419 426.197,114.801 426.643,115.186 427.09,115.573 427.536,115.962 427.982,116.354 428.429,116.747 428.875,117.143 429.322,117.541 429.768,117.942 430.214,118.344 430.661,118.749 431.107,119.157 431.554,119.566 432,119.978 432.446,120.392 432.893,120.809 433.339,121.228 433.786,121.65 434.232,122.073 434.678,122.5 435.125,122.928 435.571,123.36 436.018,123.794 436.464,124.23 436.91,124.669 437.357,125.11 437.803,125.554 438.25,126 438.696,126.449 439.142,126.901 439.589,127.355 440.035,127.812 440.482,128.272 440.928,128.734 441.374,129.2 441.821,129.667 442.267,130.138 442.714,130.611 443.16,131.088 443.606,131.567 444.053,132.049 444.499,132.533 444.946,133.021 445.392,133.512 445.838,134.005 446.285,134.502 446.731,135.001 447.178,135.504 447.624,136.009 448.07,136.518 448.517,137.03 448.963,137.544 449.41,138.062 449.856,138.584 450.302,139.108 450.749,139.636 451.195,140.166 451.642,140.701 452.088,141.238 452.534,141.779 452.981,142.323 453.427,142.871 453.874,143.422 454.32,143.976 454.766,144.534 455.213,145.096 455.659,145.661 456.106,146.229 456.552,146.802 456.998,147.378 457.445,147.957 457.891,148.541 458.338,149.128 458.784,149.719 459.23,150.314 459.677,150.913 460.123,151.515 460.57,152.122 461.016,152.733 461.462,153.347 461.909,153.966 462.355,154.589 462.802,155.216 463.248,155.847 463.694,156.483 464.141,157.123 464.587,157.767 465.034,158.416 465.48,159.069 465.926,159.727 466.373,160.389 466.819,161.056 467.266,161.728 467.712,162.404 468.158,163.085 468.605,163.771 469.051,164.461 469.498,165.157 469.944,165.858 470.39,166.564 470.837,167.274 471.283,167.991 471.73,168.712 472.176,169.439 472.622,170.171 473.069,170.908 473.515,171.651 473.962,172.4 474.408,173.154 474.854,173.914 475.301,174.68 475.747,175.452 476.194,176.23 476.64,177.014 477.086,177.804 477.533,178.6 477.979,179.403 478.426,180.212 478.872,181.027 479.318,181.85 479.765,182.679 480.211,183.514 480.658,184.357 481.104,185.207 481.55,186.064 481.997,186.928 482.443,187.799 482.89,188.678 483.336,189.565 483.782,190.459 484.229,191.361 484.675,192.272 485.122,193.19 485.568,194.117 486.014,195.052 486.461,195.995 486.907,196.948 487.354,197.909 487.8,198.879 488.246,199.859 488.693,200.848 489.139,201.847 489.586,202.855 490.032,203.873 490.478,204.902 490.925,205.941 491.371,206.99 491.818,208.051 492.264,209.122 492.71,210.205 493.157,211.299 493.603,212.405 494.05,213.523 494.496,214.654 494.942,215.797 495.389,216.953 495.835,218.122 496.282,219.305 496.728,220.502 497.174,221.713 497.621,222.939 498.067,224.18 498.514,225.437 498.96,226.709 499.406,227.998 499.853,229.304 500.299,230.627 500.746,231.968 501.192,233.328 501.638,234.706 502.085,236.104 502.531,237.523 502.978,238.962 503.424,240.424 503.87,241.908 504.317,243.415 504.763,244.946 505.21,246.503 505.656,248.086 506.102,249.696 506.549,251.335 506.995,253.003 507.442,254.702 507.888,256.434 508.334,258.2 508.781,260.002 509.227,261.841 509.674,263.72 510.12,265.641 510.566,267.606 511.013,269.619 511.459,271.681 511.906,273.797 512.352,275.97 512.798,278.204 513.245,280.505 513.691,282.876 514.138,285.326 514.584,287.861 515.03,290.489 515.477,293.22 515.923,296.067 516.37,299.044 516.816,302.168 517.262,305.461 517.709,308.954 518.155,312.683 518.602,316.701 519.048,321.082 519.494,325.943 519.941,331.475 520.387,338.056 520.834,346.657 521.28,367.107" stroke-width="3" stroke-linejoin="round"/>
  </g>
 </g>
</svg>
