<?xml version='1.0' encoding='UTF-8' standalone='no'?>
<svg xmlns:xlink="http://www.w3.org/1999/xlink" width="576pt" height="432pt" xmlns="http://www.w3.org/2000/svg" viewBox="0 0 576 432">
 <title>gl2ps_renderer figure</title>
 <desc>
Creator: GL2PS 1.4.0, (C) 1999-2017 C. Geuzaine
For: Octave
CreationDate: Fri Jul 03 15:43:29 2020
</desc>
 <defs/>
 <polygon fill="#ffffff" points="0,0 576,0 576,432 0,432"/>
 <g>
  <polygon shape-rendering="crispEdges" fill="#ffffff" points="0,432 576,432 576,0 0,0"/>
  <clipPath id="cp00576432">
   <polygon points="0,432 576,432 576,0 0,0"/>
  </clipPath>
  <g clip-path="url(#cp00576432)">
   <polygon shape-rendering="crispEdges" fill="#ffffff" points="74.88,367.496 521.28,367.496 521.28,32.4 74.88,32.4"/>
   <polyline stroke-dasharray="16,0" stroke="#262626" stroke-width="0.5" stroke-linecap="butt" fill="none" stroke-linejoin="miter" stroke-opacity="0.15" points="74.88,367.496 74.88,32.4"/>
   <polyline stroke-dasharray="16,0" stroke="#262626" stroke-width="0.5" stroke-linecap="butt" fill="none" stroke-linejoin="miter" stroke-opacity="0.15" points="138.977,367.496 138.977,32.4"/>
   <polyline stroke-dasharray="16,0" stroke="#262626" stroke-width="0.5" stroke-linecap="butt" fill="none" stroke-linejoin="miter" stroke-opacity="0.15" points="203.074,367.496 203.074,32.4"/>
   <polyline stroke-dasharray="16,0" stroke="#262626" stroke-width="0.5" stroke-linecap="butt" fill="none" stroke-linejoin="miter" stroke-opacity="0.15" points="267.17,367.496 267.17,32.4"/>
   <polyline stroke-dasharray="16,0" stroke="#262626" stroke-width="0.5" stroke-linecap="butt" fill="none" stroke-linejoin="miter" stroke-opacity="0.15" points="331.267,367.496 331.267,32.4"/>
   <polyline stroke-dasharray="16,0" stroke="#262626" stroke-width="0.5" stroke-linecap="butt" fill="none" stroke-linejoin="miter" stroke-opacity="0.15" points="395.364,367.496 395.364,32.4"/>
   <polyline stroke-dasharray="16,0" stroke="#262626" stroke-width="0.5" stroke-linecap="butt" fill="none" stroke-linejoin="miter" stroke-opacity="0.15" points="459.461,367.496 459.461,32.4"/>
   <polyline stroke="#262626" stroke-width="0.5" stroke-linecap="butt" fill="none" stroke-linejoin="miter" points="74.88,367.496 74.88,363.031"/>
   <polyline stroke="#262626" stroke-width="0.5" stroke-linecap="butt" fill="none" stroke-linejoin="miter" points="74.88,32.4 74.88,36.8653"/>
   <polyline stroke="#262626" stroke-width="0.5" stroke-linecap="butt" fill="none" stroke-linejoin="miter" points="138.977,367.496 138.977,363.031"/>
   <polyline stroke="#262626" stroke-width="0.5" stroke-linecap="butt" fill="none" stroke-linejoin="miter" points="138.977,32.4 138.977,36.8653"/>
   <polyline stroke="#262626" stroke-width="0.5" stroke-linecap="butt" fill="none" stroke-linejoin="miter" points="203.074,367.496 203.074,363.031"/>
   <polyline stroke="#262626" stroke-width="0.5" stroke-linecap="butt" fill="none" stroke-linejoin="miter" points="203.074,32.4 203.074,36.8653"/>
   <polyline stroke="#262626" stroke-width="0.5" stroke-linecap="butt" fill="none" stroke-linejoin="miter" points="267.17,367.496 267.17,363.031"/>
   <polyline stroke="#262626" stroke-width="0.5" stroke-linecap="butt" fill="none" stroke-linejoin="miter" points="267.17,32.4 267.17,36.8653"/>
   <polyline stroke="#262626" stroke-width="0.5" stroke-linecap="butt" fill="none" stroke-linejoin="miter" points="331.267,367.496 331.267,363.031"/>
   <polyline stroke="#262626" stroke-width="0.5" stroke-linecap="butt" fill="none" stroke-linejoin="miter" points="331.267,32.4 331.267,36.8653"/>
   <polyline stroke="#262626" stroke-width="0.5" stroke-linecap="butt" fill="none" stroke-linejoin="miter" points="395.364,367.496 395.364,363.031"/>
   <polyline stroke="#262626" stroke-width="0.5" stroke-linecap="butt" fill="none" stroke-linejoin="miter" points="395.364,32.4 395.364,36.8653"/>
   <polyline stroke="#262626" stroke-width="0.5" stroke-linecap="butt" fill="none" stroke-linejoin="miter" points="459.461,367.496 459.461,363.031"/>
   <polyline stroke="#262626" stroke-width="0.5" stroke-linecap="butt" fill="none" stroke-linejoin="miter" points="459.461,32.4 459.461,36.8653"/>
   <text font-size="18" font-style="normal" transform="translate(70.38,394) rotate(-0,4.5,-13)" xml:space="preserve" font-weight="normal" font-family="CMU Serif">
    <tspan x="0 " y="-0" fill="rgb(38,38,38)">0</tspan>
   </text>
   <text font-size="18" font-style="normal" transform="translate(134.477,394) rotate(-0,4.5,-13)" xml:space="preserve" font-weight="normal" font-family="CMU Serif">
    <tspan x="0 " y="-0" fill="rgb(38,38,38)">2</tspan>
   </text>
   <text font-size="18" font-style="normal" transform="translate(198.574,394) rotate(-0,4.5,-13)" xml:space="preserve" font-weight="normal" font-family="CMU Serif">
    <tspan x="0 " y="-0" fill="rgb(38,38,38)">4</tspan>
   </text>
   <text font-size="18" font-style="normal" transform="translate(262.67,394) rotate(-0,4.5,-13)" xml:space="preserve" font-weight="normal" font-family="CMU Serif">
    <tspan x="0 " y="-0" fill="rgb(38,38,38)">6</tspan>
   </text>
   <text font-size="18" font-style="normal" transform="translate(326.767,394) rotate(-0,4.5,-13)" xml:space="preserve" font-weight="normal" font-family="CMU Serif">
    <tspan x="0 " y="-0" fill="rgb(38,38,38)">8</tspan>
   </text>
   <text font-size="18" font-style="normal" transform="translate(386.364,394) rotate(-0,9,-13)" xml:space="preserve" font-weight="normal" font-family="CMU Serif">
    <tspan x="0 9 " y="-0" fill="rgb(38,38,38)">10</tspan>
   </text>
   <text font-size="18" font-style="normal" transform="translate(450.461,394) rotate(-0,9,-13)" xml:space="preserve" font-weight="normal" font-family="CMU Serif">
    <tspan x="0 9 " y="-0" fill="rgb(38,38,38)">12</tspan>
   </text>
   <polyline stroke-dasharray="16,0" stroke="#262626" stroke-width="0.5" stroke-linecap="butt" fill="none" stroke-linejoin="miter" stroke-opacity="0.15" points="74.88,367.496 521.28,367.496"/>
   <polyline stroke-dasharray="16,0" stroke="#262626" stroke-width="0.5" stroke-linecap="butt" fill="none" stroke-linejoin="miter" stroke-opacity="0.15" points="74.88,311.647 521.28,311.647"/>
   <polyline stroke-dasharray="16,0" stroke="#262626" stroke-width="0.5" stroke-linecap="butt" fill="none" stroke-linejoin="miter" stroke-opacity="0.15" points="74.88,255.797 521.28,255.797"/>
   <polyline stroke-dasharray="16,0" stroke="#262626" stroke-width="0.5" stroke-linecap="butt" fill="none" stroke-linejoin="miter" stroke-opacity="0.15" points="74.88,199.948 521.28,199.948"/>
   <polyline stroke-dasharray="16,0" stroke="#262626" stroke-width="0.5" stroke-linecap="butt" fill="none" stroke-linejoin="miter" stroke-opacity="0.15" points="74.88,144.099 521.28,144.099"/>
   <polyline stroke-dasharray="16,0" stroke="#262626" stroke-width="0.5" stroke-linecap="butt" fill="none" stroke-linejoin="miter" stroke-opacity="0.15" points="74.88,88.2493 521.28,88.2493"/>
   <polyline stroke-dasharray="16,0" stroke="#262626" stroke-width="0.5" stroke-linecap="butt" fill="none" stroke-linejoin="miter" stroke-opacity="0.15" points="74.88,32.4 521.28,32.4"/>
   <polyline stroke="#262626" stroke-width="0.5" stroke-linecap="butt" fill="none" stroke-linejoin="miter" points="74.88,367.496 79.348,367.496"/>
   <polyline stroke="#262626" stroke-width="0.5" stroke-linecap="butt" fill="none" stroke-linejoin="miter" points="521.28,367.496 516.812,367.496"/>
   <polyline stroke="#262626" stroke-width="0.5" stroke-linecap="butt" fill="none" stroke-linejoin="miter" points="74.88,311.647 79.348,311.647"/>
   <polyline stroke="#262626" stroke-width="0.5" stroke-linecap="butt" fill="none" stroke-linejoin="miter" points="521.28,311.647 516.812,311.647"/>
   <polyline stroke="#262626" stroke-width="0.5" stroke-linecap="butt" fill="none" stroke-linejoin="miter" points="74.88,255.797 79.348,255.797"/>
   <polyline stroke="#262626" stroke-width="0.5" stroke-linecap="butt" fill="none" stroke-linejoin="miter" points="521.28,255.797 516.812,255.797"/>
   <polyline stroke="#262626" stroke-width="0.5" stroke-linecap="butt" fill="none" stroke-linejoin="miter" points="74.88,199.948 79.348,199.948"/>
   <polyline stroke="#262626" stroke-width="0.5" stroke-linecap="butt" fill="none" stroke-linejoin="miter" points="521.28,199.948 516.812,199.948"/>
   <polyline stroke="#262626" stroke-width="0.5" stroke-linecap="butt" fill="none" stroke-linejoin="miter" points="74.88,144.099 79.348,144.099"/>
   <polyline stroke="#262626" stroke-width="0.5" stroke-linecap="butt" fill="none" stroke-linejoin="miter" points="521.28,144.099 516.812,144.099"/>
   <polyline stroke="#262626" stroke-width="0.5" stroke-linecap="butt" fill="none" stroke-linejoin="miter" points="74.88,88.2493 79.348,88.2493"/>
   <polyline stroke="#262626" stroke-width="0.5" stroke-linecap="butt" fill="none" stroke-linejoin="miter" points="521.28,88.2493 516.812,88.2493"/>
   <polyline stroke="#262626" stroke-width="0.5" stroke-linecap="butt" fill="none" stroke-linejoin="miter" points="74.88,32.4 79.348,32.4"/>
   <polyline stroke="#262626" stroke-width="0.5" stroke-linecap="butt" fill="none" stroke-linejoin="miter" points="521.28,32.4 516.812,32.4"/>
   <text font-size="18" font-style="normal" transform="translate(56.8719,373.996) rotate(-0,9,-6.5)" xml:space="preserve" font-weight="normal" font-family="CMU Serif">
    <tspan x="0 " y="-0" fill="rgb(38,38,38)">2</tspan>
   </text>
   <text font-size="18" font-style="normal" transform="translate(56.8719,318.147) rotate(-0,9,-6.5)" xml:space="preserve" font-weight="normal" font-family="CMU Serif">
    <tspan x="0 " y="-0" fill="rgb(38,38,38)">4</tspan>
   </text>
   <text font-size="18" font-style="normal" transform="translate(56.8719,262.297) rotate(-0,9,-6.5)" xml:space="preserve" font-weight="normal" font-family="CMU Serif">
    <tspan x="0 " y="-0" fill="rgb(38,38,38)">6</tspan>
   </text>
   <text font-size="18" font-style="normal" transform="translate(56.8719,206.448) rotate(-0,9,-6.5)" xml:space="preserve" font-weight="normal" font-family="CMU Serif">
    <tspan x="0 " y="-0" fill="rgb(38,38,38)">8</tspan>
   </text>
   <text font-size="18" font-style="normal" transform="translate(47.8719,150.599) rotate(-0,18,-6.5)" xml:space="preserve" font-weight="normal" font-family="CMU Serif">
    <tspan x="0 9 " y="-0" fill="rgb(38,38,38)">10</tspan>
   </text>
   <text font-size="18" font-style="normal" transform="translate(47.8719,94.7494) rotate(-0,18,-6.5)" xml:space="preserve" font-weight="normal" font-family="CMU Serif">
    <tspan x="0 9 " y="-0" fill="rgb(38,38,38)">12</tspan>
   </text>
   <text font-size="18" font-style="normal" transform="translate(47.8719,38.9) rotate(-0,18,-6.5)" xml:space="preserve" font-weight="normal" font-family="CMU Serif">
    <tspan x="0 9 " y="-0" fill="rgb(38,38,38)">14</tspan>
   </text>
   <polyline stroke-dasharray="16,0" stroke="#262626" stroke-width="0.5" stroke-linecap="square" fill="none" stroke-linejoin="miter" points="74.88,367.496 521.28,367.496"/>
   <polyline stroke-dasharray="16,0" stroke="#262626" stroke-width="0.5" stroke-linecap="square" fill="none" stroke-linejoin="miter" points="74.88,32.4 521.28,32.4"/>
   <polyline stroke-dasharray="16,0" stroke="#262626" stroke-width="0.5" stroke-linecap="square" fill="none" stroke-linejoin="miter" points="74.88,367.496 74.88,32.4"/>
   <polyline stroke-dasharray="16,0" stroke="#262626" stroke-width="0.5" stroke-linecap="square" fill="none" stroke-linejoin="miter" points="521.28,367.496 521.28,32.4"/>
   <text font-size="19.8" font-style="normal" transform="translate(258.08,432) rotate(-0,40,-33)" xml:space="preserve" font-weight="normal" font-family="CMU Serif">
    <tspan x="0 " y="-16" fill="rgb(38,38,38)">h</tspan>
    <tspan x="11 20 " font-size="17.8" y="-0" fill="rgb(38,38,38)">am</tspan>
    <tspan x="35 42 48 57 74 " y="-16" fill="rgb(38,38,38)"> [cm]</tspan>
   </text>
   <text font-size="19.8" font-style="normal" transform="translate(10.3719,199.948) rotate(-90,32.5,0)" xml:space="preserve" font-weight="normal" font-family="CMU Serif">
    <tspan x="0 " y="-20" fill="rgb(38,38,38)">h</tspan>
    <tspan x="11 " font-size="17.8" y="-4" fill="rgb(38,38,38)">g</tspan>
    <tspan x="20 27 33 42 59 " y="-20" fill="rgb(38,38,38)"> [cm]</tspan>
   </text>
   <polyline stroke="#d85218" stroke-width="3" stroke-linecap="butt" fill="none" stroke-linejoin="round" points="74.88,355.281 75.3264,354.572 75.7728,353.864 76.2192,353.157 76.6656,352.452 77.112,351.747 77.5584,351.043 78.0048,350.34 78.4512,349.638 78.8976,348.937 79.344,348.237 79.7904,347.538 80.2368,346.839 80.6832,346.142 81.1296,345.446 81.576,344.751 82.0224,344.057 82.4688,343.363 82.9152,342.671 83.3616,341.98 83.808,341.29 84.2544,340.6 84.7008,339.912 85.1472,339.224 85.5936,338.538 86.04,337.853 86.4864,337.168 86.9328,336.485 87.3792,335.802 87.8256,335.121 88.272,334.44 88.7184,333.761 89.1648,333.082 89.6112,332.405 90.0576,331.728 90.504,331.053 90.9504,330.378 91.3968,329.705 91.8432,329.032 92.2896,328.36 92.736,327.69 93.1824,327.02 93.6288,326.352 94.0752,325.684 94.5216,325.018 94.968,324.352 95.4144,323.687 95.8608,323.024 96.3072,322.361 96.7536,321.7 97.2,321.039 97.6464,320.379 98.0928,319.721 98.5392,319.063 98.9856,318.407 99.432,317.751 99.8784,317.096 100.325,316.443 100.771,315.79 101.218,315.139 101.664,314.488 102.11,313.838 102.557,313.19 103.003,312.542 103.45,311.896 103.896,311.25 104.342,310.606 104.789,309.962 105.235,309.319 105.682,308.678 106.128,308.037 106.574,307.398 107.021,306.759 107.467,306.122 107.914,305.485 108.36,304.85 108.806,304.215 109.253,303.582 109.699,302.949 110.146,302.318 110.592,301.687 111.038,301.058 111.485,300.43 111.931,299.802 112.378,299.176 112.824,298.55 113.27,297.926 113.717,297.302 114.163,296.68 114.61,296.059 115.056,295.438 115.502,294.819 115.949,294.2 116.395,293.583 116.842,292.967 117.288,292.351 117.734,291.737 118.181,291.124 118.627,290.511 119.074,289.9 119.52,289.29 119.966,288.68 120.413,288.072 120.859,287.465 121.306,286.858 121.752,286.253 122.198,285.649 122.645,285.045 123.091,284.443 123.538,283.842 123.984,283.242 124.43,282.642 124.877,282.044 125.323,281.447 125.77,280.85 126.216,280.255 126.662,279.661 127.109,279.068 127.555,278.475 128.002,277.884 128.448,277.294 128.894,276.704 129.341,276.116 129.787,275.529 130.234,274.943 130.68,274.357 131.126,273.773 131.573,273.19 132.019,272.607 132.466,272.026 132.912,271.446 133.358,270.867 133.805,270.288 134.251,269.711 134.698,269.135 135.144,268.559 135.59,267.985 136.037,267.412 136.483,266.839 136.93,266.268 137.376,265.697 137.822,265.128 138.269,264.56 138.715,263.992 139.162,263.426 139.608,262.86 140.054,262.296 140.501,261.732 140.947,261.17 141.394,260.608 141.84,260.048 142.286,259.488 142.733,258.93 143.179,258.372 143.626,257.816 144.072,257.26 144.518,256.706 144.965,256.152 145.411,255.599 145.858,255.048 146.304,254.497 146.75,253.947 147.197,253.398 147.643,252.851 148.09,252.304 148.536,251.758 148.982,251.213 149.429,250.669 149.875,250.126 150.322,249.584 150.768,249.043 151.214,248.503 151.661,247.964 152.107,247.426 152.554,246.889 153,246.353 153.446,245.818 153.893,245.284 154.339,244.75 154.786,244.218 155.232,243.687 155.678,243.156 156.125,242.627 156.571,242.098 157.018,241.571 157.464,241.044 157.91,240.519 158.357,239.994 158.803,239.471 159.25,238.948 159.696,238.426 160.142,237.905 160.589,237.385 161.035,236.867 161.482,236.349 161.928,235.832 162.374,235.316 162.821,234.801 163.267,234.286 163.714,233.773 164.16,233.261 164.606,232.75 165.053,232.239 165.499,231.73 165.946,231.221 166.392,230.714 166.838,230.207 167.285,229.701 167.731,229.197 168.178,228.693 168.624,228.19 169.07,227.688 169.517,227.187 169.963,226.687 170.41,226.188 170.856,225.69 171.302,225.193 171.749,224.696 172.195,224.201 172.642,223.706 173.088,223.213 173.534,222.72 173.981,222.228 174.427,221.738 174.874,221.248 175.32,220.759 175.766,220.271 176.213,219.784 176.659,219.298 177.106,218.812 177.552,218.328 177.998,217.845 178.445,217.362 178.891,216.88 179.338,216.4 179.784,215.92 180.23,215.441 180.677,214.963 181.123,214.486 181.57,214.01 182.016,213.535 182.462,213.061 182.909,212.587 183.355,212.115 183.802,211.643 184.248,211.172 184.694,210.702 185.141,210.234 185.587,209.766 186.034,209.298 186.48,208.832 186.926,208.367 187.373,207.903 187.819,207.439 188.266,206.976 188.712,206.515 189.158,206.054 189.605,205.594 190.051,205.135 190.498,204.677 190.944,204.219 191.39,203.763 191.837,203.307 192.283,202.853 192.73,202.399 193.176,201.946 193.622,201.494 194.069,201.043 194.515,200.593 194.962,200.143 195.408,199.695 195.854,199.247 196.301,198.801 196.747,198.355 197.194,197.91 197.64,197.466 198.086,197.022 198.533,196.58 198.979,196.138 199.426,195.698 199.872,195.258 200.318,194.819 200.765,194.381 201.211,193.944 201.658,193.508 202.104,193.072 202.55,192.638 202.997,192.204 203.443,191.771 203.89,191.339 204.336,190.908 204.782,190.477 205.229,190.048 205.675,189.619 206.122,189.192 206.568,188.765 207.014,188.339 207.461,187.914 207.907,187.489 208.354,187.066 208.8,186.643 209.246,186.221 209.693,185.8 210.139,185.38 210.586,184.961 211.032,184.542 211.478,184.125 211.925,183.708 212.371,183.292 212.818,182.877 213.264,182.463 213.71,182.049 214.157,181.637 214.603,181.225 215.05,180.814 215.496,180.404 215.942,179.995 216.389,179.586 216.835,179.179 217.282,178.772 217.728,178.366 218.174,177.961 218.621,177.556 219.067,177.153 219.514,176.75 219.96,176.348 220.406,175.947 220.853,175.547 221.299,175.148 221.746,174.749 222.192,174.351 222.638,173.954 223.085,173.558 223.531,173.163 223.978,172.768 224.424,172.375 224.87,171.982 225.317,171.59 225.763,171.198 226.21,170.808 226.656,170.418 227.102,170.029 227.549,169.641 227.995,169.254 228.442,168.868 228.888,168.482 229.334,168.097 229.781,167.713 230.227,167.33 230.674,166.947 231.12,166.566 231.566,166.185 232.013,165.805 232.459,165.425 232.906,165.047 233.352,164.669 233.798,164.292 234.245,163.916 234.691,163.541 235.138,163.166 235.584,162.792 236.03,162.419 236.477,162.047 236.923,161.676 237.37,161.305 237.816,160.935 238.262,160.566 238.709,160.198 239.155,159.83 239.602,159.463 240.048,159.097 240.494,158.732 240.941,158.368 241.387,158.004 241.834,157.641 242.28,157.279 242.726,156.918 243.173,156.557 243.619,156.197 244.066,155.838 244.512,155.48 244.958,155.122 245.405,154.766 245.851,154.41 246.298,154.054 246.744,153.7 247.19,153.346 247.637,152.993 248.083,152.641 248.53,152.289 248.976,151.939 249.422,151.589 249.869,151.24 250.315,150.891 250.762,150.544 251.208,150.197 251.654,149.85 252.101,149.505 252.547,149.16 252.994,148.816 253.44,148.473 253.886,148.131 254.333,147.789 254.779,147.448 255.226,147.108 255.672,146.769 256.118,146.43 256.565,146.092 257.011,145.755 257.458,145.418 257.904,145.082 258.35,144.747 258.797,144.413 259.243,144.079 259.69,143.747 260.136,143.415 260.582,143.083 261.029,142.753 261.475,142.423 261.922,142.093 262.368,141.765 262.814,141.437 263.261,141.11 263.707,140.784 264.154,140.458 264.6,140.134 265.046,139.81 265.493,139.486 265.939,139.164 266.386,138.842 266.832,138.52 267.278,138.2 267.725,137.88 268.171,137.561 268.618,137.243 269.064,136.925 269.51,136.608 269.957,136.292 270.403,135.977 270.85,135.662 271.296,135.348 271.742,135.034 272.189,134.722 272.635,134.41 273.082,134.099 273.528,133.788 273.974,133.478 274.421,133.169 274.867,132.861 275.314,132.553 275.76,132.246 276.206,131.94 276.653,131.634 277.099,131.329 277.546,131.025 277.992,130.722 278.438,130.419 278.885,130.117 279.331,129.815 279.778,129.515 280.224,129.215 280.67,128.915 281.117,128.617 281.563,128.319 282.01,128.021 282.456,127.725 282.902,127.429 283.349,127.134 283.795,126.839 284.242,126.546 284.688,126.252 285.134,125.96 285.581,125.668 286.027,125.377 286.474,125.087 286.92,124.797 287.366,124.508 287.813,124.22 288.259,123.932 288.706,123.645 289.152,123.359 289.598,123.073 290.045,122.788 290.491,122.504 290.938,122.22 291.384,121.937 291.83,121.655 292.277,121.373 292.723,121.093 293.17,120.812 293.616,120.533 294.062,120.254 294.509,119.976 294.955,119.698 295.402,119.421 295.848,119.145 296.294,118.869 296.741,118.594 297.187,118.32 297.634,118.047 298.08,117.774 298.526,117.501 298.973,117.23 299.419,116.959 299.866,116.689 300.312,116.419 300.758,116.15 301.205,115.882 301.651,115.614 302.098,115.347 302.544,115.081 302.99,114.815 303.437,114.55 303.883,114.286 304.33,114.022 304.776,113.759 305.222,113.497 305.669,113.235 306.115,112.974 306.562,112.713 307.008,112.453 307.454,112.194 307.901,111.936 308.347,111.678 308.794,111.421 309.24,111.164 309.686,110.908 310.133,110.653 310.579,110.398 311.026,110.144 311.472,109.891 311.918,109.638 312.365,109.386 312.811,109.134 313.258,108.884 313.704,108.633 314.15,108.384 314.597,108.135 315.043,107.887 315.49,107.639 315.936,107.392 316.382,107.146 316.829,106.9 317.275,106.655 317.722,106.41 318.168,106.166 318.614,105.923 319.061,105.681 319.507,105.439 319.954,105.197 320.4,104.957 320.846,104.717 321.293,104.477 321.739,104.238 322.186,104 322.632,103.763 323.078,103.526 323.525,103.289 323.971,103.054 324.418,102.818 324.864,102.584 325.31,102.35 325.757,102.117 326.203,101.884 326.65,101.652 327.096,101.421 327.542,101.19 327.989,100.96 328.435,100.731 328.882,100.502 329.328,100.273 329.774,100.046 330.221,99.8187 330.667,99.5922 331.114,99.3664 331.56,99.1411 332.006,98.9165 332.453,98.6925 332.899,98.4691 333.346,98.2463 333.792,98.0241 334.238,97.8026 334.685,97.5816 335.131,97.3612 335.578,97.1415 336.024,96.9224 336.47,96.7038 336.917,96.4859 337.363,96.2686 337.81,96.0518 338.256,95.8357 338.702,95.6202 339.149,95.4052 339.595,95.1909 340.042,94.9772 340.488,94.7641 340.934,94.5516 341.381,94.3397 341.827,94.1283 342.274,93.9176 342.72,93.7075 343.166,93.4979 343.613,93.289 344.059,93.0806 344.506,92.8729 344.952,92.6657 345.398,92.4592 345.845,92.2532 346.291,92.0478 346.738,91.843 347.184,91.6388 347.63,91.4352 348.077,91.2322 348.523,91.0298 348.97,90.828 349.416,90.6267 349.862,90.4261 350.309,90.226 350.755,90.0265 351.202,89.8276 351.648,89.6293 352.094,89.4316 352.541,89.2344 352.987,89.0379 353.434,88.8419 353.88,88.6465 354.326,88.4517 354.773,88.2574 355.219,88.0638 355.666,87.8708 356.112,87.6783 356.558,87.4863 357.005,87.295 357.451,87.1043 357.898,86.9141 358.344,86.7245 358.79,86.5355 359.237,86.3471 359.683,86.1592 360.13,85.9719 360.576,85.7852 361.022,85.5991 361.469,85.4135 361.915,85.2285 362.362,85.0441 362.808,84.8603 363.254,84.677 363.701,84.4943 364.147,84.3122 364.594,84.1306 365.04,83.9497 365.486,83.7693 365.933,83.5894 366.379,83.4101 366.826,83.2314 367.272,83.0533 367.718,82.8757 368.165,82.6987 368.611,82.5223 369.058,82.3464 369.504,82.1711 369.95,81.9964 370.397,81.8222 370.843,81.6486 371.29,81.4756 371.736,81.3031 372.182,81.1312 372.629,80.9598 373.075,80.7891 373.522,80.6188 373.968,80.4491 374.414,80.28 374.861,80.1115 375.307,79.9435 375.754,79.7761 376.2,79.6092 376.646,79.4429 377.093,79.2771 377.539,79.1119 377.986,78.9473 378.432,78.7832 378.878,78.6197 379.325,78.4567 379.771,78.2943 380.218,78.1325 380.664,77.9712 381.11,77.8104 381.557,77.6502 382.003,77.4906 382.45,77.3315 382.896,77.173 383.342,77.015 383.789,76.8575 384.235,76.7007 384.682,76.5443 385.128,76.3885 385.574,76.2333 386.021,76.0786 386.467,75.9245 386.914,75.7709 387.36,75.6179 387.806,75.4654 388.253,75.3135 388.699,75.1621 389.146,75.0112 389.592,74.8609 390.038,74.7112 390.485,74.562 390.931,74.4133 391.378,74.2652 391.824,74.1176 392.27,73.9706 392.717,73.8241 393.163,73.6782 393.61,73.5328 394.056,73.3879 394.502,73.2436 394.949,73.0999 395.395,72.9566 395.842,72.8139 396.288,72.6718 396.734,72.5302 397.181,72.3891 397.627,72.2486 398.074,72.1086 398.52,71.9691 398.966,71.8302 399.413,71.6919 399.859,71.554 400.306,71.4167 400.752,71.28 401.198,71.1437 401.645,71.008 402.091,70.8729 402.538,70.7383 402.984,70.6042 403.43,70.4706 403.877,70.3376 404.323,70.2052 404.77,70.0732 405.216,69.9418 405.662,69.8109 406.109,69.6806 406.555,69.5508 407.002,69.4215 407.448,69.2928 407.894,69.1645 408.341,69.0369 408.787,68.9097 409.234,68.7831 409.68,68.657 410.126,68.5314 410.573,68.4064 411.019,68.2819 411.466,68.1579 411.912,68.0344 412.358,67.9115 412.805,67.7892 413.251,67.6673 413.698,67.546 414.144,67.4251 414.59,67.3049 415.037,67.1851 415.483,67.0659 415.93,66.9471 416.376,66.829 416.822,66.7113 417.269,66.5942 417.715,66.4776 418.162,66.3615 418.608,66.2459 419.054,66.1309 419.501,66.0164 419.947,65.9024 420.394,65.7889 420.84,65.676 421.286,65.5636 421.733,65.4517 422.179,65.3404 422.626,65.2295 423.072,65.1191 423.518,65.0093 423.965,64.9 424.411,64.7913 424.858,64.683 425.304,64.5753 425.75,64.4681 426.197,64.3614 426.643,64.2552 427.09,64.1496 427.536,64.0444 427.982,63.9398 428.429,63.8357 428.875,63.7321 429.322,63.629 429.768,63.5265 430.214,63.4245 430.661,63.3229 431.107,63.2219 431.554,63.1214 432,63.0215 432.446,62.922 432.893,62.8231 433.339,62.7247 433.786,62.6267 434.232,62.5294 434.678,62.4325 435.125,62.3361 435.571,62.2402 436.018,62.1449 436.464,62.0501 436.91,61.9557 437.357,61.8619 437.803,61.7686 438.25,61.6759 438.696,61.5836 439.142,61.4919 439.589,61.4006 440.035,61.3099 440.482,61.2197 440.928,61.1299 441.374,61.0407 441.821,60.952 442.267,60.8639 442.714,60.7762 443.16,60.689 443.606,60.6024 444.053,60.5163 444.499,60.4306 444.946,60.3455 445.392,60.2609 445.838,60.1768 446.285,60.0932 446.731,60.0101 447.178,59.9275 447.624,59.8454 448.07,59.7639 448.517,59.6828 448.963,59.6022 449.41,59.5222 449.856,59.4427 450.302,59.3636 450.749,59.2851 451.195,59.207 451.642,59.1295 452.088,59.0525 452.534,58.976 452.981,58.9 453.427,58.8245 453.874,58.7495 454.32,58.675 454.766,58.601 455.213,58.5276 455.659,58.4546 456.106,58.3821 456.552,58.3102 456.998,58.2387 457.445,58.1677 457.891,58.0973 458.338,58.0273 458.784,57.9579 459.23,57.8889 459.677,57.8204 460.123,57.7525 460.57,57.685 461.016,57.6181 461.462,57.5517 461.909,57.4857 462.355,57.4203 462.802,57.3553 463.248,57.2909 463.694,57.227 464.141,57.1635 464.587,57.1006 465.034,57.0381 465.48,56.9762 465.926,56.9148 466.373,56.8538 466.819,56.7934 467.266,56.7335 467.712,56.674 468.158,56.6151 468.605,56.5566 469.051,56.4987 469.498,56.4413 469.944,56.3843 470.39,56.3279 470.837,56.2719 471.283,56.2165 471.73,56.1615 472.176,56.1071 472.622,56.0531 473.069,55.9996 473.515,55.9467 473.962,55.8942 474.408,55.8423 474.854,55.7908 475.301,55.7398 475.747,55.6893 476.194,55.6394 476.64,55.5899 477.086,55.5409 477.533,55.4924 477.979,55.4444 478.426,55.3969 478.872,55.3499 479.318,55.3034 479.765,55.2574 480.211,55.2119 480.658,55.1669 481.104,55.1224 481.55,55.0783 481.997,55.0348 482.443,54.9918 482.89,54.9492 483.336,54.9072 483.782,54.8656 484.229,54.8246 484.675,54.784 485.122,54.744 485.568,54.7044 486.014,54.6653 486.461,54.6267 486.907,54.5886 487.354,54.551 487.8,54.5139 488.246,54.4773 488.693,54.4412 489.139,54.4055 489.586,54.3704 490.032,54.3358 490.478,54.3016 490.925,54.268 491.371,54.2348 491.818,54.2022 492.264,54.17 492.71,54.1383 493.157,54.1071 493.603,54.0764 494.05,54.0462 494.496,54.0165 494.942,53.9873 495.389,53.9586 495.835,53.9304 496.282,53.9026 496.728,53.8754 497.174,53.8486 497.621,53.8224 498.067,53.7966 498.514,53.7713 498.96,53.7466 499.406,53.7223 499.853,53.6984 500.299,53.6751 500.746,53.6523 501.192,53.63 501.638,53.6082 502.085,53.5868 502.531,53.5659 502.978,53.5456 503.424,53.5257 503.87,53.5063 504.317,53.4875 504.763,53.4691 505.21,53.4512 505.656,53.4338 506.102,53.4168 506.549,53.4004 506.995,53.3845 507.442,53.369 507.888,53.354 508.334,53.3396 508.781,53.3256 509.227,53.3121 509.674,53.2991 510.12,53.2866 510.566,53.2746 511.013,53.2631 511.459,53.252 511.906,53.2415 512.352,53.2314 512.798,53.2219 513.245,53.2128 513.691,53.2042 514.138,53.1961 514.584,53.1885 515.03,53.1814 515.477,53.1748 515.923,53.1687 516.37,53.1631 516.816,53.1579 517.262,53.1532 517.709,53.1491 518.155,53.1454 518.602,53.1422 519.048,53.1395 519.494,53.1373 519.941,53.1356 520.387,53.1344 520.834,53.1336 521.28,53.1334"/>
  </g>
 </g>
</svg>
