<?xml version='1.0' encoding='UTF-8' standalone='no'?>
<svg viewBox="0 0 576 432" xmlns="http://www.w3.org/2000/svg" width="576pt" height="432pt" xmlns:xlink="http://www.w3.org/1999/xlink">
 <title>gl2ps_renderer figure</title>
 <desc>
Creator: GL2PS 1.4.0, (C) 1999-2017 C. Geuzaine
For: Octave
CreationDate: Fri Jul 03 15:43:32 2020
</desc>
 <defs/>
 <polygon points="0,0 576,0 576,432 0,432" fill="#ffffff"/>
 <g>
  <polygon points="0,432 576,432 576,0 0,0" fill="#ffffff" shape-rendering="crispEdges"/>
  <clipPath id="cp00576432">
   <polygon points="0,432 576,432 576,0 0,0"/>
  </clipPath>
  <g clip-path="url(#cp00576432)">
   <polygon points="92.0084,367.496 505.28,367.496 505.28,44.4 92.0084,44.4" fill="#ffffff" shape-rendering="crispEdges"/>
   <polyline stroke-linejoin="miter" stroke-opacity="0.15" stroke-dasharray="16,0" stroke-linecap="butt" points="92.0084,367.496 92.0084,44.4" fill="none" stroke-width="0.5" stroke="#262626"/>
   <polyline stroke-linejoin="miter" stroke-opacity="0.15" stroke-dasharray="16,0" stroke-linecap="butt" points="151.348,367.496 151.348,44.4" fill="none" stroke-width="0.5" stroke="#262626"/>
   <polyline stroke-linejoin="miter" stroke-opacity="0.15" stroke-dasharray="16,0" stroke-linecap="butt" points="210.688,367.496 210.688,44.4" fill="none" stroke-width="0.5" stroke="#262626"/>
   <polyline stroke-linejoin="miter" stroke-opacity="0.15" stroke-dasharray="16,0" stroke-linecap="butt" points="270.028,367.496 270.028,44.4" fill="none" stroke-width="0.5" stroke="#262626"/>
   <polyline stroke-linejoin="miter" stroke-opacity="0.15" stroke-dasharray="16,0" stroke-linecap="butt" points="329.368,367.496 329.368,44.4" fill="none" stroke-width="0.5" stroke="#262626"/>
   <polyline stroke-linejoin="miter" stroke-opacity="0.15" stroke-dasharray="16,0" stroke-linecap="butt" points="388.708,367.496 388.708,44.4" fill="none" stroke-width="0.5" stroke="#262626"/>
   <polyline stroke-linejoin="miter" stroke-opacity="0.15" stroke-dasharray="16,0" stroke-linecap="butt" points="448.048,367.496 448.048,44.4" fill="none" stroke-width="0.5" stroke="#262626"/>
   <polyline stroke-linejoin="miter" stroke-linecap="butt" points="92.0084,367.496 92.0084,363.362" fill="none" stroke-width="0.5" stroke="#262626"/>
   <polyline stroke-linejoin="miter" stroke-linecap="butt" points="92.0084,44.4 92.0084,48.5339" fill="none" stroke-width="0.5" stroke="#262626"/>
   <polyline stroke-linejoin="miter" stroke-linecap="butt" points="151.348,367.496 151.348,363.362" fill="none" stroke-width="0.5" stroke="#262626"/>
   <polyline stroke-linejoin="miter" stroke-linecap="butt" points="151.348,44.4 151.348,48.5339" fill="none" stroke-width="0.5" stroke="#262626"/>
   <polyline stroke-linejoin="miter" stroke-linecap="butt" points="210.688,367.496 210.688,363.362" fill="none" stroke-width="0.5" stroke="#262626"/>
   <polyline stroke-linejoin="miter" stroke-linecap="butt" points="210.688,44.4 210.688,48.5339" fill="none" stroke-width="0.5" stroke="#262626"/>
   <polyline stroke-linejoin="miter" stroke-linecap="butt" points="270.028,367.496 270.028,363.362" fill="none" stroke-width="0.5" stroke="#262626"/>
   <polyline stroke-linejoin="miter" stroke-linecap="butt" points="270.028,44.4 270.028,48.5339" fill="none" stroke-width="0.5" stroke="#262626"/>
   <polyline stroke-linejoin="miter" stroke-linecap="butt" points="329.368,367.496 329.368,363.362" fill="none" stroke-width="0.5" stroke="#262626"/>
   <polyline stroke-linejoin="miter" stroke-linecap="butt" points="329.368,44.4 329.368,48.5339" fill="none" stroke-width="0.5" stroke="#262626"/>
   <polyline stroke-linejoin="miter" stroke-linecap="butt" points="388.708,367.496 388.708,363.362" fill="none" stroke-width="0.5" stroke="#262626"/>
   <polyline stroke-linejoin="miter" stroke-linecap="butt" points="388.708,44.4 388.708,48.5339" fill="none" stroke-width="0.5" stroke="#262626"/>
   <polyline stroke-linejoin="miter" stroke-linecap="butt" points="448.048,367.496 448.048,363.362" fill="none" stroke-width="0.5" stroke="#262626"/>
   <polyline stroke-linejoin="miter" stroke-linecap="butt" points="448.048,44.4 448.048,48.5339" fill="none" stroke-width="0.5" stroke="#262626"/>
   <text transform="translate(87.5084,394) rotate(-0,4.5,-13)" font-style="normal" font-family="CMU Serif" xml:space="preserve" font-weight="normal" font-size="18">
    <tspan y="-0" x="0 " fill="rgb(38,38,38)">0</tspan>
   </text>
   <text transform="translate(146.848,394) rotate(-0,4.5,-13)" font-style="normal" font-family="CMU Serif" xml:space="preserve" font-weight="normal" font-size="18">
    <tspan y="-0" x="0 " fill="rgb(38,38,38)">2</tspan>
   </text>
   <text transform="translate(206.188,394) rotate(-0,4.5,-13)" font-style="normal" font-family="CMU Serif" xml:space="preserve" font-weight="normal" font-size="18">
    <tspan y="-0" x="0 " fill="rgb(38,38,38)">4</tspan>
   </text>
   <text transform="translate(265.528,394) rotate(-0,4.5,-13)" font-style="normal" font-family="CMU Serif" xml:space="preserve" font-weight="normal" font-size="18">
    <tspan y="-0" x="0 " fill="rgb(38,38,38)">6</tspan>
   </text>
   <text transform="translate(324.868,394) rotate(-0,4.5,-13)" font-style="normal" font-family="CMU Serif" xml:space="preserve" font-weight="normal" font-size="18">
    <tspan y="-0" x="0 " fill="rgb(38,38,38)">8</tspan>
   </text>
   <text transform="translate(379.708,394) rotate(-0,9,-13)" font-style="normal" font-family="CMU Serif" xml:space="preserve" font-weight="normal" font-size="18">
    <tspan y="-0" x="0 9 " fill="rgb(38,38,38)">10</tspan>
   </text>
   <text transform="translate(439.048,394) rotate(-0,9,-13)" font-style="normal" font-family="CMU Serif" xml:space="preserve" font-weight="normal" font-size="18">
    <tspan y="-0" x="0 9 " fill="rgb(38,38,38)">12</tspan>
   </text>
   <polyline stroke-linejoin="miter" stroke-opacity="0.15" stroke-dasharray="16,0" stroke-linecap="butt" points="92.0084,367.496 505.28,367.496" fill="none" stroke-width="0.5" stroke="#262626"/>
   <polyline stroke-linejoin="miter" stroke-opacity="0.15" stroke-dasharray="16,0" stroke-linecap="butt" points="92.0084,321.339 505.28,321.339" fill="none" stroke-width="0.5" stroke="#262626"/>
   <polyline stroke-linejoin="miter" stroke-opacity="0.15" stroke-dasharray="16,0" stroke-linecap="butt" points="92.0084,275.183 505.28,275.183" fill="none" stroke-width="0.5" stroke="#262626"/>
   <polyline stroke-linejoin="miter" stroke-opacity="0.15" stroke-dasharray="16,0" stroke-linecap="butt" points="92.0084,229.026 505.28,229.026" fill="none" stroke-width="0.5" stroke="#262626"/>
   <polyline stroke-linejoin="miter" stroke-opacity="0.15" stroke-dasharray="16,0" stroke-linecap="butt" points="92.0084,182.87 505.28,182.87" fill="none" stroke-width="0.5" stroke="#262626"/>
   <polyline stroke-linejoin="miter" stroke-opacity="0.15" stroke-dasharray="16,0" stroke-linecap="butt" points="92.0084,136.713 505.28,136.713" fill="none" stroke-width="0.5" stroke="#262626"/>
   <polyline stroke-linejoin="miter" stroke-opacity="0.15" stroke-dasharray="16,0" stroke-linecap="butt" points="92.0084,90.5566 505.28,90.5566" fill="none" stroke-width="0.5" stroke="#262626"/>
   <polyline stroke-linejoin="miter" stroke-opacity="0.15" stroke-dasharray="16,0" stroke-linecap="butt" points="92.0084,44.4 505.28,44.4" fill="none" stroke-width="0.5" stroke="#262626"/>
   <polyline stroke-linejoin="miter" stroke-linecap="butt" points="92.0084,367.496 96.1438,367.496" fill="none" stroke-width="0.5" stroke="#262626"/>
   <polyline stroke-linejoin="miter" stroke-linecap="butt" points="505.28,367.496 501.145,367.496" fill="none" stroke-width="0.5" stroke="#262626"/>
   <polyline stroke-linejoin="miter" stroke-linecap="butt" points="92.0084,321.339 96.1438,321.339" fill="none" stroke-width="0.5" stroke="#262626"/>
   <polyline stroke-linejoin="miter" stroke-linecap="butt" points="505.28,321.339 501.145,321.339" fill="none" stroke-width="0.5" stroke="#262626"/>
   <polyline stroke-linejoin="miter" stroke-linecap="butt" points="92.0084,275.183 96.1438,275.183" fill="none" stroke-width="0.5" stroke="#262626"/>
   <polyline stroke-linejoin="miter" stroke-linecap="butt" points="505.28,275.183 501.145,275.183" fill="none" stroke-width="0.5" stroke="#262626"/>
   <polyline stroke-linejoin="miter" stroke-linecap="butt" points="92.0084,229.026 96.1438,229.026" fill="none" stroke-width="0.5" stroke="#262626"/>
   <polyline stroke-linejoin="miter" stroke-linecap="butt" points="505.28,229.026 501.145,229.026" fill="none" stroke-width="0.5" stroke="#262626"/>
   <polyline stroke-linejoin="miter" stroke-linecap="butt" points="92.0084,182.87 96.1438,182.87" fill="none" stroke-width="0.5" stroke="#262626"/>
   <polyline stroke-linejoin="miter" stroke-linecap="butt" points="505.28,182.87 501.145,182.87" fill="none" stroke-width="0.5" stroke="#262626"/>
   <polyline stroke-linejoin="miter" stroke-linecap="butt" points="92.0084,136.713 96.1438,136.713" fill="none" stroke-width="0.5" stroke="#262626"/>
   <polyline stroke-linejoin="miter" stroke-linecap="butt" points="505.28,136.713 501.145,136.713" fill="none" stroke-width="0.5" stroke="#262626"/>
   <polyline stroke-linejoin="miter" stroke-linecap="butt" points="92.0084,90.5566 96.1438,90.5566" fill="none" stroke-width="0.5" stroke="#262626"/>
   <polyline stroke-linejoin="miter" stroke-linecap="butt" points="505.28,90.5566 501.145,90.5566" fill="none" stroke-width="0.5" stroke="#262626"/>
   <polyline stroke-linejoin="miter" stroke-linecap="butt" points="92.0084,44.4 96.1438,44.4" fill="none" stroke-width="0.5" stroke="#262626"/>
   <polyline stroke-linejoin="miter" stroke-linecap="butt" points="505.28,44.4 501.145,44.4" fill="none" stroke-width="0.5" stroke="#262626"/>
   <text transform="translate(47.0025,373.996) rotate(-0,36,-6.5)" font-style="normal" font-family="CMU Serif" xml:space="preserve" font-weight="normal" font-size="18">
    <tspan y="-0" x="0 9 18 27 " fill="rgb(38,38,38)">2000</tspan>
   </text>
   <text transform="translate(47.0025,327.839) rotate(-0,36,-6.5)" font-style="normal" font-family="CMU Serif" xml:space="preserve" font-weight="normal" font-size="18">
    <tspan y="-0" x="0 9 18 27 " fill="rgb(38,38,38)">4000</tspan>
   </text>
   <text transform="translate(47.0025,281.683) rotate(-0,36,-6.5)" font-style="normal" font-family="CMU Serif" xml:space="preserve" font-weight="normal" font-size="18">
    <tspan y="-0" x="0 9 18 27 " fill="rgb(38,38,38)">6000</tspan>
   </text>
   <text transform="translate(47.0025,235.526) rotate(-0,36,-6.5)" font-style="normal" font-family="CMU Serif" xml:space="preserve" font-weight="normal" font-size="18">
    <tspan y="-0" x="0 9 18 27 " fill="rgb(38,38,38)">8000</tspan>
   </text>
   <text transform="translate(38.0025,189.37) rotate(-0,45,-6.5)" font-style="normal" font-family="CMU Serif" xml:space="preserve" font-weight="normal" font-size="18">
    <tspan y="-0" x="0 9 18 27 36 " fill="rgb(38,38,38)">10000</tspan>
   </text>
   <text transform="translate(38.0025,143.213) rotate(-0,45,-6.5)" font-style="normal" font-family="CMU Serif" xml:space="preserve" font-weight="normal" font-size="18">
    <tspan y="-0" x="0 9 18 27 36 " fill="rgb(38,38,38)">12000</tspan>
   </text>
   <text transform="translate(38.0025,97.0566) rotate(-0,45,-6.5)" font-style="normal" font-family="CMU Serif" xml:space="preserve" font-weight="normal" font-size="18">
    <tspan y="-0" x="0 9 18 27 36 " fill="rgb(38,38,38)">14000</tspan>
   </text>
   <text transform="translate(38.0025,50.9) rotate(-0,45,-6.5)" font-style="normal" font-family="CMU Serif" xml:space="preserve" font-weight="normal" font-size="18">
    <tspan y="-0" x="0 9 18 27 36 " fill="rgb(38,38,38)">16000</tspan>
   </text>
   <polyline stroke-linejoin="miter" stroke-dasharray="16,0" stroke-linecap="square" points="92.0084,367.496 505.28,367.496" fill="none" stroke-width="0.5" stroke="#262626"/>
   <polyline stroke-linejoin="miter" stroke-dasharray="16,0" stroke-linecap="square" points="92.0084,44.4 505.28,44.4" fill="none" stroke-width="0.5" stroke="#262626"/>
   <polyline stroke-linejoin="miter" stroke-dasharray="16,0" stroke-linecap="square" points="92.0084,367.496 92.0084,44.4" fill="none" stroke-width="0.5" stroke="#262626"/>
   <polyline stroke-linejoin="miter" stroke-dasharray="16,0" stroke-linecap="square" points="505.28,367.496 505.28,44.4" fill="none" stroke-width="0.5" stroke="#262626"/>
   <text transform="translate(258.644,432) rotate(-0,40,-33)" font-style="normal" font-family="CMU Serif" xml:space="preserve" font-weight="normal" font-size="19.8">
    <tspan y="-16" x="0 " fill="rgb(38,38,38)">h</tspan>
    <tspan y="-0" x="11 20 " fill="rgb(38,38,38)" font-size="17.8">am</tspan>
    <tspan y="-16" x="35 42 48 57 74 " fill="rgb(38,38,38)"> [cm]</tspan>
   </text>
   <text transform="translate(-14.4975,205.948) rotate(-90,47.5,0)" font-style="normal" font-family="CMU Serif" xml:space="preserve" font-weight="normal" font-size="19.8">
    <tspan y="-16" x="0 " fill="rgb(38,38,38)">Q</tspan>
    <tspan y="-0" x="16 25 " fill="rgb(38,38,38)" font-size="17.8">am</tspan>
    <tspan y="-16" x="40 47 53 64 74 89 " fill="rgb(38,38,38)"> [daN]</tspan>
   </text>
   <polyline stroke-linejoin="round" stroke-linecap="butt" points="92.0084,343.729 92.4217,343.17 92.8349,342.611 93.2482,342.053 93.6615,341.496 94.0747,340.939 94.488,340.383 94.9013,339.827 95.3146,339.272 95.7278,338.717 96.1411,338.163 96.5544,337.61 96.9677,337.057 97.3809,336.504 97.7942,335.952 98.2075,335.401 98.6207,334.85 99.034,334.3 99.4473,333.751 99.8606,333.202 100.274,332.653 100.687,332.105 101.1,331.558 101.514,331.011 101.927,330.465 102.34,329.919 102.753,329.374 103.167,328.83 103.58,328.286 103.993,327.742 104.407,327.199 104.82,326.657 105.233,326.115 105.646,325.574 106.06,325.033 106.473,324.493 106.886,323.954 107.299,323.415 107.713,322.876 108.126,322.338 108.539,321.801 108.953,321.264 109.366,320.728 109.779,320.193 110.192,319.658 110.606,319.123 111.019,318.589 111.432,318.056 111.845,317.523 112.259,316.991 112.672,316.459 113.085,315.928 113.499,315.397 113.912,314.867 114.325,314.338 114.738,313.809 115.152,313.28 115.565,312.753 115.978,312.225 116.391,311.699 116.805,311.173 117.218,310.647 117.631,310.122 118.045,309.598 118.458,309.074 118.871,308.551 119.284,308.028 119.698,307.506 120.111,306.984 120.524,306.463 120.937,305.942 121.351,305.422 121.764,304.903 122.177,304.384 122.59,303.866 123.004,303.348 123.417,302.831 123.83,302.315 124.244,301.798 124.657,301.283 125.07,300.768 125.483,300.254 125.897,299.74 126.31,299.227 126.723,298.714 127.136,298.202 127.55,297.69 127.963,297.179 128.376,296.669 128.79,296.159 129.203,295.65 129.616,295.141 130.029,294.633 130.443,294.125 130.856,293.618 131.269,293.111 131.682,292.605 132.096,292.1 132.509,291.595 132.922,291.091 133.336,290.587 133.749,290.084 134.162,289.581 134.575,289.079 134.989,288.578 135.402,288.077 135.815,287.577 136.228,287.077 136.642,286.578 137.055,286.079 137.468,285.581 137.882,285.083 138.295,284.586 138.708,284.09 139.121,283.594 139.535,283.098 139.948,282.604 140.361,282.109 140.774,281.616 141.188,281.123 141.601,280.63 142.014,280.138 142.428,279.647 142.841,279.156 143.254,278.666 143.667,278.176 144.081,277.687 144.494,277.198 144.907,276.71 145.32,276.222 145.734,275.735 146.147,275.249 146.56,274.763 146.974,274.278 147.387,273.793 147.8,273.309 148.213,272.826 148.627,272.342 149.04,271.86 149.453,271.378 149.866,270.897 150.28,270.416 150.693,269.936 151.106,269.456 151.52,268.977 151.933,268.498 152.346,268.02 152.759,267.543 153.173,267.066 153.586,266.59 153.999,266.114 154.412,265.639 154.826,265.164 155.239,264.69 155.652,264.217 156.065,263.744 156.479,263.271 156.892,262.799 157.305,262.328 157.719,261.857 158.132,261.387 158.545,260.918 158.958,260.448 159.372,259.98 159.785,259.512 160.198,259.045 160.611,258.578 161.025,258.112 161.438,257.646 161.851,257.181 162.265,256.716 162.678,256.252 163.091,255.789 163.504,255.326 163.918,254.864 164.331,254.402 164.744,253.941 165.157,253.48 165.571,253.02 165.984,252.56 166.397,252.101 166.811,251.643 167.224,251.185 167.637,250.728 168.05,250.271 168.464,249.815 168.877,249.359 169.29,248.904 169.703,248.45 170.117,247.996 170.53,247.542 170.943,247.089 171.357,246.637 171.77,246.186 172.183,245.734 172.596,245.284 173.01,244.834 173.423,244.384 173.836,243.935 174.249,243.487 174.663,243.039 175.076,242.592 175.489,242.145 175.903,241.699 176.316,241.254 176.729,240.809 177.142,240.364 177.556,239.92 177.969,239.477 178.382,239.034 178.795,238.592 179.209,238.15 179.622,237.709 180.035,237.269 180.449,236.829 180.862,236.389 181.275,235.951 181.688,235.512 182.102,235.075 182.515,234.637 182.928,234.201 183.341,233.765 183.755,233.329 184.168,232.894 184.581,232.46 184.995,232.026 185.408,231.593 185.821,231.16 186.234,230.728 186.648,230.297 187.061,229.866 187.474,229.435 187.887,229.005 188.301,228.576 188.714,228.147 189.127,227.719 189.54,227.291 189.954,226.864 190.367,226.438 190.78,226.012 191.194,225.586 191.607,225.161 192.02,224.737 192.433,224.313 192.847,223.89 193.26,223.468 193.673,223.046 194.086,222.624 194.5,222.203 194.913,221.783 195.326,221.363 195.74,220.944 196.153,220.525 196.566,220.107 196.979,219.689 197.393,219.272 197.806,218.856 198.219,218.44 198.632,218.025 199.046,217.61 199.459,217.195 199.872,216.782 200.286,216.369 200.699,215.956 201.112,215.544 201.525,215.133 201.939,214.722 202.352,214.312 202.765,213.902 203.178,213.493 203.592,213.084 204.005,212.676 204.418,212.268 204.832,211.861 205.245,211.455 205.658,211.049 206.071,210.644 206.485,210.239 206.898,209.835 207.311,209.431 207.724,209.028 208.138,208.626 208.551,208.224 208.964,207.823 209.378,207.422 209.791,207.022 210.204,206.622 210.617,206.223 211.031,205.824 211.444,205.426 211.857,205.029 212.27,204.632 212.684,204.236 213.097,203.84 213.51,203.445 213.924,203.05 214.337,202.656 214.75,202.262 215.163,201.869 215.577,201.477 215.99,201.085 216.403,200.694 216.816,200.303 217.23,199.913 217.643,199.523 218.056,199.134 218.47,198.746 218.883,198.358 219.296,197.97 219.709,197.584 220.123,197.197 220.536,196.812 220.949,196.427 221.362,196.042 221.776,195.658 222.189,195.274 222.602,194.892 223.016,194.509 223.429,194.127 223.842,193.746 224.255,193.366 224.669,192.985 225.082,192.606 225.495,192.227 225.908,191.848 226.322,191.471 226.735,191.093 227.148,190.717 227.561,190.34 227.975,189.965 228.388,189.59 228.801,189.215 229.215,188.841 229.628,188.468 230.041,188.095 230.454,187.723 230.868,187.351 231.281,186.98 231.694,186.609 232.107,186.239 232.521,185.87 232.934,185.501 233.347,185.132 233.761,184.765 234.174,184.397 234.587,184.031 235,183.665 235.414,183.299 235.827,182.934 236.24,182.57 236.653,182.206 237.067,181.842 237.48,181.48 237.893,181.117 238.307,180.756 238.72,180.395 239.133,180.034 239.546,179.674 239.96,179.315 240.373,178.956 240.786,178.598 241.199,178.24 241.613,177.883 242.026,177.526 242.439,177.17 242.853,176.815 243.266,176.46 243.679,176.105 244.092,175.752 244.506,175.398 244.919,175.046 245.332,174.693 245.745,174.342 246.159,173.991 246.572,173.64 246.985,173.29 247.399,172.941 247.812,172.592 248.225,172.244 248.638,171.897 249.052,171.549 249.465,171.203 249.878,170.857 250.291,170.511 250.705,170.167 251.118,169.822 251.531,169.479 251.945,169.135 252.358,168.793 252.771,168.451 253.184,168.109 253.598,167.768 254.011,167.428 254.424,167.088 254.837,166.749 255.251,166.41 255.664,166.072 256.077,165.734 256.491,165.397 256.904,165.061 257.317,164.725 257.73,164.39 258.144,164.055 258.557,163.72 258.97,163.387 259.383,163.054 259.797,162.721 260.21,162.389 260.623,162.058 261.036,161.727 261.45,161.397 261.863,161.067 262.276,160.738 262.69,160.409 263.103,160.081 263.516,159.753 263.929,159.426 264.343,159.1 264.756,158.774 265.169,158.449 265.582,158.124 265.996,157.8 266.409,157.476 266.822,157.153 267.236,156.831 267.649,156.509 268.062,156.188 268.475,155.867 268.889,155.546 269.302,155.227 269.715,154.908 270.128,154.589 270.542,154.271 270.955,153.954 271.368,153.637 271.782,153.32 272.195,153.005 272.608,152.689 273.021,152.375 273.435,152.061 273.848,151.747 274.261,151.434 274.674,151.122 275.088,150.81 275.501,150.499 275.914,150.188 276.328,149.878 276.741,149.568 277.154,149.259 277.567,148.95 277.981,148.642 278.394,148.335 278.807,148.028 279.22,147.722 279.634,147.416 280.047,147.111 280.46,146.807 280.874,146.503 281.287,146.199 281.7,145.896 282.113,145.594 282.527,145.292 282.94,144.991 283.353,144.69 283.766,144.39 284.18,144.09 284.593,143.791 285.006,143.493 285.42,143.195 285.833,142.898 286.246,142.601 286.659,142.305 287.073,142.009 287.486,141.714 287.899,141.42 288.312,141.126 288.726,140.832 289.139,140.539 289.552,140.247 289.966,139.955 290.379,139.664 290.792,139.374 291.205,139.084 291.619,138.794 292.032,138.505 292.445,138.217 292.858,137.929 293.272,137.642 293.685,137.355 294.098,137.069 294.512,136.783 294.925,136.498 295.338,136.214 295.751,135.93 296.165,135.647 296.578,135.364 296.991,135.082 297.404,134.8 297.818,134.519 298.231,134.238 298.644,133.958 299.057,133.679 299.471,133.4 299.884,133.122 300.297,132.844 300.711,132.567 301.124,132.29 301.537,132.014 301.95,131.739 302.364,131.464 302.777,131.19 303.19,130.916 303.603,130.642 304.017,130.37 304.43,130.098 304.843,129.826 305.257,129.555 305.67,129.285 306.083,129.015 306.496,128.745 306.91,128.477 307.323,128.208 307.736,127.941 308.149,127.674 308.563,127.407 308.976,127.141 309.389,126.876 309.803,126.611 310.216,126.346 310.629,126.083 311.042,125.819 311.456,125.557 311.869,125.295 312.282,125.033 312.695,124.772 313.109,124.512 313.522,124.252 313.935,123.993 314.349,123.734 314.762,123.476 315.175,123.218 315.588,122.961 316.002,122.705 316.415,122.449 316.828,122.193 317.241,121.939 317.655,121.684 318.068,121.431 318.481,121.178 318.895,120.925 319.308,120.673 319.721,120.422 320.134,120.171 320.548,119.92 320.961,119.671 321.374,119.421 321.787,119.173 322.201,118.925 322.614,118.677 323.027,118.43 323.441,118.184 323.854,117.938 324.267,117.693 324.68,117.448 325.094,117.204 325.507,116.96 325.92,116.717 326.333,116.475 326.747,116.233 327.16,115.991 327.573,115.75 327.987,115.51 328.4,115.27 328.813,115.031 329.226,114.793 329.64,114.555 330.053,114.317 330.466,114.08 330.879,113.844 331.293,113.608 331.706,113.373 332.119,113.138 332.532,112.904 332.946,112.671 333.359,112.438 333.772,112.205 334.186,111.973 334.599,111.742 335.012,111.511 335.425,111.281 335.839,111.052 336.252,110.823 336.665,110.594 337.078,110.366 337.492,110.139 337.905,109.912 338.318,109.686 338.732,109.46 339.145,109.235 339.558,109.01 339.971,108.786 340.385,108.563 340.798,108.34 341.211,108.117 341.624,107.896 342.038,107.674 342.451,107.454 342.864,107.233 343.278,107.014 343.691,106.795 344.104,106.576 344.517,106.359 344.931,106.141 345.344,105.924 345.757,105.708 346.17,105.493 346.584,105.278 346.997,105.063 347.41,104.849 347.824,104.636 348.237,104.423 348.65,104.211 349.063,103.999 349.477,103.788 349.89,103.577 350.303,103.367 350.716,103.158 351.13,102.949 351.543,102.74 351.956,102.532 352.37,102.325 352.783,102.118 353.196,101.912 353.609,101.707 354.023,101.502 354.436,101.297 354.849,101.093 355.262,100.89 355.676,100.687 356.089,100.485 356.502,100.283 356.916,100.082 357.329,99.8817 357.742,99.6817 358.155,99.4823 358.569,99.2835 358.982,99.0851 359.395,98.8874 359.808,98.6902 360.222,98.4936 360.635,98.2975 361.048,98.102 361.462,97.9071 361.875,97.7127 362.288,97.5189 362.701,97.3256 363.115,97.1329 363.528,96.9408 363.941,96.7491 364.354,96.5581 364.768,96.3676 365.181,96.1777 365.594,95.9884 366.008,95.7996 366.421,95.6114 366.834,95.4237 367.247,95.2365 367.661,95.05 368.074,94.864 368.487,94.6786 368.9,94.4937 369.314,94.3094 369.727,94.1256 370.14,93.9424 370.553,93.7598 370.967,93.5777 371.38,93.3962 371.793,93.2152 372.207,93.0348 372.62,92.855 373.033,92.6757 373.446,92.4969 373.86,92.3188 374.273,92.1412 374.686,91.9641 375.099,91.7877 375.513,91.6117 375.926,91.4363 376.339,91.2615 376.753,91.0873 377.166,90.9136 377.579,90.7405 377.992,90.5679 378.406,90.3959 378.819,90.2244 379.232,90.0535 379.645,89.8832 380.059,89.7134 380.472,89.5442 380.885,89.3755 381.299,89.2075 381.712,89.0399 382.125,88.873 382.538,88.7065 382.952,88.5407 383.365,88.3754 383.778,88.2106 384.191,88.0465 384.605,87.8828 385.018,87.7198 385.431,87.5573 385.845,87.3953 386.258,87.2339 386.671,87.0731 387.084,86.9128 387.498,86.7531 387.911,86.594 388.324,86.4354 388.737,86.2774 389.151,86.1199 389.564,85.963 389.977,85.8067 390.391,85.6509 390.804,85.4956 391.217,85.341 391.63,85.1869 392.044,85.0333 392.457,84.8803 392.87,84.7279 393.283,84.576 393.697,84.4247 394.11,84.274 394.523,84.1237 394.936,83.9741 395.35,83.825 395.763,83.6765 396.176,83.5286 396.59,83.3812 397.003,83.2343 397.416,83.088 397.829,82.9423 398.243,82.7971 398.656,82.6526 399.069,82.5085 399.482,82.3651 399.896,82.2221 400.309,82.0797 400.722,81.9379 401.136,81.7967 401.549,81.656 401.962,81.5159 402.375,81.3763 402.789,81.2373 403.202,81.0988 403.615,80.961 404.028,80.8237 404.442,80.6869 404.855,80.5506 405.268,80.415 405.682,80.2799 406.095,80.1454 406.508,80.0114 406.921,79.878 407.335,79.7451 407.748,79.6129 408.161,79.4811 408.574,79.3499 408.988,79.2193 409.401,79.0893 409.814,78.9597 410.228,78.8308 410.641,78.7024 411.054,78.5746 411.467,78.4474 411.881,78.3206 412.294,78.1945 412.707,78.0689 413.12,77.9439 413.534,77.8195 413.947,77.6955 414.36,77.5722 414.774,77.4494 415.187,77.3272 415.6,77.2055 416.013,77.0844 416.427,76.9639 416.84,76.8439 417.253,76.7245 417.666,76.6056 418.08,76.4872 418.493,76.3695 418.906,76.2523 419.32,76.1357 419.733,76.0196 420.146,75.9041 420.559,75.7892 420.973,75.6747 421.386,75.5609 421.799,75.4476 422.212,75.3349 422.626,75.2228 423.039,75.1112 423.452,75.0001 423.866,74.8896 424.279,74.7797 424.692,74.6704 425.105,74.5616 425.519,74.4533 425.932,74.3456 426.345,74.2385 426.758,74.132 427.172,74.026 427.585,73.9205 427.998,73.8156 428.411,73.7113 428.825,73.6075 429.238,73.5043 429.651,73.4017 430.065,73.2996 430.478,73.1981 430.891,73.0971 431.304,72.9967 431.718,72.8969 432.131,72.7975 432.544,72.6988 432.957,72.6006 433.371,72.503 433.784,72.406 434.197,72.3095 434.611,72.2135 435.024,72.1182 435.437,72.0233 435.85,71.9291 436.264,71.8354 436.677,71.7422 437.09,71.6497 437.503,71.5576 437.917,71.4662 438.33,71.3753 438.743,71.2849 439.157,71.1952 439.57,71.106 439.983,71.0173 440.396,70.9292 440.81,70.8416 441.223,70.7547 441.636,70.6682 442.049,70.5824 442.463,70.4971 442.876,70.4123 443.289,70.3281 443.703,70.2445 444.116,70.1614 444.529,70.0789 444.942,69.997 445.356,69.9156 445.769,69.8347 446.182,69.7545 446.595,69.6748 447.009,69.5956 447.422,69.517 447.835,69.439 448.249,69.3615 448.662,69.2846 449.075,69.2083 449.488,69.1324 449.902,69.0572 450.315,68.9825 450.728,68.9084 451.141,68.8348 451.555,68.7618 451.968,68.6894 452.381,68.6175 452.795,68.5462 453.208,68.4754 453.621,68.4052 454.034,68.3356 454.448,68.2665 454.861,68.198 455.274,68.13 455.687,68.0626 456.101,67.9957 456.514,67.9294 456.927,67.8637 457.341,67.7986 457.754,67.7339 458.167,67.6699 458.58,67.6064 458.994,67.5435 459.407,67.4811 459.82,67.4193 460.233,67.3581 460.647,67.2974 461.06,67.2372 461.473,67.1776 461.887,67.1187 462.3,67.0602 462.713,67.0023 463.126,66.9449 463.54,66.8882 463.953,66.8319 464.366,66.7763 464.779,66.7212 465.193,66.6666 465.606,66.6127 466.019,66.5592 466.432,66.5064 466.846,66.4541 467.259,66.4023 467.672,66.3511 468.086,66.3005 468.499,66.2505 468.912,66.201 469.325,66.152 469.739,66.1036 470.152,66.0558 470.565,66.0085 470.979,65.9618 471.392,65.9156 471.805,65.8701 472.218,65.825 472.632,65.7805 473.045,65.7367 473.458,65.6933 473.871,65.6505 474.285,65.6083 474.698,65.5666 475.111,65.5255 475.524,65.485 475.938,65.4449 476.351,65.4055 476.764,65.3666 477.178,65.3283 477.591,65.2906 478.004,65.2534 478.417,65.2167 478.831,65.1806 479.244,65.1451 479.657,65.1101 480.07,65.0757 480.484,65.0419 480.897,65.0086 481.31,64.9759 481.724,64.9437 482.137,64.9121 482.55,64.8811 482.963,64.8506 483.377,64.8206 483.79,64.7913 484.203,64.7625 484.616,64.7343 485.03,64.7066 485.443,64.6794 485.856,64.6528 486.27,64.6268 486.683,64.6014 487.096,64.5765 487.509,64.5522 487.923,64.5284 488.336,64.5052 488.749,64.4825 489.162,64.4604 489.576,64.4389 489.989,64.4179 490.402,64.3975 490.816,64.3776 491.229,64.3583 491.642,64.3396 492.055,64.3214 492.469,64.3038 492.882,64.2867 493.295,64.2702 493.708,64.2543 494.122,64.2389 494.535,64.2241 494.948,64.2098 495.362,64.1961 495.775,64.183 496.188,64.1704 496.601,64.1584 497.015,64.1469 497.428,64.136 497.841,64.1256 498.254,64.1158 498.668,64.1066 499.081,64.0979 499.494,64.0898 499.908,64.0823 500.321,64.0753 500.734,64.0688 501.147,64.063 501.561,64.0576 501.974,64.0529 502.387,64.0487 502.8,64.0451 503.214,64.042 503.627,64.0395 504.04,64.0375 504.453,64.0361 504.867,64.0353 505.28,64.035" fill="none" stroke-width="3" stroke="#0071bc"/>
   <polyline stroke-linejoin="round" stroke-linecap="butt" points="92.0084,343.729 92.4217,343.624 92.8349,343.518 93.2482,343.413 93.6615,343.308 94.0747,343.203 94.488,343.098 94.9013,342.992 95.3146,342.887 95.7278,342.782 96.1411,342.677 96.5544,342.572 96.9677,342.467 97.3809,342.362 97.7942,342.257 98.2075,342.152 98.6207,342.047 99.034,341.942 99.4473,341.838 99.8606,341.733 100.274,341.628 100.687,341.523 101.1,341.418 101.514,341.314 101.927,341.209 102.34,341.104 102.753,340.999 103.167,340.895 103.58,340.79 103.993,340.685 104.407,340.581 104.82,340.476 105.233,340.372 105.646,340.267 106.06,340.162 106.473,340.058 106.886,339.953 107.299,339.849 107.713,339.744 108.126,339.64 108.539,339.535 108.953,339.431 109.366,339.326 109.779,339.222 110.192,339.117 110.606,339.013 111.019,338.908 111.432,338.804 111.845,338.699 112.259,338.595 112.672,338.49 113.085,338.386 113.499,338.281 113.912,338.177 114.325,338.073 114.738,337.968 115.152,337.864 115.565,337.759 115.978,337.655 116.391,337.55 116.805,337.446 117.218,337.341 117.631,337.237 118.045,337.132 118.458,337.028 118.871,336.923 119.284,336.819 119.698,336.714 120.111,336.61 120.524,336.505 120.937,336.401 121.351,336.296 121.764,336.192 122.177,336.087 122.59,335.983 123.004,335.878 123.417,335.773 123.83,335.669 124.244,335.564 124.657,335.46 125.07,335.355 125.483,335.25 125.897,335.146 126.31,335.041 126.723,334.936 127.136,334.831 127.55,334.727 127.963,334.622 128.376,334.517 128.79,334.412 129.203,334.307 129.616,334.202 130.029,334.097 130.443,333.993 130.856,333.888 131.269,333.783 131.682,333.678 132.096,333.573 132.509,333.468 132.922,333.363 133.336,333.257 133.749,333.152 134.162,333.047 134.575,332.942 134.989,332.837 135.402,332.731 135.815,332.626 136.228,332.521 136.642,332.416 137.055,332.31 137.468,332.205 137.882,332.099 138.295,331.994 138.708,331.888 139.121,331.783 139.535,331.677 139.948,331.571 140.361,331.466 140.774,331.36 141.188,331.254 141.601,331.148 142.014,331.043 142.428,330.937 142.841,330.831 143.254,330.725 143.667,330.619 144.081,330.513 144.494,330.407 144.907,330.301 145.32,330.194 145.734,330.088 146.147,329.982 146.56,329.876 146.974,329.769 147.387,329.663 147.8,329.556 148.213,329.45 148.627,329.343 149.04,329.237 149.453,329.13 149.866,329.023 150.28,328.916 150.693,328.81 151.106,328.703 151.52,328.596 151.933,328.489 152.346,328.382 152.759,328.275 153.173,328.167 153.586,328.06 153.999,327.953 154.412,327.845 154.826,327.738 155.239,327.631 155.652,327.523 156.065,327.415 156.479,327.308 156.892,327.2 157.305,327.092 157.719,326.984 158.132,326.876 158.545,326.768 158.958,326.66 159.372,326.552 159.785,326.444 160.198,326.336 160.611,326.227 161.025,326.119 161.438,326.011 161.851,325.902 162.265,325.793 162.678,325.685 163.091,325.576 163.504,325.467 163.918,325.358 164.331,325.249 164.744,325.14 165.157,325.031 165.571,324.922 165.984,324.813 166.397,324.703 166.811,324.594 167.224,324.484 167.637,324.375 168.05,324.265 168.464,324.155 168.877,324.045 169.29,323.935 169.703,323.825 170.117,323.715 170.53,323.605 170.943,323.495 171.357,323.384 171.77,323.274 172.183,323.163 172.596,323.053 173.01,322.942 173.423,322.831 173.836,322.72 174.249,322.609 174.663,322.498 175.076,322.387 175.489,322.276 175.903,322.164 176.316,322.053 176.729,321.941 177.142,321.83 177.556,321.718 177.969,321.606 178.382,321.494 178.795,321.382 179.209,321.27 179.622,321.158 180.035,321.046 180.449,320.933 180.862,320.821 181.275,320.708 181.688,320.595 182.102,320.482 182.515,320.369 182.928,320.256 183.341,320.143 183.755,320.03 184.168,319.917 184.581,319.803 184.995,319.689 185.408,319.576 185.821,319.462 186.234,319.348 186.648,319.234 187.061,319.12 187.474,319.006 187.887,318.891 188.301,318.777 188.714,318.662 189.127,318.547 189.54,318.433 189.954,318.318 190.367,318.203 190.78,318.087 191.194,317.972 191.607,317.857 192.02,317.741 192.433,317.625 192.847,317.51 193.26,317.394 193.673,317.278 194.086,317.161 194.5,317.045 194.913,316.929 195.326,316.812 195.74,316.695 196.153,316.579 196.566,316.462 196.979,316.345 197.393,316.227 197.806,316.11 198.219,315.993 198.632,315.875 199.046,315.757 199.459,315.639 199.872,315.521 200.286,315.403 200.699,315.285 201.112,315.167 201.525,315.048 201.939,314.929 202.352,314.811 202.765,314.692 203.178,314.573 203.592,314.453 204.005,314.334 204.418,314.214 204.832,314.095 205.245,313.975 205.658,313.855 206.071,313.735 206.485,313.615 206.898,313.494 207.311,313.374 207.724,313.253 208.138,313.132 208.551,313.011 208.964,312.89 209.378,312.769 209.791,312.647 210.204,312.525 210.617,312.404 211.031,312.282 211.444,312.16 211.857,312.037 212.27,311.915 212.684,311.792 213.097,311.67 213.51,311.547 213.924,311.424 214.337,311.301 214.75,311.177 215.163,311.054 215.577,310.93 215.99,310.806 216.403,310.682 216.816,310.558 217.23,310.434 217.643,310.309 218.056,310.184 218.47,310.059 218.883,309.934 219.296,309.809 219.709,309.684 220.123,309.558 220.536,309.432 220.949,309.306 221.362,309.18 221.776,309.054 222.189,308.928 222.602,308.801 223.016,308.674 223.429,308.547 223.842,308.42 224.255,308.293 224.669,308.165 225.082,308.037 225.495,307.909 225.908,307.781 226.322,307.653 226.735,307.525 227.148,307.396 227.561,307.267 227.975,307.138 228.388,307.009 228.801,306.879 229.215,306.75 229.628,306.62 230.041,306.49 230.454,306.36 230.868,306.229 231.281,306.099 231.694,305.968 232.107,305.837 232.521,305.706 232.934,305.574 233.347,305.443 233.761,305.311 234.174,305.179 234.587,305.047 235,304.914 235.414,304.782 235.827,304.649 236.24,304.516 236.653,304.382 237.067,304.249 237.48,304.115 237.893,303.981 238.307,303.847 238.72,303.713 239.133,303.578 239.546,303.444 239.96,303.309 240.373,303.173 240.786,303.038 241.199,302.902 241.613,302.767 242.026,302.63 242.439,302.494 242.853,302.358 243.266,302.221 243.679,302.084 244.092,301.947 244.506,301.809 244.919,301.672 245.332,301.534 245.745,301.396 246.159,301.257 246.572,301.119 246.985,300.98 247.399,300.841 247.812,300.701 248.225,300.562 248.638,300.422 249.052,300.282 249.465,300.142 249.878,300.001 250.291,299.861 250.705,299.72 251.118,299.578 251.531,299.437 251.945,299.295 252.358,299.153 252.771,299.011 253.184,298.868 253.598,298.726 254.011,298.583 254.424,298.439 254.837,298.296 255.251,298.152 255.664,298.008 256.077,297.864 256.491,297.719 256.904,297.575 257.317,297.43 257.73,297.284 258.144,297.139 258.557,296.993 258.97,296.847 259.383,296.7 259.797,296.554 260.21,296.407 260.623,296.26 261.036,296.112 261.45,295.964 261.863,295.816 262.276,295.668 262.69,295.52 263.103,295.371 263.516,295.222 263.929,295.072 264.343,294.923 264.756,294.773 265.169,294.622 265.582,294.472 265.996,294.321 266.409,294.17 266.822,294.018 267.236,293.867 267.649,293.715 268.062,293.563 268.475,293.41 268.889,293.257 269.302,293.104 269.715,292.951 270.128,292.797 270.542,292.643 270.955,292.488 271.368,292.334 271.782,292.179 272.195,292.024 272.608,291.868 273.021,291.712 273.435,291.556 273.848,291.4 274.261,291.243 274.674,291.086 275.088,290.928 275.501,290.77 275.914,290.612 276.328,290.454 276.741,290.295 277.154,290.136 277.567,289.977 277.981,289.817 278.394,289.657 278.807,289.497 279.22,289.336 279.634,289.175 280.047,289.014 280.46,288.852 280.874,288.69 281.287,288.528 281.7,288.366 282.113,288.203 282.527,288.039 282.94,287.876 283.353,287.712 283.766,287.547 284.18,287.383 284.593,287.218 285.006,287.052 285.42,286.887 285.833,286.72 286.246,286.554 286.659,286.387 287.073,286.22 287.486,286.053 287.899,285.885 288.312,285.717 288.726,285.548 289.139,285.379 289.552,285.21 289.966,285.04 290.379,284.87 290.792,284.7 291.205,284.529 291.619,284.358 292.032,284.186 292.445,284.015 292.858,283.842 293.272,283.67 293.685,283.497 294.098,283.323 294.512,283.15 294.925,282.975 295.338,282.801 295.751,282.626 296.165,282.451 296.578,282.275 296.991,282.099 297.404,281.922 297.818,281.745 298.231,281.568 298.644,281.391 299.057,281.212 299.471,281.034 299.884,280.855 300.297,280.676 300.711,280.496 301.124,280.316 301.537,280.135 301.95,279.955 302.364,279.773 302.777,279.591 303.19,279.409 303.603,279.227 304.017,279.044 304.43,278.86 304.843,278.676 305.257,278.492 305.67,278.307 306.083,278.122 306.496,277.937 306.91,277.751 307.323,277.564 307.736,277.378 308.149,277.19 308.563,277.002 308.976,276.814 309.389,276.626 309.803,276.437 310.216,276.247 310.629,276.057 311.042,275.867 311.456,275.676 311.869,275.484 312.282,275.293 312.695,275.1 313.109,274.908 313.522,274.714 313.935,274.521 314.349,274.327 314.762,274.132 315.175,273.937 315.588,273.742 316.002,273.546 316.415,273.349 316.828,273.152 317.241,272.955 317.655,272.757 318.068,272.558 318.481,272.36 318.895,272.16 319.308,271.96 319.721,271.76 320.134,271.559 320.548,271.358 320.961,271.156 321.374,270.954 321.787,270.751 322.201,270.547 322.614,270.344 323.027,270.139 323.441,269.934 323.854,269.729 324.267,269.523 324.68,269.317 325.094,269.11 325.507,268.902 325.92,268.694 326.333,268.486 326.747,268.277 327.16,268.067 327.573,267.857 327.987,267.646 328.4,267.435 328.813,267.223 329.226,267.011 329.64,266.798 330.053,266.585 330.466,266.371 330.879,266.156 331.293,265.941 331.706,265.726 332.119,265.509 332.532,265.293 332.946,265.075 333.359,264.858 333.772,264.639 334.186,264.42 334.599,264.201 335.012,263.98 335.425,263.76 335.839,263.538 336.252,263.317 336.665,263.094 337.078,262.871 337.492,262.647 337.905,262.423 338.318,262.198 338.732,261.973 339.145,261.747 339.558,261.52 339.971,261.293 340.385,261.065 340.798,260.836 341.211,260.607 341.624,260.378 342.038,260.147 342.451,259.916 342.864,259.685 343.278,259.452 343.691,259.22 344.104,258.986 344.517,258.752 344.931,258.517 345.344,258.282 345.757,258.046 346.17,257.809 346.584,257.572 346.997,257.334 347.41,257.095 347.824,256.856 348.237,256.616 348.65,256.375 349.063,256.134 349.477,255.892 349.89,255.649 350.303,255.406 350.716,255.162 351.13,254.917 351.543,254.671 351.956,254.425 352.37,254.178 352.783,253.931 353.196,253.683 353.609,253.434 354.023,253.184 354.436,252.934 354.849,252.683 355.262,252.431 355.676,252.179 356.089,251.926 356.502,251.672 356.916,251.417 357.329,251.162 357.742,250.906 358.155,250.649 358.569,250.391 358.982,250.133 359.395,249.874 359.808,249.614 360.222,249.353 360.635,249.092 361.048,248.83 361.462,248.567 361.875,248.304 362.288,248.039 362.701,247.774 363.115,247.508 363.528,247.241 363.941,246.974 364.354,246.705 364.768,246.436 365.181,246.166 365.594,245.896 366.008,245.624 366.421,245.352 366.834,245.079 367.247,244.805 367.661,244.53 368.074,244.255 368.487,243.978 368.9,243.701 369.314,243.423 369.727,243.144 370.14,242.864 370.553,242.584 370.967,242.302 371.38,242.02 371.793,241.737 372.207,241.453 372.62,241.168 373.033,240.882 373.446,240.595 373.86,240.308 374.273,240.019 374.686,239.73 375.099,239.44 375.513,239.149 375.926,238.857 376.339,238.564 376.753,238.27 377.166,237.976 377.579,237.68 377.992,237.384 378.406,237.086 378.819,236.788 379.232,236.488 379.645,236.188 380.059,235.887 380.472,235.585 380.885,235.282 381.299,234.978 381.712,234.673 382.125,234.367 382.538,234.06 382.952,233.752 383.365,233.443 383.778,233.133 384.191,232.822 384.605,232.511 385.018,232.198 385.431,231.884 385.845,231.569 386.258,231.253 386.671,230.936 387.084,230.618 387.498,230.3 387.911,229.98 388.324,229.659 388.737,229.337 389.151,229.014 389.564,228.689 389.977,228.364 390.391,228.038 390.804,227.711 391.217,227.382 391.63,227.053 392.044,226.722 392.457,226.391 392.87,226.058 393.283,225.724 393.697,225.389 394.11,225.053 394.523,224.716 394.936,224.378 395.35,224.038 395.763,223.698 396.176,223.356 396.59,223.013 397.003,222.669 397.416,222.324 397.829,221.978 398.243,221.631 398.656,221.282 399.069,220.932 399.482,220.581 399.896,220.229 400.309,219.876 400.722,219.521 401.136,219.165 401.549,218.808 401.962,218.45 402.375,218.091 402.789,217.73 403.202,217.368 403.615,217.005 404.028,216.641 404.442,216.275 404.855,215.908 405.268,215.54 405.682,215.171 406.095,214.8 406.508,214.428 406.921,214.055 407.335,213.68 407.748,213.304 408.161,212.927 408.574,212.548 408.988,212.168 409.401,211.787 409.814,211.404 410.228,211.021 410.641,210.635 411.054,210.249 411.467,209.861 411.881,209.471 412.294,209.081 412.707,208.688 413.12,208.295 413.534,207.9 413.947,207.503 414.36,207.106 414.774,206.706 415.187,206.306 415.6,205.904 416.013,205.5 416.427,205.095 416.84,204.688 417.253,204.281 417.666,203.871 418.08,203.46 418.493,203.048 418.906,202.634 419.32,202.218 419.733,201.801 420.146,201.383 420.559,200.963 420.973,200.541 421.386,200.118 421.799,199.693 422.212,199.267 422.626,198.839 423.039,198.41 423.452,197.978 423.866,197.546 424.279,197.111 424.692,196.676 425.105,196.238 425.519,195.799 425.932,195.358 426.345,194.916 426.758,194.471 427.172,194.025 427.585,193.578 427.998,193.129 428.411,192.678 428.825,192.225 429.238,191.771 429.651,191.315 430.065,190.857 430.478,190.397 430.891,189.936 431.304,189.473 431.718,189.008 432.131,188.541 432.544,188.072 432.957,187.602 433.371,187.13 433.784,186.656 434.197,186.18 434.611,185.702 435.024,185.223 435.437,184.742 435.85,184.258 436.264,183.773 436.677,183.286 437.09,182.797 437.503,182.306 437.917,181.813 438.33,181.318 438.743,180.821 439.157,180.323 439.57,179.822 439.983,179.319 440.396,178.814 440.81,178.307 441.223,177.799 441.636,177.288 442.049,176.775 442.463,176.26 442.876,175.743 443.289,175.224 443.703,174.702 444.116,174.179 444.529,173.653 444.942,173.126 445.356,172.596 445.769,172.064 446.182,171.53 446.595,170.994 447.009,170.455 447.422,169.914 447.835,169.371 448.249,168.826 448.662,168.279 449.075,167.729 449.488,167.177 449.902,166.623 450.315,166.066 450.728,165.507 451.141,164.946 451.555,164.382 451.968,163.816 452.381,163.248 452.795,162.677 453.208,162.104 453.621,161.528 454.034,160.95 454.448,160.37 454.861,159.787 455.274,159.201 455.687,158.613 456.101,158.023 456.514,157.43 456.927,156.834 457.341,156.236 457.754,155.636 458.167,155.032 458.58,154.426 458.994,153.818 459.407,153.207 459.82,152.593 460.233,151.977 460.647,151.357 461.06,150.736 461.473,150.111 461.887,149.484 462.3,148.854 462.713,148.221 463.126,147.585 463.54,146.947 463.953,146.305 464.366,145.661 464.779,145.014 465.193,144.364 465.606,143.711 466.019,143.056 466.432,142.397 466.846,141.736 467.259,141.071 467.672,140.403 468.086,139.733 468.499,139.059 468.912,138.382 469.325,137.703 469.739,137.02 470.152,136.334 470.565,135.645 470.979,134.953 471.392,134.257 471.805,133.559 472.218,132.857 472.632,132.152 473.045,131.443 473.458,130.732 473.871,130.017 474.285,129.299 474.698,128.577 475.111,127.852 475.524,127.124 475.938,126.392 476.351,125.657 476.764,124.918 477.178,124.176 477.591,123.43 478.004,122.681 478.417,121.928 478.831,121.172 479.244,120.412 479.657,119.648 480.07,118.881 480.484,118.11 480.897,117.336 481.31,116.557 481.724,115.775 482.137,114.99 482.55,114.2 482.963,113.407 483.377,112.609 483.79,111.808 484.203,111.003 484.616,110.194 485.03,109.381 485.443,108.564 485.856,107.743 486.27,106.918 486.683,106.088 487.096,105.255 487.509,104.418 487.923,103.576 488.336,102.73 488.749,101.88 489.162,101.026 489.576,100.167 489.989,99.3046 490.402,98.4373 490.816,97.5657 491.229,96.6897 491.642,95.8093 492.055,94.9243 492.469,94.0349 492.882,93.1409 493.295,92.2424 493.708,91.3392 494.122,90.4315 494.535,89.519 494.948,88.6018 495.362,87.6799 495.775,86.7532 496.188,85.8217 496.601,84.8854 497.015,83.9441 497.428,82.998 497.841,82.0468 498.254,81.0907 498.668,80.1296 499.081,79.1634 499.494,78.192 499.908,77.2156 500.321,76.2339 500.734,75.2471 501.147,74.2549 501.561,73.2575 501.974,72.2547 502.387,71.2465 502.8,70.2329 503.214,69.2139 503.627,68.1893 504.04,67.1591 504.453,66.1234 504.867,65.082 505.28,64.035" fill="none" stroke-width="3" stroke="#d85218"/>
   <polyline stroke-linejoin="round" stroke-linecap="butt" points="92.0084,349.739 92.4217,349.675 92.8349,349.611 93.2482,349.548 93.6615,349.484 94.0747,349.419 94.488,349.355 94.9013,349.291 95.3146,349.226 95.7278,349.162 96.1411,349.097 96.5544,349.032 96.9677,348.968 97.3809,348.903 97.7942,348.837 98.2075,348.772 98.6207,348.707 99.034,348.642 99.4473,348.576 99.8606,348.51 100.274,348.445 100.687,348.379 101.1,348.313 101.514,348.247 101.927,348.181 102.34,348.114 102.753,348.048 103.167,347.981 103.58,347.915 103.993,347.848 104.407,347.781 104.82,347.714 105.233,347.647 105.646,347.58 106.06,347.513 106.473,347.445 106.886,347.378 107.299,347.31 107.713,347.242 108.126,347.175 108.539,347.107 108.953,347.038 109.366,346.97 109.779,346.902 110.192,346.834 110.606,346.765 111.019,346.696 111.432,346.628 111.845,346.559 112.259,346.49 112.672,346.42 113.085,346.351 113.499,346.282 113.912,346.212 114.325,346.143 114.738,346.073 115.152,346.003 115.565,345.933 115.978,345.863 116.391,345.793 116.805,345.723 117.218,345.652 117.631,345.582 118.045,345.511 118.458,345.44 118.871,345.369 119.284,345.298 119.698,345.227 120.111,345.156 120.524,345.084 120.937,345.013 121.351,344.941 121.764,344.869 122.177,344.797 122.59,344.725 123.004,344.653 123.417,344.581 123.83,344.508 124.244,344.436 124.657,344.363 125.07,344.29 125.483,344.217 125.897,344.144 126.31,344.071 126.723,343.998 127.136,343.925 127.55,343.851 127.963,343.777 128.376,343.704 128.79,343.63 129.203,343.556 129.616,343.481 130.029,343.407 130.443,343.333 130.856,343.258 131.269,343.183 131.682,343.108 132.096,343.033 132.509,342.958 132.922,342.883 133.336,342.808 133.749,342.732 134.162,342.656 134.575,342.581 134.989,342.505 135.402,342.429 135.815,342.353 136.228,342.276 136.642,342.2 137.055,342.123 137.468,342.046 137.882,341.97 138.295,341.893 138.708,341.815 139.121,341.738 139.535,341.661 139.948,341.583 140.361,341.506 140.774,341.428 141.188,341.35 141.601,341.272 142.014,341.193 142.428,341.115 142.841,341.036 143.254,340.958 143.667,340.879 144.081,340.8 144.494,340.721 144.907,340.642 145.32,340.562 145.734,340.483 146.147,340.403 146.56,340.323 146.974,340.243 147.387,340.163 147.8,340.083 148.213,340.003 148.627,339.922 149.04,339.841 149.453,339.761 149.866,339.68 150.28,339.599 150.693,339.517 151.106,339.436 151.52,339.354 151.933,339.273 152.346,339.191 152.759,339.109 153.173,339.027 153.586,338.944 153.999,338.862 154.412,338.779 154.826,338.696 155.239,338.614 155.652,338.53 156.065,338.447 156.479,338.364 156.892,338.28 157.305,338.197 157.719,338.113 158.132,338.029 158.545,337.945 158.958,337.86 159.372,337.776 159.785,337.691 160.198,337.607 160.611,337.522 161.025,337.436 161.438,337.351 161.851,337.266 162.265,337.18 162.678,337.095 163.091,337.009 163.504,336.923 163.918,336.836 164.331,336.75 164.744,336.664 165.157,336.577 165.571,336.49 165.984,336.403 166.397,336.316 166.811,336.229 167.224,336.141 167.637,336.053 168.05,335.966 168.464,335.878 168.877,335.789 169.29,335.701 169.703,335.613 170.117,335.524 170.53,335.435 170.943,335.346 171.357,335.257 171.77,335.168 172.183,335.078 172.596,334.988 173.01,334.899 173.423,334.809 173.836,334.718 174.249,334.628 174.663,334.537 175.076,334.447 175.489,334.356 175.903,334.265 176.316,334.174 176.729,334.082 177.142,333.991 177.556,333.899 177.969,333.807 178.382,333.715 178.795,333.623 179.209,333.53 179.622,333.437 180.035,333.345 180.449,333.252 180.862,333.158 181.275,333.065 181.688,332.972 182.102,332.878 182.515,332.784 182.928,332.69 183.341,332.596 183.755,332.501 184.168,332.407 184.581,332.312 184.995,332.217 185.408,332.122 185.821,332.026 186.234,331.931 186.648,331.835 187.061,331.739 187.474,331.643 187.887,331.547 188.301,331.45 188.714,331.353 189.127,331.257 189.54,331.16 189.954,331.062 190.367,330.965 190.78,330.867 191.194,330.769 191.607,330.671 192.02,330.573 192.433,330.475 192.847,330.376 193.26,330.277 193.673,330.178 194.086,330.079 194.5,329.98 194.913,329.88 195.326,329.781 195.74,329.681 196.153,329.58 196.566,329.48 196.979,329.379 197.393,329.279 197.806,329.178 198.219,329.077 198.632,328.975 199.046,328.874 199.459,328.772 199.872,328.67 200.286,328.568 200.699,328.465 201.112,328.363 201.525,328.26 201.939,328.157 202.352,328.054 202.765,327.95 203.178,327.847 203.592,327.743 204.005,327.639 204.418,327.534 204.832,327.43 205.245,327.325 205.658,327.22 206.071,327.115 206.485,327.01 206.898,326.904 207.311,326.798 207.724,326.693 208.138,326.586 208.551,326.48 208.964,326.373 209.378,326.266 209.791,326.159 210.204,326.052 210.617,325.945 211.031,325.837 211.444,325.729 211.857,325.621 212.27,325.512 212.684,325.404 213.097,325.295 213.51,325.186 213.924,325.077 214.337,324.967 214.75,324.857 215.163,324.747 215.577,324.637 215.99,324.527 216.403,324.416 216.816,324.305 217.23,324.194 217.643,324.083 218.056,323.971 218.47,323.859 218.883,323.747 219.296,323.635 219.709,323.523 220.123,323.41 220.536,323.297 220.949,323.184 221.362,323.07 221.776,322.956 222.189,322.843 222.602,322.728 223.016,322.614 223.429,322.499 223.842,322.384 224.255,322.269 224.669,322.154 225.082,322.038 225.495,321.922 225.908,321.806 226.322,321.69 226.735,321.573 227.148,321.456 227.561,321.339 227.975,321.222 228.388,321.104 228.801,320.987 229.215,320.868 229.628,320.75 230.041,320.631 230.454,320.513 230.868,320.393 231.281,320.274 231.694,320.154 232.107,320.035 232.521,319.914 232.934,319.794 233.347,319.673 233.761,319.552 234.174,319.431 234.587,319.31 235,319.188 235.414,319.066 235.827,318.944 236.24,318.821 236.653,318.699 237.067,318.576 237.48,318.452 237.893,318.329 238.307,318.205 238.72,318.081 239.133,317.956 239.546,317.832 239.96,317.707 240.373,317.582 240.786,317.456 241.199,317.33 241.613,317.204 242.026,317.078 242.439,316.951 242.853,316.825 243.266,316.698 243.679,316.57 244.092,316.442 244.506,316.314 244.919,316.186 245.332,316.058 245.745,315.929 246.159,315.8 246.572,315.67 246.985,315.541 247.399,315.411 247.812,315.28 248.225,315.15 248.638,315.019 249.052,314.888 249.465,314.756 249.878,314.625 250.291,314.493 250.705,314.36 251.118,314.228 251.531,314.095 251.945,313.962 252.358,313.828 252.771,313.694 253.184,313.56 253.598,313.426 254.011,313.291 254.424,313.156 254.837,313.021 255.251,312.885 255.664,312.749 256.077,312.613 256.491,312.476 256.904,312.339 257.317,312.202 257.73,312.065 258.144,311.927 258.557,311.789 258.97,311.65 259.383,311.512 259.797,311.373 260.21,311.233 260.623,311.094 261.036,310.953 261.45,310.813 261.863,310.672 262.276,310.531 262.69,310.39 263.103,310.248 263.516,310.107 263.929,309.964 264.343,309.822 264.756,309.679 265.169,309.535 265.582,309.392 265.996,309.248 266.409,309.103 266.822,308.959 267.236,308.814 267.649,308.669 268.062,308.523 268.475,308.377 268.889,308.231 269.302,308.084 269.715,307.937 270.128,307.79 270.542,307.642 270.955,307.494 271.368,307.345 271.782,307.197 272.195,307.048 272.608,306.898 273.021,306.748 273.435,306.598 273.848,306.448 274.261,306.297 274.674,306.146 275.088,305.994 275.501,305.842 275.914,305.69 276.328,305.537 276.741,305.384 277.154,305.231 277.567,305.077 277.981,304.923 278.394,304.768 278.807,304.614 279.22,304.458 279.634,304.303 280.047,304.147 280.46,303.99 280.874,303.834 281.287,303.676 281.7,303.519 282.113,303.361 282.527,303.203 282.94,303.044 283.353,302.885 283.766,302.726 284.18,302.566 284.593,302.406 285.006,302.245 285.42,302.084 285.833,301.923 286.246,301.761 286.659,301.599 287.073,301.436 287.486,301.274 287.899,301.11 288.312,300.946 288.726,300.782 289.139,300.618 289.552,300.453 289.966,300.288 290.379,300.122 290.792,299.956 291.205,299.789 291.619,299.622 292.032,299.455 292.445,299.287 292.858,299.119 293.272,298.95 293.685,298.781 294.098,298.611 294.512,298.441 294.925,298.271 295.338,298.1 295.751,297.929 296.165,297.757 296.578,297.585 296.991,297.413 297.404,297.24 297.818,297.067 298.231,296.893 298.644,296.719 299.057,296.544 299.471,296.369 299.884,296.193 300.297,296.017 300.711,295.841 301.124,295.664 301.537,295.487 301.95,295.309 302.364,295.131 302.777,294.952 303.19,294.773 303.603,294.593 304.017,294.413 304.43,294.233 304.843,294.052 305.257,293.87 305.67,293.688 306.083,293.506 306.496,293.323 306.91,293.14 307.323,292.956 307.736,292.772 308.149,292.587 308.563,292.402 308.976,292.216 309.389,292.03 309.803,291.843 310.216,291.656 310.629,291.468 311.042,291.28 311.456,291.092 311.869,290.903 312.282,290.713 312.695,290.523 313.109,290.332 313.522,290.141 313.935,289.95 314.349,289.758 314.762,289.565 315.175,289.372 315.588,289.178 316.002,288.984 316.415,288.79 316.828,288.594 317.241,288.399 317.655,288.203 318.068,288.006 318.481,287.809 318.895,287.611 319.308,287.413 319.721,287.214 320.134,287.014 320.548,286.815 320.961,286.614 321.374,286.413 321.787,286.212 322.201,286.01 322.614,285.807 323.027,285.604 323.441,285.4 323.854,285.196 324.267,284.992 324.68,284.786 325.094,284.58 325.507,284.374 325.92,284.167 326.333,283.959 326.747,283.751 327.16,283.543 327.573,283.333 327.987,283.124 328.4,282.913 328.813,282.702 329.226,282.491 329.64,282.279 330.053,282.066 330.466,281.853 330.879,281.639 331.293,281.424 331.706,281.209 332.119,280.994 332.532,280.777 332.946,280.561 333.359,280.343 333.772,280.125 334.186,279.907 334.599,279.687 335.012,279.468 335.425,279.247 335.839,279.026 336.252,278.804 336.665,278.582 337.078,278.359 337.492,278.135 337.905,277.911 338.318,277.687 338.732,277.461 339.145,277.235 339.558,277.008 339.971,276.781 340.385,276.553 340.798,276.324 341.211,276.095 341.624,275.865 342.038,275.634 342.451,275.403 342.864,275.171 343.278,274.939 343.691,274.706 344.104,274.472 344.517,274.237 344.931,274.002 345.344,273.766 345.757,273.529 346.17,273.292 346.584,273.054 346.997,272.816 347.41,272.576 347.824,272.336 348.237,272.095 348.65,271.854 349.063,271.612 349.477,271.369 349.89,271.126 350.303,270.881 350.716,270.637 351.13,270.391 351.543,270.145 351.956,269.897 352.37,269.65 352.783,269.401 353.196,269.152 353.609,268.902 354.023,268.651 354.436,268.4 354.849,268.148 355.262,267.895 355.676,267.641 356.089,267.386 356.502,267.131 356.916,266.875 357.329,266.619 357.742,266.361 358.155,266.103 358.569,265.844 358.982,265.584 359.395,265.324 359.808,265.062 360.222,264.8 360.635,264.537 361.048,264.273 361.462,264.009 361.875,263.744 362.288,263.478 362.701,263.211 363.115,262.943 363.528,262.674 363.941,262.405 364.354,262.135 364.768,261.864 365.181,261.592 365.594,261.32 366.008,261.046 366.421,260.772 366.834,260.497 367.247,260.221 367.661,259.944 368.074,259.666 368.487,259.388 368.9,259.108 369.314,258.828 369.727,258.547 370.14,258.265 370.553,257.982 370.967,257.699 371.38,257.414 371.793,257.128 372.207,256.842 372.62,256.555 373.033,256.267 373.446,255.978 373.86,255.688 374.273,255.397 374.686,255.105 375.099,254.812 375.513,254.519 375.926,254.224 376.339,253.929 376.753,253.632 377.166,253.335 377.579,253.036 377.992,252.737 378.406,252.437 378.819,252.136 379.232,251.834 379.645,251.531 380.059,251.227 380.472,250.922 380.885,250.616 381.299,250.309 381.712,250.001 382.125,249.692 382.538,249.382 382.952,249.071 383.365,248.759 383.778,248.446 384.191,248.132 384.605,247.817 385.018,247.501 385.431,247.184 385.845,246.866 386.258,246.547 386.671,246.227 387.084,245.906 387.498,245.584 387.911,245.26 388.324,244.936 388.737,244.611 389.151,244.284 389.564,243.957 389.977,243.628 390.391,243.298 390.804,242.967 391.217,242.635 391.63,242.302 392.044,241.968 392.457,241.633 392.87,241.297 393.283,240.959 393.697,240.621 394.11,240.281 394.523,239.94 394.936,239.598 395.35,239.255 395.763,238.911 396.176,238.565 396.59,238.219 397.003,237.871 397.416,237.522 397.829,237.172 398.243,236.82 398.656,236.468 399.069,236.114 399.482,235.759 399.896,235.403 400.309,235.045 400.722,234.687 401.136,234.327 401.549,233.966 401.962,233.603 402.375,233.24 402.789,232.875 403.202,232.509 403.615,232.142 404.028,231.773 404.442,231.403 404.855,231.032 405.268,230.659 405.682,230.286 406.095,229.911 406.508,229.534 406.921,229.156 407.335,228.777 407.748,228.397 408.161,228.015 408.574,227.632 408.988,227.248 409.401,226.862 409.814,226.475 410.228,226.086 410.641,225.697 411.054,225.305 411.467,224.913 411.881,224.519 412.294,224.123 412.707,223.726 413.12,223.328 413.534,222.928 413.947,222.527 414.36,222.124 414.774,221.72 415.187,221.315 415.6,220.908 416.013,220.499 416.427,220.089 416.84,219.678 417.253,219.265 417.666,218.851 418.08,218.435 418.493,218.017 418.906,217.598 419.32,217.178 419.733,216.756 420.146,216.332 420.559,215.907 420.973,215.48 421.386,215.052 421.799,214.622 422.212,214.19 422.626,213.757 423.039,213.323 423.452,212.886 423.866,212.448 424.279,212.009 424.692,211.567 425.105,211.125 425.519,210.68 425.932,210.234 426.345,209.786 426.758,209.336 427.172,208.885 427.585,208.432 427.998,207.977 428.411,207.521 428.825,207.063 429.238,206.603 429.651,206.141 430.065,205.678 430.478,205.212 430.891,204.745 431.304,204.277 431.718,203.806 432.131,203.334 432.544,202.859 432.957,202.383 433.371,201.906 433.784,201.426 434.197,200.944 434.611,200.461 435.024,199.975 435.437,199.488 435.85,198.999 436.264,198.508 436.677,198.015 437.09,197.52 437.503,197.023 437.917,196.524 438.33,196.023 438.743,195.52 439.157,195.016 439.57,194.509 439.983,194 440.396,193.489 440.81,192.976 441.223,192.461 441.636,191.944 442.049,191.425 442.463,190.904 442.876,190.381 443.289,189.856 443.703,189.328 444.116,188.799 444.529,188.267 444.942,187.733 445.356,187.197 445.769,186.659 446.182,186.118 446.595,185.575 447.009,185.031 447.422,184.483 447.835,183.934 448.249,183.382 448.662,182.829 449.075,182.272 449.488,181.714 449.902,181.153 450.315,180.59 450.728,180.025 451.141,179.457 451.555,178.886 451.968,178.314 452.381,177.739 452.795,177.162 453.208,176.582 453.621,175.999 454.034,175.415 454.448,174.828 454.861,174.238 455.274,173.646 455.687,173.051 456.101,172.454 456.514,171.854 456.927,171.252 457.341,170.647 457.754,170.039 458.167,169.429 458.58,168.817 458.994,168.201 459.407,167.583 459.82,166.962 460.233,166.339 460.647,165.713 461.06,165.084 461.473,164.453 461.887,163.818 462.3,163.181 462.713,162.541 463.126,161.899 463.54,161.253 463.953,160.605 464.366,159.954 464.779,159.299 465.193,158.642 465.606,157.982 466.019,157.32 466.432,156.654 466.846,155.985 467.259,155.313 467.672,154.638 468.086,153.961 468.499,153.28 468.912,152.596 469.325,151.909 469.739,151.219 470.152,150.525 470.565,149.829 470.979,149.129 471.392,148.427 471.805,147.721 472.218,147.011 472.632,146.299 473.045,145.583 473.458,144.864 473.871,144.142 474.285,143.416 474.698,142.687 475.111,141.954 475.524,141.218 475.938,140.479 476.351,139.736 476.764,138.99 477.178,138.24 477.591,137.487 478.004,136.73 478.417,135.97 478.831,135.206 479.244,134.438 479.657,133.667 480.07,132.892 480.484,132.114 480.897,131.331 481.31,130.545 481.724,129.756 482.137,128.962 482.55,128.165 482.963,127.363 483.377,126.558 483.79,125.749 484.203,124.936 484.616,124.119 485.03,123.298 485.443,122.473 485.856,121.644 486.27,120.811 486.683,119.974 487.096,119.133 487.509,118.288 487.923,117.438 488.336,116.584 488.749,115.726 489.162,114.864 489.576,113.997 489.989,113.126 490.402,112.251 490.816,111.371 491.229,110.487 491.642,109.599 492.055,108.706 492.469,107.808 492.882,106.906 493.295,105.999 493.708,105.088 494.122,104.172 494.535,103.251 494.948,102.326 495.362,101.396 495.775,100.461 496.188,99.5211 496.601,98.5764 497.015,97.6269 497.428,96.6725 497.841,95.713 498.254,94.7485 498.668,93.7791 499.081,92.8045 499.494,91.8248 499.908,90.8399 500.321,89.8499 500.734,88.8546 501.147,87.854 501.561,86.8481 501.974,85.8369 502.387,84.8203 502.8,83.7982 503.214,82.7706 503.627,81.7375 504.04,80.6988 504.453,79.6546 504.867,78.6047 505.28,77.549" fill="none" stroke-width="3" stroke="#ecb01f"/>
  </g>
  <clipPath id="cp00576432">
   <polygon points="0,432 576,432 576,0 0,0"/>
  </clipPath>
  <g clip-path="url(#cp00576432)">
   <polygon points="81.8664,153.166 168.799,153.166 168.799,52.5664 81.8664,52.5664" fill="#ffffff" shape-rendering="crispEdges"/>
   <polyline stroke-linejoin="miter" stroke-dasharray="16,0" stroke-linecap="square" points="81.8664,153.166 168.799,153.166" fill="none" stroke-width="0.5" stroke="#262626"/>
   <polyline stroke-linejoin="miter" stroke-dasharray="16,0" stroke-linecap="square" points="81.8664,52.5664 168.799,52.5664" fill="none" stroke-width="0.5" stroke="#262626"/>
   <polyline stroke-linejoin="miter" stroke-dasharray="16,0" stroke-linecap="square" points="81.8664,153.166 81.8664,52.5664" fill="none" stroke-width="0.5" stroke="#262626"/>
   <polyline stroke-linejoin="miter" stroke-dasharray="16,0" stroke-linecap="square" points="168.799,153.166 168.799,52.5664" fill="none" stroke-width="0.5" stroke="#262626"/>
   <text transform="translate(104.155,77.833) rotate(-0,-0,-8.5)" font-style="normal" font-family="CMU Serif" xml:space="preserve" font-weight="normal" font-size="18">
    <tspan y="-4" x="0 " fill="rgb(0,0,0)">Q</tspan>
   </text>
   <text transform="translate(104.155,117.366) rotate(-0,-0,-14.5)" font-style="normal" font-family="CMU Serif" xml:space="preserve" font-weight="normal" font-size="18">
    <tspan y="-16" x="0 " fill="rgb(0,0,0)">Q</tspan>
    <tspan y="-2" x="14 " fill="rgb(0,0,0)" font-size="16">v</tspan>
    <tspan y="-16" x="22 36 " fill="rgb(0,0,0)">+Q</tspan>
    <tspan y="-2" x="50 56 " fill="rgb(0,0,0)" font-size="16">tr</tspan>
   </text>
   <text transform="translate(104.155,150.899) rotate(-0,-0,-14.5)" font-style="normal" font-family="CMU Serif" xml:space="preserve" font-weight="normal" font-size="18">
    <tspan y="-16" x="0 " fill="rgb(0,0,0)">Q</tspan>
    <tspan y="-2" x="14 " fill="rgb(0,0,0)" font-size="16">v</tspan>
   </text>
   <polyline stroke-linejoin="round" stroke-linecap="butt" points="84.5107,69.3329 101.51,69.3329" fill="none" stroke-width="3" stroke="#0071bc"/>
   <polyline stroke-linejoin="round" stroke-linecap="butt" points="84.5107,102.866 101.51,102.866" fill="none" stroke-width="3" stroke="#d85218"/>
   <polyline stroke-linejoin="round" stroke-linecap="butt" points="84.5107,136.399 101.51,136.399" fill="none" stroke-width="3" stroke="#ecb01f"/>
  </g>
 </g>
</svg>
