<?xml version='1.0' encoding='UTF-8' standalone='no'?>
<svg xmlns="http://www.w3.org/2000/svg" viewBox="0 0 576 432" width="576pt" height="432pt" xmlns:xlink="http://www.w3.org/1999/xlink">
 <title>gl2ps_renderer figure</title>
 <desc>
Creator: GL2PS 1.4.0, (C) 1999-2017 C. Geuzaine
For: Octave
CreationDate: Fri Jul 03 15:43:33 2020
</desc>
 <defs/>
 <polygon points="0,0 576,0 576,432 0,432" fill="#ffffff"/>
 <g>
  <polygon points="0,432 576,432 576,0 0,0" shape-rendering="crispEdges" fill="#ffffff"/>
  <clipPath id="cp00576432">
   <polygon points="0,432 576,432 576,0 0,0"/>
  </clipPath>
  <g clip-path="url(#cp00576432)">
   <polygon points="74.88,367.496 521.28,367.496 521.28,32.4 74.88,32.4" shape-rendering="crispEdges" fill="#ffffff"/>
   <polyline stroke-width="0.5" stroke-dasharray="16,0" points="74.88,367.496 74.88,32.4" stroke-linecap="butt" fill="none" stroke="#262626" stroke-opacity="0.15" stroke-linejoin="miter"/>
   <polyline stroke-width="0.5" stroke-dasharray="16,0" points="138.977,367.496 138.977,32.4" stroke-linecap="butt" fill="none" stroke="#262626" stroke-opacity="0.15" stroke-linejoin="miter"/>
   <polyline stroke-width="0.5" stroke-dasharray="16,0" points="203.074,367.496 203.074,32.4" stroke-linecap="butt" fill="none" stroke="#262626" stroke-opacity="0.15" stroke-linejoin="miter"/>
   <polyline stroke-width="0.5" stroke-dasharray="16,0" points="267.17,367.496 267.17,32.4" stroke-linecap="butt" fill="none" stroke="#262626" stroke-opacity="0.15" stroke-linejoin="miter"/>
   <polyline stroke-width="0.5" stroke-dasharray="16,0" points="331.267,367.496 331.267,32.4" stroke-linecap="butt" fill="none" stroke="#262626" stroke-opacity="0.15" stroke-linejoin="miter"/>
   <polyline stroke-width="0.5" stroke-dasharray="16,0" points="395.364,367.496 395.364,32.4" stroke-linecap="butt" fill="none" stroke="#262626" stroke-opacity="0.15" stroke-linejoin="miter"/>
   <polyline stroke-width="0.5" stroke-dasharray="16,0" points="459.461,367.496 459.461,32.4" stroke-linecap="butt" fill="none" stroke="#262626" stroke-opacity="0.15" stroke-linejoin="miter"/>
   <polyline stroke-width="0.5" points="74.88,367.496 74.88,363.031" stroke-linecap="butt" fill="none" stroke="#262626" stroke-linejoin="miter"/>
   <polyline stroke-width="0.5" points="74.88,32.4 74.88,36.8653" stroke-linecap="butt" fill="none" stroke="#262626" stroke-linejoin="miter"/>
   <polyline stroke-width="0.5" points="138.977,367.496 138.977,363.031" stroke-linecap="butt" fill="none" stroke="#262626" stroke-linejoin="miter"/>
   <polyline stroke-width="0.5" points="138.977,32.4 138.977,36.8653" stroke-linecap="butt" fill="none" stroke="#262626" stroke-linejoin="miter"/>
   <polyline stroke-width="0.5" points="203.074,367.496 203.074,363.031" stroke-linecap="butt" fill="none" stroke="#262626" stroke-linejoin="miter"/>
   <polyline stroke-width="0.5" points="203.074,32.4 203.074,36.8653" stroke-linecap="butt" fill="none" stroke="#262626" stroke-linejoin="miter"/>
   <polyline stroke-width="0.5" points="267.17,367.496 267.17,363.031" stroke-linecap="butt" fill="none" stroke="#262626" stroke-linejoin="miter"/>
   <polyline stroke-width="0.5" points="267.17,32.4 267.17,36.8653" stroke-linecap="butt" fill="none" stroke="#262626" stroke-linejoin="miter"/>
   <polyline stroke-width="0.5" points="331.267,367.496 331.267,363.031" stroke-linecap="butt" fill="none" stroke="#262626" stroke-linejoin="miter"/>
   <polyline stroke-width="0.5" points="331.267,32.4 331.267,36.8653" stroke-linecap="butt" fill="none" stroke="#262626" stroke-linejoin="miter"/>
   <polyline stroke-width="0.5" points="395.364,367.496 395.364,363.031" stroke-linecap="butt" fill="none" stroke="#262626" stroke-linejoin="miter"/>
   <polyline stroke-width="0.5" points="395.364,32.4 395.364,36.8653" stroke-linecap="butt" fill="none" stroke="#262626" stroke-linejoin="miter"/>
   <polyline stroke-width="0.5" points="459.461,367.496 459.461,363.031" stroke-linecap="butt" fill="none" stroke="#262626" stroke-linejoin="miter"/>
   <polyline stroke-width="0.5" points="459.461,32.4 459.461,36.8653" stroke-linecap="butt" fill="none" stroke="#262626" stroke-linejoin="miter"/>
   <text font-weight="normal" transform="translate(70.38,394) rotate(-0,4.5,-13)" font-family="CMU Serif" font-size="18" font-style="normal" xml:space="preserve">
    <tspan y="-0" fill="rgb(38,38,38)" x="0 ">0</tspan>
   </text>
   <text font-weight="normal" transform="translate(134.477,394) rotate(-0,4.5,-13)" font-family="CMU Serif" font-size="18" font-style="normal" xml:space="preserve">
    <tspan y="-0" fill="rgb(38,38,38)" x="0 ">2</tspan>
   </text>
   <text font-weight="normal" transform="translate(198.574,394) rotate(-0,4.5,-13)" font-family="CMU Serif" font-size="18" font-style="normal" xml:space="preserve">
    <tspan y="-0" fill="rgb(38,38,38)" x="0 ">4</tspan>
   </text>
   <text font-weight="normal" transform="translate(262.67,394) rotate(-0,4.5,-13)" font-family="CMU Serif" font-size="18" font-style="normal" xml:space="preserve">
    <tspan y="-0" fill="rgb(38,38,38)" x="0 ">6</tspan>
   </text>
   <text font-weight="normal" transform="translate(326.767,394) rotate(-0,4.5,-13)" font-family="CMU Serif" font-size="18" font-style="normal" xml:space="preserve">
    <tspan y="-0" fill="rgb(38,38,38)" x="0 ">8</tspan>
   </text>
   <text font-weight="normal" transform="translate(386.364,394) rotate(-0,9,-13)" font-family="CMU Serif" font-size="18" font-style="normal" xml:space="preserve">
    <tspan y="-0" fill="rgb(38,38,38)" x="0 9 ">10</tspan>
   </text>
   <text font-weight="normal" transform="translate(450.461,394) rotate(-0,9,-13)" font-family="CMU Serif" font-size="18" font-style="normal" xml:space="preserve">
    <tspan y="-0" fill="rgb(38,38,38)" x="0 9 ">12</tspan>
   </text>
   <polyline stroke-width="0.5" stroke-dasharray="16,0" points="74.88,367.496 521.28,367.496" stroke-linecap="butt" fill="none" stroke="#262626" stroke-opacity="0.15" stroke-linejoin="miter"/>
   <polyline stroke-width="0.5" stroke-dasharray="16,0" points="74.88,300.477 521.28,300.477" stroke-linecap="butt" fill="none" stroke="#262626" stroke-opacity="0.15" stroke-linejoin="miter"/>
   <polyline stroke-width="0.5" stroke-dasharray="16,0" points="74.88,233.458 521.28,233.458" stroke-linecap="butt" fill="none" stroke="#262626" stroke-opacity="0.15" stroke-linejoin="miter"/>
   <polyline stroke-width="0.5" stroke-dasharray="16,0" points="74.88,166.438 521.28,166.438" stroke-linecap="butt" fill="none" stroke="#262626" stroke-opacity="0.15" stroke-linejoin="miter"/>
   <polyline stroke-width="0.5" stroke-dasharray="16,0" points="74.88,99.4192 521.28,99.4192" stroke-linecap="butt" fill="none" stroke="#262626" stroke-opacity="0.15" stroke-linejoin="miter"/>
   <polyline stroke-width="0.5" stroke-dasharray="16,0" points="74.88,32.4 521.28,32.4" stroke-linecap="butt" fill="none" stroke="#262626" stroke-opacity="0.15" stroke-linejoin="miter"/>
   <polyline stroke-width="0.5" points="74.88,367.496 79.348,367.496" stroke-linecap="butt" fill="none" stroke="#262626" stroke-linejoin="miter"/>
   <polyline stroke-width="0.5" points="521.28,367.496 516.812,367.496" stroke-linecap="butt" fill="none" stroke="#262626" stroke-linejoin="miter"/>
   <polyline stroke-width="0.5" points="74.88,300.477 79.348,300.477" stroke-linecap="butt" fill="none" stroke="#262626" stroke-linejoin="miter"/>
   <polyline stroke-width="0.5" points="521.28,300.477 516.812,300.477" stroke-linecap="butt" fill="none" stroke="#262626" stroke-linejoin="miter"/>
   <polyline stroke-width="0.5" points="74.88,233.458 79.348,233.458" stroke-linecap="butt" fill="none" stroke="#262626" stroke-linejoin="miter"/>
   <polyline stroke-width="0.5" points="521.28,233.458 516.812,233.458" stroke-linecap="butt" fill="none" stroke="#262626" stroke-linejoin="miter"/>
   <polyline stroke-width="0.5" points="74.88,166.438 79.348,166.438" stroke-linecap="butt" fill="none" stroke="#262626" stroke-linejoin="miter"/>
   <polyline stroke-width="0.5" points="521.28,166.438 516.812,166.438" stroke-linecap="butt" fill="none" stroke="#262626" stroke-linejoin="miter"/>
   <polyline stroke-width="0.5" points="74.88,99.4192 79.348,99.4192" stroke-linecap="butt" fill="none" stroke="#262626" stroke-linejoin="miter"/>
   <polyline stroke-width="0.5" points="521.28,99.4192 516.812,99.4192" stroke-linecap="butt" fill="none" stroke="#262626" stroke-linejoin="miter"/>
   <polyline stroke-width="0.5" points="74.88,32.4 79.348,32.4" stroke-linecap="butt" fill="none" stroke="#262626" stroke-linejoin="miter"/>
   <polyline stroke-width="0.5" points="521.28,32.4 516.812,32.4" stroke-linecap="butt" fill="none" stroke="#262626" stroke-linejoin="miter"/>
   <text font-weight="normal" transform="translate(56.8719,373.996) rotate(-0,9,-6.5)" font-family="CMU Serif" font-size="18" font-style="normal" xml:space="preserve">
    <tspan y="-0" fill="rgb(38,38,38)" x="0 ">0</tspan>
   </text>
   <text font-weight="normal" transform="translate(42.8719,306.977) rotate(-0,23,-6.5)" font-family="CMU Serif" font-size="18" font-style="normal" xml:space="preserve">
    <tspan y="-0" fill="rgb(38,38,38)" x="0 9 14 ">0.5</tspan>
   </text>
   <text font-weight="normal" transform="translate(56.8719,239.958) rotate(-0,9,-6.5)" font-family="CMU Serif" font-size="18" font-style="normal" xml:space="preserve">
    <tspan y="-0" fill="rgb(38,38,38)" x="0 ">1</tspan>
   </text>
   <text font-weight="normal" transform="translate(42.8719,172.938) rotate(-0,23,-6.5)" font-family="CMU Serif" font-size="18" font-style="normal" xml:space="preserve">
    <tspan y="-0" fill="rgb(38,38,38)" x="0 9 14 ">1.5</tspan>
   </text>
   <text font-weight="normal" transform="translate(56.8719,105.919) rotate(-0,9,-6.5)" font-family="CMU Serif" font-size="18" font-style="normal" xml:space="preserve">
    <tspan y="-0" fill="rgb(38,38,38)" x="0 ">2</tspan>
   </text>
   <text font-weight="normal" transform="translate(42.8719,38.9) rotate(-0,23,-6.5)" font-family="CMU Serif" font-size="18" font-style="normal" xml:space="preserve">
    <tspan y="-0" fill="rgb(38,38,38)" x="0 9 14 ">2.5</tspan>
   </text>
   <polyline stroke-width="0.5" stroke-dasharray="16,0" points="74.88,367.496 521.28,367.496" stroke-linecap="square" fill="none" stroke="#262626" stroke-linejoin="miter"/>
   <polyline stroke-width="0.5" stroke-dasharray="16,0" points="74.88,32.4 521.28,32.4" stroke-linecap="square" fill="none" stroke="#262626" stroke-linejoin="miter"/>
   <polyline stroke-width="0.5" stroke-dasharray="16,0" points="74.88,367.496 74.88,32.4" stroke-linecap="square" fill="none" stroke="#262626" stroke-linejoin="miter"/>
   <polyline stroke-width="0.5" stroke-dasharray="16,0" points="521.28,367.496 521.28,32.4" stroke-linecap="square" fill="none" stroke="#262626" stroke-linejoin="miter"/>
   <text font-weight="normal" transform="translate(258.08,432) rotate(-0,40,-33)" font-family="CMU Serif" font-size="19.8" font-style="normal" xml:space="preserve">
    <tspan y="-16" fill="rgb(38,38,38)" x="0 ">h</tspan>
    <tspan font-size="17.8" y="-0" fill="rgb(38,38,38)" x="11 20 ">am</tspan>
    <tspan y="-16" fill="rgb(38,38,38)" x="35 42 48 57 74 "> [cm]</tspan>
   </text>
   <text font-weight="normal" transform="translate(5.37193,199.948) rotate(-90,32.5,0)" font-family="CMU Serif" font-size="19.8" font-style="normal" xml:space="preserve">
    <tspan y="-16" fill="rgb(38,38,38)" x="0 ">D</tspan>
    <tspan font-size="17.8" y="-0" fill="rgb(38,38,38)" x="15 ">i</tspan>
    <tspan y="-16" fill="rgb(38,38,38)" x="20 27 33 42 59 "> [cm]</tspan>
   </text>
   <polyline stroke-width="3" points="74.88,367.496 75.3264,367.496 75.7728,367.496 76.2192,367.496 76.6656,367.496 77.112,367.496 77.5584,367.496 78.0048,367.496 78.4512,367.496 78.8976,367.496 79.344,367.496 79.7904,367.496 80.2368,367.496 80.6832,367.496 81.1296,367.496 81.576,367.496 82.0224,367.496 82.4688,367.496 82.9152,367.496 83.3616,367.496 83.808,367.496 84.2544,367.496 84.7008,367.496 85.1472,367.496 85.5936,367.496 86.04,367.496 86.4864,367.496 86.9328,334.084 87.3792,318.116 87.8256,306.749 88.272,297.656 88.7184,289.998 89.1648,283.355 89.6112,277.478 90.0576,272.206 90.504,267.426 90.9504,263.056 91.3968,259.035 91.8432,255.312 92.2896,251.851 92.736,248.618 93.1824,245.589 93.6288,242.742 94.0752,240.058 94.5216,237.521 94.968,235.118 95.4144,232.837 95.8608,230.668 96.3072,228.602 96.7536,226.63 97.2,224.746 97.6464,222.944 98.0928,221.216 98.5392,219.559 98.9856,217.968 99.432,216.438 99.8784,214.966 100.325,213.548 100.771,212.181 101.218,210.861 101.664,209.587 102.11,208.356 102.557,207.165 103.003,206.012 103.45,204.896 103.896,203.814 104.342,202.765 104.789,201.747 105.235,200.759 105.682,199.799 106.128,198.867 106.574,197.96 107.021,197.077 107.467,196.219 107.914,195.383 108.36,194.569 108.806,193.775 109.253,193.002 109.699,192.248 110.146,191.512 110.592,190.793 111.038,190.092 111.485,189.408 111.931,188.739 112.378,188.085 112.824,187.446 113.27,186.821 113.717,186.21 114.163,185.612 114.61,185.026 115.056,184.453 115.502,183.892 115.949,183.343 116.395,182.804 116.842,182.277 117.288,181.76 117.734,181.253 118.181,180.756 118.627,180.268 119.074,179.79 119.52,179.321 119.966,178.86 120.413,178.408 120.859,177.964 121.306,177.528 121.752,177.1 122.198,176.679 122.645,176.266 123.091,175.86 123.538,175.461 123.984,175.068 124.43,174.683 124.877,174.303 125.323,173.93 125.77,173.563 126.216,173.202 126.662,172.847 127.109,172.497 127.555,172.153 128.002,171.815 128.448,171.481 128.894,171.153 129.341,170.83 129.787,170.511 130.234,170.198 130.68,169.889 131.126,169.584 131.573,169.284 132.019,168.989 132.466,168.697 132.912,168.41 133.358,168.127 133.805,167.848 134.251,167.573 134.698,167.301 135.144,167.034 135.59,166.77 136.037,166.509 136.483,166.252 136.93,165.999 137.376,165.749 137.822,165.502 138.269,165.258 138.715,165.018 139.162,164.781 139.608,164.546 140.054,164.315 140.501,164.087 140.947,163.861 141.394,163.639 141.84,163.419 142.286,163.201 142.733,162.987 143.179,162.775 143.626,162.566 144.072,162.359 144.518,162.154 144.965,161.952 145.411,161.753 145.858,161.555 146.304,161.361 146.75,161.168 147.197,160.977 147.643,160.789 148.09,160.603 148.536,160.419 148.982,160.237 149.429,160.057 149.875,159.879 150.322,159.703 150.768,159.529 151.214,159.357 151.661,159.186 152.107,159.018 152.554,158.851 153,158.686 153.446,158.523 153.893,158.362 154.339,158.202 154.786,158.044 155.232,157.888 155.678,157.733 156.125,157.58 156.571,157.428 157.018,157.278 157.464,157.129 157.91,156.982 158.357,156.837 158.803,156.692 159.25,156.55 159.696,156.408 160.142,156.268 160.589,156.13 161.035,155.993 161.482,155.857 161.928,155.722 162.374,155.589 162.821,155.457 163.267,155.326 163.714,155.196 164.16,155.068 164.606,154.941 165.053,154.815 165.499,154.69 165.946,154.566 166.392,154.444 166.838,154.323 167.285,154.202 167.731,154.083 168.178,153.965 168.624,153.848 169.07,153.732 169.517,153.617 169.963,153.503 170.41,153.39 170.856,153.278 171.302,153.167 171.749,153.057 172.195,152.947 172.642,152.839 173.088,152.732 173.534,152.626 173.981,152.52 174.427,152.416 174.874,152.312 175.32,152.209 175.766,152.107 176.213,152.006 176.659,151.906 177.106,151.806 177.552,151.708 177.998,151.61 178.445,151.513 178.891,151.416 179.338,151.321 179.784,151.226 180.23,151.132 180.677,151.039 181.123,150.947 181.57,150.855 182.016,150.764 182.462,150.673 182.909,150.584 183.355,150.495 183.802,150.407 184.248,150.319 184.694,150.232 185.141,150.146 185.587,150.06 186.034,149.975 186.48,149.891 186.926,149.807 187.373,149.724 187.819,149.642 188.266,149.56 188.712,149.479 189.158,149.398 189.605,149.318 190.051,149.239 190.498,149.16 190.944,149.082 191.39,149.004 191.837,148.927 192.283,148.85 192.73,148.774 193.176,148.698 193.622,148.623 194.069,148.549 194.515,148.475 194.962,148.402 195.408,148.329 195.854,148.256 196.301,148.184 196.747,148.113 197.194,148.042 197.64,147.971 198.086,147.901 198.533,147.832 198.979,147.763 199.426,147.694 199.872,147.626 200.318,147.559 200.765,147.491 201.211,147.424 201.658,147.358 202.104,147.292 202.55,147.227 202.997,147.162 203.443,147.097 203.89,147.033 204.336,146.969 204.782,146.906 205.229,146.843 205.675,146.78 206.122,146.718 206.568,146.656 207.014,146.595 207.461,146.534 207.907,146.473 208.354,146.413 208.8,146.353 209.246,146.293 209.693,146.234 210.139,146.175 210.586,146.117 211.032,146.059 211.478,146.001 211.925,145.944 212.371,145.887 212.818,145.83 213.264,145.774 213.71,145.718 214.157,145.662 214.603,145.607 215.05,145.552 215.496,145.497 215.942,145.442 216.389,145.388 216.835,145.335 217.282,145.281 217.728,145.228 218.174,145.175 218.621,145.123 219.067,145.07 219.514,145.018 219.96,144.967 220.406,144.915 220.853,144.864 221.299,144.813 221.746,144.763 222.192,144.713 222.638,144.663 223.085,144.613 223.531,144.563 223.978,144.514 224.424,144.465 224.87,144.417 225.317,144.368 225.763,144.32 226.21,144.272 226.656,144.225 227.102,144.178 227.549,144.13 227.995,144.084 228.442,144.037 228.888,143.991 229.334,143.944 229.781,143.899 230.227,143.853 230.674,143.808 231.12,143.762 231.566,143.717 232.013,143.673 232.459,143.628 232.906,143.584 233.352,143.54 233.798,143.496 234.245,143.452 234.691,143.409 235.138,143.366 235.584,143.323 236.03,143.28 236.477,143.238 236.923,143.195 237.37,143.153 237.816,143.111 238.262,143.07 238.709,143.028 239.155,142.987 239.602,142.946 240.048,142.905 240.494,142.864 240.941,142.823 241.387,142.783 241.834,142.743 242.28,142.703 242.726,142.663 243.173,142.623 243.619,142.584 244.066,142.545 244.512,142.506 244.958,142.467 245.405,142.428 245.851,142.389 246.298,142.351 246.744,142.313 247.19,142.275 247.637,142.237 248.083,142.199 248.53,142.162 248.976,142.124 249.422,142.087 249.869,142.05 250.315,142.013 250.762,141.976 251.208,141.94 251.654,141.903 252.101,141.867 252.547,141.831 252.994,141.795 253.44,141.759 253.886,141.723 254.333,141.688 254.779,141.653 255.226,141.617 255.672,141.582 256.118,141.547 256.565,141.513 257.011,141.478 257.458,141.443 257.904,141.409 258.35,141.375 258.797,141.341 259.243,141.307 259.69,141.273 260.136,141.239 260.582,141.206 261.029,141.172 261.475,141.139 261.922,141.106 262.368,141.073 262.814,141.04 263.261,141.007 263.707,140.974 264.154,140.942 264.6,140.909 265.046,140.877 265.493,140.845 265.939,140.813 266.386,140.781 266.832,140.749 267.278,140.717 267.725,140.686 268.171,140.654 268.618,140.623 269.064,140.592 269.51,140.561 269.957,140.53 270.403,140.499 270.85,140.468 271.296,140.437 271.742,140.407 272.189,140.376 272.635,140.346 273.082,140.315 273.528,140.285 273.974,140.255 274.421,140.225 274.867,140.195 275.314,140.166 275.76,140.136 276.206,140.107 276.653,140.077 277.099,140.048 277.546,140.018 277.992,139.989 278.438,139.96 278.885,139.931 279.331,139.902 279.778,139.874 280.224,139.845 280.67,139.816 281.117,139.788 281.563,139.759 282.01,139.731 282.456,139.703 282.902,139.675 283.349,139.647 283.795,139.619 284.242,139.591 284.688,139.563 285.134,139.535 285.581,139.508 286.027,139.48 286.474,139.453 286.92,139.425 287.366,139.398 287.813,139.371 288.259,139.344 288.706,139.317 289.152,139.29 289.598,139.263 290.045,139.236 290.491,139.209 290.938,139.182 291.384,139.156 291.83,139.129 292.277,139.103 292.723,139.077 293.17,139.05 293.616,139.024 294.062,138.998 294.509,138.972 294.955,138.946 295.402,138.92 295.848,138.894 296.294,138.868 296.741,138.842 297.187,138.817 297.634,138.791 298.08,138.766 298.526,138.74 298.973,138.715 299.419,138.69 299.866,138.664 300.312,138.639 300.758,138.614 301.205,138.589 301.651,138.564 302.098,138.539 302.544,138.514 302.99,138.489 303.437,138.465 303.883,138.44 304.33,138.415 304.776,138.391 305.222,138.366 305.669,138.342 306.115,138.317 306.562,138.293 307.008,138.269 307.454,138.244 307.901,138.22 308.347,138.196 308.794,138.172 309.24,138.148 309.686,138.124 310.133,138.1 310.579,138.077 311.026,138.053 311.472,138.029 311.918,138.005 312.365,137.982 312.811,137.958 313.258,137.935 313.704,137.911 314.15,137.888 314.597,137.864 315.043,137.841 315.49,137.818 315.936,137.795 316.382,137.771 316.829,137.748 317.275,137.725 317.722,137.702 318.168,137.679 318.614,137.656 319.061,137.633 319.507,137.611 319.954,137.588 320.4,137.565 320.846,137.542 321.293,137.52 321.739,137.497 322.186,137.475 322.632,137.452 323.078,137.43 323.525,137.407 323.971,137.385 324.418,137.362 324.864,137.34 325.31,137.318 325.757,137.296 326.203,137.273 326.65,137.251 327.096,137.229 327.542,137.207 327.989,137.185 328.435,137.163 328.882,137.141 329.328,137.119 329.774,137.097 330.221,137.075 330.667,137.054 331.114,137.032 331.56,137.01 332.006,136.988 332.453,136.967 332.899,136.945 333.346,136.923 333.792,136.902 334.238,136.88 334.685,136.859 335.131,136.837 335.578,136.816 336.024,136.795 336.47,136.773 336.917,136.752 337.363,136.731 337.81,136.709 338.256,136.688 338.702,136.667 339.149,136.646 339.595,136.625 340.042,136.604 340.488,136.583 340.934,136.562 341.381,136.541 341.827,136.52 342.274,136.499 342.72,136.478 343.166,136.457 343.613,136.436 344.059,136.415 344.506,136.394 344.952,136.374 345.398,136.353 345.845,136.332 346.291,136.311 346.738,136.291 347.184,136.27 347.63,136.25 348.077,136.229 348.523,136.208 348.97,136.188 349.416,136.167 349.862,136.147 350.309,136.126 350.755,136.106 351.202,136.086 351.648,136.065 352.094,136.045 352.541,136.024 352.987,136.004 353.434,135.984 353.88,135.964 354.326,135.943 354.773,135.923 355.219,135.903 355.666,135.883 356.112,135.862 356.558,135.842 357.005,135.822 357.451,135.802 357.898,135.782 358.344,135.762 358.79,135.742 359.237,135.722 359.683,135.702 360.13,135.682 360.576,135.662 361.022,135.642 361.469,135.622 361.915,135.602 362.362,135.582 362.808,135.563 363.254,135.543 363.701,135.523 364.147,135.503 364.594,135.483 365.04,135.464 365.486,135.444 365.933,135.424 366.379,135.404 366.826,135.385 367.272,135.365 367.718,135.345 368.165,135.326 368.611,135.306 369.058,135.286 369.504,135.267 369.95,135.247 370.397,135.227 370.843,135.208 371.29,135.188 371.736,135.169 372.182,135.149 372.629,135.13 373.075,135.11 373.522,135.091 373.968,135.071 374.414,135.052 374.861,135.032 375.307,135.013 375.754,134.993 376.2,134.974 376.646,134.955 377.093,134.935 377.539,134.916 377.986,134.897 378.432,134.877 378.878,134.858 379.325,134.839 379.771,134.819 380.218,134.8 380.664,134.781 381.11,134.761 381.557,134.742 382.003,134.723 382.45,134.704 382.896,134.684 383.342,134.665 383.789,134.646 384.235,134.627 384.682,134.607 385.128,134.588 385.574,134.569 386.021,134.55 386.467,134.531 386.914,134.511 387.36,134.492 387.806,134.473 388.253,134.454 388.699,134.435 389.146,134.416 389.592,134.397 390.038,134.378 390.485,134.358 390.931,134.339 391.378,134.32 391.824,134.301 392.27,134.282 392.717,134.263 393.163,134.244 393.61,134.225 394.056,134.206 394.502,134.187 394.949,134.168 395.395,134.149 395.842,134.129 396.288,134.11 396.734,134.091 397.181,134.072 397.627,134.053 398.074,134.034 398.52,134.015 398.966,133.996 399.413,133.977 399.859,133.958 400.306,133.939 400.752,133.92 401.198,133.901 401.645,133.882 402.091,133.863 402.538,133.844 402.984,133.825 403.43,133.806 403.877,133.787 404.323,133.768 404.77,133.749 405.216,133.73 405.662,133.711 406.109,133.692 406.555,133.673 407.002,133.654 407.448,133.635 407.894,133.616 408.341,133.598 408.787,133.579 409.234,133.56 409.68,133.541 410.126,133.522 410.573,133.503 411.019,133.484 411.466,133.465 411.912,133.446 412.358,133.427 412.805,133.408 413.251,133.389 413.698,133.37 414.144,133.351 414.59,133.332 415.037,133.313 415.483,133.294 415.93,133.275 416.376,133.256 416.822,133.237 417.269,133.218 417.715,133.199 418.162,133.18 418.608,133.161 419.054,133.142 419.501,133.123 419.947,133.104 420.394,133.085 420.84,133.066 421.286,133.047 421.733,133.027 422.179,133.008 422.626,132.989 423.072,132.97 423.518,132.951 423.965,132.932 424.411,132.913 424.858,132.894 425.304,132.875 425.75,132.856 426.197,132.837 426.643,132.818 427.09,132.799 427.536,132.78 427.982,132.76 428.429,132.741 428.875,132.722 429.322,132.703 429.768,132.684 430.214,132.665 430.661,132.646 431.107,132.626 431.554,132.607 432,132.588 432.446,132.569 432.893,132.55 433.339,132.531 433.786,132.511 434.232,132.492 434.678,132.473 435.125,132.454 435.571,132.434 436.018,132.415 436.464,132.396 436.91,132.377 437.357,132.357 437.803,132.338 438.25,132.319 438.696,132.299 439.142,132.28 439.589,132.261 440.035,132.241 440.482,132.222 440.928,132.203 441.374,132.183 441.821,132.164 442.267,132.145 442.714,132.125 443.16,132.106 443.606,132.086 444.053,132.067 444.499,132.048 444.946,132.028 445.392,132.009 445.838,131.989 446.285,131.97 446.731,131.95 447.178,131.931 447.624,131.911 448.07,131.892 448.517,131.872 448.963,131.852 449.41,131.833 449.856,131.813 450.302,131.794 450.749,131.774 451.195,131.754 451.642,131.735 452.088,131.715 452.534,131.695 452.981,131.676 453.427,131.656 453.874,131.636 454.32,131.616 454.766,131.597 455.213,131.577 455.659,131.557 456.106,131.537 456.552,131.518 456.998,131.498 457.445,131.478 457.891,131.458 458.338,131.438 458.784,131.418 459.23,131.398 459.677,131.378 460.123,131.358 460.57,131.338 461.016,131.318 461.462,131.298 461.909,131.278 462.355,131.258 462.802,131.238 463.248,131.218 463.694,131.198 464.141,131.178 464.587,131.158 465.034,131.138 465.48,131.118 465.926,131.097 466.373,131.077 466.819,131.057 467.266,131.037 467.712,131.016 468.158,130.996 468.605,130.976 469.051,130.956 469.498,130.935 469.944,130.915 470.39,130.894 470.837,130.874 471.283,130.854 471.73,130.833 472.176,130.813 472.622,130.792 473.069,130.772 473.515,130.751 473.962,130.731 474.408,130.71 474.854,130.689 475.301,130.669 475.747,130.648 476.194,130.627 476.64,130.607 477.086,130.586 477.533,130.565 477.979,130.544 478.426,130.524 478.872,130.503 479.318,130.482 479.765,130.461 480.211,130.44 480.658,130.419 481.104,130.398 481.55,130.377 481.997,130.356 482.443,130.335 482.89,130.314 483.336,130.293 483.782,130.272 484.229,130.251 484.675,130.23 485.122,130.209 485.568,130.188 486.014,130.166 486.461,130.145 486.907,130.124 487.354,130.102 487.8,130.081 488.246,130.06 488.693,130.038 489.139,130.017 489.586,129.995 490.032,129.974 490.478,129.952 490.925,129.931 491.371,129.909 491.818,129.888 492.264,129.866 492.71,129.844 493.157,129.823 493.603,129.801 494.05,129.779 494.496,129.757 494.942,129.736 495.389,129.714 495.835,129.692 496.282,129.67 496.728,129.648 497.174,129.626 497.621,129.604 498.067,129.582 498.514,129.56 498.96,129.538 499.406,129.515 499.853,129.493 500.299,129.471 500.746,129.449 501.192,129.427 501.638,129.404 502.085,129.382 502.531,129.359 502.978,129.337 503.424,129.315 503.87,129.292 504.317,129.27 504.763,129.247 505.21,129.224 505.656,129.202 506.102,129.179 506.549,129.156 506.995,129.134 507.442,129.111 507.888,129.088 508.334,129.065 508.781,129.042 509.227,129.019 509.674,128.996 510.12,128.973 510.566,128.95 511.013,128.927 511.459,128.904 511.906,128.881 512.352,128.857 512.798,128.834 513.245,128.811 513.691,128.787 514.138,128.764 514.584,128.741 515.03,128.717 515.477,128.694 515.923,128.67 516.37,128.647 516.816,128.623 517.262,128.599 517.709,128.576 518.155,128.552 518.602,128.528 519.048,128.505 519.494,128.481 519.941,128.458 520.387,128.435 520.834,128.415 521.28,87.4442" stroke-linecap="butt" fill="none" stroke="#0071bc" stroke-linejoin="round"/>
  </g>
 </g>
</svg>
