<?xml version='1.0' encoding='UTF-8' standalone='no'?>
<svg width="576pt" height="432pt" xmlns:xlink="http://www.w3.org/1999/xlink" viewBox="0 0 576 432" xmlns="http://www.w3.org/2000/svg">
 <title>gl2ps_renderer figure</title>
 <desc>
Creator: GL2PS 1.4.0, (C) 1999-2017 C. Geuzaine
For: Octave
CreationDate: Fri Jul 03 15:43:30 2020
</desc>
 <defs/>
 <polygon fill="#ffffff" points="0,0 576,0 576,432 0,432"/>
 <g>
  <polygon shape-rendering="crispEdges" fill="#ffffff" points="0,432 576,432 576,0 0,0"/>
  <clipPath id="cp00576432">
   <polygon points="0,432 576,432 576,0 0,0"/>
  </clipPath>
  <g clip-path="url(#cp00576432)">
   <polygon shape-rendering="crispEdges" fill="#ffffff" points="74.88,367.496 521.28,367.496 521.28,32.4 74.88,32.4"/>
   <polyline stroke-linejoin="miter" stroke-dasharray="16,0" fill="none" points="74.88,367.496 74.88,32.4" stroke-linecap="butt" stroke="#262626" stroke-opacity="0.15" stroke-width="0.5"/>
   <polyline stroke-linejoin="miter" stroke-dasharray="16,0" fill="none" points="138.977,367.496 138.977,32.4" stroke-linecap="butt" stroke="#262626" stroke-opacity="0.15" stroke-width="0.5"/>
   <polyline stroke-linejoin="miter" stroke-dasharray="16,0" fill="none" points="203.074,367.496 203.074,32.4" stroke-linecap="butt" stroke="#262626" stroke-opacity="0.15" stroke-width="0.5"/>
   <polyline stroke-linejoin="miter" stroke-dasharray="16,0" fill="none" points="267.17,367.496 267.17,32.4" stroke-linecap="butt" stroke="#262626" stroke-opacity="0.15" stroke-width="0.5"/>
   <polyline stroke-linejoin="miter" stroke-dasharray="16,0" fill="none" points="331.267,367.496 331.267,32.4" stroke-linecap="butt" stroke="#262626" stroke-opacity="0.15" stroke-width="0.5"/>
   <polyline stroke-linejoin="miter" stroke-dasharray="16,0" fill="none" points="395.364,367.496 395.364,32.4" stroke-linecap="butt" stroke="#262626" stroke-opacity="0.15" stroke-width="0.5"/>
   <polyline stroke-linejoin="miter" stroke-dasharray="16,0" fill="none" points="459.461,367.496 459.461,32.4" stroke-linecap="butt" stroke="#262626" stroke-opacity="0.15" stroke-width="0.5"/>
   <polyline stroke-linejoin="miter" fill="none" points="74.88,367.496 74.88,363.031" stroke-linecap="butt" stroke="#262626" stroke-width="0.5"/>
   <polyline stroke-linejoin="miter" fill="none" points="74.88,32.4 74.88,36.8653" stroke-linecap="butt" stroke="#262626" stroke-width="0.5"/>
   <polyline stroke-linejoin="miter" fill="none" points="138.977,367.496 138.977,363.031" stroke-linecap="butt" stroke="#262626" stroke-width="0.5"/>
   <polyline stroke-linejoin="miter" fill="none" points="138.977,32.4 138.977,36.8653" stroke-linecap="butt" stroke="#262626" stroke-width="0.5"/>
   <polyline stroke-linejoin="miter" fill="none" points="203.074,367.496 203.074,363.031" stroke-linecap="butt" stroke="#262626" stroke-width="0.5"/>
   <polyline stroke-linejoin="miter" fill="none" points="203.074,32.4 203.074,36.8653" stroke-linecap="butt" stroke="#262626" stroke-width="0.5"/>
   <polyline stroke-linejoin="miter" fill="none" points="267.17,367.496 267.17,363.031" stroke-linecap="butt" stroke="#262626" stroke-width="0.5"/>
   <polyline stroke-linejoin="miter" fill="none" points="267.17,32.4 267.17,36.8653" stroke-linecap="butt" stroke="#262626" stroke-width="0.5"/>
   <polyline stroke-linejoin="miter" fill="none" points="331.267,367.496 331.267,363.031" stroke-linecap="butt" stroke="#262626" stroke-width="0.5"/>
   <polyline stroke-linejoin="miter" fill="none" points="331.267,32.4 331.267,36.8653" stroke-linecap="butt" stroke="#262626" stroke-width="0.5"/>
   <polyline stroke-linejoin="miter" fill="none" points="395.364,367.496 395.364,363.031" stroke-linecap="butt" stroke="#262626" stroke-width="0.5"/>
   <polyline stroke-linejoin="miter" fill="none" points="395.364,32.4 395.364,36.8653" stroke-linecap="butt" stroke="#262626" stroke-width="0.5"/>
   <polyline stroke-linejoin="miter" fill="none" points="459.461,367.496 459.461,363.031" stroke-linecap="butt" stroke="#262626" stroke-width="0.5"/>
   <polyline stroke-linejoin="miter" fill="none" points="459.461,32.4 459.461,36.8653" stroke-linecap="butt" stroke="#262626" stroke-width="0.5"/>
   <text font-family="CMU Serif" xml:space="preserve" font-size="18" font-style="normal" transform="translate(70.38,394) rotate(-0,4.5,-13)" font-weight="normal">
    <tspan y="-0" fill="rgb(38,38,38)" x="0 ">0</tspan>
   </text>
   <text font-family="CMU Serif" xml:space="preserve" font-size="18" font-style="normal" transform="translate(134.477,394) rotate(-0,4.5,-13)" font-weight="normal">
    <tspan y="-0" fill="rgb(38,38,38)" x="0 ">2</tspan>
   </text>
   <text font-family="CMU Serif" xml:space="preserve" font-size="18" font-style="normal" transform="translate(198.574,394) rotate(-0,4.5,-13)" font-weight="normal">
    <tspan y="-0" fill="rgb(38,38,38)" x="0 ">4</tspan>
   </text>
   <text font-family="CMU Serif" xml:space="preserve" font-size="18" font-style="normal" transform="translate(262.67,394) rotate(-0,4.5,-13)" font-weight="normal">
    <tspan y="-0" fill="rgb(38,38,38)" x="0 ">6</tspan>
   </text>
   <text font-family="CMU Serif" xml:space="preserve" font-size="18" font-style="normal" transform="translate(326.767,394) rotate(-0,4.5,-13)" font-weight="normal">
    <tspan y="-0" fill="rgb(38,38,38)" x="0 ">8</tspan>
   </text>
   <text font-family="CMU Serif" xml:space="preserve" font-size="18" font-style="normal" transform="translate(386.364,394) rotate(-0,9,-13)" font-weight="normal">
    <tspan y="-0" fill="rgb(38,38,38)" x="0 9 ">10</tspan>
   </text>
   <text font-family="CMU Serif" xml:space="preserve" font-size="18" font-style="normal" transform="translate(450.461,394) rotate(-0,9,-13)" font-weight="normal">
    <tspan y="-0" fill="rgb(38,38,38)" x="0 9 ">12</tspan>
   </text>
   <polyline stroke-linejoin="miter" stroke-dasharray="16,0" fill="none" points="74.88,367.496 521.28,367.496" stroke-linecap="butt" stroke="#262626" stroke-opacity="0.15" stroke-width="0.5"/>
   <polyline stroke-linejoin="miter" stroke-dasharray="16,0" fill="none" points="74.88,283.722 521.28,283.722" stroke-linecap="butt" stroke="#262626" stroke-opacity="0.15" stroke-width="0.5"/>
   <polyline stroke-linejoin="miter" stroke-dasharray="16,0" fill="none" points="74.88,199.948 521.28,199.948" stroke-linecap="butt" stroke="#262626" stroke-opacity="0.15" stroke-width="0.5"/>
   <polyline stroke-linejoin="miter" stroke-dasharray="16,0" fill="none" points="74.88,116.174 521.28,116.174" stroke-linecap="butt" stroke="#262626" stroke-opacity="0.15" stroke-width="0.5"/>
   <polyline stroke-linejoin="miter" stroke-dasharray="16,0" fill="none" points="74.88,32.4 521.28,32.4" stroke-linecap="butt" stroke="#262626" stroke-opacity="0.15" stroke-width="0.5"/>
   <polyline stroke-linejoin="miter" fill="none" points="74.88,367.496 79.348,367.496" stroke-linecap="butt" stroke="#262626" stroke-width="0.5"/>
   <polyline stroke-linejoin="miter" fill="none" points="521.28,367.496 516.812,367.496" stroke-linecap="butt" stroke="#262626" stroke-width="0.5"/>
   <polyline stroke-linejoin="miter" fill="none" points="74.88,283.722 79.348,283.722" stroke-linecap="butt" stroke="#262626" stroke-width="0.5"/>
   <polyline stroke-linejoin="miter" fill="none" points="521.28,283.722 516.812,283.722" stroke-linecap="butt" stroke="#262626" stroke-width="0.5"/>
   <polyline stroke-linejoin="miter" fill="none" points="74.88,199.948 79.348,199.948" stroke-linecap="butt" stroke="#262626" stroke-width="0.5"/>
   <polyline stroke-linejoin="miter" fill="none" points="521.28,199.948 516.812,199.948" stroke-linecap="butt" stroke="#262626" stroke-width="0.5"/>
   <polyline stroke-linejoin="miter" fill="none" points="74.88,116.174 79.348,116.174" stroke-linecap="butt" stroke="#262626" stroke-width="0.5"/>
   <polyline stroke-linejoin="miter" fill="none" points="521.28,116.174 516.812,116.174" stroke-linecap="butt" stroke="#262626" stroke-width="0.5"/>
   <polyline stroke-linejoin="miter" fill="none" points="74.88,32.4 79.348,32.4" stroke-linecap="butt" stroke="#262626" stroke-width="0.5"/>
   <polyline stroke-linejoin="miter" fill="none" points="521.28,32.4 516.812,32.4" stroke-linecap="butt" stroke="#262626" stroke-width="0.5"/>
   <text font-family="CMU Serif" xml:space="preserve" font-size="18" font-style="normal" transform="translate(56.8719,373.996) rotate(-0,9,-6.5)" font-weight="normal">
    <tspan y="-0" fill="rgb(38,38,38)" x="0 ">0</tspan>
   </text>
   <text font-family="CMU Serif" xml:space="preserve" font-size="18" font-style="normal" transform="translate(42.8719,290.222) rotate(-0,23,-6.5)" font-weight="normal">
    <tspan y="-0" fill="rgb(38,38,38)" x="0 9 14 ">0.5</tspan>
   </text>
   <text font-family="CMU Serif" xml:space="preserve" font-size="18" font-style="normal" transform="translate(56.8719,206.448) rotate(-0,9,-6.5)" font-weight="normal">
    <tspan y="-0" fill="rgb(38,38,38)" x="0 ">1</tspan>
   </text>
   <text font-family="CMU Serif" xml:space="preserve" font-size="18" font-style="normal" transform="translate(42.8719,122.674) rotate(-0,23,-6.5)" font-weight="normal">
    <tspan y="-0" fill="rgb(38,38,38)" x="0 9 14 ">1.5</tspan>
   </text>
   <text font-family="CMU Serif" xml:space="preserve" font-size="18" font-style="normal" transform="translate(56.8719,38.9) rotate(-0,9,-6.5)" font-weight="normal">
    <tspan y="-0" fill="rgb(38,38,38)" x="0 ">2</tspan>
   </text>
   <polyline stroke-linejoin="miter" stroke-dasharray="16,0" fill="none" points="74.88,367.496 521.28,367.496" stroke-linecap="square" stroke="#262626" stroke-width="0.5"/>
   <polyline stroke-linejoin="miter" stroke-dasharray="16,0" fill="none" points="74.88,32.4 521.28,32.4" stroke-linecap="square" stroke="#262626" stroke-width="0.5"/>
   <polyline stroke-linejoin="miter" stroke-dasharray="16,0" fill="none" points="74.88,367.496 74.88,32.4" stroke-linecap="square" stroke="#262626" stroke-width="0.5"/>
   <polyline stroke-linejoin="miter" stroke-dasharray="16,0" fill="none" points="521.28,367.496 521.28,32.4" stroke-linecap="square" stroke="#262626" stroke-width="0.5"/>
   <text font-family="CMU Serif" xml:space="preserve" font-size="19.8" font-style="normal" transform="translate(258.08,432) rotate(-0,40,-33)" font-weight="normal">
    <tspan y="-16" fill="rgb(38,38,38)" x="0 ">h</tspan>
    <tspan y="-0" font-size="17.8" fill="rgb(38,38,38)" x="11 20 ">am</tspan>
    <tspan y="-16" fill="rgb(38,38,38)" x="35 42 48 57 74 "> [cm]</tspan>
   </text>
   <text font-family="CMU Serif" xml:space="preserve" font-size="19.8" font-style="normal" transform="translate(-18.6281,199.948) rotate(-90,56.5,0)" font-weight="normal">
    <tspan y="-20" fill="rgb(38,38,38)" x="0 11 ">dh</tspan>
    <tspan y="-4" font-size="17.8" fill="rgb(38,38,38)" x="22 ">g</tspan>
    <tspan y="-20" fill="rgb(38,38,38)" x="31 41 52 ">/dh</tspan>
    <tspan y="-4" font-size="17.8" fill="rgb(38,38,38)" x="63 72 ">am</tspan>
    <tspan y="-20" fill="rgb(38,38,38)" x="87 94 100 107 "> [-]</tspan>
   </text>
   <polyline stroke-linejoin="round" fill="none" points="74.88,62.2069 75.3264,62.6194 75.7728,63.0326 76.2192,63.4463 76.6656,63.8606 77.112,64.2754 77.5584,64.6907 78.0048,65.1065 78.4512,65.5228 78.8976,65.9396 79.344,66.357 79.7904,66.7748 80.2368,67.1931 80.6832,67.6119 81.1296,68.0311 81.576,68.4508 82.0224,68.8709 82.4688,69.2915 82.9152,69.7125 83.3616,70.1339 83.808,70.5557 84.2544,70.978 84.7008,71.4006 85.1472,71.8237 85.5936,72.2471 86.04,72.6709 86.4864,73.095 86.9328,73.5196 87.3792,73.9445 87.8256,74.3697 88.272,74.7953 88.7184,75.2212 89.1648,75.6474 89.6112,76.0739 90.0576,76.5008 90.504,76.9279 90.9504,77.3553 91.3968,77.7831 91.8432,78.2111 92.2896,78.6394 92.736,79.0679 93.1824,79.4968 93.6288,79.9258 94.0752,80.3551 94.5216,80.7847 94.968,81.2145 95.4144,81.6444 95.8608,82.0747 96.3072,82.5051 96.7536,82.9358 97.2,83.3666 97.6464,83.7976 98.0928,84.2289 98.5392,84.6602 98.9856,85.0918 99.432,85.5235 99.8784,85.9554 100.325,86.3875 100.771,86.8196 101.218,87.252 101.664,87.6844 102.11,88.117 102.557,88.5497 103.003,88.9825 103.45,89.4155 103.896,89.8485 104.342,90.2816 104.789,90.7148 105.235,91.1481 105.682,91.5815 106.128,92.015 106.574,92.4485 107.021,92.882 107.467,93.3157 107.914,93.7494 108.36,94.1831 108.806,94.6169 109.253,95.0506 109.699,95.4844 110.146,95.9183 110.592,96.3521 111.038,96.786 111.485,97.2199 111.931,97.6537 112.378,98.0876 112.824,98.5215 113.27,98.9553 113.717,99.3891 114.163,99.8229 114.61,100.257 115.056,100.69 115.502,101.124 115.949,101.558 116.395,101.991 116.842,102.425 117.288,102.858 117.734,103.292 118.181,103.725 118.627,104.158 119.074,104.591 119.52,105.024 119.966,105.457 120.413,105.89 120.859,106.323 121.306,106.756 121.752,107.188 122.198,107.621 122.645,108.053 123.091,108.485 123.538,108.917 123.984,109.349 124.43,109.781 124.877,110.213 125.323,110.644 125.77,111.076 126.216,111.507 126.662,111.938 127.109,112.369 127.555,112.799 128.002,113.23 128.448,113.66 128.894,114.091 129.341,114.521 129.787,114.951 130.234,115.38 130.68,115.81 131.126,116.239 131.573,116.668 132.019,117.097 132.466,117.526 132.912,117.954 133.358,118.382 133.805,118.81 134.251,119.238 134.698,119.666 135.144,120.093 135.59,120.52 136.037,120.947 136.483,121.374 136.93,121.8 137.376,122.226 137.822,122.652 138.269,123.078 138.715,123.503 139.162,123.928 139.608,124.353 140.054,124.778 140.501,125.202 140.947,125.626 141.394,126.05 141.84,126.474 142.286,126.897 142.733,127.32 143.179,127.743 143.626,128.165 144.072,128.587 144.518,129.009 144.965,129.431 145.411,129.852 145.858,130.273 146.304,130.693 146.75,131.114 147.197,131.534 147.643,131.953 148.09,132.373 148.536,132.792 148.982,133.211 149.429,133.629 149.875,134.047 150.322,134.465 150.768,134.882 151.214,135.299 151.661,135.716 152.107,136.133 152.554,136.549 153,136.965 153.446,137.38 153.893,137.795 154.339,138.21 154.786,138.624 155.232,139.038 155.678,139.452 156.125,139.865 156.571,140.278 157.018,140.691 157.464,141.103 157.91,141.515 158.357,141.927 158.803,142.338 159.25,142.749 159.696,143.159 160.142,143.569 160.589,143.979 161.035,144.388 161.482,144.797 161.928,145.206 162.374,145.614 162.821,146.022 163.267,146.429 163.714,146.836 164.16,147.243 164.606,147.649 165.053,148.055 165.499,148.461 165.946,148.866 166.392,149.271 166.838,149.675 167.285,150.079 167.731,150.483 168.178,150.886 168.624,151.288 169.07,151.691 169.517,152.093 169.963,152.494 170.41,152.895 170.856,153.296 171.302,153.697 171.749,154.096 172.195,154.496 172.642,154.895 173.088,155.294 173.534,155.692 173.981,156.09 174.427,156.487 174.874,156.884 175.32,157.281 175.766,157.677 176.213,158.073 176.659,158.468 177.106,158.863 177.552,159.258 177.998,159.652 178.445,160.046 178.891,160.439 179.338,160.832 179.784,161.224 180.23,161.616 180.677,162.008 181.123,162.399 181.57,162.79 182.016,163.18 182.462,163.57 182.909,163.959 183.355,164.348 183.802,164.737 184.248,165.125 184.694,165.513 185.141,165.9 185.587,166.287 186.034,166.673 186.48,167.059 186.926,167.445 187.373,167.83 187.819,168.214 188.266,168.599 188.712,168.982 189.158,169.366 189.605,169.749 190.051,170.131 190.498,170.513 190.944,170.895 191.39,171.276 191.837,171.657 192.283,172.037 192.73,172.417 193.176,172.796 193.622,173.175 194.069,173.553 194.515,173.932 194.962,174.309 195.408,174.686 195.854,175.063 196.301,175.439 196.747,175.815 197.194,176.191 197.64,176.566 198.086,176.94 198.533,177.314 198.979,177.688 199.426,178.061 199.872,178.434 200.318,178.806 200.765,179.178 201.211,179.549 201.658,179.92 202.104,180.291 202.55,180.661 202.997,181.031 203.443,181.4 203.89,181.769 204.336,182.137 204.782,182.505 205.229,182.872 205.675,183.239 206.122,183.606 206.568,183.972 207.014,184.337 207.461,184.702 207.907,185.067 208.354,185.432 208.8,185.795 209.246,186.159 209.693,186.522 210.139,186.884 210.586,187.246 211.032,187.608 211.478,187.969 211.925,188.33 212.371,188.69 212.818,189.05 213.264,189.41 213.71,189.768 214.157,190.127 214.603,190.485 215.05,190.843 215.496,191.2 215.942,191.557 216.389,191.913 216.835,192.269 217.282,192.624 217.728,192.979 218.174,193.334 218.621,193.688 219.067,194.042 219.514,194.395 219.96,194.748 220.406,195.1 220.853,195.452 221.299,195.804 221.746,196.155 222.192,196.505 222.638,196.855 223.085,197.205 223.531,197.554 223.978,197.903 224.424,198.252 224.87,198.6 225.317,198.947 225.763,199.294 226.21,199.641 226.656,199.987 227.102,200.333 227.549,200.679 227.995,201.024 228.442,201.368 228.888,201.712 229.334,202.056 229.781,202.399 230.227,202.742 230.674,203.084 231.12,203.426 231.566,203.768 232.013,204.109 232.459,204.45 232.906,204.79 233.352,205.13 233.798,205.469 234.245,205.808 234.691,206.147 235.138,206.485 235.584,206.822 236.03,207.16 236.477,207.496 236.923,207.833 237.37,208.169 237.816,208.504 238.262,208.84 238.709,209.174 239.155,209.509 239.602,209.843 240.048,210.176 240.494,210.509 240.941,210.842 241.387,211.174 241.834,211.506 242.28,211.837 242.726,212.168 243.173,212.499 243.619,212.829 244.066,213.159 244.512,213.488 244.958,213.817 245.405,214.145 245.851,214.474 246.298,214.801 246.744,215.129 247.19,215.455 247.637,215.782 248.083,216.108 248.53,216.434 248.976,216.759 249.422,217.084 249.869,217.408 250.315,217.732 250.762,218.056 251.208,218.379 251.654,218.702 252.101,219.024 252.547,219.346 252.994,219.668 253.44,219.989 253.886,220.31 254.333,220.63 254.779,220.95 255.226,221.27 255.672,221.589 256.118,221.908 256.565,222.226 257.011,222.545 257.458,222.862 257.904,223.179 258.35,223.496 258.797,223.813 259.243,224.129 259.69,224.445 260.136,224.76 260.582,225.075 261.029,225.389 261.475,225.704 261.922,226.017 262.368,226.331 262.814,226.644 263.261,226.956 263.707,227.269 264.154,227.58 264.6,227.892 265.046,228.203 265.493,228.514 265.939,228.824 266.386,229.134 266.832,229.444 267.278,229.753 267.725,230.062 268.171,230.37 268.618,230.678 269.064,230.986 269.51,231.293 269.957,231.6 270.403,231.907 270.85,232.213 271.296,232.519 271.742,232.824 272.189,233.129 272.635,233.434 273.082,233.738 273.528,234.042 273.974,234.346 274.421,234.649 274.867,234.952 275.314,235.255 275.76,235.557 276.206,235.859 276.653,236.16 277.099,236.461 277.546,236.762 277.992,237.062 278.438,237.362 278.885,237.662 279.331,237.961 279.778,238.26 280.224,238.559 280.67,238.857 281.117,239.155 281.563,239.453 282.01,239.75 282.456,240.047 282.902,240.343 283.349,240.639 283.795,240.935 284.242,241.231 284.688,241.526 285.134,241.82 285.581,242.115 286.027,242.409 286.474,242.703 286.92,242.996 287.366,243.289 287.813,243.582 288.259,243.874 288.706,244.166 289.152,244.458 289.598,244.749 290.045,245.04 290.491,245.331 290.938,245.621 291.384,245.911 291.83,246.201 292.277,246.49 292.723,246.779 293.17,247.068 293.616,247.356 294.062,247.644 294.509,247.932 294.955,248.219 295.402,248.506 295.848,248.793 296.294,249.079 296.741,249.365 297.187,249.651 297.634,249.936 298.08,250.221 298.526,250.506 298.973,250.791 299.419,251.075 299.866,251.359 300.312,251.642 300.758,251.925 301.205,252.208 301.651,252.491 302.098,252.773 302.544,253.055 302.99,253.336 303.437,253.618 303.883,253.898 304.33,254.179 304.776,254.459 305.222,254.739 305.669,255.019 306.115,255.299 306.562,255.578 307.008,255.857 307.454,256.135 307.901,256.413 308.347,256.691 308.794,256.969 309.24,257.246 309.686,257.523 310.133,257.8 310.579,258.076 311.026,258.352 311.472,258.628 311.918,258.903 312.365,259.178 312.811,259.453 313.258,259.728 313.704,260.002 314.15,260.276 314.597,260.55 315.043,260.823 315.49,261.096 315.936,261.369 316.382,261.642 316.829,261.914 317.275,262.186 317.722,262.458 318.168,262.729 318.614,263 319.061,263.271 319.507,263.542 319.954,263.812 320.4,264.082 320.846,264.351 321.293,264.621 321.739,264.89 322.186,265.159 322.632,265.427 323.078,265.696 323.525,265.964 323.971,266.231 324.418,266.499 324.864,266.766 325.31,267.033 325.757,267.3 326.203,267.566 326.65,267.832 327.096,268.098 327.542,268.363 327.989,268.629 328.435,268.894 328.882,269.158 329.328,269.423 329.774,269.687 330.221,269.951 330.667,270.215 331.114,270.478 331.56,270.741 332.006,271.004 332.453,271.267 332.899,271.529 333.346,271.791 333.792,272.053 334.238,272.315 334.685,272.576 335.131,272.837 335.578,273.098 336.024,273.359 336.47,273.619 336.917,273.879 337.363,274.139 337.81,274.398 338.256,274.658 338.702,274.917 339.149,275.175 339.595,275.434 340.042,275.692 340.488,275.95 340.934,276.208 341.381,276.466 341.827,276.723 342.274,276.98 342.72,277.237 343.166,277.493 343.613,277.75 344.059,278.006 344.506,278.262 344.952,278.517 345.398,278.773 345.845,279.028 346.291,279.283 346.738,279.537 347.184,279.792 347.63,280.046 348.077,280.3 348.523,280.554 348.97,280.807 349.416,281.06 349.862,281.313 350.309,281.566 350.755,281.819 351.202,282.071 351.648,282.323 352.094,282.575 352.541,282.827 352.987,283.078 353.434,283.329 353.88,283.58 354.326,283.831 354.773,284.081 355.219,284.332 355.666,284.582 356.112,284.832 356.558,285.081 357.005,285.331 357.451,285.58 357.898,285.829 358.344,286.078 358.79,286.326 359.237,286.574 359.683,286.823 360.13,287.07 360.576,287.318 361.022,287.565 361.469,287.813 361.915,288.06 362.362,288.307 362.808,288.553 363.254,288.8 363.701,289.046 364.147,289.292 364.594,289.537 365.04,289.783 365.486,290.028 365.933,290.274 366.379,290.518 366.826,290.763 367.272,291.008 367.718,291.252 368.165,291.496 368.611,291.74 369.058,291.984 369.504,292.227 369.95,292.471 370.397,292.714 370.843,292.957 371.29,293.199 371.736,293.442 372.182,293.684 372.629,293.926 373.075,294.168 373.522,294.41 373.968,294.652 374.414,294.893 374.861,295.134 375.307,295.375 375.754,295.616 376.2,295.857 376.646,296.097 377.093,296.337 377.539,296.577 377.986,296.817 378.432,297.057 378.878,297.296 379.325,297.535 379.771,297.775 380.218,298.013 380.664,298.252 381.11,298.491 381.557,298.729 382.003,298.967 382.45,299.205 382.896,299.443 383.342,299.681 383.789,299.918 384.235,300.156 384.682,300.393 385.128,300.63 385.574,300.866 386.021,301.103 386.467,301.339 386.914,301.576 387.36,301.812 387.806,302.048 388.253,302.283 388.699,302.519 389.146,302.754 389.592,302.989 390.038,303.224 390.485,303.459 390.931,303.694 391.378,303.929 391.824,304.163 392.27,304.397 392.717,304.631 393.163,304.865 393.61,305.099 394.056,305.332 394.502,305.566 394.949,305.799 395.395,306.032 395.842,306.265 396.288,306.498 396.734,306.73 397.181,306.963 397.627,307.195 398.074,307.427 398.52,307.659 398.966,307.891 399.413,308.122 399.859,308.354 400.306,308.585 400.752,308.816 401.198,309.047 401.645,309.278 402.091,309.509 402.538,309.74 402.984,309.97 403.43,310.2 403.877,310.43 404.323,310.66 404.77,310.89 405.216,311.12 405.662,311.349 406.109,311.579 406.555,311.808 407.002,312.037 407.448,312.266 407.894,312.495 408.341,312.724 408.787,312.952 409.234,313.181 409.68,313.409 410.126,313.637 410.573,313.865 411.019,314.093 411.466,314.32 411.912,314.548 412.358,314.775 412.805,315.003 413.251,315.23 413.698,315.457 414.144,315.684 414.59,315.91 415.037,316.137 415.483,316.363 415.93,316.59 416.376,316.816 416.822,317.042 417.269,317.268 417.715,317.494 418.162,317.719 418.608,317.945 419.054,318.17 419.501,318.396 419.947,318.621 420.394,318.846 420.84,319.071 421.286,319.296 421.733,319.52 422.179,319.745 422.626,319.969 423.072,320.194 423.518,320.418 423.965,320.642 424.411,320.866 424.858,321.09 425.304,321.313 425.75,321.537 426.197,321.76 426.643,321.984 427.09,322.207 427.536,322.43 427.982,322.653 428.429,322.876 428.875,323.099 429.322,323.321 429.768,323.544 430.214,323.766 430.661,323.989 431.107,324.211 431.554,324.433 432,324.655 432.446,324.877 432.893,325.099 433.339,325.32 433.786,325.542 434.232,325.763 434.678,325.985 435.125,326.206 435.571,326.427 436.018,326.648 436.464,326.869 436.91,327.09 437.357,327.31 437.803,327.531 438.25,327.752 438.696,327.972 439.142,328.192 439.589,328.412 440.035,328.633 440.482,328.853 440.928,329.072 441.374,329.292 441.821,329.512 442.267,329.732 442.714,329.951 443.16,330.17 443.606,330.39 444.053,330.609 444.499,330.828 444.946,331.047 445.392,331.266 445.838,331.485 446.285,331.704 446.731,331.922 447.178,332.141 447.624,332.359 448.07,332.578 448.517,332.796 448.963,333.014 449.41,333.233 449.856,333.451 450.302,333.669 450.749,333.886 451.195,334.104 451.642,334.322 452.088,334.54 452.534,334.757 452.981,334.975 453.427,335.192 453.874,335.409 454.32,335.626 454.766,335.844 455.213,336.061 455.659,336.278 456.106,336.495 456.552,336.711 456.998,336.928 457.445,337.145 457.891,337.361 458.338,337.578 458.784,337.794 459.23,338.011 459.677,338.227 460.123,338.443 460.57,338.659 461.016,338.875 461.462,339.091 461.909,339.307 462.355,339.523 462.802,339.739 463.248,339.954 463.694,340.17 464.141,340.386 464.587,340.601 465.034,340.817 465.48,341.032 465.926,341.247 466.373,341.462 466.819,341.678 467.266,341.893 467.712,342.108 468.158,342.323 468.605,342.538 469.051,342.752 469.498,342.967 469.944,343.182 470.39,343.397 470.837,343.611 471.283,343.826 471.73,344.04 472.176,344.255 472.622,344.469 473.069,344.683 473.515,344.897 473.962,345.112 474.408,345.326 474.854,345.54 475.301,345.754 475.747,345.968 476.194,346.182 476.64,346.396 477.086,346.609 477.533,346.823 477.979,347.037 478.426,347.25 478.872,347.464 479.318,347.678 479.765,347.891 480.211,348.104 480.658,348.318 481.104,348.531 481.55,348.745 481.997,348.958 482.443,349.171 482.89,349.384 483.336,349.597 483.782,349.81 484.229,350.023 484.675,350.236 485.122,350.449 485.568,350.662 486.014,350.875 486.461,351.088 486.907,351.301 487.354,351.513 487.8,351.726 488.246,351.939 488.693,352.151 489.139,352.364 489.586,352.576 490.032,352.789 490.478,353.001 490.925,353.214 491.371,353.426 491.818,353.638 492.264,353.851 492.71,354.063 493.157,354.275 493.603,354.487 494.05,354.7 494.496,354.912 494.942,355.124 495.389,355.336 495.835,355.548 496.282,355.76 496.728,355.972 497.174,356.184 497.621,356.396 498.067,356.608 498.514,356.82 498.96,357.032 499.406,357.243 499.853,357.455 500.299,357.667 500.746,357.879 501.192,358.09 501.638,358.302 502.085,358.514 502.531,358.725 502.978,358.937 503.424,359.149 503.87,359.36 504.317,359.572 504.763,359.783 505.21,359.995 505.656,360.206 506.102,360.418 506.549,360.629 506.995,360.841 507.442,361.052 507.888,361.264 508.334,361.475 508.781,361.687 509.227,361.898 509.674,362.109 510.12,362.321 510.566,362.532 511.013,362.743 511.459,362.955 511.906,363.166 512.352,363.377 512.798,363.589 513.245,363.8 513.691,364.011 514.138,364.222 514.584,364.434 515.03,364.645 515.477,364.856 515.923,365.067 516.37,365.279 516.816,365.49 517.262,365.701 517.709,365.912 518.155,366.123 518.602,366.335 519.048,366.546 519.494,366.757 519.941,366.968 520.387,367.179 520.834,367.391 521.28,367.496" stroke-linecap="butt" stroke="#ecb01f" stroke-width="3"/>
  </g>
 </g>
</svg>
