<?xml version='1.0' encoding='UTF-8' standalone='no'?>
<svg viewBox="0 0 576 432" width="576pt" xmlns:xlink="http://www.w3.org/1999/xlink" height="432pt" xmlns="http://www.w3.org/2000/svg">
 <title>gl2ps_renderer figure</title>
 <desc>
Creator: GL2PS 1.4.0, (C) 1999-2017 C. Geuzaine
For: Octave
CreationDate: Fri Jul 03 15:43:28 2020
</desc>
 <defs/>
 <polygon fill="#ffffff" points="0,0 576,0 576,432 0,432"/>
 <g>
  <polygon fill="#ffffff" shape-rendering="crispEdges" points="0,432 576,432 576,0 0,0"/>
  <clipPath id="cp00576432">
   <polygon points="0,432 576,432 576,0 0,0"/>
  </clipPath>
  <g clip-path="url(#cp00576432)">
   <polygon fill="#ffffff" shape-rendering="crispEdges" points="92.0081,367.496 521.28,367.496 521.28,32.4 92.0081,32.4"/>
   <polyline stroke-linejoin="miter" fill="none" stroke-width="0.5" stroke-opacity="0.15" stroke="#262626" stroke-dasharray="16,0" stroke-linecap="butt" points="92.0081,367.496 92.0081,32.4"/>
   <polyline stroke-linejoin="miter" fill="none" stroke-width="0.5" stroke-opacity="0.15" stroke="#262626" stroke-dasharray="16,0" stroke-linecap="butt" points="153.645,367.496 153.645,32.4"/>
   <polyline stroke-linejoin="miter" fill="none" stroke-width="0.5" stroke-opacity="0.15" stroke="#262626" stroke-dasharray="16,0" stroke-linecap="butt" points="215.283,367.496 215.283,32.4"/>
   <polyline stroke-linejoin="miter" fill="none" stroke-width="0.5" stroke-opacity="0.15" stroke="#262626" stroke-dasharray="16,0" stroke-linecap="butt" points="276.92,367.496 276.92,32.4"/>
   <polyline stroke-linejoin="miter" fill="none" stroke-width="0.5" stroke-opacity="0.15" stroke="#262626" stroke-dasharray="16,0" stroke-linecap="butt" points="338.558,367.496 338.558,32.4"/>
   <polyline stroke-linejoin="miter" fill="none" stroke-width="0.5" stroke-opacity="0.15" stroke="#262626" stroke-dasharray="16,0" stroke-linecap="butt" points="400.195,367.496 400.195,32.4"/>
   <polyline stroke-linejoin="miter" fill="none" stroke-width="0.5" stroke-opacity="0.15" stroke="#262626" stroke-dasharray="16,0" stroke-linecap="butt" points="461.833,367.496 461.833,32.4"/>
   <polyline stroke-linejoin="miter" fill="none" stroke-width="0.5" stroke="#262626" stroke-linecap="butt" points="92.0081,367.496 92.0081,363.202"/>
   <polyline stroke-linejoin="miter" fill="none" stroke-width="0.5" stroke="#262626" stroke-linecap="butt" points="92.0081,32.4 92.0081,36.6939"/>
   <polyline stroke-linejoin="miter" fill="none" stroke-width="0.5" stroke="#262626" stroke-linecap="butt" points="153.645,367.496 153.645,363.202"/>
   <polyline stroke-linejoin="miter" fill="none" stroke-width="0.5" stroke="#262626" stroke-linecap="butt" points="153.645,32.4 153.645,36.6939"/>
   <polyline stroke-linejoin="miter" fill="none" stroke-width="0.5" stroke="#262626" stroke-linecap="butt" points="215.283,367.496 215.283,363.202"/>
   <polyline stroke-linejoin="miter" fill="none" stroke-width="0.5" stroke="#262626" stroke-linecap="butt" points="215.283,32.4 215.283,36.6939"/>
   <polyline stroke-linejoin="miter" fill="none" stroke-width="0.5" stroke="#262626" stroke-linecap="butt" points="276.92,367.496 276.92,363.202"/>
   <polyline stroke-linejoin="miter" fill="none" stroke-width="0.5" stroke="#262626" stroke-linecap="butt" points="276.92,32.4 276.92,36.6939"/>
   <polyline stroke-linejoin="miter" fill="none" stroke-width="0.5" stroke="#262626" stroke-linecap="butt" points="338.558,367.496 338.558,363.202"/>
   <polyline stroke-linejoin="miter" fill="none" stroke-width="0.5" stroke="#262626" stroke-linecap="butt" points="338.558,32.4 338.558,36.6939"/>
   <polyline stroke-linejoin="miter" fill="none" stroke-width="0.5" stroke="#262626" stroke-linecap="butt" points="400.195,367.496 400.195,363.202"/>
   <polyline stroke-linejoin="miter" fill="none" stroke-width="0.5" stroke="#262626" stroke-linecap="butt" points="400.195,32.4 400.195,36.6939"/>
   <polyline stroke-linejoin="miter" fill="none" stroke-width="0.5" stroke="#262626" stroke-linecap="butt" points="461.833,367.496 461.833,363.202"/>
   <polyline stroke-linejoin="miter" fill="none" stroke-width="0.5" stroke="#262626" stroke-linecap="butt" points="461.833,32.4 461.833,36.6939"/>
   <text xml:space="preserve" font-weight="normal" font-style="normal" font-family="CMU Serif" font-size="18" transform="translate(87.5081,394) rotate(-0,4.5,-13)">
    <tspan fill="rgb(38,38,38)" x="0 " y="-0">0</tspan>
   </text>
   <text xml:space="preserve" font-weight="normal" font-style="normal" font-family="CMU Serif" font-size="18" transform="translate(149.146,394) rotate(-0,4.5,-13)">
    <tspan fill="rgb(38,38,38)" x="0 " y="-0">2</tspan>
   </text>
   <text xml:space="preserve" font-weight="normal" font-style="normal" font-family="CMU Serif" font-size="18" transform="translate(210.783,394) rotate(-0,4.5,-13)">
    <tspan fill="rgb(38,38,38)" x="0 " y="-0">4</tspan>
   </text>
   <text xml:space="preserve" font-weight="normal" font-style="normal" font-family="CMU Serif" font-size="18" transform="translate(272.42,394) rotate(-0,4.5,-13)">
    <tspan fill="rgb(38,38,38)" x="0 " y="-0">6</tspan>
   </text>
   <text xml:space="preserve" font-weight="normal" font-style="normal" font-family="CMU Serif" font-size="18" transform="translate(334.058,394) rotate(-0,4.5,-13)">
    <tspan fill="rgb(38,38,38)" x="0 " y="-0">8</tspan>
   </text>
   <text xml:space="preserve" font-weight="normal" font-style="normal" font-family="CMU Serif" font-size="18" transform="translate(391.195,394) rotate(-0,9,-13)">
    <tspan fill="rgb(38,38,38)" x="0 9 " y="-0">10</tspan>
   </text>
   <text xml:space="preserve" font-weight="normal" font-style="normal" font-family="CMU Serif" font-size="18" transform="translate(452.833,394) rotate(-0,9,-13)">
    <tspan fill="rgb(38,38,38)" x="0 9 " y="-0">12</tspan>
   </text>
   <polyline stroke-linejoin="miter" fill="none" stroke-width="0.5" stroke-opacity="0.15" stroke="#262626" stroke-dasharray="16,0" stroke-linecap="butt" points="92.0081,367.496 521.28,367.496"/>
   <polyline stroke-linejoin="miter" fill="none" stroke-width="0.5" stroke-opacity="0.15" stroke="#262626" stroke-dasharray="16,0" stroke-linecap="butt" points="92.0081,319.625 521.28,319.625"/>
   <polyline stroke-linejoin="miter" fill="none" stroke-width="0.5" stroke-opacity="0.15" stroke="#262626" stroke-dasharray="16,0" stroke-linecap="butt" points="92.0081,271.754 521.28,271.754"/>
   <polyline stroke-linejoin="miter" fill="none" stroke-width="0.5" stroke-opacity="0.15" stroke="#262626" stroke-dasharray="16,0" stroke-linecap="butt" points="92.0081,223.884 521.28,223.884"/>
   <polyline stroke-linejoin="miter" fill="none" stroke-width="0.5" stroke-opacity="0.15" stroke="#262626" stroke-dasharray="16,0" stroke-linecap="butt" points="92.0081,176.013 521.28,176.013"/>
   <polyline stroke-linejoin="miter" fill="none" stroke-width="0.5" stroke-opacity="0.15" stroke="#262626" stroke-dasharray="16,0" stroke-linecap="butt" points="92.0081,128.142 521.28,128.142"/>
   <polyline stroke-linejoin="miter" fill="none" stroke-width="0.5" stroke-opacity="0.15" stroke="#262626" stroke-dasharray="16,0" stroke-linecap="butt" points="92.0081,80.2709 521.28,80.2709"/>
   <polyline stroke-linejoin="miter" fill="none" stroke-width="0.5" stroke-opacity="0.15" stroke="#262626" stroke-dasharray="16,0" stroke-linecap="butt" points="92.0081,32.4 521.28,32.4"/>
   <polyline stroke-linejoin="miter" fill="none" stroke-width="0.5" stroke="#262626" stroke-linecap="butt" points="92.0081,367.496 96.3035,367.496"/>
   <polyline stroke-linejoin="miter" fill="none" stroke-width="0.5" stroke="#262626" stroke-linecap="butt" points="521.28,367.496 516.985,367.496"/>
   <polyline stroke-linejoin="miter" fill="none" stroke-width="0.5" stroke="#262626" stroke-linecap="butt" points="92.0081,319.625 96.3035,319.625"/>
   <polyline stroke-linejoin="miter" fill="none" stroke-width="0.5" stroke="#262626" stroke-linecap="butt" points="521.28,319.625 516.985,319.625"/>
   <polyline stroke-linejoin="miter" fill="none" stroke-width="0.5" stroke="#262626" stroke-linecap="butt" points="92.0081,271.754 96.3035,271.754"/>
   <polyline stroke-linejoin="miter" fill="none" stroke-width="0.5" stroke="#262626" stroke-linecap="butt" points="521.28,271.754 516.985,271.754"/>
   <polyline stroke-linejoin="miter" fill="none" stroke-width="0.5" stroke="#262626" stroke-linecap="butt" points="92.0081,223.884 96.3035,223.884"/>
   <polyline stroke-linejoin="miter" fill="none" stroke-width="0.5" stroke="#262626" stroke-linecap="butt" points="521.28,223.884 516.985,223.884"/>
   <polyline stroke-linejoin="miter" fill="none" stroke-width="0.5" stroke="#262626" stroke-linecap="butt" points="92.0081,176.013 96.3035,176.013"/>
   <polyline stroke-linejoin="miter" fill="none" stroke-width="0.5" stroke="#262626" stroke-linecap="butt" points="521.28,176.013 516.985,176.013"/>
   <polyline stroke-linejoin="miter" fill="none" stroke-width="0.5" stroke="#262626" stroke-linecap="butt" points="92.0081,128.142 96.3035,128.142"/>
   <polyline stroke-linejoin="miter" fill="none" stroke-width="0.5" stroke="#262626" stroke-linecap="butt" points="521.28,128.142 516.985,128.142"/>
   <polyline stroke-linejoin="miter" fill="none" stroke-width="0.5" stroke="#262626" stroke-linecap="butt" points="92.0081,80.2709 96.3035,80.2709"/>
   <polyline stroke-linejoin="miter" fill="none" stroke-width="0.5" stroke="#262626" stroke-linecap="butt" points="521.28,80.2709 516.985,80.2709"/>
   <polyline stroke-linejoin="miter" fill="none" stroke-width="0.5" stroke="#262626" stroke-linecap="butt" points="92.0081,32.4 96.3035,32.4"/>
   <polyline stroke-linejoin="miter" fill="none" stroke-width="0.5" stroke="#262626" stroke-linecap="butt" points="521.28,32.4 516.985,32.4"/>
   <text xml:space="preserve" font-weight="normal" font-style="normal" font-family="CMU Serif" font-size="18" transform="translate(47.0024,373.996) rotate(-0,36,-6.5)">
    <tspan fill="rgb(38,38,38)" x="0 9 18 27 " y="-0">2000</tspan>
   </text>
   <text xml:space="preserve" font-weight="normal" font-style="normal" font-family="CMU Serif" font-size="18" transform="translate(47.0024,326.125) rotate(-0,36,-6.5)">
    <tspan fill="rgb(38,38,38)" x="0 9 18 27 " y="-0">4000</tspan>
   </text>
   <text xml:space="preserve" font-weight="normal" font-style="normal" font-family="CMU Serif" font-size="18" transform="translate(47.0024,278.254) rotate(-0,36,-6.5)">
    <tspan fill="rgb(38,38,38)" x="0 9 18 27 " y="-0">6000</tspan>
   </text>
   <text xml:space="preserve" font-weight="normal" font-style="normal" font-family="CMU Serif" font-size="18" transform="translate(47.0024,230.384) rotate(-0,36,-6.5)">
    <tspan fill="rgb(38,38,38)" x="0 9 18 27 " y="-0">8000</tspan>
   </text>
   <text xml:space="preserve" font-weight="normal" font-style="normal" font-family="CMU Serif" font-size="18" transform="translate(38.0024,182.513) rotate(-0,45,-6.5)">
    <tspan fill="rgb(38,38,38)" x="0 9 18 27 36 " y="-0">10000</tspan>
   </text>
   <text xml:space="preserve" font-weight="normal" font-style="normal" font-family="CMU Serif" font-size="18" transform="translate(38.0024,134.642) rotate(-0,45,-6.5)">
    <tspan fill="rgb(38,38,38)" x="0 9 18 27 36 " y="-0">12000</tspan>
   </text>
   <text xml:space="preserve" font-weight="normal" font-style="normal" font-family="CMU Serif" font-size="18" transform="translate(38.0024,86.7709) rotate(-0,45,-6.5)">
    <tspan fill="rgb(38,38,38)" x="0 9 18 27 36 " y="-0">14000</tspan>
   </text>
   <text xml:space="preserve" font-weight="normal" font-style="normal" font-family="CMU Serif" font-size="18" transform="translate(38.0024,38.9) rotate(-0,45,-6.5)">
    <tspan fill="rgb(38,38,38)" x="0 9 18 27 36 " y="-0">16000</tspan>
   </text>
   <polyline stroke-linejoin="miter" fill="none" stroke-width="0.5" stroke="#262626" stroke-dasharray="16,0" stroke-linecap="square" points="92.0081,367.496 521.28,367.496"/>
   <polyline stroke-linejoin="miter" fill="none" stroke-width="0.5" stroke="#262626" stroke-dasharray="16,0" stroke-linecap="square" points="92.0081,32.4 521.28,32.4"/>
   <polyline stroke-linejoin="miter" fill="none" stroke-width="0.5" stroke="#262626" stroke-dasharray="16,0" stroke-linecap="square" points="92.0081,367.496 92.0081,32.4"/>
   <polyline stroke-linejoin="miter" fill="none" stroke-width="0.5" stroke="#262626" stroke-dasharray="16,0" stroke-linecap="square" points="521.28,367.496 521.28,32.4"/>
   <text xml:space="preserve" font-weight="normal" font-style="normal" font-family="CMU Serif" font-size="19.8" transform="translate(266.644,432) rotate(-0,40,-33)">
    <tspan fill="rgb(38,38,38)" x="0 " y="-16">h</tspan>
    <tspan fill="rgb(38,38,38)" x="11 20 " font-size="17.8" y="-0">am</tspan>
    <tspan fill="rgb(38,38,38)" x="35 42 48 57 74 " y="-16"> [cm]</tspan>
   </text>
   <text xml:space="preserve" font-weight="normal" font-style="normal" font-family="CMU Serif" font-size="19.8" transform="translate(-14.4976,199.948) rotate(-90,47.5,0)">
    <tspan fill="rgb(38,38,38)" x="0 " y="-16">Q</tspan>
    <tspan fill="rgb(38,38,38)" x="16 25 " font-size="17.8" y="-0">am</tspan>
    <tspan fill="rgb(38,38,38)" x="40 47 53 64 74 89 " y="-16"> [daN]</tspan>
   </text>
   <polyline stroke-linejoin="round" fill="none" stroke-width="3" stroke="#0071bc" stroke-linecap="butt" points="92.0081,342.846 92.4373,342.267 92.8666,341.687 93.2959,341.109 93.7252,340.53 94.1544,339.953 94.5837,339.376 95.013,338.8 95.4422,338.224 95.8715,337.649 96.3008,337.074 96.7301,336.5 97.1593,335.926 97.5886,335.353 98.0179,334.781 98.4471,334.209 98.8764,333.638 99.3057,333.068 99.735,332.498 100.164,331.928 100.593,331.359 101.023,330.791 101.452,330.223 101.881,329.656 102.311,329.09 102.74,328.524 103.169,327.958 103.598,327.394 104.028,326.829 104.457,326.266 104.886,325.703 105.315,325.14 105.745,324.578 106.174,324.017 106.603,323.456 107.033,322.896 107.462,322.337 107.891,321.778 108.32,321.219 108.75,320.661 109.179,320.104 109.608,319.547 110.037,318.991 110.467,318.436 110.896,317.881 111.325,317.327 111.755,316.773 112.184,316.22 112.613,315.667 113.042,315.115 113.472,314.563 113.901,314.013 114.33,313.462 114.759,312.913 115.189,312.363 115.618,311.815 116.047,311.267 116.477,310.72 116.906,310.173 117.335,309.627 117.764,309.081 118.194,308.536 118.623,307.991 119.052,307.447 119.481,306.904 119.911,306.361 120.34,305.819 120.769,305.278 121.199,304.737 121.628,304.196 122.057,303.656 122.486,303.117 122.916,302.578 123.345,302.04 123.774,301.503 124.203,300.966 124.633,300.43 125.062,299.894 125.491,299.359 125.921,298.824 126.35,298.29 126.779,297.756 127.208,297.224 127.638,296.691 128.067,296.159 128.496,295.628 128.925,295.098 129.355,294.568 129.784,294.038 130.213,293.51 130.643,292.981 131.072,292.454 131.501,291.927 131.93,291.4 132.36,290.874 132.789,290.349 133.218,289.824 133.647,289.3 134.077,288.776 134.506,288.253 134.935,287.731 135.365,287.209 135.794,286.688 136.223,286.167 136.652,285.647 137.082,285.127 137.511,284.608 137.94,284.09 138.369,283.572 138.799,283.055 139.228,282.538 139.657,282.022 140.087,281.507 140.516,280.992 140.945,280.478 141.374,279.964 141.804,279.451 142.233,278.938 142.662,278.426 143.091,277.915 143.521,277.404 143.95,276.894 144.379,276.384 144.809,275.875 145.238,275.366 145.667,274.858 146.096,274.351 146.526,273.844 146.955,273.338 147.384,272.833 147.813,272.328 148.243,271.823 148.672,271.319 149.101,270.816 149.531,270.313 149.96,269.811 150.389,269.309 150.818,268.809 151.248,268.308 151.677,267.808 152.106,267.309 152.535,266.81 152.965,266.312 153.394,265.815 153.823,265.318 154.252,264.822 154.682,264.326 155.111,263.831 155.54,263.336 155.97,262.842 156.399,262.349 156.828,261.856 157.257,261.364 157.687,260.872 158.116,260.381 158.545,259.89 158.974,259.4 159.404,258.911 159.833,258.422 160.262,257.934 160.692,257.446 161.121,256.959 161.55,256.473 161.979,255.987 162.409,255.502 162.838,255.017 163.267,254.533 163.696,254.049 164.126,253.566 164.555,253.084 164.984,252.602 165.414,252.121 165.843,251.64 166.272,251.16 166.701,250.68 167.131,250.201 167.56,249.723 167.989,249.245 168.418,248.768 168.848,248.292 169.277,247.816 169.706,247.34 170.136,246.865 170.565,246.391 170.994,245.917 171.423,245.444 171.853,244.972 172.282,244.5 172.711,244.028 173.14,243.557 173.57,243.087 173.999,242.618 174.428,242.149 174.858,241.68 175.287,241.212 175.716,240.745 176.145,240.278 176.575,239.812 177.004,239.346 177.433,238.881 177.862,238.417 178.292,237.953 178.721,237.49 179.15,237.027 179.58,236.565 180.009,236.103 180.438,235.643 180.867,235.182 181.297,234.722 181.726,234.263 182.155,233.805 182.584,233.347 183.014,232.889 183.443,232.432 183.872,231.976 184.302,231.52 184.731,231.065 185.16,230.61 185.589,230.157 186.019,229.703 186.448,229.25 186.877,228.798 187.306,228.346 187.736,227.895 188.165,227.445 188.594,226.995 189.024,226.546 189.453,226.097 189.882,225.649 190.311,225.201 190.741,224.754 191.17,224.308 191.599,223.862 192.028,223.416 192.458,222.972 192.887,222.528 193.316,222.084 193.746,221.641 194.175,221.199 194.604,220.757 195.033,220.316 195.463,219.875 195.892,219.435 196.321,218.996 196.75,218.557 197.18,218.118 197.609,217.681 198.038,217.243 198.468,216.807 198.897,216.371 199.326,215.936 199.755,215.501 200.185,215.066 200.614,214.633 201.043,214.2 201.472,213.767 201.902,213.335 202.331,212.904 202.76,212.473 203.189,212.043 203.619,211.613 204.048,211.184 204.477,210.756 204.907,210.328 205.336,209.901 205.765,209.474 206.194,209.048 206.624,208.622 207.053,208.197 207.482,207.773 207.911,207.349 208.341,206.926 208.77,206.503 209.199,206.081 209.629,205.66 210.058,205.239 210.487,204.818 210.916,204.399 211.346,203.979 211.775,203.561 212.204,203.143 212.633,202.725 213.063,202.309 213.492,201.892 213.921,201.477 214.351,201.062 214.78,200.647 215.209,200.233 215.638,199.82 216.068,199.407 216.497,198.995 216.926,198.583 217.355,198.172 217.785,197.762 218.214,197.352 218.643,196.942 219.073,196.534 219.502,196.126 219.931,195.718 220.36,195.311 220.79,194.905 221.219,194.499 221.648,194.093 222.077,193.689 222.507,193.285 222.936,192.881 223.365,192.478 223.795,192.076 224.224,191.674 224.653,191.273 225.082,190.872 225.512,190.472 225.941,190.073 226.37,189.674 226.799,189.276 227.229,188.878 227.658,188.481 228.087,188.084 228.517,187.688 228.946,187.293 229.375,186.898 229.804,186.504 230.234,186.11 230.663,185.717 231.092,185.325 231.521,184.933 231.951,184.542 232.38,184.151 232.809,183.761 233.239,183.371 233.668,182.982 234.097,182.594 234.526,182.206 234.956,181.819 235.385,181.432 235.814,181.046 236.243,180.66 236.673,180.275 237.102,179.891 237.531,179.507 237.961,179.124 238.39,178.741 238.819,178.359 239.248,177.978 239.678,177.597 240.107,177.217 240.536,176.837 240.965,176.458 241.395,176.079 241.824,175.701 242.253,175.324 242.683,174.947 243.112,174.571 243.541,174.195 243.97,173.82 244.4,173.446 244.829,173.072 245.258,172.698 245.687,172.326 246.117,171.954 246.546,171.582 246.975,171.211 247.405,170.841 247.834,170.471 248.263,170.101 248.692,169.733 249.122,169.365 249.551,168.997 249.98,168.63 250.409,168.264 250.839,167.898 251.268,167.533 251.697,167.168 252.126,166.804 252.556,166.441 252.985,166.078 253.414,165.715 253.844,165.354 254.273,164.992 254.702,164.632 255.131,164.272 255.561,163.912 255.99,163.554 256.419,163.195 256.848,162.838 257.278,162.481 257.707,162.124 258.136,161.768 258.566,161.413 258.995,161.058 259.424,160.704 259.853,160.35 260.283,159.997 260.712,159.645 261.141,159.293 261.57,158.942 262,158.591 262.429,158.241 262.858,157.891 263.288,157.542 263.717,157.194 264.146,156.846 264.575,156.499 265.005,156.152 265.434,155.806 265.863,155.461 266.292,155.116 266.722,154.771 267.151,154.428 267.58,154.084 268.01,153.742 268.439,153.4 268.868,153.058 269.297,152.718 269.727,152.377 270.156,152.038 270.585,151.699 271.014,151.36 271.444,151.022 271.873,150.685 272.302,150.348 272.732,150.012 273.161,149.676 273.59,149.341 274.019,149.007 274.449,148.673 274.878,148.339 275.307,148.007 275.736,147.675 276.166,147.343 276.595,147.012 277.024,146.682 277.454,146.352 277.883,146.022 278.312,145.694 278.741,145.366 279.171,145.038 279.6,144.711 280.029,144.385 280.458,144.059 280.888,143.734 281.317,143.409 281.746,143.085 282.176,142.762 282.605,142.439 283.034,142.117 283.463,141.795 283.893,141.474 284.322,141.153 284.751,140.834 285.18,140.514 285.61,140.195 286.039,139.877 286.468,139.559 286.898,139.242 287.327,138.926 287.756,138.61 288.185,138.295 288.615,137.98 289.044,137.666 289.473,137.352 289.902,137.039 290.332,136.727 290.761,136.415 291.19,136.104 291.62,135.793 292.049,135.483 292.478,135.173 292.907,134.865 293.337,134.556 293.766,134.248 294.195,133.941 294.624,133.635 295.054,133.328 295.483,133.023 295.912,132.718 296.342,132.414 296.771,132.11 297.2,131.807 297.629,131.504 298.059,131.202 298.488,130.901 298.917,130.6 299.346,130.3 299.776,130 300.205,129.701 300.634,129.403 301.064,129.105 301.493,128.808 301.922,128.511 302.351,128.215 302.781,127.919 303.21,127.624 303.639,127.33 304.068,127.036 304.498,126.742 304.927,126.45 305.356,126.158 305.786,125.866 306.215,125.575 306.644,125.285 307.073,124.995 307.503,124.706 307.932,124.417 308.361,124.129 308.79,123.842 309.22,123.555 309.649,123.268 310.078,122.983 310.507,122.698 310.937,122.413 311.366,122.129 311.795,121.846 312.225,121.563 312.654,121.28 313.083,120.999 313.512,120.718 313.942,120.437 314.371,120.157 314.8,119.878 315.229,119.599 315.659,119.321 316.088,119.043 316.517,118.766 316.947,118.49 317.376,118.214 317.805,117.939 318.234,117.664 318.664,117.39 319.093,117.116 319.522,116.843 319.951,116.571 320.381,116.299 320.81,116.028 321.239,115.757 321.669,115.487 322.098,115.218 322.527,114.949 322.956,114.681 323.386,114.413 323.815,114.146 324.244,113.879 324.673,113.613 325.103,113.348 325.532,113.083 325.961,112.819 326.391,112.555 326.82,112.292 327.249,112.029 327.678,111.767 328.108,111.506 328.537,111.245 328.966,110.985 329.395,110.725 329.825,110.466 330.254,110.208 330.683,109.95 331.113,109.693 331.542,109.436 331.971,109.18 332.4,108.924 332.83,108.669 333.259,108.415 333.688,108.161 334.117,107.908 334.547,107.655 334.976,107.403 335.405,107.151 335.835,106.901 336.264,106.65 336.693,106.4 337.122,106.151 337.552,105.903 337.981,105.655 338.41,105.407 338.839,105.16 339.269,104.914 339.698,104.668 340.127,104.423 340.557,104.179 340.986,103.935 341.415,103.691 341.844,103.449 342.274,103.206 342.703,102.965 343.132,102.724 343.561,102.483 343.991,102.243 344.42,102.004 344.849,101.765 345.279,101.527 345.708,101.29 346.137,101.053 346.566,100.816 346.996,100.58 347.425,100.345 347.854,100.11 348.283,99.8762 348.713,99.6427 349.142,99.4098 349.571,99.1774 350.001,98.9456 350.43,98.7144 350.859,98.4838 351.288,98.2538 351.718,98.0243 352.147,97.7955 352.576,97.5672 353.005,97.3394 353.435,97.1123 353.864,96.8857 354.293,96.6598 354.723,96.4344 355.152,96.2096 355.581,95.9854 356.01,95.7617 356.44,95.5386 356.869,95.3161 357.298,95.0942 357.727,94.8729 358.157,94.6521 358.586,94.4319 359.015,94.2124 359.445,93.9933 359.874,93.7749 360.303,93.5571 360.732,93.3398 361.162,93.1231 361.591,92.907 362.02,92.6915 362.449,92.4765 362.879,92.2621 363.308,92.0483 363.737,91.8351 364.167,91.6225 364.596,91.4105 365.025,91.199 365.454,90.9881 365.884,90.7778 366.313,90.5681 366.742,90.3589 367.171,90.1503 367.601,89.9424 368.03,89.735 368.459,89.5281 368.888,89.3219 369.318,89.1162 369.747,88.9111 370.176,88.7066 370.606,88.5027 371.035,88.2993 371.464,88.0966 371.893,87.8944 372.323,87.6928 372.752,87.4918 373.181,87.2913 373.61,87.0914 374.04,86.8922 374.469,86.6935 374.898,86.4953 375.328,86.2978 375.757,86.1008 376.186,85.9044 376.615,85.7086 377.045,85.5134 377.474,85.3188 377.903,85.1247 378.332,84.9312 378.762,84.7383 379.191,84.546 379.62,84.3542 380.05,84.1631 380.479,83.9725 380.908,83.7825 381.337,83.593 381.767,83.4042 382.196,83.2159 382.625,83.0282 383.054,82.8412 383.484,82.6546 383.913,82.4687 384.342,82.2833 384.772,82.0985 385.201,81.9143 385.63,81.7307 386.059,81.5477 386.489,81.3652 386.918,81.1833 387.347,81.002 387.776,80.8213 388.206,80.6412 388.635,80.4616 389.064,80.2827 389.494,80.1042 389.923,79.9264 390.352,79.7491 390.781,79.5725 391.211,79.3964 391.64,79.2209 392.069,79.046 392.498,78.8717 392.928,78.6979 393.357,78.5247 393.786,78.3521 394.216,78.1801 394.645,78.0087 395.074,77.8378 395.503,77.6675 395.933,77.4978 396.362,77.3287 396.791,77.1602 397.22,76.9922 397.65,76.8249 398.079,76.6581 398.508,76.4918 398.938,76.3262 399.367,76.1611 399.796,75.9967 400.225,75.8328 400.655,75.6694 401.084,75.5067 401.513,75.3445 401.942,75.183 402.372,75.022 402.801,74.8615 403.23,74.7017 403.659,74.5425 404.089,74.3838 404.518,74.2257 404.947,74.0682 405.377,73.9112 405.806,73.7549 406.235,73.5991 406.664,73.4439 407.094,73.2893 407.523,73.1353 407.952,72.9818 408.382,72.829 408.811,72.6767 409.24,72.5249 409.669,72.3738 410.099,72.2233 410.528,72.0733 410.957,71.9239 411.386,71.7751 411.816,71.6269 412.245,71.4792 412.674,71.3322 413.103,71.1856 413.533,71.0397 413.962,70.8944 414.391,70.7496 414.821,70.6055 415.25,70.4619 415.679,70.3189 416.108,70.1764 416.538,70.0346 416.967,69.8933 417.396,69.7526 417.825,69.6125 418.255,69.473 418.684,69.334 419.113,69.1957 419.543,69.0579 419.972,68.9207 420.401,68.7841 420.83,68.648 421.26,68.5125 421.689,68.3777 422.118,68.2433 422.547,68.1096 422.977,67.9765 423.406,67.8439 423.835,67.7119 424.265,67.5805 424.694,67.4497 425.123,67.3194 425.552,67.1898 425.982,67.0607 426.411,66.9322 426.84,66.8042 427.269,66.6769 427.699,66.5501 428.128,66.4239 428.557,66.2983 428.987,66.1733 429.416,66.0489 429.845,65.925 430.274,65.8017 430.704,65.679 431.133,65.5569 431.562,65.4353 431.991,65.3144 432.421,65.194 432.85,65.0742 433.279,64.955 433.709,64.8363 434.138,64.7183 434.567,64.6008 434.996,64.4839 435.426,64.3676 435.855,64.2518 436.284,64.1366 436.713,64.022 437.143,63.9081 437.572,63.7946 438.001,63.6818 438.431,63.5695 438.86,63.4579 439.289,63.3467 439.718,63.2362 440.148,63.1263 440.577,63.0169 441.006,62.9081 441.435,62.7999 441.865,62.6923 442.294,62.5853 442.723,62.4788 443.153,62.3729 443.582,62.2676 444.011,62.1629 444.44,62.0588 444.87,61.9552 445.299,61.8522 445.728,61.7498 446.157,61.648 446.587,61.5468 447.016,61.4461 447.445,61.3461 447.875,61.2465 448.304,61.1476 448.733,61.0493 449.162,60.9515 449.592,60.8544 450.021,60.7578 450.45,60.6617 450.879,60.5663 451.309,60.4714 451.738,60.3772 452.167,60.2835 452.597,60.1904 453.026,60.0978 453.455,60.0059 453.884,59.9145 454.314,59.8237 454.743,59.7335 455.172,59.6439 455.601,59.5548 456.031,59.4663 456.46,59.3784 456.889,59.2911 457.319,59.2044 457.748,59.1182 458.177,59.0327 458.606,58.9476 459.036,58.8633 459.465,58.7794 459.894,58.6962 460.323,58.6135 460.753,58.5314 461.182,58.4499 461.611,58.3689 462.04,58.2886 462.47,58.2088 462.899,58.1296 463.328,58.051 463.758,57.973 464.187,57.8955 464.616,57.8186 465.045,57.7423 465.475,57.6667 465.904,57.5915 466.333,57.517 466.762,57.443 467.192,57.3696 467.621,57.2968 468.05,57.2245 468.48,57.1529 468.909,57.0818 469.338,57.0114 469.767,56.9414 470.197,56.8721 470.626,56.8033 471.055,56.7352 471.484,56.6676 471.914,56.6006 472.343,56.5341 472.772,56.4683 473.202,56.403 473.631,56.3383 474.06,56.2743 474.489,56.2107 474.919,56.1478 475.348,56.0854 475.777,56.0236 476.206,55.9624 476.636,55.9018 477.065,55.8417 477.494,55.7823 477.924,55.7234 478.353,55.6651 478.782,55.6074 479.211,55.5502 479.641,55.4937 480.07,55.4377 480.499,55.3822 480.928,55.3274 481.358,55.2732 481.787,55.2195 482.216,55.1664 482.646,55.1139 483.075,55.062 483.504,55.0107 483.933,54.9599 484.363,54.9097 484.792,54.8601 485.221,54.8111 485.65,54.7626 486.08,54.7148 486.509,54.6675 486.938,54.6208 487.368,54.5746 487.797,54.5291 488.226,54.4842 488.655,54.4398 489.085,54.396 489.514,54.3527 489.943,54.3101 490.372,54.2681 490.802,54.2266 491.231,54.1857 491.66,54.1454 492.09,54.1056 492.519,54.0664 492.948,54.0279 493.377,53.9898 493.807,53.9524 494.236,53.9156 494.665,53.8793 495.094,53.8436 495.524,53.8086 495.953,53.774 496.382,53.7401 496.812,53.7067 497.241,53.674 497.67,53.6418 498.099,53.6101 498.529,53.5791 498.958,53.5486 499.387,53.5188 499.816,53.4895 500.246,53.4608 500.675,53.4326 501.104,53.4051 501.534,53.3781 501.963,53.3517 502.392,53.3258 502.821,53.3006 503.251,53.276 503.68,53.2519 504.109,53.2284 504.538,53.2055 504.968,53.1831 505.397,53.1614 505.826,53.1402 506.255,53.1196 506.685,53.0996 507.114,53.0802 507.543,53.0613 507.973,53.043 508.402,53.0253 508.831,53.0082 509.26,52.9917 509.69,52.9757 510.119,52.9603 510.548,52.9456 510.977,52.9313 511.407,52.9177 511.836,52.9047 512.265,52.8922 512.695,52.8803 513.124,52.869 513.553,52.8582 513.982,52.8481 514.412,52.8385 514.841,52.8295 515.27,52.8211 515.699,52.8133 516.129,52.806 516.558,52.7993 516.987,52.7933 517.417,52.7878 517.846,52.7828 518.275,52.7785 518.704,52.7747 519.134,52.7715 519.563,52.7689 519.992,52.7669 520.421,52.7654 520.851,52.7645 521.28,52.7643"/>
  </g>
 </g>
</svg>
