<?xml version='1.0' encoding='UTF-8' standalone='no'?>
<svg viewBox="0 0 576 432" xmlns="http://www.w3.org/2000/svg" height="432pt" xmlns:xlink="http://www.w3.org/1999/xlink" width="576pt">
 <title>gl2ps_renderer figure</title>
 <desc>
Creator: GL2PS 1.4.0, (C) 1999-2017 C. Geuzaine
For: Octave
CreationDate: Fri Jul 03 13:39:37 2020
</desc>
 <defs/>
 <polygon fill="#ffffff" points="0,0 576,0 576,432 0,432"/>
 <g>
  <polygon fill="#ffffff" shape-rendering="crispEdges" points="0,432 576,432 576,0 0,0"/>
  <clipPath id="cp00576432">
   <polygon points="0,432 576,432 576,0 0,0"/>
  </clipPath>
  <g clip-path="url(#cp00576432)">
   <polygon fill="#ffffff" shape-rendering="crispEdges" points="92.0084,367.496 505.28,367.496 505.28,44.4 92.0084,44.4"/>
   <polyline stroke-width="0.5" stroke-linejoin="miter" stroke-linecap="butt" fill="none" stroke="#262626" stroke-opacity="0.15" stroke-dasharray="16,0" points="92.0084,367.496 92.0084,44.4"/>
   <polyline stroke-width="0.5" stroke-linejoin="miter" stroke-linecap="butt" fill="none" stroke="#262626" stroke-opacity="0.15" stroke-dasharray="16,0" points="160.789,367.496 160.789,44.4"/>
   <polyline stroke-width="0.5" stroke-linejoin="miter" stroke-linecap="butt" fill="none" stroke="#262626" stroke-opacity="0.15" stroke-dasharray="16,0" points="229.569,367.496 229.569,44.4"/>
   <polyline stroke-width="0.5" stroke-linejoin="miter" stroke-linecap="butt" fill="none" stroke="#262626" stroke-opacity="0.15" stroke-dasharray="16,0" points="298.35,367.496 298.35,44.4"/>
   <polyline stroke-width="0.5" stroke-linejoin="miter" stroke-linecap="butt" fill="none" stroke="#262626" stroke-opacity="0.15" stroke-dasharray="16,0" points="367.13,367.496 367.13,44.4"/>
   <polyline stroke-width="0.5" stroke-linejoin="miter" stroke-linecap="butt" fill="none" stroke="#262626" stroke-opacity="0.15" stroke-dasharray="16,0" points="435.911,367.496 435.911,44.4"/>
   <polyline stroke-width="0.5" stroke-linejoin="miter" stroke-linecap="butt" fill="none" stroke="#262626" stroke-opacity="0.15" stroke-dasharray="16,0" points="504.691,367.496 504.691,44.4"/>
   <polyline stroke-width="0.5" stroke-linejoin="miter" stroke-linecap="butt" fill="none" stroke="#262626" points="92.0084,367.496 92.0084,363.362"/>
   <polyline stroke-width="0.5" stroke-linejoin="miter" stroke-linecap="butt" fill="none" stroke="#262626" points="92.0084,44.4 92.0084,48.534"/>
   <polyline stroke-width="0.5" stroke-linejoin="miter" stroke-linecap="butt" fill="none" stroke="#262626" points="160.789,367.496 160.789,363.362"/>
   <polyline stroke-width="0.5" stroke-linejoin="miter" stroke-linecap="butt" fill="none" stroke="#262626" points="160.789,44.4 160.789,48.534"/>
   <polyline stroke-width="0.5" stroke-linejoin="miter" stroke-linecap="butt" fill="none" stroke="#262626" points="229.569,367.496 229.569,363.362"/>
   <polyline stroke-width="0.5" stroke-linejoin="miter" stroke-linecap="butt" fill="none" stroke="#262626" points="229.569,44.4 229.569,48.534"/>
   <polyline stroke-width="0.5" stroke-linejoin="miter" stroke-linecap="butt" fill="none" stroke="#262626" points="298.35,367.496 298.35,363.362"/>
   <polyline stroke-width="0.5" stroke-linejoin="miter" stroke-linecap="butt" fill="none" stroke="#262626" points="298.35,44.4 298.35,48.534"/>
   <polyline stroke-width="0.5" stroke-linejoin="miter" stroke-linecap="butt" fill="none" stroke="#262626" points="367.13,367.496 367.13,363.362"/>
   <polyline stroke-width="0.5" stroke-linejoin="miter" stroke-linecap="butt" fill="none" stroke="#262626" points="367.13,44.4 367.13,48.534"/>
   <polyline stroke-width="0.5" stroke-linejoin="miter" stroke-linecap="butt" fill="none" stroke="#262626" points="435.911,367.496 435.911,363.362"/>
   <polyline stroke-width="0.5" stroke-linejoin="miter" stroke-linecap="butt" fill="none" stroke="#262626" points="435.911,44.4 435.911,48.534"/>
   <polyline stroke-width="0.5" stroke-linejoin="miter" stroke-linecap="butt" fill="none" stroke="#262626" points="504.691,367.496 504.691,363.362"/>
   <polyline stroke-width="0.5" stroke-linejoin="miter" stroke-linecap="butt" fill="none" stroke="#262626" points="504.691,44.4 504.691,48.534"/>
   <text xml:space="preserve" font-family="CMU Serif" font-weight="normal" font-style="normal" font-size="18" transform="translate(87.5084,394) rotate(-0,4.5,-13)">
    <tspan y="-0" fill="rgb(38,38,38)" x="0 ">0</tspan>
   </text>
   <text xml:space="preserve" font-family="CMU Serif" font-weight="normal" font-style="normal" font-size="18" transform="translate(156.289,394) rotate(-0,4.5,-13)">
    <tspan y="-0" fill="rgb(38,38,38)" x="0 ">2</tspan>
   </text>
   <text xml:space="preserve" font-family="CMU Serif" font-weight="normal" font-style="normal" font-size="18" transform="translate(225.069,394) rotate(-0,4.5,-13)">
    <tspan y="-0" fill="rgb(38,38,38)" x="0 ">4</tspan>
   </text>
   <text xml:space="preserve" font-family="CMU Serif" font-weight="normal" font-style="normal" font-size="18" transform="translate(293.85,394) rotate(-0,4.5,-13)">
    <tspan y="-0" fill="rgb(38,38,38)" x="0 ">6</tspan>
   </text>
   <text xml:space="preserve" font-family="CMU Serif" font-weight="normal" font-style="normal" font-size="18" transform="translate(362.63,394) rotate(-0,4.5,-13)">
    <tspan y="-0" fill="rgb(38,38,38)" x="0 ">8</tspan>
   </text>
   <text xml:space="preserve" font-family="CMU Serif" font-weight="normal" font-style="normal" font-size="18" transform="translate(426.911,394) rotate(-0,9,-13)">
    <tspan y="-0" fill="rgb(38,38,38)" x="0 9 ">10</tspan>
   </text>
   <text xml:space="preserve" font-family="CMU Serif" font-weight="normal" font-style="normal" font-size="18" transform="translate(495.691,394) rotate(-0,9,-13)">
    <tspan y="-0" fill="rgb(38,38,38)" x="0 9 ">12</tspan>
   </text>
   <polyline stroke-width="0.5" stroke-linejoin="miter" stroke-linecap="butt" fill="none" stroke="#262626" stroke-opacity="0.15" stroke-dasharray="16,0" points="92.0084,367.496 505.28,367.496"/>
   <polyline stroke-width="0.5" stroke-linejoin="miter" stroke-linecap="butt" fill="none" stroke="#262626" stroke-opacity="0.15" stroke-dasharray="16,0" points="92.0084,270.552 505.28,270.552"/>
   <polyline stroke-width="0.5" stroke-linejoin="miter" stroke-linecap="butt" fill="none" stroke="#262626" stroke-opacity="0.15" stroke-dasharray="16,0" points="92.0084,173.609 505.28,173.609"/>
   <polyline stroke-width="0.5" stroke-linejoin="miter" stroke-linecap="butt" fill="none" stroke="#262626" stroke-opacity="0.15" stroke-dasharray="16,0" points="92.0084,76.6652 505.28,76.6652"/>
   <polyline stroke-width="0.5" stroke-linejoin="miter" stroke-linecap="butt" fill="none" stroke="#262626" points="92.0084,367.496 96.1438,367.496"/>
   <polyline stroke-width="0.5" stroke-linejoin="miter" stroke-linecap="butt" fill="none" stroke="#262626" points="505.28,367.496 501.145,367.496"/>
   <polyline stroke-width="0.5" stroke-linejoin="miter" stroke-linecap="butt" fill="none" stroke="#262626" points="92.0084,270.552 96.1438,270.552"/>
   <polyline stroke-width="0.5" stroke-linejoin="miter" stroke-linecap="butt" fill="none" stroke="#262626" points="505.28,270.552 501.145,270.552"/>
   <polyline stroke-width="0.5" stroke-linejoin="miter" stroke-linecap="butt" fill="none" stroke="#262626" points="92.0084,173.609 96.1438,173.609"/>
   <polyline stroke-width="0.5" stroke-linejoin="miter" stroke-linecap="butt" fill="none" stroke="#262626" points="505.28,173.609 501.145,173.609"/>
   <polyline stroke-width="0.5" stroke-linejoin="miter" stroke-linecap="butt" fill="none" stroke="#262626" points="92.0084,76.6652 96.1438,76.6652"/>
   <polyline stroke-width="0.5" stroke-linejoin="miter" stroke-linecap="butt" fill="none" stroke="#262626" points="505.28,76.6652 501.145,76.6652"/>
   <text xml:space="preserve" font-family="CMU Serif" font-weight="normal" font-style="normal" font-size="18" transform="translate(74.0025,373.996) rotate(-0,9,-6.5)">
    <tspan y="-0" fill="rgb(38,38,38)" x="0 ">0</tspan>
   </text>
   <text xml:space="preserve" font-family="CMU Serif" font-weight="normal" font-style="normal" font-size="18" transform="translate(47.0025,277.052) rotate(-0,36,-6.5)">
    <tspan y="-0" fill="rgb(38,38,38)" x="0 9 18 27 ">5000</tspan>
   </text>
   <text xml:space="preserve" font-family="CMU Serif" font-weight="normal" font-style="normal" font-size="18" transform="translate(38.0025,180.109) rotate(-0,45,-6.5)">
    <tspan y="-0" fill="rgb(38,38,38)" x="0 9 18 27 36 ">10000</tspan>
   </text>
   <text xml:space="preserve" font-family="CMU Serif" font-weight="normal" font-style="normal" font-size="18" transform="translate(38.0025,83.1652) rotate(-0,45,-6.5)">
    <tspan y="-0" fill="rgb(38,38,38)" x="0 9 18 27 36 ">15000</tspan>
   </text>
   <polyline stroke-width="0.5" stroke-linejoin="miter" stroke-linecap="square" fill="none" stroke="#262626" stroke-dasharray="16,0" points="92.0084,367.496 505.28,367.496"/>
   <polyline stroke-width="0.5" stroke-linejoin="miter" stroke-linecap="square" fill="none" stroke="#262626" stroke-dasharray="16,0" points="92.0084,44.4 505.28,44.4"/>
   <polyline stroke-width="0.5" stroke-linejoin="miter" stroke-linecap="square" fill="none" stroke="#262626" stroke-dasharray="16,0" points="92.0084,367.496 92.0084,44.4"/>
   <polyline stroke-width="0.5" stroke-linejoin="miter" stroke-linecap="square" fill="none" stroke="#262626" stroke-dasharray="16,0" points="505.28,367.496 505.28,44.4"/>
   <text xml:space="preserve" font-family="CMU Serif" font-weight="normal" font-style="normal" font-size="19.8" transform="translate(258.644,432) rotate(-0,40,-33)">
    <tspan y="-16" fill="rgb(38,38,38)" x="0 ">h</tspan>
    <tspan y="-0" fill="rgb(38,38,38)" x="11 20 " font-size="17.8">am</tspan>
    <tspan y="-16" fill="rgb(38,38,38)" x="35 42 48 57 74 "> [cm]</tspan>
   </text>
   <text xml:space="preserve" font-family="CMU Serif" font-weight="normal" font-style="normal" font-size="19.8" transform="translate(-14.4975,205.948) rotate(-90,47.5,0)">
    <tspan y="-16" fill="rgb(38,38,38)" x="0 ">Q</tspan>
    <tspan y="-0" fill="rgb(38,38,38)" x="16 25 " font-size="17.8">am</tspan>
    <tspan y="-16" fill="rgb(38,38,38)" x="40 47 53 64 74 89 "> [daN]</tspan>
   </text>
   <polyline stroke-width="3" stroke-linejoin="round" stroke-linecap="butt" fill="none" stroke="#0071bc" points="92.0084,308.751 92.4217,307.637 92.8349,306.526 93.2482,305.419 93.6615,304.315 94.0747,303.215 94.488,302.118 94.9013,301.024 95.3146,299.934 95.7278,298.848 96.1411,297.765 96.5544,296.686 96.9677,295.61 97.3809,294.537 97.7942,293.468 98.2075,292.403 98.6207,291.34 99.034,290.282 99.4473,289.226 99.8606,288.175 100.274,287.126 100.687,286.081 101.1,285.04 101.514,284.001 101.927,282.967 102.34,281.935 102.753,280.907 103.167,279.883 103.58,278.861 103.993,277.844 104.407,276.829 104.82,275.818 105.233,274.81 105.646,273.806 106.06,272.805 106.473,271.807 106.886,270.813 107.299,269.822 107.713,268.834 108.126,267.85 108.539,266.869 108.953,265.891 109.366,264.917 109.779,263.945 110.192,262.978 110.606,262.013 111.019,261.052 111.432,260.094 111.845,259.139 112.259,258.188 112.672,257.24 113.085,256.295 113.499,255.353 113.912,254.415 114.325,253.479 114.738,252.548 115.152,251.619 115.565,250.693 115.978,249.771 116.391,248.852 116.805,247.936 117.218,247.024 117.631,246.114 118.044,245.208 118.458,244.305 118.871,243.405 119.284,242.509 119.698,241.615 120.111,240.725 120.524,239.838 120.937,238.954 121.351,238.073 121.764,237.196 122.177,236.321 122.59,235.45 123.004,234.581 123.417,233.716 123.83,232.854 124.244,231.996 124.657,231.14 125.07,230.287 125.483,229.438 125.897,228.591 126.31,227.748 126.723,226.908 127.136,226.07 127.55,225.236 127.963,224.405 128.376,223.577 128.79,222.752 129.203,221.93 129.616,221.112 130.029,220.296 130.443,219.483 130.856,218.673 131.269,217.867 131.682,217.063 132.096,216.262 132.509,215.465 132.922,214.67 133.336,213.879 133.749,213.09 134.162,212.304 134.575,211.522 134.989,210.742 135.402,209.965 135.815,209.192 136.228,208.421 136.642,207.653 137.055,206.888 137.468,206.126 137.882,205.367 138.295,204.611 138.708,203.858 139.121,203.108 139.535,202.361 139.948,201.617 140.361,200.875 140.774,200.137 141.188,199.401 141.601,198.668 142.014,197.939 142.428,197.212 142.841,196.488 143.254,195.766 143.667,195.048 144.081,194.333 144.494,193.62 144.907,192.91 145.32,192.203 145.734,191.499 146.147,190.798 146.56,190.1 146.974,189.404 147.387,188.712 147.8,188.022 148.213,187.335 148.627,186.65 149.04,185.969 149.453,185.29 149.866,184.614 150.28,183.941 150.693,183.271 151.106,182.603 151.52,181.938 151.933,181.276 152.346,180.617 152.759,179.961 153.173,179.307 153.586,178.656 153.999,178.008 154.412,177.362 154.826,176.719 155.239,176.079 155.652,175.442 156.065,174.807 156.479,174.175 156.892,173.546 157.305,172.919 157.719,172.295 158.132,171.674 158.545,171.055 158.958,170.44 159.372,169.826 159.785,169.216 160.198,168.608 160.611,168.003 161.025,167.4 161.438,166.8 161.851,166.203 162.265,165.608 162.678,165.016 163.091,164.427 163.504,163.84 163.918,163.256 164.331,162.674 164.744,162.095 165.157,161.519 165.571,160.945 165.984,160.374 166.397,159.805 166.811,159.239 167.224,158.676 167.637,158.115 168.05,157.556 168.464,157 168.877,156.447 169.29,155.896 169.703,155.348 170.117,154.803 170.53,154.259 170.943,153.719 171.357,153.181 171.77,152.645 172.183,152.112 172.596,151.581 173.01,151.053 173.423,150.528 173.836,150.004 174.249,149.484 174.663,148.966 175.076,148.45 175.489,147.937 175.903,147.426 176.316,146.917 176.729,146.412 177.142,145.908 177.556,145.407 177.969,144.909 178.382,144.412 178.795,143.919 179.209,143.427 179.622,142.938 180.035,142.452 180.449,141.968 180.862,141.486 181.275,141.007 181.688,140.53 182.102,140.055 182.515,139.583 182.928,139.113 183.341,138.645 183.755,138.18 184.168,137.718 184.581,137.257 184.995,136.799 185.408,136.343 185.821,135.89 186.234,135.439 186.648,134.99 187.061,134.544 187.474,134.099 187.887,133.658 188.301,133.218 188.714,132.781 189.127,132.346 189.54,131.913 189.954,131.483 190.367,131.054 190.78,130.629 191.194,130.205 191.607,129.784 192.02,129.364 192.433,128.948 192.847,128.533 193.26,128.121 193.673,127.71 194.086,127.302 194.5,126.897 194.913,126.493 195.326,126.092 195.74,125.693 196.153,125.296 196.566,124.901 196.979,124.509 197.393,124.118 197.806,123.73 198.219,123.344 198.632,122.96 199.046,122.579 199.459,122.199 199.872,121.822 200.286,121.447 200.699,121.074 201.112,120.703 201.525,120.334 201.939,119.967 202.352,119.603 202.765,119.24 203.178,118.88 203.592,118.521 204.005,118.165 204.418,117.811 204.832,117.459 205.245,117.109 205.658,116.762 206.071,116.416 206.485,116.072 206.898,115.731 207.311,115.391 207.724,115.053 208.138,114.718 208.551,114.385 208.964,114.053 209.378,113.724 209.791,113.396 210.204,113.071 210.617,112.748 211.031,112.427 211.444,112.107 211.857,111.79 212.27,111.475 212.684,111.161 213.097,110.85 213.51,110.541 213.924,110.233 214.337,109.928 214.75,109.624 215.163,109.323 215.577,109.023 215.99,108.725 216.403,108.43 216.816,108.136 217.23,107.844 217.643,107.554 218.056,107.266 218.47,106.98 218.883,106.696 219.296,106.414 219.709,106.133 220.123,105.855 220.536,105.578 220.949,105.304 221.362,105.031 221.776,104.76 222.189,104.491 222.602,104.223 223.016,103.958 223.429,103.694 223.842,103.433 224.255,103.173 224.669,102.915 225.082,102.659 225.495,102.404 225.908,102.152 226.322,101.901 226.735,101.652 227.148,101.405 227.561,101.16 227.975,100.916 228.388,100.674 228.801,100.434 229.215,100.196 229.628,99.9596 230.041,99.7249 230.454,99.4919 230.868,99.2608 231.281,99.0313 231.694,98.8037 232.107,98.5777 232.521,98.3535 232.934,98.131 233.347,97.9103 233.761,97.6912 234.174,97.4739 234.587,97.2582 235,97.0443 235.414,96.8321 235.827,96.6216 236.24,96.4127 236.653,96.2055 237.067,96 237.48,95.7962 237.893,95.594 238.307,95.3935 238.72,95.1946 239.133,94.9974 239.546,94.8018 239.96,94.6079 240.373,94.4156 240.786,94.2249 241.199,94.0359 241.613,93.8484 242.026,93.6626 242.439,93.4784 242.853,93.2958 243.266,93.1148 243.679,92.9353 244.092,92.7575 244.506,92.5812 244.919,92.4065 245.332,92.2334 245.745,92.0618 246.159,91.8918 246.572,91.7233 246.985,91.5564 247.399,91.3911 247.812,91.2272 248.225,91.0649 248.638,90.9041 249.052,90.7449 249.465,90.5872 249.878,90.4309 250.291,90.2762 250.705,90.123 251.118,89.9713 251.531,89.821 251.945,89.6723 252.358,89.525 252.771,89.3792 253.184,89.2349 253.598,89.092 254.011,88.9506 254.424,88.8106 254.837,88.6721 255.251,88.535 255.664,88.3994 256.077,88.2652 256.491,88.1324 256.904,88.0011 257.317,87.8711 257.73,87.7426 258.144,87.6154 258.557,87.4897 258.97,87.3654 259.383,87.2424 259.797,87.1209 260.21,87.0007 260.623,86.8819 261.036,86.7644 261.45,86.6483 261.863,86.5336 262.276,86.4202 262.69,86.3082 263.103,86.1975 263.516,86.0882 263.929,85.9802 264.343,85.8734 264.756,85.7681 265.169,85.664 265.582,85.5613 265.996,85.4598 266.409,85.3597 266.822,85.2608 267.236,85.1632 267.649,85.067 268.062,84.972 268.475,84.8782 268.889,84.7858 269.302,84.6945 269.715,84.6046 270.128,84.5159 270.542,84.4285 270.955,84.3423 271.368,84.2573 271.782,84.1735 272.195,84.091 272.608,84.0097 273.021,83.9296 273.435,83.8507 273.848,83.7731 274.261,83.6966 274.674,83.6213 275.088,83.5472 275.501,83.4743 275.914,83.4026 276.328,83.332 276.741,83.2626 277.154,83.1944 277.567,83.1273 277.981,83.0614 278.394,82.9966 278.807,82.933 279.22,82.8705 279.634,82.8091 280.047,82.7488 280.46,82.6897 280.874,82.6317 281.287,82.5748 281.7,82.519 282.113,82.4642 282.527,82.4106 282.94,82.3581 283.353,82.3066 283.766,82.2563 284.18,82.207 284.593,82.1588 285.006,82.1116 285.42,82.0655 285.833,82.0204 286.246,81.9764 286.659,81.9334 287.073,81.8914 287.486,81.8505 287.899,81.8106 288.312,81.7718 288.726,81.7339 289.139,81.697 289.552,81.6612 289.966,81.6263 290.379,81.5925 290.792,81.5596 291.205,81.5277 291.619,81.4968 292.032,81.4668 292.445,81.4379 292.858,81.4099 293.272,81.3828 293.685,81.3567 294.098,81.3315 294.512,81.3073 294.925,81.284 295.338,81.2616 295.751,81.2402 296.165,81.2196 296.578,81.2 296.991,81.1813 297.404,81.1635 297.818,81.1466 298.231,81.1306 298.644,81.1155 299.057,81.1012 299.471,81.0879 299.884,81.0753 300.297,81.0637 300.711,81.0529 301.124,81.043 301.537,81.0339 301.95,81.0257 302.364,81.0183 302.777,81.0118 303.19,81.006 303.603,81.0012 304.017,80.9971 304.43,80.9938 304.843,80.9913 305.257,80.9897 305.67,80.9888 306.083,80.9887 306.496,80.9894 306.91,80.9909 307.323,80.9932 307.736,80.9962 308.149,81 308.563,81.0046 308.976,81.0099 309.389,81.016 309.803,81.0228 310.216,81.0303 310.629,81.0386 311.042,81.0476 311.456,81.0573 311.869,81.0678 312.282,81.0789 312.695,81.0908 313.109,81.1034 313.522,81.1166 313.935,81.1306 314.349,81.1452 314.762,81.1606 315.175,81.1766 315.588,81.1932 316.002,81.2105 316.415,81.2285 316.828,81.2472 317.241,81.2665 317.655,81.2864 318.068,81.307 318.481,81.3282 318.895,81.35 319.308,81.3725 319.721,81.3956 320.134,81.4192 320.548,81.4435 320.961,81.4684 321.374,81.4939 321.787,81.52 322.201,81.5466 322.614,81.5739 323.027,81.6017 323.44,81.6301 323.854,81.659 324.267,81.6885 324.68,81.7186 325.094,81.7492 325.507,81.7804 325.92,81.812 326.333,81.8443 326.747,81.877 327.16,81.9103 327.573,81.9441 327.986,81.9784 328.4,82.0132 328.813,82.0485 329.226,82.0843 329.64,82.1205 330.053,82.1573 330.466,82.1946 330.879,82.2323 331.293,82.2705 331.706,82.3092 332.119,82.3483 332.532,82.3878 332.946,82.4279 333.359,82.4683 333.772,82.5092 334.186,82.5505 334.599,82.5923 335.012,82.6345 335.425,82.6771 335.839,82.7201 336.252,82.7635 336.665,82.8073 337.078,82.8515 337.492,82.8961 337.905,82.941 338.318,82.9864 338.732,83.0322 339.145,83.0783 339.558,83.1247 339.971,83.1715 340.385,83.2187 340.798,83.2662 341.211,83.3141 341.624,83.3623 342.038,83.4108 342.451,83.4597 342.864,83.5088 343.278,83.5583 343.691,83.6081 344.104,83.6582 344.517,83.7086 344.931,83.7593 345.344,83.8103 345.757,83.8616 346.17,83.9131 346.584,83.965 346.997,84.0171 347.41,84.0694 347.824,84.122 348.237,84.1749 348.65,84.228 349.063,84.2813 349.477,84.335 349.89,84.3888 350.303,84.4428 350.716,84.497 351.13,84.5516 351.543,84.6062 351.956,84.6611 352.37,84.7162 352.783,84.7715 353.196,84.827 353.609,84.8827 354.023,84.9385 354.436,84.9945 354.849,85.0507 355.262,85.107 355.676,85.1635 356.089,85.2202 356.502,85.2769 356.916,85.3339 357.329,85.391 357.742,85.4482 358.155,85.5055 358.569,85.5629 358.982,85.6205 359.395,85.6781 359.808,85.7359 360.222,85.7938 360.635,85.8517 361.048,85.9098 361.462,85.968 361.875,86.0262 362.288,86.0845 362.701,86.1428 363.115,86.2012 363.528,86.2597 363.941,86.3182 364.354,86.3768 364.768,86.4354 365.181,86.494 365.594,86.5527 366.008,86.6114 366.421,86.6701 366.834,86.7289 367.247,86.7876 367.661,86.8463 368.074,86.9051 368.487,86.9638 368.9,87.0225 369.314,87.0813 369.727,87.1399 370.14,87.1986 370.553,87.2572 370.967,87.3158 371.38,87.3743 371.793,87.4328 372.207,87.4912 372.62,87.5496 373.033,87.6079 373.446,87.6662 373.86,87.7243 374.273,87.7824 374.686,87.8404 375.099,87.8983 375.513,87.9561 375.926,88.0138 376.339,88.0714 376.753,88.1289 377.166,88.1863 377.579,88.2435 377.992,88.3006 378.406,88.3576 378.819,88.4145 379.232,88.4712 379.645,88.5277 380.059,88.5841 380.472,88.6403 380.885,88.6964 381.299,88.7523 381.712,88.808 382.125,88.8636 382.538,88.9189 382.952,88.974 383.365,89.029 383.778,89.0838 384.191,89.1383 384.605,89.1927 385.018,89.2468 385.431,89.3007 385.845,89.3543 386.258,89.4077 386.671,89.461 387.084,89.5139 387.498,89.5666 387.911,89.619 388.324,89.6712 388.737,89.7231 389.151,89.7747 389.564,89.8261 389.977,89.8772 390.391,89.928 390.804,89.9785 391.217,90.0287 391.63,90.0786 392.044,90.1282 392.457,90.1775 392.87,90.2265 393.283,90.2751 393.697,90.3234 394.11,90.3714 394.523,90.419 394.936,90.4663 395.35,90.5132 395.763,90.5598 396.176,90.606 396.59,90.6519 397.003,90.6974 397.416,90.7425 397.829,90.7872 398.243,90.8315 398.656,90.8755 399.069,90.919 399.482,90.9622 399.896,91.0049 400.309,91.0472 400.722,91.0891 401.136,91.1306 401.549,91.1716 401.962,91.2122 402.375,91.2524 402.789,91.2921 403.202,91.3314 403.615,91.3702 404.028,91.4085 404.442,91.4464 404.855,91.4838 405.268,91.5208 405.682,91.5572 406.095,91.5932 406.508,91.6287 406.921,91.6636 407.335,91.6981 407.748,91.732 408.161,91.7655 408.574,91.7984 408.988,91.8308 409.401,91.8627 409.814,91.894 410.228,91.9248 410.641,91.955 411.054,91.9847 411.467,92.0139 411.881,92.0424 412.294,92.0704 412.707,92.0979 413.12,92.1247 413.534,92.151 413.947,92.1767 414.36,92.2018 414.774,92.2263 415.187,92.2501 415.6,92.2734 416.013,92.2961 416.427,92.3181 416.84,92.3395 417.253,92.3603 417.666,92.3805 418.08,92.4 418.493,92.4189 418.906,92.437 419.32,92.4546 419.733,92.4715 420.146,92.4877 420.559,92.5033 420.973,92.5181 421.386,92.5323 421.799,92.5458 422.212,92.5586 422.626,92.5707 423.039,92.5821 423.452,92.5927 423.866,92.6028 424.279,92.612 424.692,92.6205 425.105,92.6283 425.519,92.6353 425.932,92.6417 426.345,92.6472 426.758,92.6521 427.172,92.6561 427.585,92.6594 427.998,92.6619 428.411,92.6637 428.825,92.6646 429.238,92.6648 429.651,92.6642 430.065,92.6628 430.478,92.6606 430.891,92.6577 431.304,92.6538 431.718,92.6492 432.131,92.6437 432.544,92.6375 432.958,92.6303 433.371,92.6224 433.784,92.6136 434.197,92.604 434.611,92.5935 435.024,92.5822 435.437,92.5699 435.85,92.5568 436.264,92.5429 436.677,92.5281 437.09,92.5123 437.503,92.4957 437.917,92.4782 438.33,92.4598 438.743,92.4405 439.157,92.4203 439.57,92.3992 439.983,92.3771 440.396,92.3541 440.81,92.3302 441.223,92.3054 441.636,92.2795 442.049,92.2528 442.463,92.2251 442.876,92.1964 443.289,92.1668 443.703,92.1362 444.116,92.1046 444.529,92.0721 444.942,92.0386 445.356,92.0041 445.769,91.9685 446.182,91.932 446.595,91.8945 447.009,91.856 447.422,91.8164 447.835,91.7758 448.249,91.7342 448.662,91.6916 449.075,91.6479 449.488,91.6032 449.902,91.5574 450.315,91.5106 450.728,91.4627 451.141,91.4138 451.555,91.3638 451.968,91.3127 452.381,91.2605 452.795,91.2073 453.208,91.1529 453.621,91.0975 454.034,91.0409 454.448,90.9833 454.861,90.9245 455.274,90.8647 455.687,90.8036 456.101,90.7415 456.514,90.6783 456.927,90.6139 457.341,90.5483 457.754,90.4816 458.167,90.4138 458.58,90.3448 458.994,90.2746 459.407,90.2032 459.82,90.1307 460.233,90.057 460.647,89.9821 461.06,89.9061 461.473,89.8288 461.887,89.7503 462.3,89.6706 462.713,89.5898 463.126,89.5076 463.54,89.4243 463.953,89.3397 464.366,89.2539 464.779,89.1669 465.193,89.0786 465.606,88.9891 466.019,88.8983 466.432,88.8062 466.846,88.713 467.259,88.6184 467.672,88.5225 468.086,88.4254 468.499,88.3269 468.912,88.2272 469.325,88.1262 469.739,88.0239 470.152,87.9203 470.565,87.8153 470.978,87.7091 471.392,87.6015 471.805,87.4926 472.218,87.3824 472.632,87.2708 473.045,87.1578 473.458,87.0436 473.871,86.9279 474.285,86.8109 474.698,86.6926 475.111,86.5729 475.524,86.4518 475.938,86.3293 476.351,86.2054 476.764,86.0801 477.178,85.9535 477.591,85.8254 478.004,85.6959 478.417,85.5651 478.831,85.4327 479.244,85.299 479.657,85.1638 480.07,85.0273 480.484,84.8893 480.897,84.7498 481.31,84.6088 481.724,84.4664 482.137,84.3226 482.55,84.1773 482.963,84.0305 483.377,83.8822 483.79,83.7325 484.203,83.5813 484.616,83.4285 485.03,83.2743 485.443,83.1186 485.856,82.9614 486.27,82.8026 486.683,82.6424 487.096,82.4806 487.509,82.3172 487.923,82.1524 488.336,81.986 488.749,81.8181 489.162,81.6486 489.576,81.4775 489.989,81.3049 490.402,81.1307 490.816,80.955 491.229,80.7776 491.642,80.5988 492.055,80.4182 492.469,80.2362 492.882,80.0525 493.295,79.8672 493.708,79.6803 494.122,79.4918 494.535,79.3016 494.948,79.1099 495.362,78.9165 495.775,78.7215 496.188,78.5248 496.601,78.3265 497.015,78.1266 497.428,77.9249 497.841,77.7216 498.254,77.5167 498.668,77.3101 499.081,77.1017 499.494,76.8918 499.908,76.6801 500.321,76.4667 500.734,76.2517 501.147,76.0349 501.561,75.8165 501.974,75.5963 502.387,75.3743 502.8,75.1507 503.214,74.9254 503.627,74.6982 504.04,74.4694 504.453,74.2388 504.867,74.0065 505.28,73.7724"/>
   <polyline stroke-width="3" stroke-linejoin="round" stroke-linecap="butt" fill="none" stroke="#d85218" points="92.0084,308.751 505.28,73.7724"/>
  </g>
  <clipPath id="cp00576432">
   <polygon points="0,432 576,432 576,0 0,0"/>
  </clipPath>
  <g clip-path="url(#cp00576432)">
   <polygon fill="#ffffff" shape-rendering="crispEdges" points="437.801,376.734 497.734,376.734 497.734,313.667 437.801,313.667"/>
   <polyline stroke-width="0.5" stroke-linejoin="miter" stroke-linecap="square" fill="none" stroke="#262626" stroke-dasharray="16,0" points="437.801,376.734 497.734,376.734"/>
   <polyline stroke-width="0.5" stroke-linejoin="miter" stroke-linecap="square" fill="none" stroke="#262626" stroke-dasharray="16,0" points="437.801,313.667 497.734,313.667"/>
   <polyline stroke-width="0.5" stroke-linejoin="miter" stroke-linecap="square" fill="none" stroke="#262626" stroke-dasharray="16,0" points="437.801,376.734 437.801,313.667"/>
   <polyline stroke-width="0.5" stroke-linejoin="miter" stroke-linecap="square" fill="none" stroke="#262626" stroke-dasharray="16,0" points="497.734,376.734 497.734,313.667"/>
   <text xml:space="preserve" font-family="CMU Serif" font-weight="normal" font-style="normal" font-size="18" transform="translate(460.089,342.934) rotate(-0,-0,-13.5)">
    <tspan y="-14" fill="rgb(0,0,0)" x="0 ">Q</tspan>
    <tspan y="-0" fill="rgb(0,0,0)" x="14 22 " font-size="16">am</tspan>
   </text>
   <text xml:space="preserve" font-family="CMU Serif" font-weight="normal" font-style="normal" font-size="18" transform="translate(460.089,374.467) rotate(-0,-0,-13.5)">
    <tspan y="-14" fill="rgb(0,0,0)" x="0 ">Q</tspan>
    <tspan y="-0" fill="rgb(0,0,0)" x="14 " font-size="16">t</tspan>
   </text>
   <polyline stroke-width="3" stroke-linejoin="round" stroke-linecap="butt" fill="none" stroke="#0071bc" points="440.445,329.434 457.445,329.434"/>
   <polyline stroke-width="3" stroke-linejoin="round" stroke-linecap="butt" fill="none" stroke="#d85218" points="440.445,360.967 457.445,360.967"/>
  </g>
 </g>
</svg>
