<?xml version='1.0' encoding='UTF-8' standalone='no'?>
<svg xmlns="http://www.w3.org/2000/svg" xmlns:xlink="http://www.w3.org/1999/xlink" viewBox="0 0 576 432" width="576pt" height="432pt">
 <title>gl2ps_renderer figure</title>
 <desc>
Creator: GL2PS 1.4.0, (C) 1999-2017 C. Geuzaine
For: Octave
CreationDate: Fri Jul 03 13:20:45 2020
</desc>
 <defs/>
 <polygon points="0,0 576,0 576,432 0,432" fill="#ffffff"/>
 <g>
  <polygon shape-rendering="crispEdges" points="0,432 576,432 576,0 0,0" fill="#ffffff"/>
  <clipPath id="cp00576432">
   <polygon points="0,432 576,432 576,0 0,0"/>
  </clipPath>
  <g clip-path="url(#cp00576432)">
   <polygon shape-rendering="crispEdges" points="92.0084,363.496 505.28,363.496 505.28,44.4 92.0084,44.4" fill="#ffffff"/>
   <polyline stroke-width="0.5" points="92.0084,363.496 92.0084,44.4" stroke-linejoin="miter" stroke-opacity="0.15" stroke="#262626" stroke-dasharray="16,0" stroke-linecap="butt" fill="none"/>
   <polyline stroke-width="0.5" points="195.326,363.496 195.326,44.4" stroke-linejoin="miter" stroke-opacity="0.15" stroke="#262626" stroke-dasharray="16,0" stroke-linecap="butt" fill="none"/>
   <polyline stroke-width="0.5" points="298.644,363.496 298.644,44.4" stroke-linejoin="miter" stroke-opacity="0.15" stroke="#262626" stroke-dasharray="16,0" stroke-linecap="butt" fill="none"/>
   <polyline stroke-width="0.5" points="401.962,363.496 401.962,44.4" stroke-linejoin="miter" stroke-opacity="0.15" stroke="#262626" stroke-dasharray="16,0" stroke-linecap="butt" fill="none"/>
   <polyline stroke-width="0.5" points="505.28,363.496 505.28,44.4" stroke-linejoin="miter" stroke-opacity="0.15" stroke="#262626" stroke-dasharray="16,0" stroke-linecap="butt" fill="none"/>
   <polyline stroke-width="0.5" points="92.0084,363.496 92.0084,359.362" stroke-linejoin="miter" stroke="#262626" stroke-linecap="butt" fill="none"/>
   <polyline stroke-width="0.5" points="92.0084,44.4 92.0084,48.534" stroke-linejoin="miter" stroke="#262626" stroke-linecap="butt" fill="none"/>
   <polyline stroke-width="0.5" points="195.326,363.496 195.326,359.362" stroke-linejoin="miter" stroke="#262626" stroke-linecap="butt" fill="none"/>
   <polyline stroke-width="0.5" points="195.326,44.4 195.326,48.534" stroke-linejoin="miter" stroke="#262626" stroke-linecap="butt" fill="none"/>
   <polyline stroke-width="0.5" points="298.644,363.496 298.644,359.362" stroke-linejoin="miter" stroke="#262626" stroke-linecap="butt" fill="none"/>
   <polyline stroke-width="0.5" points="298.644,44.4 298.644,48.534" stroke-linejoin="miter" stroke="#262626" stroke-linecap="butt" fill="none"/>
   <polyline stroke-width="0.5" points="401.962,363.496 401.962,359.362" stroke-linejoin="miter" stroke="#262626" stroke-linecap="butt" fill="none"/>
   <polyline stroke-width="0.5" points="401.962,44.4 401.962,48.534" stroke-linejoin="miter" stroke="#262626" stroke-linecap="butt" fill="none"/>
   <polyline stroke-width="0.5" points="505.28,363.496 505.28,359.362" stroke-linejoin="miter" stroke="#262626" stroke-linecap="butt" fill="none"/>
   <polyline stroke-width="0.5" points="505.28,44.4 505.28,48.534" stroke-linejoin="miter" stroke="#262626" stroke-linecap="butt" fill="none"/>
   <text transform="translate(87.5084,390) rotate(-0,4.5,-13)" font-family="CMU Serif" font-weight="normal" font-size="18" xml:space="preserve" font-style="normal">
    <tspan x="0 " y="-0" fill="rgb(38,38,38)">0</tspan>
   </text>
   <text transform="translate(190.826,390) rotate(-0,4.5,-13)" font-family="CMU Serif" font-weight="normal" font-size="18" xml:space="preserve" font-style="normal">
    <tspan x="0 " y="-0" fill="rgb(38,38,38)">5</tspan>
   </text>
   <text transform="translate(289.644,390) rotate(-0,9,-13)" font-family="CMU Serif" font-weight="normal" font-size="18" xml:space="preserve" font-style="normal">
    <tspan x="0 9 " y="-0" fill="rgb(38,38,38)">10</tspan>
   </text>
   <text transform="translate(392.962,390) rotate(-0,9,-13)" font-family="CMU Serif" font-weight="normal" font-size="18" xml:space="preserve" font-style="normal">
    <tspan x="0 9 " y="-0" fill="rgb(38,38,38)">15</tspan>
   </text>
   <text transform="translate(496.28,390) rotate(-0,9,-13)" font-family="CMU Serif" font-weight="normal" font-size="18" xml:space="preserve" font-style="normal">
    <tspan x="0 9 " y="-0" fill="rgb(38,38,38)">20</tspan>
   </text>
   <polyline stroke-width="0.5" points="92.0084,363.496 505.28,363.496" stroke-linejoin="miter" stroke-opacity="0.15" stroke="#262626" stroke-dasharray="16,0" stroke-linecap="butt" fill="none"/>
   <polyline stroke-width="0.5" points="92.0084,310.313 505.28,310.313" stroke-linejoin="miter" stroke-opacity="0.15" stroke="#262626" stroke-dasharray="16,0" stroke-linecap="butt" fill="none"/>
   <polyline stroke-width="0.5" points="92.0084,257.131 505.28,257.131" stroke-linejoin="miter" stroke-opacity="0.15" stroke="#262626" stroke-dasharray="16,0" stroke-linecap="butt" fill="none"/>
   <polyline stroke-width="0.5" points="92.0084,203.948 505.28,203.948" stroke-linejoin="miter" stroke-opacity="0.15" stroke="#262626" stroke-dasharray="16,0" stroke-linecap="butt" fill="none"/>
   <polyline stroke-width="0.5" points="92.0084,150.765 505.28,150.765" stroke-linejoin="miter" stroke-opacity="0.15" stroke="#262626" stroke-dasharray="16,0" stroke-linecap="butt" fill="none"/>
   <polyline stroke-width="0.5" points="92.0084,97.5826 505.28,97.5826" stroke-linejoin="miter" stroke-opacity="0.15" stroke="#262626" stroke-dasharray="16,0" stroke-linecap="butt" fill="none"/>
   <polyline stroke-width="0.5" points="92.0084,44.4 505.28,44.4" stroke-linejoin="miter" stroke-opacity="0.15" stroke="#262626" stroke-dasharray="16,0" stroke-linecap="butt" fill="none"/>
   <polyline stroke-width="0.5" points="92.0084,363.496 96.1438,363.496" stroke-linejoin="miter" stroke="#262626" stroke-linecap="butt" fill="none"/>
   <polyline stroke-width="0.5" points="505.28,363.496 501.145,363.496" stroke-linejoin="miter" stroke="#262626" stroke-linecap="butt" fill="none"/>
   <polyline stroke-width="0.5" points="92.0084,310.313 96.1438,310.313" stroke-linejoin="miter" stroke="#262626" stroke-linecap="butt" fill="none"/>
   <polyline stroke-width="0.5" points="505.28,310.313 501.145,310.313" stroke-linejoin="miter" stroke="#262626" stroke-linecap="butt" fill="none"/>
   <polyline stroke-width="0.5" points="92.0084,257.131 96.1438,257.131" stroke-linejoin="miter" stroke="#262626" stroke-linecap="butt" fill="none"/>
   <polyline stroke-width="0.5" points="505.28,257.131 501.145,257.131" stroke-linejoin="miter" stroke="#262626" stroke-linecap="butt" fill="none"/>
   <polyline stroke-width="0.5" points="92.0084,203.948 96.1438,203.948" stroke-linejoin="miter" stroke="#262626" stroke-linecap="butt" fill="none"/>
   <polyline stroke-width="0.5" points="505.28,203.948 501.145,203.948" stroke-linejoin="miter" stroke="#262626" stroke-linecap="butt" fill="none"/>
   <polyline stroke-width="0.5" points="92.0084,150.765 96.1438,150.765" stroke-linejoin="miter" stroke="#262626" stroke-linecap="butt" fill="none"/>
   <polyline stroke-width="0.5" points="505.28,150.765 501.145,150.765" stroke-linejoin="miter" stroke="#262626" stroke-linecap="butt" fill="none"/>
   <polyline stroke-width="0.5" points="92.0084,97.5826 96.1438,97.5826" stroke-linejoin="miter" stroke="#262626" stroke-linecap="butt" fill="none"/>
   <polyline stroke-width="0.5" points="505.28,97.5826 501.145,97.5826" stroke-linejoin="miter" stroke="#262626" stroke-linecap="butt" fill="none"/>
   <polyline stroke-width="0.5" points="92.0084,44.4 96.1438,44.4" stroke-linejoin="miter" stroke="#262626" stroke-linecap="butt" fill="none"/>
   <polyline stroke-width="0.5" points="505.28,44.4 501.145,44.4" stroke-linejoin="miter" stroke="#262626" stroke-linecap="butt" fill="none"/>
   <text transform="translate(74.0025,369.996) rotate(-0,9,-6.5)" font-family="CMU Serif" font-weight="normal" font-size="18" xml:space="preserve" font-style="normal">
    <tspan x="0 " y="-0" fill="rgb(38,38,38)">0</tspan>
   </text>
   <text transform="translate(47.0025,316.813) rotate(-0,36,-6.5)" font-family="CMU Serif" font-weight="normal" font-size="18" xml:space="preserve" font-style="normal">
    <tspan x="0 9 18 27 " y="-0" fill="rgb(38,38,38)">2000</tspan>
   </text>
   <text transform="translate(47.0025,263.631) rotate(-0,36,-6.5)" font-family="CMU Serif" font-weight="normal" font-size="18" xml:space="preserve" font-style="normal">
    <tspan x="0 9 18 27 " y="-0" fill="rgb(38,38,38)">4000</tspan>
   </text>
   <text transform="translate(47.0025,210.448) rotate(-0,36,-6.5)" font-family="CMU Serif" font-weight="normal" font-size="18" xml:space="preserve" font-style="normal">
    <tspan x="0 9 18 27 " y="-0" fill="rgb(38,38,38)">6000</tspan>
   </text>
   <text transform="translate(47.0025,157.265) rotate(-0,36,-6.5)" font-family="CMU Serif" font-weight="normal" font-size="18" xml:space="preserve" font-style="normal">
    <tspan x="0 9 18 27 " y="-0" fill="rgb(38,38,38)">8000</tspan>
   </text>
   <text transform="translate(38.0025,104.083) rotate(-0,45,-6.5)" font-family="CMU Serif" font-weight="normal" font-size="18" xml:space="preserve" font-style="normal">
    <tspan x="0 9 18 27 36 " y="-0" fill="rgb(38,38,38)">10000</tspan>
   </text>
   <text transform="translate(38.0025,50.9) rotate(-0,45,-6.5)" font-family="CMU Serif" font-weight="normal" font-size="18" xml:space="preserve" font-style="normal">
    <tspan x="0 9 18 27 36 " y="-0" fill="rgb(38,38,38)">12000</tspan>
   </text>
   <polyline stroke-width="0.5" points="92.0084,363.496 505.28,363.496" stroke-linejoin="miter" stroke="#262626" stroke-dasharray="16,0" stroke-linecap="square" fill="none"/>
   <polyline stroke-width="0.5" points="92.0084,44.4 505.28,44.4" stroke-linejoin="miter" stroke="#262626" stroke-dasharray="16,0" stroke-linecap="square" fill="none"/>
   <polyline stroke-width="0.5" points="92.0084,363.496 92.0084,44.4" stroke-linejoin="miter" stroke="#262626" stroke-dasharray="16,0" stroke-linecap="square" fill="none"/>
   <polyline stroke-width="0.5" points="505.28,363.496 505.28,44.4" stroke-linejoin="miter" stroke="#262626" stroke-dasharray="16,0" stroke-linecap="square" fill="none"/>
   <text transform="translate(266.144,432) rotate(-0,32.5,-37)" font-family="CMU Serif" font-weight="normal" font-size="19.8" xml:space="preserve" font-style="normal">
    <tspan x="0 " y="-20" fill="rgb(38,38,38)">h</tspan>
    <tspan font-size="17.8" x="11 " y="-4" fill="rgb(38,38,38)">g</tspan>
    <tspan x="20 27 33 42 59 " y="-20" fill="rgb(38,38,38)"> [cm]</tspan>
   </text>
   <text transform="translate(-4.49755,203.948) rotate(-90,37.5,0)" font-family="CMU Serif" font-weight="normal" font-size="19.8" xml:space="preserve" font-style="normal">
    <tspan x="0 " y="-16" fill="rgb(38,38,38)">F</tspan>
    <tspan font-size="17.8" x="13 " y="-0" fill="rgb(38,38,38)">t</tspan>
    <tspan x="20 27 33 44 54 69 " y="-16" fill="rgb(38,38,38)"> [daN]</tspan>
   </text>
   <polyline stroke-width="3" points="92.0084,354.757 92.2398,354.553 92.4713,354.349 92.7027,354.146 92.9341,353.942 93.1655,353.738 93.397,353.534 93.6284,353.33 93.8598,353.126 94.0913,352.922 94.3227,352.718 94.5541,352.514 94.7856,352.31 95.017,352.106 95.2484,351.902 95.4799,351.698 95.7113,351.494 95.9427,351.29 96.1742,351.086 96.4056,350.882 96.637,350.678 96.8685,350.474 97.0999,350.27 97.3313,350.066 97.5628,349.862 97.7942,349.658 98.0256,349.454 98.257,349.25 98.4885,349.046 98.7199,348.842 98.9514,348.638 99.1828,348.433 99.4142,348.229 99.6457,348.025 99.8771,347.821 100.109,347.617 100.34,347.413 100.571,347.208 100.803,347.004 101.034,346.8 101.266,346.596 101.497,346.392 101.729,346.187 101.96,345.983 102.191,345.779 102.423,345.574 102.654,345.37 102.886,345.166 103.117,344.962 103.349,344.757 103.58,344.553 103.811,344.348 104.043,344.144 104.274,343.94 104.506,343.735 104.737,343.531 104.969,343.326 105.2,343.122 105.431,342.917 105.663,342.713 105.894,342.508 106.126,342.304 106.357,342.099 106.589,341.895 106.82,341.69 107.051,341.485 107.283,341.281 107.514,341.076 107.746,340.871 107.977,340.667 108.209,340.462 108.44,340.257 108.672,340.053 108.903,339.848 109.134,339.643 109.366,339.438 109.597,339.233 109.829,339.028 110.06,338.824 110.292,338.619 110.523,338.414 110.754,338.209 110.986,338.004 111.217,337.799 111.449,337.594 111.68,337.389 111.912,337.184 112.143,336.979 112.374,336.773 112.606,336.568 112.837,336.363 113.069,336.158 113.3,335.953 113.532,335.748 113.763,335.542 113.994,335.337 114.226,335.132 114.457,334.926 114.689,334.721 114.92,334.516 115.152,334.31 115.383,334.105 115.614,333.899 115.846,333.694 116.077,333.488 116.309,333.283 116.54,333.077 116.772,332.871 117.003,332.666 117.234,332.46 117.466,332.254 117.697,332.049 117.929,331.843 118.16,331.637 118.392,331.431 118.623,331.225 118.855,331.02 119.086,330.814 119.317,330.608 119.549,330.402 119.78,330.196 120.012,329.99 120.243,329.784 120.475,329.578 120.706,329.371 120.937,329.165 121.169,328.959 121.4,328.753 121.632,328.546 121.863,328.34 122.095,328.134 122.326,327.927 122.557,327.721 122.789,327.515 123.02,327.308 123.252,327.102 123.483,326.895 123.715,326.688 123.946,326.482 124.177,326.275 124.409,326.069 124.64,325.862 124.872,325.655 125.103,325.448 125.335,325.241 125.566,325.034 125.797,324.828 126.029,324.621 126.26,324.414 126.492,324.207 126.723,324 126.955,323.792 127.186,323.585 127.417,323.378 127.649,323.171 127.88,322.964 128.112,322.756 128.343,322.549 128.575,322.341 128.806,322.134 129.038,321.927 129.269,321.719 129.5,321.512 129.732,321.304 129.963,321.096 130.195,320.889 130.426,320.681 130.658,320.473 130.889,320.265 131.12,320.057 131.352,319.85 131.583,319.642 131.815,319.434 132.046,319.226 132.278,319.018 132.509,318.809 132.74,318.601 132.972,318.393 133.203,318.185 133.435,317.976 133.666,317.768 133.898,317.56 134.129,317.351 134.36,317.143 134.592,316.934 134.823,316.726 135.055,316.517 135.286,316.308 135.518,316.1 135.749,315.891 135.98,315.682 136.212,315.473 136.443,315.264 136.675,315.055 136.906,314.846 137.138,314.637 137.369,314.428 137.601,314.219 137.832,314.01 138.063,313.8 138.295,313.591 138.526,313.382 138.758,313.172 138.989,312.963 139.221,312.753 139.452,312.544 139.683,312.334 139.915,312.124 140.146,311.915 140.378,311.705 140.609,311.495 140.841,311.285 141.072,311.075 141.303,310.865 141.535,310.655 141.766,310.445 141.998,310.235 142.229,310.025 142.461,309.814 142.692,309.604 142.923,309.394 143.155,309.183 143.386,308.973 143.618,308.762 143.849,308.552 144.081,308.341 144.312,308.13 144.543,307.919 144.775,307.709 145.006,307.498 145.238,307.287 145.469,307.076 145.701,306.865 145.932,306.654 146.163,306.442 146.395,306.231 146.626,306.02 146.858,305.809 147.089,305.597 147.321,305.386 147.552,305.174 147.784,304.962 148.015,304.751 148.246,304.539 148.478,304.327 148.709,304.115 148.941,303.904 149.172,303.692 149.404,303.48 149.635,303.267 149.866,303.055 150.098,302.843 150.329,302.631 150.561,302.418 150.792,302.206 151.024,301.994 151.255,301.781 151.486,301.568 151.718,301.356 151.949,301.143 152.181,300.93 152.412,300.717 152.644,300.504 152.875,300.291 153.106,300.078 153.338,299.865 153.569,299.652 153.801,299.439 154.032,299.225 154.264,299.012 154.495,298.799 154.726,298.585 154.958,298.371 155.189,298.158 155.421,297.944 155.652,297.73 155.884,297.516 156.115,297.302 156.347,297.088 156.578,296.874 156.809,296.66 157.041,296.446 157.272,296.232 157.504,296.017 157.735,295.803 157.967,295.588 158.198,295.374 158.429,295.159 158.661,294.945 158.892,294.73 159.124,294.515 159.355,294.3 159.587,294.085 159.818,293.87 160.049,293.655 160.281,293.439 160.512,293.224 160.744,293.009 160.975,292.793 161.207,292.578 161.438,292.362 161.669,292.147 161.901,291.931 162.132,291.715 162.364,291.499 162.595,291.283 162.827,291.067 163.058,290.851 163.289,290.635 163.521,290.419 163.752,290.202 163.984,289.986 164.215,289.769 164.447,289.553 164.678,289.336 164.91,289.119 165.141,288.902 165.372,288.686 165.604,288.469 165.835,288.251 166.067,288.034 166.298,287.817 166.53,287.6 166.761,287.382 166.992,287.165 167.224,286.947 167.455,286.73 167.687,286.512 167.918,286.294 168.15,286.077 168.381,285.859 168.612,285.641 168.844,285.422 169.075,285.204 169.307,284.986 169.538,284.768 169.77,284.549 170.001,284.331 170.232,284.112 170.464,283.893 170.695,283.675 170.927,283.456 171.158,283.237 171.39,283.018 171.621,282.799 171.852,282.579 172.084,282.36 172.315,282.141 172.547,281.921 172.778,281.702 173.01,281.482 173.241,281.263 173.472,281.043 173.704,280.823 173.935,280.603 174.167,280.383 174.398,280.163 174.63,279.942 174.861,279.722 175.093,279.502 175.324,279.281 175.555,279.061 175.787,278.84 176.018,278.619 176.25,278.398 176.481,278.177 176.713,277.956 176.944,277.735 177.175,277.514 177.407,277.293 177.638,277.071 177.87,276.85 178.101,276.628 178.333,276.406 178.564,276.185 178.795,275.963 179.027,275.741 179.258,275.519 179.49,275.297 179.721,275.074 179.953,274.852 180.184,274.63 180.415,274.407 180.647,274.185 180.878,273.962 181.11,273.739 181.341,273.516 181.573,273.293 181.804,273.07 182.035,272.847 182.267,272.624 182.498,272.4 182.73,272.177 182.961,271.953 183.193,271.73 183.424,271.506 183.656,271.282 183.887,271.058 184.118,270.834 184.35,270.61 184.581,270.386 184.813,270.161 185.044,269.937 185.276,269.712 185.507,269.488 185.738,269.263 185.97,269.038 186.201,268.813 186.433,268.588 186.664,268.363 186.896,268.138 187.127,267.912 187.358,267.687 187.59,267.461 187.821,267.236 188.053,267.01 188.284,266.784 188.516,266.558 188.747,266.332 188.978,266.106 189.21,265.88 189.441,265.653 189.673,265.427 189.904,265.2 190.136,264.973 190.367,264.747 190.598,264.52 190.83,264.293 191.061,264.066 191.293,263.838 191.524,263.611 191.756,263.384 191.987,263.156 192.218,262.929 192.45,262.701 192.681,262.473 192.913,262.245 193.144,262.017 193.376,261.789 193.607,261.561 193.839,261.332 194.07,261.104 194.301,260.875 194.533,260.646 194.764,260.418 194.996,260.189 195.227,259.96 195.459,259.73 195.69,259.501 195.921,259.272 196.153,259.042 196.384,258.813 196.616,258.583 196.847,258.353 197.079,258.123 197.31,257.893 197.541,257.663 197.773,257.433 198.004,257.203 198.236,256.972 198.467,256.742 198.699,256.511 198.93,256.28 199.161,256.049 199.393,255.818 199.624,255.587 199.856,255.356 200.087,255.124 200.319,254.893 200.55,254.661 200.781,254.429 201.013,254.198 201.244,253.966 201.476,253.734 201.707,253.501 201.939,253.269 202.17,253.037 202.402,252.804 202.633,252.572 202.864,252.339 203.096,252.106 203.327,251.873 203.559,251.64 203.79,251.406 204.022,251.173 204.253,250.94 204.484,250.706 204.716,250.472 204.947,250.238 205.179,250.005 205.41,249.77 205.642,249.536 205.873,249.302 206.104,249.068 206.336,248.833 206.567,248.598 206.799,248.363 207.03,248.129 207.262,247.894 207.493,247.658 207.724,247.423 207.956,247.188 208.187,246.952 208.419,246.716 208.65,246.481 208.882,246.245 209.113,246.009 209.344,245.773 209.576,245.536 209.807,245.3 210.039,245.063 210.27,244.827 210.502,244.59 210.733,244.353 210.964,244.116 211.196,243.879 211.427,243.642 211.659,243.404 211.89,243.167 212.122,242.929 212.353,242.691 212.585,242.453 212.816,242.215 213.047,241.977 213.279,241.739 213.51,241.501 213.742,241.262 213.973,241.023 214.205,240.785 214.436,240.546 214.667,240.307 214.899,240.067 215.13,239.828 215.362,239.589 215.593,239.349 215.825,239.109 216.056,238.869 216.287,238.629 216.519,238.389 216.75,238.149 216.982,237.909 217.213,237.668 217.445,237.428 217.676,237.187 217.907,236.946 218.139,236.705 218.37,236.464 218.602,236.223 218.833,235.981 219.065,235.74 219.296,235.498 219.527,235.256 219.759,235.014 219.99,234.772 220.222,234.53 220.453,234.287 220.685,234.045 220.916,233.802 221.148,233.559 221.379,233.316 221.61,233.073 221.842,232.83 222.073,232.587 222.305,232.343 222.536,232.1 222.768,231.856 222.999,231.612 223.23,231.368 223.462,231.124 223.693,230.88 223.925,230.635 224.156,230.391 224.388,230.146 224.619,229.901 224.85,229.656 225.082,229.411 225.313,229.166 225.545,228.921 225.776,228.675 226.008,228.429 226.239,228.183 226.47,227.938 226.702,227.691 226.933,227.445 227.165,227.199 227.396,226.952 227.628,226.706 227.859,226.459 228.09,226.212 228.322,225.965 228.553,225.717 228.785,225.47 229.016,225.222 229.248,224.975 229.479,224.727 229.71,224.479 229.942,224.231 230.173,223.983 230.405,223.734 230.636,223.486 230.868,223.237 231.099,222.988 231.331,222.739 231.562,222.49 231.793,222.241 232.025,221.991 232.256,221.742 232.488,221.492 232.719,221.242 232.951,220.992 233.182,220.742 233.413,220.492 233.645,220.241 233.876,219.99 234.108,219.74 234.339,219.489 234.571,219.238 234.802,218.986 235.033,218.735 235.265,218.484 235.496,218.232 235.728,217.98 235.959,217.728 236.191,217.476 236.422,217.224 236.653,216.971 236.885,216.719 237.116,216.466 237.348,216.213 237.579,215.96 237.811,215.707 238.042,215.454 238.273,215.2 238.505,214.946 238.736,214.693 238.968,214.439 239.199,214.185 239.431,213.93 239.662,213.676 239.893,213.421 240.125,213.167 240.356,212.912 240.588,212.657 240.819,212.401 241.051,212.146 241.282,211.891 241.514,211.635 241.745,211.379 241.976,211.123 242.208,210.867 242.439,210.611 242.671,210.354 242.902,210.098 243.134,209.841 243.365,209.584 243.596,209.327 243.828,209.069 244.059,208.812 244.291,208.554 244.522,208.297 244.754,208.039 244.985,207.781 245.216,207.523 245.448,207.264 245.679,207.006 245.911,206.747 246.142,206.488 246.374,206.229 246.605,205.97 246.836,205.711 247.068,205.451 247.299,205.191 247.531,204.932 247.762,204.672 247.994,204.411 248.225,204.151 248.456,203.891 248.688,203.63 248.919,203.369 249.151,203.108 249.382,202.847 249.614,202.586 249.845,202.324 250.077,202.063 250.308,201.801 250.539,201.539 250.771,201.277 251.002,201.014 251.234,200.752 251.465,200.489 251.697,200.226 251.928,199.963 252.159,199.7 252.391,199.437 252.622,199.174 252.854,198.91 253.085,198.646 253.317,198.382 253.548,198.118 253.779,197.854 254.011,197.589 254.242,197.324 254.474,197.06 254.705,196.795 254.937,196.529 255.168,196.264 255.399,195.999 255.631,195.733 255.862,195.467 256.094,195.201 256.325,194.935 256.557,194.668 256.788,194.402 257.019,194.135 257.251,193.868 257.482,193.601 257.714,193.334 257.945,193.067 258.177,192.799 258.408,192.531 258.64,192.263 258.871,191.995 259.102,191.727 259.334,191.458 259.565,191.19 259.797,190.921 260.028,190.652 260.26,190.383 260.491,190.113 260.722,189.844 260.954,189.574 261.185,189.304 261.417,189.034 261.648,188.764 261.88,188.494 262.111,188.223 262.342,187.952 262.574,187.681 262.805,187.41 263.037,187.139 263.268,186.867 263.5,186.596 263.731,186.324 263.962,186.052 264.194,185.78 264.425,185.507 264.657,185.235 264.888,184.962 265.12,184.689 265.351,184.416 265.582,184.143 265.814,183.869 266.045,183.596 266.277,183.322 266.508,183.048 266.74,182.774 266.971,182.499 267.203,182.225 267.434,181.95 267.665,181.675 267.897,181.4 268.128,181.125 268.36,180.849 268.591,180.573 268.823,180.298 269.054,180.022 269.285,179.745 269.517,179.469 269.748,179.192 269.98,178.916 270.211,178.639 270.443,178.361 270.674,178.084 270.905,177.807 271.137,177.529 271.368,177.251 271.6,176.973 271.831,176.695 272.063,176.416 272.294,176.137 272.525,175.859 272.757,175.58 272.988,175.3 273.22,175.021 273.451,174.741 273.683,174.462 273.914,174.182 274.145,173.901 274.377,173.621 274.608,173.34 274.84,173.06 275.071,172.779 275.303,172.498 275.534,172.216 275.766,171.935 275.997,171.653 276.228,171.371 276.46,171.089 276.691,170.807 276.923,170.524 277.154,170.242 277.385,169.959 277.617,169.676 277.848,169.393 278.08,169.109 278.311,168.826 278.543,168.542 278.774,168.258 279.006,167.973 279.237,167.689 279.468,167.404 279.7,167.12 279.931,166.835 280.163,166.549 280.394,166.264 280.626,165.978 280.857,165.693 281.088,165.407 281.32,165.12 281.551,164.834 281.783,164.547 282.014,164.261 282.246,163.974 282.477,163.686 282.708,163.399 282.94,163.111 283.171,162.824 283.403,162.536 283.634,162.247 283.866,161.959 284.097,161.671 284.328,161.382 284.56,161.093 284.791,160.804 285.023,160.514 285.254,160.225 285.486,159.935 285.717,159.645 285.948,159.355 286.18,159.064 286.411,158.774 286.643,158.483 286.874,158.192 287.106,157.901 287.337,157.609 287.569,157.318 287.8,157.026 288.031,156.734 288.263,156.441 288.494,156.149 288.726,155.856 288.957,155.564 289.189,155.27 289.42,154.977 289.651,154.684 289.883,154.39 290.114,154.096 290.346,153.802 290.577,153.508 290.809,153.213 291.04,152.919 291.271,152.624 291.503,152.328 291.734,152.033 291.966,151.738 292.197,151.442 292.429,151.146 292.66,150.85 292.891,150.553 293.123,150.257 293.354,149.96 293.586,149.663 293.817,149.366 294.049,149.068 294.28,148.771 294.512,148.473 294.743,148.175 294.974,147.876 295.206,147.578 295.437,147.279 295.669,146.98 295.9,146.681 296.132,146.382 296.363,146.082 296.594,145.782 296.826,145.482 297.057,145.182 297.289,144.882 297.52,144.581 297.752,144.28 297.983,143.979 298.214,143.678 298.446,143.377 298.677,143.075 298.909,142.773 299.14,142.471 299.372,142.168 299.603,141.866 299.834,141.563 300.066,141.26 300.297,140.957 300.529,140.653 300.76,140.35 300.992,140.046 301.223,139.742 301.454,139.437 301.686,139.133 301.917,138.828 302.149,138.523 302.38,138.218 302.612,137.913 302.843,137.607 303.074,137.301 303.306,136.995 303.537,136.689 303.769,136.382 304,136.076 304.232,135.769 304.463,135.461 304.694,135.154 304.926,134.846 305.157,134.539 305.389,134.231 305.62,133.922 305.852,133.614 306.083,133.305 306.315,132.996 306.546,132.687 306.777,132.377 307.009,132.068 307.24,131.758 307.472,131.448 307.703,131.138 307.935,130.827 308.166,130.516 308.397,130.205 308.629,129.894 308.86,129.583 309.092,129.271 309.323,128.959 309.555,128.647 309.786,128.335 310.017,128.022 310.249,127.709 310.48,127.396 310.712,127.083 310.943,126.77 311.175,126.456 311.406,126.142 311.637,125.828 311.869,125.513 312.1,125.199 312.332,124.884 312.563,124.569 312.795,124.254 313.026,123.938 313.257,123.622 313.489,123.306 313.72,122.99 313.952,122.674 314.183,122.357 314.415,122.04 314.646,121.723 314.878,121.405 315.109,121.088 315.34,120.77 315.572,120.452 315.803,120.134 316.035,119.815 316.266,119.496 316.498,119.177 316.729,118.858 316.96,118.538 317.192,118.219 317.423,117.899 317.655,117.579 317.886,117.258 318.118,116.937 318.349,116.617 318.58,116.295 318.812,115.974 319.043,115.652 319.275,115.331 319.506,115.008 319.738,114.686 319.969,114.364 320.2,114.041 320.432,113.718 320.663,113.395 320.895,113.071 321.126,112.747 321.358,112.423 321.589,112.099 321.82,111.775 322.052,111.45 322.283,111.125 322.515,110.8 322.746,110.474 322.978,110.149 323.209,109.823 323.44,109.496" stroke-linejoin="round" stroke="#0071bc" stroke-linecap="butt" fill="none"/>
   <polygon shape-rendering="crispEdges" points="302.501,144.523 301.391,145.915 299.787,146.688 298.007,146.688 296.403,145.915 295.293,144.523 294.897,142.788 295.293,141.052 296.403,139.661 298.007,138.888 299.787,138.888 301.391,139.661 302.501,141.052 302.897,142.788" fill="#ffffff"/>
   <polyline stroke-width="3" points="302.897,142.788 302.501,144.523 301.391,145.915 299.787,146.688 298.007,146.688 296.403,145.915 295.293,144.523 294.897,142.788 295.293,141.052 296.403,139.661 298.007,138.888 299.787,138.888 301.391,139.661 302.501,141.052 302.897,142.788" stroke-linejoin="round" stroke="#0071bc" stroke-linecap="round" fill="none"/>
   <polyline stroke-width="3" points="92.0084,353.707 92.3845,353.479 92.7605,353.25 93.1366,353.022 93.5127,352.793 93.8888,352.565 94.2649,352.336 94.6409,352.108 95.017,351.88 95.3931,351.651 95.7692,351.423 96.1452,351.194 96.5213,350.966 96.8974,350.737 97.2735,350.509 97.6495,350.28 98.0256,350.051 98.4017,349.823 98.7778,349.594 99.1539,349.366 99.5299,349.137 99.906,348.909 100.282,348.68 100.658,348.451 101.034,348.223 101.41,347.994 101.786,347.765 102.162,347.537 102.539,347.308 102.915,347.079 103.291,346.85 103.667,346.622 104.043,346.393 104.419,346.164 104.795,345.935 105.171,345.706 105.547,345.478 105.923,345.249 106.299,345.02 106.675,344.791 107.051,344.562 107.428,344.333 107.804,344.104 108.18,343.875 108.556,343.646 108.932,343.417 109.308,343.188 109.684,342.959 110.06,342.73 110.436,342.5 110.812,342.271 111.188,342.042 111.564,341.813 111.94,341.584 112.317,341.354 112.693,341.125 113.069,340.896 113.445,340.666 113.821,340.437 114.197,340.208 114.573,339.978 114.949,339.749 115.325,339.519 115.701,339.29 116.077,339.06 116.453,338.831 116.829,338.601 117.206,338.371 117.582,338.142 117.958,337.912 118.334,337.682 118.71,337.452 119.086,337.223 119.462,336.993 119.838,336.763 120.214,336.533 120.59,336.303 120.966,336.073 121.342,335.843 121.718,335.613 122.095,335.383 122.471,335.153 122.847,334.922 123.223,334.692 123.599,334.462 123.975,334.232 124.351,334.001 124.727,333.771 125.103,333.541 125.479,333.31 125.855,333.08 126.231,332.849 126.607,332.619 126.984,332.388 127.36,332.157 127.736,331.927 128.112,331.696 128.488,331.465 128.864,331.234 129.24,331.003 129.616,330.773 129.992,330.542 130.368,330.311 130.744,330.08 131.12,329.848 131.496,329.617 131.873,329.386 132.249,329.155 132.625,328.924 133.001,328.692 133.377,328.461 133.753,328.23 134.129,327.998 134.505,327.767 134.881,327.535 135.257,327.303 135.633,327.072 136.009,326.84 136.385,326.608 136.762,326.376 137.138,326.144 137.514,325.913 137.89,325.681 138.266,325.448 138.642,325.216 139.018,324.984 139.394,324.752 139.77,324.52 140.146,324.287 140.522,324.055 140.898,323.823 141.275,323.59 141.651,323.358 142.027,323.125 142.403,322.892 142.779,322.66 143.155,322.427 143.531,322.194 143.907,321.961 144.283,321.728 144.659,321.495 145.035,321.262 145.411,321.029 145.787,320.796 146.163,320.563 146.54,320.329 146.916,320.096 147.292,319.862 147.668,319.629 148.044,319.395 148.42,319.162 148.796,318.928 149.172,318.694 149.548,318.46 149.924,318.227 150.3,317.993 150.676,317.759 151.053,317.524 151.429,317.29 151.805,317.056 152.181,316.822 152.557,316.587 152.933,316.353 153.309,316.119 153.685,315.884 154.061,315.649 154.437,315.415 154.813,315.18 155.189,314.945 155.565,314.71 155.942,314.475 156.318,314.24 156.694,314.005 157.07,313.77 157.446,313.534 157.822,313.299 158.198,313.064 158.574,312.828 158.95,312.592 159.326,312.357 159.702,312.121 160.078,311.885 160.454,311.649 160.831,311.413 161.207,311.177 161.583,310.941 161.959,310.705 162.335,310.469 162.711,310.232 163.087,309.996 163.463,309.759 163.839,309.523 164.215,309.286 164.591,309.049 164.967,308.813 165.343,308.576 165.72,308.339 166.096,308.102 166.472,307.864 166.848,307.627 167.224,307.39 167.6,307.152 167.976,306.915 168.352,306.677 168.728,306.44 169.104,306.202 169.48,305.964 169.856,305.726 170.232,305.488 170.609,305.25 170.985,305.012 171.361,304.773 171.737,304.535 172.113,304.297 172.489,304.058 172.865,303.819 173.241,303.581 173.617,303.342 173.993,303.103 174.369,302.864 174.745,302.625 175.121,302.386 175.498,302.146 175.874,301.907 176.25,301.668 176.626,301.428 177.002,301.188 177.378,300.949 177.754,300.709 178.13,300.469 178.506,300.229 178.882,299.989 179.258,299.749 179.634,299.508 180.01,299.268 180.387,299.027 180.763,298.787 181.139,298.546 181.515,298.305 181.891,298.064 182.267,297.823 182.643,297.582 183.019,297.341 183.395,297.1 183.771,296.858 184.147,296.617 184.523,296.375 184.899,296.133 185.276,295.892 185.652,295.65 186.028,295.408 186.404,295.166 186.78,294.923 187.156,294.681 187.532,294.439 187.908,294.196 188.284,293.953 188.66,293.711 189.036,293.468 189.412,293.225 189.788,292.982 190.165,292.738 190.541,292.495 190.917,292.252 191.293,292.008 191.669,291.765 192.045,291.521 192.421,291.277 192.797,291.033 193.173,290.789 193.549,290.545 193.925,290.301 194.301,290.056 194.677,289.812 195.054,289.567 195.43,289.322 195.806,289.078 196.182,288.833 196.558,288.588 196.934,288.342 197.31,288.097 197.686,287.852 198.062,287.606 198.438,287.36 198.814,287.115 199.19,286.869 199.566,286.623 199.943,286.377 200.319,286.13 200.695,285.884 201.071,285.638 201.447,285.391 201.823,285.144 202.199,284.898 202.575,284.651 202.951,284.404 203.327,284.156 203.703,283.909 204.079,283.662 204.455,283.414 204.832,283.166 205.208,282.918 205.584,282.671 205.96,282.423 206.336,282.174 206.712,281.926 207.088,281.678 207.464,281.429 207.84,281.18 208.216,280.932 208.592,280.683 208.968,280.434 209.344,280.184 209.721,279.935 210.097,279.686 210.473,279.436 210.849,279.186 211.225,278.936 211.601,278.687 211.977,278.436 212.353,278.186 212.729,277.936 213.105,277.685 213.481,277.435 213.857,277.184 214.233,276.933 214.61,276.682 214.986,276.431 215.362,276.18 215.738,275.928 216.114,275.677 216.49,275.425 216.866,275.173 217.242,274.921 217.618,274.669 217.994,274.417 218.37,274.164 218.746,273.912 219.122,273.659 219.499,273.407 219.875,273.154 220.251,272.901 220.627,272.647 221.003,272.394 221.379,272.141 221.755,271.887 222.131,271.633 222.507,271.379 222.883,271.125 223.259,270.871 223.635,270.617 224.011,270.362 224.388,270.108 224.764,269.853 225.14,269.598 225.516,269.343 225.892,269.088 226.268,268.832 226.644,268.577 227.02,268.321 227.396,268.065 227.772,267.81 228.148,267.553 228.524,267.297 228.9,267.041 229.277,266.784 229.653,266.528 230.029,266.271 230.405,266.014 230.781,265.757 231.157,265.5 231.533,265.242 231.909,264.985 232.285,264.727 232.661,264.469 233.037,264.211 233.413,263.953 233.789,263.694 234.166,263.436 234.542,263.177 234.918,262.919 235.294,262.66 235.67,262.401 236.046,262.141 236.422,261.882 236.798,261.622 237.174,261.363 237.55,261.103 237.926,260.843 238.302,260.582 238.678,260.322 239.055,260.062 239.431,259.801 239.807,259.54 240.183,259.279 240.559,259.018 240.935,258.757 241.311,258.495 241.687,258.234 242.063,257.972 242.439,257.71 242.815,257.448 243.191,257.185 243.567,256.923 243.944,256.66 244.32,256.398 244.696,256.135 245.072,255.872 245.448,255.608 245.824,255.345 246.2,255.081 246.576,254.817 246.952,254.554 247.328,254.289 247.704,254.025 248.08,253.761 248.456,253.496 248.833,253.231 249.209,252.966 249.585,252.701 249.961,252.436 250.337,252.171 250.713,251.905 251.089,251.639 251.465,251.373 251.841,251.107 252.217,250.841 252.593,250.574 252.969,250.308 253.346,250.041 253.722,249.774 254.098,249.507 254.474,249.239 254.85,248.972 255.226,248.704 255.602,248.436 255.978,248.168 256.354,247.9 256.73,247.631 257.106,247.363 257.482,247.094 257.858,246.825 258.234,246.556 258.611,246.287 258.987,246.017 259.363,245.748 259.739,245.478 260.115,245.208 260.491,244.938 260.867,244.667 261.243,244.397 261.619,244.126 261.995,243.855 262.371,243.584 262.747,243.313 263.124,243.041 263.5,242.769 263.876,242.498 264.252,242.226 264.628,241.953 265.004,241.681 265.38,241.408 265.756,241.136 266.132,240.863 266.508,240.589 266.884,240.316 267.26,240.043 267.636,239.769 268.013,239.495 268.389,239.221 268.765,238.947 269.141,238.672 269.517,238.397 269.893,238.123 270.269,237.848 270.645,237.572 271.021,237.297 271.397,237.021 271.773,236.745 272.149,236.469 272.525,236.193 272.902,235.917 273.278,235.64 273.654,235.363 274.03,235.087 274.406,234.809 274.782,234.532 275.158,234.254 275.534,233.977 275.91,233.699 276.286,233.421 276.662,233.142 277.038,232.864 277.414,232.585 277.79,232.306 278.167,232.027 278.543,231.747 278.919,231.468 279.295,231.188 279.671,230.908 280.047,230.628 280.423,230.348 280.799,230.067 281.175,229.786 281.551,229.505 281.927,229.224 282.303,228.943 282.68,228.661 283.056,228.38 283.432,228.098 283.808,227.815 284.184,227.533 284.56,227.25 284.936,226.968 285.312,226.685 285.688,226.401 286.064,226.118 286.44,225.834 286.816,225.55 287.192,225.266 287.569,224.982 287.945,224.698 288.321,224.413 288.697,224.128 289.073,223.843 289.449,223.558 289.825,223.272 290.201,222.986 290.577,222.7 290.953,222.414 291.329,222.128 291.705,221.841 292.081,221.554 292.458,221.267 292.834,220.98 293.21,220.693 293.586,220.405 293.962,220.117 294.338,219.829 294.714,219.541 295.09,219.252 295.466,218.964 295.842,218.675 296.218,218.385 296.594,218.096 296.97,217.806 297.347,217.517 297.723,217.227 298.099,216.936 298.475,216.646 298.851,216.355 299.227,216.064 299.603,215.773 299.979,215.482 300.355,215.19 300.731,214.898 301.107,214.606 301.483,214.314 301.859,214.021 302.236,213.729 302.612,213.436 302.988,213.142 303.364,212.849 303.74,212.555 304.116,212.262 304.492,211.967 304.868,211.673 305.244,211.379 305.62,211.084 305.996,210.789 306.372,210.494 306.748,210.198 307.125,209.902 307.501,209.607 307.877,209.31 308.253,209.014 308.629,208.717 309.005,208.421 309.381,208.124 309.757,207.826 310.133,207.529 310.509,207.231 310.885,206.933 311.261,206.635 311.637,206.336 312.014,206.038 312.39,205.739 312.766,205.439 313.142,205.14 313.518,204.84 313.894,204.54 314.27,204.24 314.646,203.94 315.022,203.639 315.398,203.339 315.774,203.038 316.15,202.736 316.526,202.435 316.903,202.133 317.279,201.831 317.655,201.529 318.031,201.226 318.407,200.923 318.783,200.62 319.159,200.317 319.535,200.014 319.911,199.71 320.287,199.406 320.663,199.102 321.039,198.797 321.415,198.493 321.792,198.188 322.168,197.882 322.544,197.577 322.92,197.271 323.296,196.965 323.672,196.659 324.048,196.353 324.424,196.046 324.8,195.739 325.176,195.432 325.552,195.125 325.928,194.817 326.304,194.509 326.681,194.201 327.057,193.892 327.433,193.584 327.809,193.275 328.185,192.966 328.561,192.656 328.937,192.347 329.313,192.037 329.689,191.727 330.065,191.416 330.441,191.105 330.817,190.794 331.193,190.483 331.57,190.172 331.946,189.86 332.322,189.548 332.698,189.236 333.074,188.923 333.45,188.611 333.826,188.298 334.202,187.985 334.578,187.671 334.954,187.357 335.33,187.043 335.706,186.729 336.082,186.414 336.459,186.1 336.835,185.785 337.211,185.469 337.587,185.154 337.963,184.838 338.339,184.522 338.715,184.205 339.091,183.889 339.467,183.572 339.843,183.255 340.219,182.937 340.595,182.62 340.971,182.302 341.348,181.983 341.724,181.665 342.1,181.346 342.476,181.027 342.852,180.708 343.228,180.388 343.604,180.068 343.98,179.748 344.356,179.428 344.732,179.107 345.108,178.786 345.484,178.465 345.86,178.144 346.237,177.822 346.613,177.5 346.989,177.178 347.365,176.855 347.741,176.533 348.117,176.21 348.493,175.886 348.869,175.563 349.245,175.239 349.621,174.915 349.997,174.59 350.373,174.265 350.749,173.94 351.126,173.615 351.502,173.29 351.878,172.964 352.254,172.638 352.63,172.311 353.006,171.985 353.382,171.658 353.758,171.331 354.134,171.003 354.51,170.675 354.886,170.347 355.262,170.019 355.638,169.691 356.015,169.362 356.391,169.033 356.767,168.703 357.143,168.373 357.519,168.043 357.895,167.713 358.271,167.383 358.647,167.052 359.023,166.721 359.399,166.389 359.775,166.057 360.151,165.725 360.527,165.393 360.904,165.061 361.28,164.728 361.656,164.395 362.032,164.061 362.408,163.728 362.784,163.394 363.16,163.059 363.536,162.725 363.912,162.39 364.288,162.055 364.664,161.719 365.04,161.384 365.416,161.047 365.793,160.711 366.169,160.375 366.545,160.038 366.921,159.701 367.297,159.363 367.673,159.025 368.049,158.687 368.425,158.349 368.801,158.01 369.177,157.671 369.553,157.332 369.929,156.993 370.306,156.653 370.682,156.313 371.058,155.972 371.434,155.631 371.81,155.29 372.186,154.949 372.562,154.607 372.938,154.266 373.314,153.923 373.69,153.581 374.066,153.238 374.442,152.895 374.818,152.552 375.195,152.208 375.571,151.864 375.947,151.52 376.323,151.175 376.699,150.83 377.075,150.485 377.451,150.139 377.827,149.793 378.203,149.447 378.579,149.101 378.955,148.754 379.331,148.407 379.707,148.06 380.083,147.712 380.46,147.364 380.836,147.016 381.212,146.667 381.588,146.319 381.964,145.969 382.34,145.62 382.716,145.27 383.092,144.92 383.468,144.569 383.844,144.219 384.22,143.868 384.596,143.516 384.973,143.165 385.349,142.813 385.725,142.461 386.101,142.108 386.477,141.755 386.853,141.402 387.229,141.048 387.605,140.694 387.981,140.34 388.357,139.986 388.733,139.631 389.109,139.276 389.485,138.92 389.862,138.565 390.238,138.209 390.614,137.852 390.99,137.496 391.366,137.139 391.742,136.781 392.118,136.424 392.494,136.066 392.87,135.707 393.246,135.349 393.622,134.99 393.998,134.631 394.374,134.271 394.751,133.911 395.127,133.551 395.503,133.191 395.879,132.83 396.255,132.469 396.631,132.107 397.007,131.745 397.383,131.383 397.759,131.021 398.135,130.658 398.511,130.295 398.887,129.931 399.263,129.568 399.64,129.203 400.016,128.839 400.392,128.474 400.768,128.109 401.144,127.744 401.52,127.378 401.896,127.012 402.272,126.646 402.648,126.279 403.024,125.912 403.4,125.545 403.776,125.177 404.152,124.809 404.529,124.44 404.905,124.072 405.281,123.703 405.657,123.333 406.033,122.964 406.409,122.594 406.785,122.223 407.161,121.853 407.537,121.482 407.913,121.11 408.289,120.739 408.665,120.366 409.041,119.994 409.418,119.621 409.794,119.248 410.17,118.875 410.546,118.501 410.922,118.127 411.298,117.753 411.674,117.378 412.05,117.003 412.426,116.628 412.802,116.252 413.178,115.876 413.554,115.499 413.93,115.123 414.307,114.745 414.683,114.368 415.059,113.99 415.435,113.612 415.811,113.234 416.187,112.855 416.563,112.476 416.939,112.096 417.315,111.716 417.691,111.336 418.067,110.955 418.443,110.575 418.819,110.193 419.196,109.812 419.572,109.43 419.948,109.048 420.324,108.665 420.7,108.282 421.076,107.899 421.452,107.515 421.828,107.131 422.204,106.747 422.58,106.362 422.956,105.977 423.332,105.591 423.708,105.206 424.085,104.819 424.461,104.433 424.837,104.046 425.213,103.659 425.589,103.271 425.965,102.884 426.341,102.495 426.717,102.107 427.093,101.718 427.469,101.328 427.845,100.939 428.221,100.549 428.597,100.158 428.974,99.7676 429.35,99.3765 429.726,98.9851 430.102,98.5933 430.478,98.2011 430.854,97.8086 431.23,97.4157 431.606,97.0225 431.982,96.6288 432.358,96.2349 432.734,95.8406 433.11,95.4459 433.486,95.0508 433.863,94.6554 434.239,94.2597 434.615,93.8635 434.991,93.467 435.367,93.0702 435.743,92.6729 436.119,92.2754 436.495,91.8774 436.871,91.4791 437.247,91.0804 437.623,90.6814 437.999,90.2819 438.375,89.8822 438.752,89.482 439.128,89.0815 439.504,88.6806 439.88,88.2794 440.256,87.8777 440.632,87.4758 441.008,87.0734 441.384,86.6707 441.76,86.2676 442.136,85.8641 442.512,85.4603 442.888,85.0561 443.264,84.6515 443.641,84.2466 444.017,83.8412 444.393,83.4355 444.769,83.0294 445.145,82.623 445.521,82.2162 445.897,81.809 446.273,81.4014 446.649,80.9935 447.025,80.5852 447.401,80.1765 447.777,79.7674 448.153,79.358 448.53,78.9482 448.906,78.538 449.282,78.1274 449.658,77.7164 450.034,77.3051 450.41,76.8933 450.786,76.4813 451.162,76.0688 451.538,75.6559 451.914,75.2427 452.29,74.8291 452.666,74.4151 453.042,74.0007 453.419,73.5859 453.795,73.1708 454.171,72.7552 454.547,72.3394 454.923,71.923 455.299,71.5063 455.675,71.0893 456.051,70.6718 456.427,70.254 456.803,69.8358 457.179,69.4172 457.555,68.9982 457.931,68.5788 458.308,68.159 458.684,67.7389 459.06,67.3184 459.436,66.8974 459.812,66.4761 460.188,66.0544 460.564,65.6323 460.94,65.2098 461.316,64.7869 461.692,64.3636 462.068,63.94 462.444,63.5159 462.82,63.0915 463.197,62.6666 463.573,62.2414 463.949,61.8158 464.325,61.3897 464.701,60.9634 465.077,60.5366 465.453,60.1093 465.829,59.6817 466.205,59.2538 466.581,58.8253 466.957,58.3966 467.333,57.9674 467.71,57.5378 468.086,57.1079" stroke-linejoin="round" stroke="#d85218" stroke-linecap="butt" fill="none"/>
   <polygon shape-rendering="crispEdges" points="405.684,128.569 404.574,129.96 402.97,130.733 401.19,130.733 399.586,129.96 398.476,128.569 398.08,126.833 398.476,125.098 399.586,123.706 401.19,122.933 402.97,122.933 404.574,123.706 405.684,125.098 406.08,126.833" fill="#ffffff"/>
   <polyline stroke-width="3" points="406.08,126.833 405.684,128.569 404.574,129.96 402.97,130.733 401.19,130.733 399.586,129.96 398.476,128.569 398.08,126.833 398.476,125.098 399.586,123.706 401.19,122.933 402.97,122.933 404.574,123.706 405.684,125.098 406.08,126.833" stroke-linejoin="round" stroke="#d85218" stroke-linecap="round" fill="none"/>
  </g>
  <clipPath id="cp00576432">
   <polygon points="0,432 576,432 576,0 0,0"/>
  </clipPath>
  <g clip-path="url(#cp00576432)">
   <polygon shape-rendering="crispEdges" points="412.801,376.734 497.734,376.734 497.734,341.667 412.801,341.667" fill="#ffffff"/>
   <polyline stroke-width="0.5" points="412.801,376.734 497.734,376.734" stroke-linejoin="miter" stroke="#262626" stroke-dasharray="16,0" stroke-linecap="square" fill="none"/>
   <polyline stroke-width="0.5" points="412.801,341.667 497.734,341.667" stroke-linejoin="miter" stroke="#262626" stroke-dasharray="16,0" stroke-linecap="square" fill="none"/>
   <polyline stroke-width="0.5" points="412.801,376.734 412.801,341.667" stroke-linejoin="miter" stroke="#262626" stroke-dasharray="16,0" stroke-linecap="square" fill="none"/>
   <polyline stroke-width="0.5" points="497.734,376.734 497.734,341.667" stroke-linejoin="miter" stroke="#262626" stroke-dasharray="16,0" stroke-linecap="square" fill="none"/>
   <text transform="translate(435.089,356.934) rotate(-0,-0,-6.5)" font-family="CMU Serif" font-weight="normal" font-size="18" xml:space="preserve" font-style="normal">
    <tspan x="0 14 27 36 " y="-0" fill="rgb(0,0,0)">KT28</tspan>
   </text>
   <text transform="translate(435.089,374.467) rotate(-0,-0,-6.5)" font-family="CMU Serif" font-weight="normal" font-size="18" xml:space="preserve" font-style="normal">
    <tspan x="0 14 23 32 41 47 " y="-0" fill="rgb(0,0,0)">K163-T</tspan>
   </text>
   <polyline stroke-width="3" points="415.445,350.434 432.445,350.434" stroke-linejoin="round" stroke="#0071bc" stroke-linecap="butt" fill="none"/>
   <polyline stroke-width="3" points="415.445,367.967 432.445,367.967" stroke-linejoin="round" stroke="#d85218" stroke-linecap="butt" fill="none"/>
  </g>
 </g>
</svg>
