<?xml version='1.0' encoding='UTF-8' standalone='no'?>
<svg height="432pt" xmlns="http://www.w3.org/2000/svg" viewBox="0 0 576 432" xmlns:xlink="http://www.w3.org/1999/xlink" width="576pt">
 <title>gl2ps_renderer figure</title>
 <desc>
Creator: GL2PS 1.4.0, (C) 1999-2017 C. Geuzaine
For: Octave
CreationDate: Fri Jul 03 13:21:21 2020
</desc>
 <defs/>
 <polygon fill="#ffffff" points="0,0 576,0 576,432 0,432"/>
 <g>
  <polygon shape-rendering="crispEdges" fill="#ffffff" points="0,432 576,432 576,0 0,0"/>
  <clipPath id="cp00576432">
   <polygon points="0,432 576,432 576,0 0,0"/>
  </clipPath>
  <g clip-path="url(#cp00576432)">
   <polygon shape-rendering="crispEdges" fill="#ffffff" points="92.0081,363.496 521.28,363.496 521.28,32.4 92.0081,32.4"/>
   <polyline stroke-linejoin="miter" stroke-width="0.5" stroke-opacity="0.15" stroke="#262626" stroke-dasharray="16,0" fill="none" stroke-linecap="butt" points="92.0081,363.496 92.0081,32.4"/>
   <polyline stroke-linejoin="miter" stroke-width="0.5" stroke-opacity="0.15" stroke="#262626" stroke-dasharray="16,0" fill="none" stroke-linecap="butt" points="199.326,363.496 199.326,32.4"/>
   <polyline stroke-linejoin="miter" stroke-width="0.5" stroke-opacity="0.15" stroke="#262626" stroke-dasharray="16,0" fill="none" stroke-linecap="butt" points="306.644,363.496 306.644,32.4"/>
   <polyline stroke-linejoin="miter" stroke-width="0.5" stroke-opacity="0.15" stroke="#262626" stroke-dasharray="16,0" fill="none" stroke-linecap="butt" points="413.962,363.496 413.962,32.4"/>
   <polyline stroke-linejoin="miter" stroke-width="0.5" stroke-opacity="0.15" stroke="#262626" stroke-dasharray="16,0" fill="none" stroke-linecap="butt" points="521.28,363.496 521.28,32.4"/>
   <polyline stroke-linejoin="miter" stroke-width="0.5" stroke="#262626" fill="none" stroke-linecap="butt" points="92.0081,363.496 92.0081,359.202"/>
   <polyline stroke-linejoin="miter" stroke-width="0.5" stroke="#262626" fill="none" stroke-linecap="butt" points="92.0081,32.4 92.0081,36.694"/>
   <polyline stroke-linejoin="miter" stroke-width="0.5" stroke="#262626" fill="none" stroke-linecap="butt" points="199.326,363.496 199.326,359.202"/>
   <polyline stroke-linejoin="miter" stroke-width="0.5" stroke="#262626" fill="none" stroke-linecap="butt" points="199.326,32.4 199.326,36.694"/>
   <polyline stroke-linejoin="miter" stroke-width="0.5" stroke="#262626" fill="none" stroke-linecap="butt" points="306.644,363.496 306.644,359.202"/>
   <polyline stroke-linejoin="miter" stroke-width="0.5" stroke="#262626" fill="none" stroke-linecap="butt" points="306.644,32.4 306.644,36.694"/>
   <polyline stroke-linejoin="miter" stroke-width="0.5" stroke="#262626" fill="none" stroke-linecap="butt" points="413.962,363.496 413.962,359.202"/>
   <polyline stroke-linejoin="miter" stroke-width="0.5" stroke="#262626" fill="none" stroke-linecap="butt" points="413.962,32.4 413.962,36.694"/>
   <polyline stroke-linejoin="miter" stroke-width="0.5" stroke="#262626" fill="none" stroke-linecap="butt" points="521.28,363.496 521.28,359.202"/>
   <polyline stroke-linejoin="miter" stroke-width="0.5" stroke="#262626" fill="none" stroke-linecap="butt" points="521.28,32.4 521.28,36.694"/>
   <text xml:space="preserve" font-family="CMU Serif" font-size="18" transform="translate(87.5081,390) rotate(-0,4.5,-13)" font-weight="normal" font-style="normal">
    <tspan y="-0" fill="rgb(38,38,38)" x="0 ">0</tspan>
   </text>
   <text xml:space="preserve" font-family="CMU Serif" font-size="18" transform="translate(194.826,390) rotate(-0,4.5,-13)" font-weight="normal" font-style="normal">
    <tspan y="-0" fill="rgb(38,38,38)" x="0 ">5</tspan>
   </text>
   <text xml:space="preserve" font-family="CMU Serif" font-size="18" transform="translate(297.644,390) rotate(-0,9,-13)" font-weight="normal" font-style="normal">
    <tspan y="-0" fill="rgb(38,38,38)" x="0 9 ">10</tspan>
   </text>
   <text xml:space="preserve" font-family="CMU Serif" font-size="18" transform="translate(404.962,390) rotate(-0,9,-13)" font-weight="normal" font-style="normal">
    <tspan y="-0" fill="rgb(38,38,38)" x="0 9 ">15</tspan>
   </text>
   <text xml:space="preserve" font-family="CMU Serif" font-size="18" transform="translate(512.28,390) rotate(-0,9,-13)" font-weight="normal" font-style="normal">
    <tspan y="-0" fill="rgb(38,38,38)" x="0 9 ">20</tspan>
   </text>
   <polyline stroke-linejoin="miter" stroke-width="0.5" stroke-opacity="0.15" stroke="#262626" stroke-dasharray="16,0" fill="none" stroke-linecap="butt" points="92.0081,363.496 521.28,363.496"/>
   <polyline stroke-linejoin="miter" stroke-width="0.5" stroke-opacity="0.15" stroke="#262626" stroke-dasharray="16,0" fill="none" stroke-linecap="butt" points="92.0081,308.313 521.28,308.313"/>
   <polyline stroke-linejoin="miter" stroke-width="0.5" stroke-opacity="0.15" stroke="#262626" stroke-dasharray="16,0" fill="none" stroke-linecap="butt" points="92.0081,253.131 521.28,253.131"/>
   <polyline stroke-linejoin="miter" stroke-width="0.5" stroke-opacity="0.15" stroke="#262626" stroke-dasharray="16,0" fill="none" stroke-linecap="butt" points="92.0081,197.948 521.28,197.948"/>
   <polyline stroke-linejoin="miter" stroke-width="0.5" stroke-opacity="0.15" stroke="#262626" stroke-dasharray="16,0" fill="none" stroke-linecap="butt" points="92.0081,142.765 521.28,142.765"/>
   <polyline stroke-linejoin="miter" stroke-width="0.5" stroke-opacity="0.15" stroke="#262626" stroke-dasharray="16,0" fill="none" stroke-linecap="butt" points="92.0081,87.5827 521.28,87.5827"/>
   <polyline stroke-linejoin="miter" stroke-width="0.5" stroke-opacity="0.15" stroke="#262626" stroke-dasharray="16,0" fill="none" stroke-linecap="butt" points="92.0081,32.4 521.28,32.4"/>
   <polyline stroke-linejoin="miter" stroke-width="0.5" stroke="#262626" fill="none" stroke-linecap="butt" points="92.0081,363.496 96.3035,363.496"/>
   <polyline stroke-linejoin="miter" stroke-width="0.5" stroke="#262626" fill="none" stroke-linecap="butt" points="521.28,363.496 516.985,363.496"/>
   <polyline stroke-linejoin="miter" stroke-width="0.5" stroke="#262626" fill="none" stroke-linecap="butt" points="92.0081,308.313 96.3035,308.313"/>
   <polyline stroke-linejoin="miter" stroke-width="0.5" stroke="#262626" fill="none" stroke-linecap="butt" points="521.28,308.313 516.985,308.313"/>
   <polyline stroke-linejoin="miter" stroke-width="0.5" stroke="#262626" fill="none" stroke-linecap="butt" points="92.0081,253.131 96.3035,253.131"/>
   <polyline stroke-linejoin="miter" stroke-width="0.5" stroke="#262626" fill="none" stroke-linecap="butt" points="521.28,253.131 516.985,253.131"/>
   <polyline stroke-linejoin="miter" stroke-width="0.5" stroke="#262626" fill="none" stroke-linecap="butt" points="92.0081,197.948 96.3035,197.948"/>
   <polyline stroke-linejoin="miter" stroke-width="0.5" stroke="#262626" fill="none" stroke-linecap="butt" points="521.28,197.948 516.985,197.948"/>
   <polyline stroke-linejoin="miter" stroke-width="0.5" stroke="#262626" fill="none" stroke-linecap="butt" points="92.0081,142.765 96.3035,142.765"/>
   <polyline stroke-linejoin="miter" stroke-width="0.5" stroke="#262626" fill="none" stroke-linecap="butt" points="521.28,142.765 516.985,142.765"/>
   <polyline stroke-linejoin="miter" stroke-width="0.5" stroke="#262626" fill="none" stroke-linecap="butt" points="92.0081,87.5827 96.3035,87.5827"/>
   <polyline stroke-linejoin="miter" stroke-width="0.5" stroke="#262626" fill="none" stroke-linecap="butt" points="521.28,87.5827 516.985,87.5827"/>
   <polyline stroke-linejoin="miter" stroke-width="0.5" stroke="#262626" fill="none" stroke-linecap="butt" points="92.0081,32.4 96.3035,32.4"/>
   <polyline stroke-linejoin="miter" stroke-width="0.5" stroke="#262626" fill="none" stroke-linecap="butt" points="521.28,32.4 516.985,32.4"/>
   <text xml:space="preserve" font-family="CMU Serif" font-size="18" transform="translate(74.0024,369.996) rotate(-0,9,-6.5)" font-weight="normal" font-style="normal">
    <tspan y="-0" fill="rgb(38,38,38)" x="0 ">0</tspan>
   </text>
   <text xml:space="preserve" font-family="CMU Serif" font-size="18" transform="translate(47.0024,314.813) rotate(-0,36,-6.5)" font-weight="normal" font-style="normal">
    <tspan y="-0" fill="rgb(38,38,38)" x="0 9 18 27 ">2000</tspan>
   </text>
   <text xml:space="preserve" font-family="CMU Serif" font-size="18" transform="translate(47.0024,259.631) rotate(-0,36,-6.5)" font-weight="normal" font-style="normal">
    <tspan y="-0" fill="rgb(38,38,38)" x="0 9 18 27 ">4000</tspan>
   </text>
   <text xml:space="preserve" font-family="CMU Serif" font-size="18" transform="translate(47.0024,204.448) rotate(-0,36,-6.5)" font-weight="normal" font-style="normal">
    <tspan y="-0" fill="rgb(38,38,38)" x="0 9 18 27 ">6000</tspan>
   </text>
   <text xml:space="preserve" font-family="CMU Serif" font-size="18" transform="translate(47.0024,149.265) rotate(-0,36,-6.5)" font-weight="normal" font-style="normal">
    <tspan y="-0" fill="rgb(38,38,38)" x="0 9 18 27 ">8000</tspan>
   </text>
   <text xml:space="preserve" font-family="CMU Serif" font-size="18" transform="translate(38.0024,94.0827) rotate(-0,45,-6.5)" font-weight="normal" font-style="normal">
    <tspan y="-0" fill="rgb(38,38,38)" x="0 9 18 27 36 ">10000</tspan>
   </text>
   <text xml:space="preserve" font-family="CMU Serif" font-size="18" transform="translate(38.0024,38.9) rotate(-0,45,-6.5)" font-weight="normal" font-style="normal">
    <tspan y="-0" fill="rgb(38,38,38)" x="0 9 18 27 36 ">12000</tspan>
   </text>
   <polyline stroke-linejoin="miter" stroke-width="0.5" stroke="#262626" stroke-dasharray="16,0" fill="none" stroke-linecap="square" points="92.0081,363.496 521.28,363.496"/>
   <polyline stroke-linejoin="miter" stroke-width="0.5" stroke="#262626" stroke-dasharray="16,0" fill="none" stroke-linecap="square" points="92.0081,32.4 521.28,32.4"/>
   <polyline stroke-linejoin="miter" stroke-width="0.5" stroke="#262626" stroke-dasharray="16,0" fill="none" stroke-linecap="square" points="92.0081,363.496 92.0081,32.4"/>
   <polyline stroke-linejoin="miter" stroke-width="0.5" stroke="#262626" stroke-dasharray="16,0" fill="none" stroke-linecap="square" points="521.28,363.496 521.28,32.4"/>
   <text xml:space="preserve" font-family="CMU Serif" font-size="19.8" transform="translate(274.144,432) rotate(-0,32.5,-37)" font-weight="normal" font-style="normal">
    <tspan y="-20" fill="rgb(38,38,38)" x="0 ">h</tspan>
    <tspan y="-4" fill="rgb(38,38,38)" font-size="17.8" x="11 ">g</tspan>
    <tspan y="-20" fill="rgb(38,38,38)" x="20 27 33 42 59 "> [cm]</tspan>
   </text>
   <text xml:space="preserve" font-family="CMU Serif" font-size="19.8" transform="translate(-4.49763,197.948) rotate(-90,37.5,0)" font-weight="normal" font-style="normal">
    <tspan y="-16" fill="rgb(38,38,38)" x="0 ">F</tspan>
    <tspan y="-0" fill="rgb(38,38,38)" font-size="17.8" x="13 ">t</tspan>
    <tspan y="-16" fill="rgb(38,38,38)" x="20 27 33 44 54 69 "> [daN]</tspan>
   </text>
   <polyline stroke-linejoin="round" stroke-width="3" stroke="#0071bc" fill="none" stroke-linecap="butt" points="92.0081,353.339 92.3987,353.102 92.7893,352.865 93.18,352.628 93.5706,352.391 93.9612,352.154 94.3519,351.917 94.7425,351.68 95.1332,351.443 95.5238,351.206 95.9144,350.969 96.3051,350.732 96.6957,350.494 97.0863,350.257 97.477,350.02 97.8676,349.783 98.2583,349.546 98.6489,349.309 99.0395,349.072 99.4302,348.834 99.8208,348.597 100.211,348.36 100.602,348.123 100.993,347.886 101.383,347.648 101.774,347.411 102.165,347.174 102.555,346.937 102.946,346.699 103.337,346.462 103.727,346.225 104.118,345.987 104.508,345.75 104.899,345.512 105.29,345.275 105.68,345.038 106.071,344.8 106.462,344.563 106.852,344.325 107.243,344.088 107.634,343.85 108.024,343.612 108.415,343.375 108.805,343.137 109.196,342.9 109.587,342.662 109.977,342.424 110.368,342.187 110.759,341.949 111.149,341.711 111.54,341.473 111.931,341.235 112.321,340.998 112.712,340.76 113.102,340.522 113.493,340.284 113.884,340.046 114.274,339.808 114.665,339.57 115.056,339.332 115.446,339.094 115.837,338.856 116.228,338.618 116.618,338.38 117.009,338.141 117.399,337.903 117.79,337.665 118.181,337.427 118.571,337.188 118.962,336.95 119.353,336.711 119.743,336.473 120.134,336.235 120.525,335.996 120.915,335.758 121.306,335.519 121.697,335.28 122.087,335.042 122.478,334.803 122.868,334.564 123.259,334.326 123.65,334.087 124.04,333.848 124.431,333.609 124.822,333.37 125.212,333.131 125.603,332.892 125.994,332.653 126.384,332.414 126.775,332.175 127.165,331.936 127.556,331.697 127.947,331.458 128.337,331.218 128.728,330.979 129.119,330.74 129.509,330.5 129.9,330.261 130.291,330.021 130.681,329.782 131.072,329.542 131.462,329.302 131.853,329.063 132.244,328.823 132.634,328.583 133.025,328.343 133.416,328.104 133.806,327.864 134.197,327.624 134.588,327.384 134.978,327.144 135.369,326.903 135.759,326.663 136.15,326.423 136.541,326.183 136.931,325.942 137.322,325.702 137.713,325.462 138.103,325.221 138.494,324.98 138.885,324.74 139.275,324.499 139.666,324.259 140.056,324.018 140.447,323.777 140.838,323.536 141.228,323.295 141.619,323.054 142.01,322.813 142.4,322.572 142.791,322.331 143.182,322.09 143.572,321.848 143.963,321.607 144.353,321.366 144.744,321.124 145.135,320.883 145.525,320.641 145.916,320.399 146.307,320.158 146.697,319.916 147.088,319.674 147.479,319.432 147.869,319.19 148.26,318.948 148.65,318.706 149.041,318.464 149.432,318.222 149.822,317.979 150.213,317.737 150.604,317.495 150.994,317.252 151.385,317.01 151.776,316.767 152.166,316.524 152.557,316.282 152.948,316.039 153.338,315.796 153.729,315.553 154.119,315.31 154.51,315.067 154.901,314.824 155.291,314.58 155.682,314.337 156.073,314.094 156.463,313.85 156.854,313.607 157.245,313.363 157.635,313.119 158.026,312.875 158.416,312.632 158.807,312.388 159.198,312.144 159.588,311.9 159.979,311.656 160.37,311.411 160.76,311.167 161.151,310.923 161.542,310.678 161.932,310.434 162.323,310.189 162.713,309.944 163.104,309.7 163.495,309.455 163.885,309.21 164.276,308.965 164.667,308.72 165.057,308.475 165.448,308.229 165.839,307.984 166.229,307.739 166.62,307.493 167.01,307.248 167.401,307.002 167.792,306.756 168.182,306.51 168.573,306.264 168.964,306.018 169.354,305.772 169.745,305.526 170.136,305.28 170.526,305.034 170.917,304.787 171.307,304.541 171.698,304.294 172.089,304.047 172.479,303.801 172.87,303.554 173.261,303.307 173.651,303.06 174.042,302.813 174.433,302.565 174.823,302.318 175.214,302.07 175.604,301.823 175.995,301.575 176.386,301.328 176.776,301.08 177.167,300.832 177.558,300.584 177.948,300.336 178.339,300.088 178.73,299.839 179.12,299.591 179.511,299.343 179.901,299.094 180.292,298.845 180.683,298.597 181.073,298.348 181.464,298.099 181.855,297.85 182.245,297.601 182.636,297.351 183.027,297.102 183.417,296.853 183.808,296.603 184.199,296.353 184.589,296.104 184.98,295.854 185.37,295.604 185.761,295.354 186.152,295.103 186.542,294.853 186.933,294.603 187.324,294.352 187.714,294.102 188.105,293.851 188.496,293.6 188.886,293.349 189.277,293.098 189.667,292.847 190.058,292.596 190.449,292.345 190.839,292.093 191.23,291.842 191.621,291.59 192.011,291.338 192.402,291.086 192.793,290.834 193.183,290.582 193.574,290.33 193.964,290.078 194.355,289.825 194.746,289.573 195.136,289.32 195.527,289.067 195.918,288.814 196.308,288.561 196.699,288.308 197.09,288.055 197.48,287.802 197.871,287.548 198.261,287.295 198.652,287.041 199.043,286.787 199.433,286.533 199.824,286.279 200.215,286.025 200.605,285.771 200.996,285.516 201.387,285.262 201.777,285.007 202.168,284.752 202.558,284.497 202.949,284.242 203.34,283.987 203.73,283.732 204.121,283.477 204.512,283.221 204.902,282.966 205.293,282.71 205.684,282.454 206.074,282.198 206.465,281.942 206.855,281.686 207.246,281.429 207.637,281.173 208.027,280.916 208.418,280.659 208.809,280.403 209.199,280.146 209.59,279.888 209.981,279.631 210.371,279.374 210.762,279.116 211.152,278.859 211.543,278.601 211.934,278.343 212.324,278.085 212.715,277.827 213.106,277.568 213.496,277.31 213.887,277.051 214.278,276.793 214.668,276.534 215.059,276.275 215.45,276.016 215.84,275.757 216.231,275.497 216.621,275.238 217.012,274.978 217.403,274.718 217.793,274.458 218.184,274.198 218.575,273.938 218.965,273.678 219.356,273.417 219.747,273.157 220.137,272.896 220.528,272.635 220.918,272.374 221.309,272.113 221.7,271.852 222.09,271.59 222.481,271.329 222.872,271.067 223.262,270.805 223.653,270.543 224.044,270.281 224.434,270.019 224.825,269.756 225.215,269.494 225.606,269.231 225.997,268.968 226.387,268.705 226.778,268.442 227.169,268.179 227.559,267.915 227.95,267.652 228.341,267.388 228.731,267.124 229.122,266.86 229.512,266.596 229.903,266.331 230.294,266.067 230.684,265.802 231.075,265.537 231.466,265.273 231.856,265.007 232.247,264.742 232.638,264.477 233.028,264.211 233.419,263.946 233.809,263.68 234.2,263.414 234.591,263.148 234.981,262.881 235.372,262.615 235.763,262.348 236.153,262.081 236.544,261.814 236.935,261.547 237.325,261.28 237.716,261.013 238.106,260.745 238.497,260.477 238.888,260.209 239.278,259.941 239.669,259.673 240.06,259.405 240.45,259.136 240.841,258.868 241.232,258.599 241.622,258.33 242.013,258.061 242.403,257.791 242.794,257.522 243.185,257.252 243.575,256.982 243.966,256.712 244.357,256.442 244.747,256.172 245.138,255.901 245.529,255.631 245.919,255.36 246.31,255.089 246.701,254.818 247.091,254.547 247.482,254.275 247.872,254.004 248.263,253.732 248.654,253.46 249.044,253.188 249.435,252.915 249.826,252.643 250.216,252.37 250.607,252.097 250.998,251.824 251.388,251.551 251.779,251.278 252.169,251.004 252.56,250.731 252.951,250.457 253.341,250.183 253.732,249.908 254.123,249.634 254.513,249.36 254.904,249.085 255.295,248.81 255.685,248.535 256.076,248.26 256.466,247.984 256.857,247.709 257.248,247.433 257.638,247.157 258.029,246.881 258.42,246.604 258.81,246.328 259.201,246.051 259.592,245.774 259.982,245.497 260.373,245.22 260.763,244.943 261.154,244.665 261.545,244.387 261.935,244.109 262.326,243.831 262.717,243.553 263.107,243.274 263.498,242.996 263.889,242.717 264.279,242.438 264.67,242.158 265.06,241.879 265.451,241.599 265.842,241.32 266.232,241.04 266.623,240.759 267.014,240.479 267.404,240.199 267.795,239.918 268.186,239.637 268.576,239.356 268.967,239.074 269.357,238.793 269.748,238.511 270.139,238.229 270.529,237.947 270.92,237.665 271.311,237.383 271.701,237.1 272.092,236.817 272.483,236.534 272.873,236.251 273.264,235.967 273.655,235.684 274.045,235.4 274.436,235.116 274.826,234.832 275.217,234.547 275.608,234.263 275.998,233.978 276.389,233.693 276.78,233.408 277.17,233.122 277.561,232.837 277.952,232.551 278.342,232.265 278.733,231.979 279.123,231.693 279.514,231.406 279.905,231.119 280.295,230.832 280.686,230.545 281.077,230.258 281.467,229.97 281.858,229.682 282.249,229.394 282.639,229.106 283.03,228.818 283.42,228.529 283.811,228.24 284.202,227.951 284.592,227.662 284.983,227.372 285.374,227.083 285.764,226.793 286.155,226.503 286.546,226.213 286.936,225.922 287.327,225.631 287.717,225.341 288.108,225.049 288.499,224.758 288.889,224.467 289.28,224.175 289.671,223.883 290.061,223.591 290.452,223.298 290.843,223.006 291.233,222.713 291.624,222.42 292.014,222.127 292.405,221.833 292.796,221.54 293.186,221.246 293.577,220.952 293.968,220.657 294.358,220.363 294.749,220.068 295.14,219.773 295.53,219.478 295.921,219.183 296.311,218.887 296.702,218.591 297.093,218.295 297.483,217.999 297.874,217.702 298.265,217.406 298.655,217.109 299.046,216.812 299.437,216.514 299.827,216.217 300.218,215.919 300.608,215.621 300.999,215.323 301.39,215.024 301.78,214.725 302.171,214.426 302.562,214.127 302.952,213.828 303.343,213.528 303.734,213.229 304.124,212.928 304.515,212.628 304.905,212.328 305.296,212.027 305.687,211.726 306.077,211.425 306.468,211.123 306.859,210.822 307.249,210.52 307.64,210.218 308.031,209.915 308.421,209.613 308.812,209.31 309.202,209.007 309.593,208.704 309.984,208.4 310.374,208.096 310.765,207.792 311.156,207.488 311.546,207.184 311.937,206.879 312.328,206.574 312.718,206.269 313.109,205.964 313.5,205.658 313.89,205.352 314.281,205.046 314.671,204.74 315.062,204.433 315.453,204.126 315.843,203.819 316.234,203.512 316.625,203.205 317.015,202.897 317.406,202.589 317.797,202.281 318.187,201.972 318.578,201.663 318.968,201.354 319.359,201.045 319.75,200.736 320.14,200.426 320.531,200.116 320.922,199.806 321.312,199.496 321.703,199.185 322.094,198.874 322.484,198.563 322.875,198.251 323.265,197.94 323.656,197.628 324.047,197.316 324.437,197.003 324.828,196.691 325.219,196.378 325.609,196.065 326,195.751 326.391,195.438 326.781,195.124 327.172,194.81 327.562,194.495 327.953,194.181 328.344,193.866 328.734,193.551 329.125,193.235 329.516,192.92 329.906,192.604 330.297,192.287 330.688,191.971 331.078,191.654 331.469,191.337 331.859,191.02 332.25,190.703 332.641,190.385 333.031,190.067 333.422,189.749 333.813,189.431 334.203,189.112 334.594,188.793 334.985,188.474 335.375,188.154 335.766,187.834 336.156,187.514 336.547,187.194 336.938,186.874 337.328,186.553 337.719,186.232 338.11,185.91 338.5,185.589 338.891,185.267 339.282,184.945 339.672,184.623 340.063,184.3 340.453,183.977 340.844,183.654 341.235,183.33 341.625,183.007 342.016,182.683 342.407,182.359 342.797,182.034 343.188,181.709 343.579,181.384 343.969,181.059 344.36,180.733 344.751,180.408 345.141,180.081 345.532,179.755 345.922,179.428 346.313,179.102 346.704,178.774 347.094,178.447 347.485,178.119 347.876,177.791 348.266,177.463 348.657,177.134 349.048,176.806 349.438,176.477 349.829,176.147 350.219,175.818 350.61,175.488 351.001,175.157 351.391,174.827 351.782,174.496 352.173,174.165 352.563,173.834 352.954,173.502 353.345,173.17 353.735,172.838 354.126,172.506 354.516,172.173 354.907,171.84 355.298,171.507 355.688,171.174 356.079,170.84 356.47,170.506 356.86,170.171 357.251,169.837 357.642,169.502 358.032,169.167 358.423,168.831 358.813,168.495 359.204,168.159 359.595,167.823 359.985,167.486 360.376,167.149 360.767,166.812 361.157,166.475 361.548,166.137 361.939,165.799 362.329,165.46 362.72,165.122 363.11,164.783 363.501,164.444 363.892,164.104 364.282,163.764 364.673,163.424 365.064,163.084 365.454,162.743 365.845,162.402 366.236,162.061 366.626,161.72 367.017,161.378 367.408,161.036 367.798,160.693 368.189,160.35 368.579,160.007 368.97,159.664 369.361,159.321 369.751,158.977 370.142,158.633 370.533,158.288 370.923,157.943 371.314,157.598 371.705,157.253 372.095,156.907 372.486,156.561 372.876,156.215 373.267,155.868 373.658,155.522 374.048,155.174 374.439,154.827 374.83,154.479 375.22,154.131 375.611,153.783 376.002,153.434 376.392,153.085 376.783,152.736 377.173,152.386 377.564,152.037 377.955,151.686 378.345,151.336 378.736,150.985 379.127,150.634 379.517,150.283 379.908,149.931 380.299,149.579 380.689,149.227 381.08,148.874 381.47,148.521 381.861,148.168 382.252,147.814 382.642,147.461 383.033,147.107 383.424,146.752 383.814,146.397 384.205,146.042 384.596,145.687 384.986,145.331 385.377,144.975 385.767,144.619 386.158,144.262 386.549,143.905 386.939,143.548 387.33,143.19 387.721,142.833 388.111,142.474 388.502,142.116 388.893,141.757 389.283,141.398 389.674,141.038 390.064,140.679 390.455,140.319 390.846,139.958 391.236,139.597 391.627,139.236 392.018,138.875 392.408,138.513 392.799,138.151 393.19,137.789 393.58,137.426 393.971,137.063 394.361,136.7 394.752,136.337 395.143,135.973 395.533,135.608 395.924,135.244 396.315,134.879 396.705,134.514 397.096,134.148 397.487,133.782 397.877,133.416 398.268,133.05 398.658,132.683 399.049,132.316 399.44,131.948 399.83,131.58 400.221,131.212 400.612,130.844 401.002,130.475 401.393,130.106 401.784,129.737 402.174,129.367 402.565,128.997 402.956,128.626 403.346,128.255 403.737,127.884 404.127,127.513 404.518,127.141 404.909,126.769 405.299,126.397 405.69,126.024 406.081,125.651 406.471,125.277 406.862,124.904 407.253,124.53 407.643,124.155 408.034,123.78 408.424,123.405 408.815,123.03 409.206,122.654 409.596,122.278 409.987,121.902 410.378,121.525 410.768,121.148 411.159,120.77 411.55,120.393 411.94,120.014 412.331,119.636 412.721,119.257 413.112,118.878 413.503,118.499 413.893,118.119 414.284,117.739 414.675,117.358 415.065,116.977 415.456,116.596 415.847,116.215 416.237,115.833 416.628,115.451 417.018,115.068 417.409,114.685 417.8,114.302 418.19,113.918 418.581,113.534 418.972,113.15 419.362,112.765 419.753,112.38 420.144,111.995 420.534,111.609 420.925,111.223 421.315,110.837 421.706,110.45 422.097,110.063 422.487,109.676 422.878,109.288 423.269,108.9 423.659,108.511 424.05,108.123 424.441,107.733 424.831,107.344 425.222,106.954 425.612,106.564 426.003,106.173 426.394,105.782 426.784,105.391 427.175,104.999 427.566,104.607 427.956,104.215 428.347,103.822 428.738,103.429 429.128,103.036 429.519,102.642 429.91,102.248 430.3,101.853 430.691,101.458 431.081,101.063 431.472,100.668 431.863,100.272 432.253,99.8754 432.644,99.4788 433.035,99.0817 433.425,98.6844 433.816,98.2866 434.207,97.8885 434.597,97.4901 434.988,97.0912 435.378,96.692 435.769,96.2924 436.16,95.8925 436.55,95.4923 436.941,95.0916 437.332,94.6906 437.722,94.2892 438.113,93.8875 438.504,93.4854 438.894,93.0829 439.285,92.6801 439.675,92.2768 440.066,91.8733 440.457,91.4693 440.847,91.065 441.238,90.6603 441.629,90.2552 442.019,89.8498 442.41,89.444 442.801,89.0378 443.191,88.6313 443.582,88.2244 443.972,87.8171 444.363,87.4095 444.754,87.0014 445.144,86.593 445.535,86.1842 445.926,85.7751 446.316,85.3656 446.707,84.9557 447.098,84.5453 447.488,84.1347 447.879,83.7237 448.269,83.3123 448.66,82.9005 449.051,82.4883 449.441,82.0758 449.832,81.6629 450.223,81.2496 450.613,80.8359 451.004,80.4218 451.395,80.0074 451.785,79.5926 452.176,79.1774 452.566,78.7618 452.957,78.3459 453.348,77.9296 453.738,77.5128 454.129,77.0957 454.52,76.6783 454.91,76.2604 455.301,75.8421 455.692,75.4235 456.082,75.0045 456.473,74.5851 456.863,74.1653 457.254,73.7451 457.645,73.3245 458.035,72.9035 458.426,72.4822 458.817,72.0605 459.207,71.6384 459.598,71.2159 459.989,70.7929 460.379,70.3697 460.77,69.946 461.16,69.5219 461.551,69.0975 461.942,68.6726 462.332,68.2474 462.723,67.8218 463.114,67.3958 463.504,66.9693 463.895,66.5425 464.286,66.1153 464.676,65.6877 465.067,65.2597 465.458,64.8314 465.848,64.4026 466.239,63.9734 466.629,63.5439 467.02,63.1139 467.411,62.6835 467.801,62.2528 468.192,61.8216 468.583,61.39 468.973,60.9581 469.364,60.5258 469.755,60.093 470.145,59.6599 470.536,59.2263 470.926,58.7923 471.317,58.358 471.708,57.9232 472.098,57.4881 472.489,57.0526 472.88,56.6166 473.27,56.1803 473.661,55.7435 474.052,55.3063 474.442,54.8687 474.833,54.4308 475.223,53.9924 475.614,53.5536 476.005,53.1144 476.395,52.6748 476.786,52.2348 477.177,51.7944 477.567,51.3536 477.958,50.9124 478.349,50.4708 478.739,50.0287 479.13,49.5863 479.52,49.1434 479.911,48.7001 480.302,48.2565 480.692,47.8124 481.083,47.3679 481.474,46.923 481.864,46.4777 482.255,46.0319 482.646,45.5858"/>
   <polyline stroke-linejoin="round" stroke-width="2" stroke="#d85218" fill="none" stroke-linecap="butt" points="376.562,363.496 376.562,152.933 92.0081,152.933"/>
   <polygon shape-rendering="crispEdges" fill="#ffffff" points="380.166,154.669 379.056,156.061 377.452,156.833 375.672,156.833 374.068,156.061 372.958,154.669 372.562,152.933 372.958,151.198 374.068,149.806 375.672,149.034 377.452,149.034 379.056,149.806 380.166,151.198 380.562,152.933"/>
   <polyline stroke-linejoin="round" stroke-width="3" stroke="#0071bc" fill="none" stroke-linecap="round" points="380.562,152.933 380.166,154.669 379.056,156.061 377.452,156.833 375.672,156.833 374.068,156.061 372.958,154.669 372.562,152.933 372.958,151.198 374.068,149.806 375.672,149.034 377.452,149.034 379.056,149.806 380.166,151.198 380.562,152.933"/>
  </g>
 </g>
</svg>
